G04 #@! TF.FileFunction,Legend,Top*
%FSLAX46Y46*%
G04 Gerber Fmt 4.6, Leading zero omitted, Abs format (unit mm)*
G04 Created by KiCad (PCBNEW 4.0.7) date 11/20/17 17:17:03*
%MOMM*%
%LPD*%
G01*
G04 APERTURE LIST*
%ADD10C,0.100000*%
%ADD11C,0.190500*%
%ADD12C,0.300000*%
%ADD13C,0.120000*%
%ADD14C,0.010000*%
%ADD15C,0.150000*%
G04 APERTURE END LIST*
D10*
D11*
X176312286Y-128844524D02*
X175876858Y-128844524D01*
X176094572Y-128844524D02*
X176094572Y-127574524D01*
X176022001Y-127755952D01*
X175949429Y-127876905D01*
X175876858Y-127937381D01*
X176602572Y-127695476D02*
X176638858Y-127635000D01*
X176711429Y-127574524D01*
X176892858Y-127574524D01*
X176965429Y-127635000D01*
X177001715Y-127695476D01*
X177038000Y-127816429D01*
X177038000Y-127937381D01*
X177001715Y-128118810D01*
X176566286Y-128844524D01*
X177038000Y-128844524D01*
X177255714Y-127574524D02*
X177509714Y-128844524D01*
X177763714Y-127574524D01*
X177836286Y-128965476D02*
X178416857Y-128965476D01*
X178598286Y-128844524D02*
X178598286Y-127574524D01*
X178961143Y-128844524D02*
X178961143Y-127574524D01*
X179396571Y-128844524D01*
X179396571Y-127574524D01*
X179759429Y-128844524D02*
X179759429Y-127574524D01*
X179940857Y-127574524D01*
X180049714Y-127635000D01*
X180122286Y-127755952D01*
X180158571Y-127876905D01*
X180194857Y-128118810D01*
X180194857Y-128300238D01*
X180158571Y-128542143D01*
X180122286Y-128663095D01*
X180049714Y-128784048D01*
X179940857Y-128844524D01*
X179759429Y-128844524D01*
X177001715Y-123764524D02*
X176638858Y-123764524D01*
X176602572Y-124369286D01*
X176638858Y-124308810D01*
X176711429Y-124248333D01*
X176892858Y-124248333D01*
X176965429Y-124308810D01*
X177001715Y-124369286D01*
X177038000Y-124490238D01*
X177038000Y-124792619D01*
X177001715Y-124913571D01*
X176965429Y-124974048D01*
X176892858Y-125034524D01*
X176711429Y-125034524D01*
X176638858Y-124974048D01*
X176602572Y-124913571D01*
X177255714Y-123764524D02*
X177509714Y-125034524D01*
X177763714Y-123764524D01*
X177836286Y-125155476D02*
X178416857Y-125155476D01*
X178598286Y-125034524D02*
X178598286Y-123764524D01*
X178961143Y-125034524D02*
X178961143Y-123764524D01*
X179396571Y-125034524D01*
X179396571Y-123764524D01*
X179759429Y-125034524D02*
X179759429Y-123764524D01*
X179940857Y-123764524D01*
X180049714Y-123825000D01*
X180122286Y-123945952D01*
X180158571Y-124066905D01*
X180194857Y-124308810D01*
X180194857Y-124490238D01*
X180158571Y-124732143D01*
X180122286Y-124853095D01*
X180049714Y-124974048D01*
X179940857Y-125034524D01*
X179759429Y-125034524D01*
X155514524Y-102470857D02*
X156421667Y-102470857D01*
X156603095Y-102507143D01*
X156724048Y-102579714D01*
X156784524Y-102688571D01*
X156784524Y-102761143D01*
X156724048Y-102144286D02*
X156784524Y-102035429D01*
X156784524Y-101854000D01*
X156724048Y-101781429D01*
X156663571Y-101745143D01*
X156542619Y-101708858D01*
X156421667Y-101708858D01*
X156300714Y-101745143D01*
X156240238Y-101781429D01*
X156179762Y-101854000D01*
X156119286Y-101999143D01*
X156058810Y-102071715D01*
X155998333Y-102108000D01*
X155877381Y-102144286D01*
X155756429Y-102144286D01*
X155635476Y-102108000D01*
X155575000Y-102071715D01*
X155514524Y-101999143D01*
X155514524Y-101817715D01*
X155575000Y-101708858D01*
X155514524Y-101237144D02*
X155514524Y-101092001D01*
X155575000Y-101019429D01*
X155695952Y-100946858D01*
X155937857Y-100910572D01*
X156361190Y-100910572D01*
X156603095Y-100946858D01*
X156724048Y-101019429D01*
X156784524Y-101092001D01*
X156784524Y-101237144D01*
X156724048Y-101309715D01*
X156603095Y-101382286D01*
X156361190Y-101418572D01*
X155937857Y-101418572D01*
X155695952Y-101382286D01*
X155575000Y-101309715D01*
X155514524Y-101237144D01*
X155514524Y-100584000D02*
X156542619Y-100584000D01*
X156663571Y-100547715D01*
X156724048Y-100511429D01*
X156784524Y-100438858D01*
X156784524Y-100293715D01*
X156724048Y-100221143D01*
X156663571Y-100184858D01*
X156542619Y-100148572D01*
X155514524Y-100148572D01*
X155514524Y-99894572D02*
X155514524Y-99459143D01*
X156784524Y-99676857D02*
X155514524Y-99676857D01*
X155514524Y-99277715D02*
X155514524Y-98806001D01*
X155998333Y-99060001D01*
X155998333Y-98951143D01*
X156058810Y-98878572D01*
X156119286Y-98842286D01*
X156240238Y-98806001D01*
X156542619Y-98806001D01*
X156663571Y-98842286D01*
X156724048Y-98878572D01*
X156784524Y-98951143D01*
X156784524Y-99168858D01*
X156724048Y-99241429D01*
X156663571Y-99277715D01*
X158054524Y-102470857D02*
X158961667Y-102470857D01*
X159143095Y-102507143D01*
X159264048Y-102579714D01*
X159324524Y-102688571D01*
X159324524Y-102761143D01*
X159264048Y-102144286D02*
X159324524Y-102035429D01*
X159324524Y-101854000D01*
X159264048Y-101781429D01*
X159203571Y-101745143D01*
X159082619Y-101708858D01*
X158961667Y-101708858D01*
X158840714Y-101745143D01*
X158780238Y-101781429D01*
X158719762Y-101854000D01*
X158659286Y-101999143D01*
X158598810Y-102071715D01*
X158538333Y-102108000D01*
X158417381Y-102144286D01*
X158296429Y-102144286D01*
X158175476Y-102108000D01*
X158115000Y-102071715D01*
X158054524Y-101999143D01*
X158054524Y-101817715D01*
X158115000Y-101708858D01*
X158054524Y-101237144D02*
X158054524Y-101092001D01*
X158115000Y-101019429D01*
X158235952Y-100946858D01*
X158477857Y-100910572D01*
X158901190Y-100910572D01*
X159143095Y-100946858D01*
X159264048Y-101019429D01*
X159324524Y-101092001D01*
X159324524Y-101237144D01*
X159264048Y-101309715D01*
X159143095Y-101382286D01*
X158901190Y-101418572D01*
X158477857Y-101418572D01*
X158235952Y-101382286D01*
X158115000Y-101309715D01*
X158054524Y-101237144D01*
X158054524Y-100584000D02*
X159082619Y-100584000D01*
X159203571Y-100547715D01*
X159264048Y-100511429D01*
X159324524Y-100438858D01*
X159324524Y-100293715D01*
X159264048Y-100221143D01*
X159203571Y-100184858D01*
X159082619Y-100148572D01*
X158054524Y-100148572D01*
X158054524Y-99894572D02*
X158054524Y-99459143D01*
X159324524Y-99676857D02*
X158054524Y-99676857D01*
X158175476Y-99241429D02*
X158115000Y-99205143D01*
X158054524Y-99132572D01*
X158054524Y-98951143D01*
X158115000Y-98878572D01*
X158175476Y-98842286D01*
X158296429Y-98806001D01*
X158417381Y-98806001D01*
X158598810Y-98842286D01*
X159324524Y-99277715D01*
X159324524Y-98806001D01*
X160594524Y-102470857D02*
X161501667Y-102470857D01*
X161683095Y-102507143D01*
X161804048Y-102579714D01*
X161864524Y-102688571D01*
X161864524Y-102761143D01*
X161804048Y-102144286D02*
X161864524Y-102035429D01*
X161864524Y-101854000D01*
X161804048Y-101781429D01*
X161743571Y-101745143D01*
X161622619Y-101708858D01*
X161501667Y-101708858D01*
X161380714Y-101745143D01*
X161320238Y-101781429D01*
X161259762Y-101854000D01*
X161199286Y-101999143D01*
X161138810Y-102071715D01*
X161078333Y-102108000D01*
X160957381Y-102144286D01*
X160836429Y-102144286D01*
X160715476Y-102108000D01*
X160655000Y-102071715D01*
X160594524Y-101999143D01*
X160594524Y-101817715D01*
X160655000Y-101708858D01*
X160594524Y-101237144D02*
X160594524Y-101092001D01*
X160655000Y-101019429D01*
X160775952Y-100946858D01*
X161017857Y-100910572D01*
X161441190Y-100910572D01*
X161683095Y-100946858D01*
X161804048Y-101019429D01*
X161864524Y-101092001D01*
X161864524Y-101237144D01*
X161804048Y-101309715D01*
X161683095Y-101382286D01*
X161441190Y-101418572D01*
X161017857Y-101418572D01*
X160775952Y-101382286D01*
X160655000Y-101309715D01*
X160594524Y-101237144D01*
X160594524Y-100584000D02*
X161622619Y-100584000D01*
X161743571Y-100547715D01*
X161804048Y-100511429D01*
X161864524Y-100438858D01*
X161864524Y-100293715D01*
X161804048Y-100221143D01*
X161743571Y-100184858D01*
X161622619Y-100148572D01*
X160594524Y-100148572D01*
X160594524Y-99894572D02*
X160594524Y-99459143D01*
X161864524Y-99676857D02*
X160594524Y-99676857D01*
X161864524Y-98806001D02*
X161864524Y-99241429D01*
X161864524Y-99023715D02*
X160594524Y-99023715D01*
X160775952Y-99096286D01*
X160896905Y-99168858D01*
X160957381Y-99241429D01*
X163134524Y-102470857D02*
X164041667Y-102470857D01*
X164223095Y-102507143D01*
X164344048Y-102579714D01*
X164404524Y-102688571D01*
X164404524Y-102761143D01*
X164344048Y-102144286D02*
X164404524Y-102035429D01*
X164404524Y-101854000D01*
X164344048Y-101781429D01*
X164283571Y-101745143D01*
X164162619Y-101708858D01*
X164041667Y-101708858D01*
X163920714Y-101745143D01*
X163860238Y-101781429D01*
X163799762Y-101854000D01*
X163739286Y-101999143D01*
X163678810Y-102071715D01*
X163618333Y-102108000D01*
X163497381Y-102144286D01*
X163376429Y-102144286D01*
X163255476Y-102108000D01*
X163195000Y-102071715D01*
X163134524Y-101999143D01*
X163134524Y-101817715D01*
X163195000Y-101708858D01*
X164525476Y-101563715D02*
X164525476Y-100983144D01*
X163195000Y-100402573D02*
X163134524Y-100475144D01*
X163134524Y-100584001D01*
X163195000Y-100692858D01*
X163315952Y-100765430D01*
X163436905Y-100801715D01*
X163678810Y-100838001D01*
X163860238Y-100838001D01*
X164102143Y-100801715D01*
X164223095Y-100765430D01*
X164344048Y-100692858D01*
X164404524Y-100584001D01*
X164404524Y-100511430D01*
X164344048Y-100402573D01*
X164283571Y-100366287D01*
X163860238Y-100366287D01*
X163860238Y-100511430D01*
X164404524Y-100039715D02*
X163134524Y-100039715D01*
X164404524Y-99604287D01*
X163134524Y-99604287D01*
X164404524Y-99241429D02*
X163134524Y-99241429D01*
X163134524Y-99060001D01*
X163195000Y-98951144D01*
X163315952Y-98878572D01*
X163436905Y-98842287D01*
X163678810Y-98806001D01*
X163860238Y-98806001D01*
X164102143Y-98842287D01*
X164223095Y-98878572D01*
X164344048Y-98951144D01*
X164404524Y-99060001D01*
X164404524Y-99241429D01*
X165674524Y-102470857D02*
X166581667Y-102470857D01*
X166763095Y-102507143D01*
X166884048Y-102579714D01*
X166944524Y-102688571D01*
X166944524Y-102761143D01*
X166884048Y-102144286D02*
X166944524Y-102035429D01*
X166944524Y-101854000D01*
X166884048Y-101781429D01*
X166823571Y-101745143D01*
X166702619Y-101708858D01*
X166581667Y-101708858D01*
X166460714Y-101745143D01*
X166400238Y-101781429D01*
X166339762Y-101854000D01*
X166279286Y-101999143D01*
X166218810Y-102071715D01*
X166158333Y-102108000D01*
X166037381Y-102144286D01*
X165916429Y-102144286D01*
X165795476Y-102108000D01*
X165735000Y-102071715D01*
X165674524Y-101999143D01*
X165674524Y-101817715D01*
X165735000Y-101708858D01*
X167065476Y-101563715D02*
X167065476Y-100983144D01*
X165674524Y-100910573D02*
X166944524Y-100656573D01*
X165674524Y-100402573D01*
X166823571Y-99713144D02*
X166884048Y-99749430D01*
X166944524Y-99858287D01*
X166944524Y-99930858D01*
X166884048Y-100039715D01*
X166763095Y-100112287D01*
X166642143Y-100148572D01*
X166400238Y-100184858D01*
X166218810Y-100184858D01*
X165976905Y-100148572D01*
X165855952Y-100112287D01*
X165735000Y-100039715D01*
X165674524Y-99930858D01*
X165674524Y-99858287D01*
X165735000Y-99749430D01*
X165795476Y-99713144D01*
X166823571Y-98951144D02*
X166884048Y-98987430D01*
X166944524Y-99096287D01*
X166944524Y-99168858D01*
X166884048Y-99277715D01*
X166763095Y-99350287D01*
X166642143Y-99386572D01*
X166400238Y-99422858D01*
X166218810Y-99422858D01*
X165976905Y-99386572D01*
X165855952Y-99350287D01*
X165735000Y-99277715D01*
X165674524Y-99168858D01*
X165674524Y-99096287D01*
X165735000Y-98987430D01*
X165795476Y-98951144D01*
X168819286Y-102434571D02*
X168819286Y-102688571D01*
X169484524Y-102688571D02*
X168214524Y-102688571D01*
X168214524Y-102325714D01*
X169121667Y-102071714D02*
X169121667Y-101708857D01*
X169484524Y-102144286D02*
X168214524Y-101890286D01*
X169484524Y-101636286D01*
X169484524Y-101382285D02*
X168214524Y-101382285D01*
X169484524Y-100946857D01*
X168214524Y-100946857D01*
X169000714Y-100583999D02*
X169000714Y-100003428D01*
X171359286Y-102434571D02*
X171359286Y-102688571D01*
X172024524Y-102688571D02*
X170754524Y-102688571D01*
X170754524Y-102325714D01*
X171661667Y-102071714D02*
X171661667Y-101708857D01*
X172024524Y-102144286D02*
X170754524Y-101890286D01*
X172024524Y-101636286D01*
X172024524Y-101382285D02*
X170754524Y-101382285D01*
X172024524Y-100946857D01*
X170754524Y-100946857D01*
X171540714Y-100583999D02*
X171540714Y-100003428D01*
X172024524Y-100293714D02*
X171056905Y-100293714D01*
X173899286Y-102688571D02*
X173899286Y-102434571D01*
X174564524Y-102325714D02*
X174564524Y-102688571D01*
X173294524Y-102688571D01*
X173294524Y-102325714D01*
X174504048Y-102035428D02*
X174564524Y-101926571D01*
X174564524Y-101745142D01*
X174504048Y-101672571D01*
X174443571Y-101636285D01*
X174322619Y-101600000D01*
X174201667Y-101600000D01*
X174080714Y-101636285D01*
X174020238Y-101672571D01*
X173959762Y-101745142D01*
X173899286Y-101890285D01*
X173838810Y-101962857D01*
X173778333Y-101999142D01*
X173657381Y-102035428D01*
X173536429Y-102035428D01*
X173415476Y-101999142D01*
X173355000Y-101962857D01*
X173294524Y-101890285D01*
X173294524Y-101708857D01*
X173355000Y-101600000D01*
X173294524Y-101382286D02*
X173294524Y-100946857D01*
X174564524Y-101164571D02*
X173294524Y-101164571D01*
X173294524Y-100547715D02*
X173294524Y-100402572D01*
X173355000Y-100330000D01*
X173475952Y-100257429D01*
X173717857Y-100221143D01*
X174141190Y-100221143D01*
X174383095Y-100257429D01*
X174504048Y-100330000D01*
X174564524Y-100402572D01*
X174564524Y-100547715D01*
X174504048Y-100620286D01*
X174383095Y-100692857D01*
X174141190Y-100729143D01*
X173717857Y-100729143D01*
X173475952Y-100692857D01*
X173355000Y-100620286D01*
X173294524Y-100547715D01*
X174564524Y-99894571D02*
X173294524Y-99894571D01*
X173294524Y-99604286D01*
X173355000Y-99531714D01*
X173415476Y-99495429D01*
X173536429Y-99459143D01*
X173717857Y-99459143D01*
X173838810Y-99495429D01*
X173899286Y-99531714D01*
X173959762Y-99604286D01*
X173959762Y-99894571D01*
X174080714Y-99132571D02*
X174080714Y-98552000D01*
X176439286Y-102688571D02*
X176439286Y-102434571D01*
X177104524Y-102325714D02*
X177104524Y-102688571D01*
X175834524Y-102688571D01*
X175834524Y-102325714D01*
X177044048Y-102035428D02*
X177104524Y-101926571D01*
X177104524Y-101745142D01*
X177044048Y-101672571D01*
X176983571Y-101636285D01*
X176862619Y-101600000D01*
X176741667Y-101600000D01*
X176620714Y-101636285D01*
X176560238Y-101672571D01*
X176499762Y-101745142D01*
X176439286Y-101890285D01*
X176378810Y-101962857D01*
X176318333Y-101999142D01*
X176197381Y-102035428D01*
X176076429Y-102035428D01*
X175955476Y-101999142D01*
X175895000Y-101962857D01*
X175834524Y-101890285D01*
X175834524Y-101708857D01*
X175895000Y-101600000D01*
X175834524Y-101382286D02*
X175834524Y-100946857D01*
X177104524Y-101164571D02*
X175834524Y-101164571D01*
X175834524Y-100547715D02*
X175834524Y-100402572D01*
X175895000Y-100330000D01*
X176015952Y-100257429D01*
X176257857Y-100221143D01*
X176681190Y-100221143D01*
X176923095Y-100257429D01*
X177044048Y-100330000D01*
X177104524Y-100402572D01*
X177104524Y-100547715D01*
X177044048Y-100620286D01*
X176923095Y-100692857D01*
X176681190Y-100729143D01*
X176257857Y-100729143D01*
X176015952Y-100692857D01*
X175895000Y-100620286D01*
X175834524Y-100547715D01*
X177104524Y-99894571D02*
X175834524Y-99894571D01*
X175834524Y-99604286D01*
X175895000Y-99531714D01*
X175955476Y-99495429D01*
X176076429Y-99459143D01*
X176257857Y-99459143D01*
X176378810Y-99495429D01*
X176439286Y-99531714D01*
X176499762Y-99604286D01*
X176499762Y-99894571D01*
X176620714Y-99132571D02*
X176620714Y-98552000D01*
X177104524Y-98842286D02*
X176136905Y-98842286D01*
X179644524Y-102253143D02*
X179039762Y-102507143D01*
X179644524Y-102688571D02*
X178374524Y-102688571D01*
X178374524Y-102398286D01*
X178435000Y-102325714D01*
X178495476Y-102289429D01*
X178616429Y-102253143D01*
X178797857Y-102253143D01*
X178918810Y-102289429D01*
X178979286Y-102325714D01*
X179039762Y-102398286D01*
X179039762Y-102688571D01*
X178979286Y-101926571D02*
X178979286Y-101672571D01*
X179644524Y-101563714D02*
X179644524Y-101926571D01*
X178374524Y-101926571D01*
X178374524Y-101563714D01*
X179644524Y-100874285D02*
X179644524Y-101237142D01*
X178374524Y-101237142D01*
X179281667Y-100656571D02*
X179281667Y-100293714D01*
X179644524Y-100729143D02*
X178374524Y-100475143D01*
X179644524Y-100221143D01*
X179039762Y-99822000D02*
X179644524Y-99822000D01*
X178374524Y-100076000D02*
X179039762Y-99822000D01*
X178374524Y-99568000D01*
X179160714Y-99313999D02*
X179160714Y-98733428D01*
X182184524Y-102253143D02*
X181579762Y-102507143D01*
X182184524Y-102688571D02*
X180914524Y-102688571D01*
X180914524Y-102398286D01*
X180975000Y-102325714D01*
X181035476Y-102289429D01*
X181156429Y-102253143D01*
X181337857Y-102253143D01*
X181458810Y-102289429D01*
X181519286Y-102325714D01*
X181579762Y-102398286D01*
X181579762Y-102688571D01*
X181519286Y-101926571D02*
X181519286Y-101672571D01*
X182184524Y-101563714D02*
X182184524Y-101926571D01*
X180914524Y-101926571D01*
X180914524Y-101563714D01*
X182184524Y-100874285D02*
X182184524Y-101237142D01*
X180914524Y-101237142D01*
X181821667Y-100656571D02*
X181821667Y-100293714D01*
X182184524Y-100729143D02*
X180914524Y-100475143D01*
X182184524Y-100221143D01*
X181579762Y-99822000D02*
X182184524Y-99822000D01*
X180914524Y-100076000D02*
X181579762Y-99822000D01*
X180914524Y-99568000D01*
X181700714Y-99313999D02*
X181700714Y-98733428D01*
X182184524Y-99023714D02*
X181216905Y-99023714D01*
X184724524Y-102688571D02*
X183454524Y-102688571D01*
X184059286Y-102688571D02*
X184059286Y-102253143D01*
X184724524Y-102253143D02*
X183454524Y-102253143D01*
X184059286Y-101890285D02*
X184059286Y-101636285D01*
X184724524Y-101527428D02*
X184724524Y-101890285D01*
X183454524Y-101890285D01*
X183454524Y-101527428D01*
X184845476Y-101382285D02*
X184845476Y-100801714D01*
X183454524Y-100729143D02*
X184724524Y-100475143D01*
X183454524Y-100221143D01*
X184603571Y-99531714D02*
X184664048Y-99568000D01*
X184724524Y-99676857D01*
X184724524Y-99749428D01*
X184664048Y-99858285D01*
X184543095Y-99930857D01*
X184422143Y-99967142D01*
X184180238Y-100003428D01*
X183998810Y-100003428D01*
X183756905Y-99967142D01*
X183635952Y-99930857D01*
X183515000Y-99858285D01*
X183454524Y-99749428D01*
X183454524Y-99676857D01*
X183515000Y-99568000D01*
X183575476Y-99531714D01*
X184603571Y-98769714D02*
X184664048Y-98806000D01*
X184724524Y-98914857D01*
X184724524Y-98987428D01*
X184664048Y-99096285D01*
X184543095Y-99168857D01*
X184422143Y-99205142D01*
X184180238Y-99241428D01*
X183998810Y-99241428D01*
X183756905Y-99205142D01*
X183635952Y-99168857D01*
X183515000Y-99096285D01*
X183454524Y-98987428D01*
X183454524Y-98914857D01*
X183515000Y-98806000D01*
X183575476Y-98769714D01*
X187264524Y-102688571D02*
X185994524Y-102688571D01*
X186599286Y-102688571D02*
X186599286Y-102253143D01*
X187264524Y-102253143D02*
X185994524Y-102253143D01*
X186599286Y-101890285D02*
X186599286Y-101636285D01*
X187264524Y-101527428D02*
X187264524Y-101890285D01*
X185994524Y-101890285D01*
X185994524Y-101527428D01*
X187385476Y-101382285D02*
X187385476Y-100801714D01*
X185994524Y-100475143D02*
X185994524Y-100330000D01*
X186055000Y-100257428D01*
X186175952Y-100184857D01*
X186417857Y-100148571D01*
X186841190Y-100148571D01*
X187083095Y-100184857D01*
X187204048Y-100257428D01*
X187264524Y-100330000D01*
X187264524Y-100475143D01*
X187204048Y-100547714D01*
X187083095Y-100620285D01*
X186841190Y-100656571D01*
X186417857Y-100656571D01*
X186175952Y-100620285D01*
X186055000Y-100547714D01*
X185994524Y-100475143D01*
X185994524Y-99821999D02*
X187022619Y-99821999D01*
X187143571Y-99785714D01*
X187204048Y-99749428D01*
X187264524Y-99676857D01*
X187264524Y-99531714D01*
X187204048Y-99459142D01*
X187143571Y-99422857D01*
X187022619Y-99386571D01*
X185994524Y-99386571D01*
X185994524Y-99132571D02*
X185994524Y-98697142D01*
X187264524Y-98914856D02*
X185994524Y-98914856D01*
X189804524Y-102688571D02*
X188534524Y-102688571D01*
X189139286Y-102688571D02*
X189139286Y-102253143D01*
X189804524Y-102253143D02*
X188534524Y-102253143D01*
X189139286Y-101890285D02*
X189139286Y-101636285D01*
X189804524Y-101527428D02*
X189804524Y-101890285D01*
X188534524Y-101890285D01*
X188534524Y-101527428D01*
X189925476Y-101382285D02*
X189925476Y-100801714D01*
X188595000Y-100221143D02*
X188534524Y-100293714D01*
X188534524Y-100402571D01*
X188595000Y-100511428D01*
X188715952Y-100584000D01*
X188836905Y-100620285D01*
X189078810Y-100656571D01*
X189260238Y-100656571D01*
X189502143Y-100620285D01*
X189623095Y-100584000D01*
X189744048Y-100511428D01*
X189804524Y-100402571D01*
X189804524Y-100330000D01*
X189744048Y-100221143D01*
X189683571Y-100184857D01*
X189260238Y-100184857D01*
X189260238Y-100330000D01*
X189804524Y-99858285D02*
X188534524Y-99858285D01*
X189804524Y-99422857D01*
X188534524Y-99422857D01*
X189804524Y-99059999D02*
X188534524Y-99059999D01*
X188534524Y-98878571D01*
X188595000Y-98769714D01*
X188715952Y-98697142D01*
X188836905Y-98660857D01*
X189078810Y-98624571D01*
X189260238Y-98624571D01*
X189502143Y-98660857D01*
X189623095Y-98697142D01*
X189744048Y-98769714D01*
X189804524Y-98878571D01*
X189804524Y-99059999D01*
D12*
X150145714Y-114515000D02*
X150860000Y-114515000D01*
X150002857Y-114943571D02*
X150502857Y-113443571D01*
X151002857Y-114943571D01*
X151717143Y-114943571D02*
X151574285Y-114872143D01*
X151502857Y-114729286D01*
X151502857Y-113443571D01*
X152859999Y-114872143D02*
X152717142Y-114943571D01*
X152431428Y-114943571D01*
X152288571Y-114872143D01*
X152217142Y-114729286D01*
X152217142Y-114157857D01*
X152288571Y-114015000D01*
X152431428Y-113943571D01*
X152717142Y-113943571D01*
X152859999Y-114015000D01*
X152931428Y-114157857D01*
X152931428Y-114300714D01*
X152217142Y-114443571D01*
X153431428Y-114943571D02*
X154217142Y-113943571D01*
X153431428Y-113943571D02*
X154217142Y-114943571D01*
X156788571Y-114800714D02*
X156717142Y-114872143D01*
X156502856Y-114943571D01*
X156359999Y-114943571D01*
X156145714Y-114872143D01*
X156002856Y-114729286D01*
X155931428Y-114586429D01*
X155859999Y-114300714D01*
X155859999Y-114086429D01*
X155931428Y-113800714D01*
X156002856Y-113657857D01*
X156145714Y-113515000D01*
X156359999Y-113443571D01*
X156502856Y-113443571D01*
X156717142Y-113515000D01*
X156788571Y-113586429D01*
X157431428Y-114943571D02*
X157431428Y-113443571D01*
X158074285Y-114943571D02*
X158074285Y-114157857D01*
X158002856Y-114015000D01*
X157859999Y-113943571D01*
X157645714Y-113943571D01*
X157502856Y-114015000D01*
X157431428Y-114086429D01*
X159431428Y-114943571D02*
X159431428Y-114157857D01*
X159359999Y-114015000D01*
X159217142Y-113943571D01*
X158931428Y-113943571D01*
X158788571Y-114015000D01*
X159431428Y-114872143D02*
X159288571Y-114943571D01*
X158931428Y-114943571D01*
X158788571Y-114872143D01*
X158717142Y-114729286D01*
X158717142Y-114586429D01*
X158788571Y-114443571D01*
X158931428Y-114372143D01*
X159288571Y-114372143D01*
X159431428Y-114300714D01*
X160145714Y-113943571D02*
X160145714Y-115443571D01*
X160145714Y-114015000D02*
X160288571Y-113943571D01*
X160574285Y-113943571D01*
X160717142Y-114015000D01*
X160788571Y-114086429D01*
X160860000Y-114229286D01*
X160860000Y-114657857D01*
X160788571Y-114800714D01*
X160717142Y-114872143D01*
X160574285Y-114943571D01*
X160288571Y-114943571D01*
X160145714Y-114872143D01*
X161502857Y-114943571D02*
X161502857Y-113943571D01*
X161502857Y-114086429D02*
X161574285Y-114015000D01*
X161717143Y-113943571D01*
X161931428Y-113943571D01*
X162074285Y-114015000D01*
X162145714Y-114157857D01*
X162145714Y-114943571D01*
X162145714Y-114157857D02*
X162217143Y-114015000D01*
X162360000Y-113943571D01*
X162574285Y-113943571D01*
X162717143Y-114015000D01*
X162788571Y-114157857D01*
X162788571Y-114943571D01*
X164145714Y-114943571D02*
X164145714Y-114157857D01*
X164074285Y-114015000D01*
X163931428Y-113943571D01*
X163645714Y-113943571D01*
X163502857Y-114015000D01*
X164145714Y-114872143D02*
X164002857Y-114943571D01*
X163645714Y-114943571D01*
X163502857Y-114872143D01*
X163431428Y-114729286D01*
X163431428Y-114586429D01*
X163502857Y-114443571D01*
X163645714Y-114372143D01*
X164002857Y-114372143D01*
X164145714Y-114300714D01*
X164860000Y-113943571D02*
X164860000Y-114943571D01*
X164860000Y-114086429D02*
X164931428Y-114015000D01*
X165074286Y-113943571D01*
X165288571Y-113943571D01*
X165431428Y-114015000D01*
X165502857Y-114157857D01*
X165502857Y-114943571D01*
X150145714Y-117065000D02*
X150860000Y-117065000D01*
X150002857Y-117493571D02*
X150502857Y-115993571D01*
X151002857Y-117493571D01*
X151502857Y-116493571D02*
X151502857Y-117493571D01*
X151502857Y-116636429D02*
X151574285Y-116565000D01*
X151717143Y-116493571D01*
X151931428Y-116493571D01*
X152074285Y-116565000D01*
X152145714Y-116707857D01*
X152145714Y-117493571D01*
X152860000Y-117493571D02*
X152860000Y-116493571D01*
X152860000Y-115993571D02*
X152788571Y-116065000D01*
X152860000Y-116136429D01*
X152931428Y-116065000D01*
X152860000Y-115993571D01*
X152860000Y-116136429D01*
X153788572Y-117493571D02*
X153645714Y-117422143D01*
X153574286Y-117279286D01*
X153574286Y-115993571D01*
X155502857Y-117493571D02*
X155502857Y-115993571D01*
X156074285Y-115993571D01*
X156217143Y-116065000D01*
X156288571Y-116136429D01*
X156360000Y-116279286D01*
X156360000Y-116493571D01*
X156288571Y-116636429D01*
X156217143Y-116707857D01*
X156074285Y-116779286D01*
X155502857Y-116779286D01*
X157645714Y-117493571D02*
X157645714Y-116707857D01*
X157574285Y-116565000D01*
X157431428Y-116493571D01*
X157145714Y-116493571D01*
X157002857Y-116565000D01*
X157645714Y-117422143D02*
X157502857Y-117493571D01*
X157145714Y-117493571D01*
X157002857Y-117422143D01*
X156931428Y-117279286D01*
X156931428Y-117136429D01*
X157002857Y-116993571D01*
X157145714Y-116922143D01*
X157502857Y-116922143D01*
X157645714Y-116850714D01*
X158145714Y-116493571D02*
X158717143Y-116493571D01*
X158360000Y-115993571D02*
X158360000Y-117279286D01*
X158431428Y-117422143D01*
X158574286Y-117493571D01*
X158717143Y-117493571D01*
X159788571Y-117422143D02*
X159645714Y-117493571D01*
X159360000Y-117493571D01*
X159217143Y-117422143D01*
X159145714Y-117279286D01*
X159145714Y-116707857D01*
X159217143Y-116565000D01*
X159360000Y-116493571D01*
X159645714Y-116493571D01*
X159788571Y-116565000D01*
X159860000Y-116707857D01*
X159860000Y-116850714D01*
X159145714Y-116993571D01*
X160717143Y-117493571D02*
X160574285Y-117422143D01*
X160502857Y-117279286D01*
X160502857Y-115993571D01*
X150931429Y-120043571D02*
X150217143Y-120043571D01*
X150217143Y-118543571D01*
X152074286Y-119043571D02*
X152074286Y-120043571D01*
X151431429Y-119043571D02*
X151431429Y-119829286D01*
X151502857Y-119972143D01*
X151645715Y-120043571D01*
X151860000Y-120043571D01*
X152002857Y-119972143D01*
X152074286Y-119900714D01*
X153431429Y-119972143D02*
X153288572Y-120043571D01*
X153002858Y-120043571D01*
X152860000Y-119972143D01*
X152788572Y-119900714D01*
X152717143Y-119757857D01*
X152717143Y-119329286D01*
X152788572Y-119186429D01*
X152860000Y-119115000D01*
X153002858Y-119043571D01*
X153288572Y-119043571D01*
X153431429Y-119115000D01*
X154074286Y-120043571D02*
X154074286Y-118543571D01*
X154217143Y-119472143D02*
X154645714Y-120043571D01*
X154645714Y-119043571D02*
X154074286Y-119615000D01*
X155145715Y-119043571D02*
X155502858Y-120043571D01*
X155860000Y-119043571D02*
X155502858Y-120043571D01*
X155360000Y-120400714D01*
X155288572Y-120472143D01*
X155145715Y-120543571D01*
X158002857Y-118543571D02*
X158002857Y-119615000D01*
X157931429Y-119829286D01*
X157788572Y-119972143D01*
X157574286Y-120043571D01*
X157431429Y-120043571D01*
X158931429Y-120043571D02*
X158788571Y-119972143D01*
X158717143Y-119900714D01*
X158645714Y-119757857D01*
X158645714Y-119329286D01*
X158717143Y-119186429D01*
X158788571Y-119115000D01*
X158931429Y-119043571D01*
X159145714Y-119043571D01*
X159288571Y-119115000D01*
X159360000Y-119186429D01*
X159431429Y-119329286D01*
X159431429Y-119757857D01*
X159360000Y-119900714D01*
X159288571Y-119972143D01*
X159145714Y-120043571D01*
X158931429Y-120043571D01*
X160074286Y-120043571D02*
X160074286Y-119043571D01*
X160074286Y-119329286D02*
X160145714Y-119186429D01*
X160217143Y-119115000D01*
X160360000Y-119043571D01*
X160502857Y-119043571D01*
X161645714Y-120043571D02*
X161645714Y-118543571D01*
X161645714Y-119972143D02*
X161502857Y-120043571D01*
X161217143Y-120043571D01*
X161074285Y-119972143D01*
X161002857Y-119900714D01*
X160931428Y-119757857D01*
X160931428Y-119329286D01*
X161002857Y-119186429D01*
X161074285Y-119115000D01*
X161217143Y-119043571D01*
X161502857Y-119043571D01*
X161645714Y-119115000D01*
X163002857Y-120043571D02*
X163002857Y-119257857D01*
X162931428Y-119115000D01*
X162788571Y-119043571D01*
X162502857Y-119043571D01*
X162360000Y-119115000D01*
X163002857Y-119972143D02*
X162860000Y-120043571D01*
X162502857Y-120043571D01*
X162360000Y-119972143D01*
X162288571Y-119829286D01*
X162288571Y-119686429D01*
X162360000Y-119543571D01*
X162502857Y-119472143D01*
X162860000Y-119472143D01*
X163002857Y-119400714D01*
X163717143Y-119043571D02*
X163717143Y-120043571D01*
X163717143Y-119186429D02*
X163788571Y-119115000D01*
X163931429Y-119043571D01*
X164145714Y-119043571D01*
X164288571Y-119115000D01*
X164360000Y-119257857D01*
X164360000Y-120043571D01*
X166645714Y-120615000D02*
X166574286Y-120543571D01*
X166431429Y-120329286D01*
X166360000Y-120186429D01*
X166288571Y-119972143D01*
X166217143Y-119615000D01*
X166217143Y-119329286D01*
X166288571Y-118972143D01*
X166360000Y-118757857D01*
X166431429Y-118615000D01*
X166574286Y-118400714D01*
X166645714Y-118329286D01*
X167217143Y-120043571D02*
X167217143Y-118543571D01*
X167788571Y-118543571D01*
X167931429Y-118615000D01*
X168002857Y-118686429D01*
X168074286Y-118829286D01*
X168074286Y-119043571D01*
X168002857Y-119186429D01*
X167931429Y-119257857D01*
X167788571Y-119329286D01*
X167217143Y-119329286D01*
X169574286Y-119900714D02*
X169502857Y-119972143D01*
X169288571Y-120043571D01*
X169145714Y-120043571D01*
X168931429Y-119972143D01*
X168788571Y-119829286D01*
X168717143Y-119686429D01*
X168645714Y-119400714D01*
X168645714Y-119186429D01*
X168717143Y-118900714D01*
X168788571Y-118757857D01*
X168931429Y-118615000D01*
X169145714Y-118543571D01*
X169288571Y-118543571D01*
X169502857Y-118615000D01*
X169574286Y-118686429D01*
X170717143Y-119257857D02*
X170931429Y-119329286D01*
X171002857Y-119400714D01*
X171074286Y-119543571D01*
X171074286Y-119757857D01*
X171002857Y-119900714D01*
X170931429Y-119972143D01*
X170788571Y-120043571D01*
X170217143Y-120043571D01*
X170217143Y-118543571D01*
X170717143Y-118543571D01*
X170860000Y-118615000D01*
X170931429Y-118686429D01*
X171002857Y-118829286D01*
X171002857Y-118972143D01*
X170931429Y-119115000D01*
X170860000Y-119186429D01*
X170717143Y-119257857D01*
X170217143Y-119257857D01*
X172860000Y-120043571D02*
X172860000Y-118543571D01*
X173217143Y-118543571D01*
X173431428Y-118615000D01*
X173574286Y-118757857D01*
X173645714Y-118900714D01*
X173717143Y-119186429D01*
X173717143Y-119400714D01*
X173645714Y-119686429D01*
X173574286Y-119829286D01*
X173431428Y-119972143D01*
X173217143Y-120043571D01*
X172860000Y-120043571D01*
X174931428Y-119972143D02*
X174788571Y-120043571D01*
X174502857Y-120043571D01*
X174360000Y-119972143D01*
X174288571Y-119829286D01*
X174288571Y-119257857D01*
X174360000Y-119115000D01*
X174502857Y-119043571D01*
X174788571Y-119043571D01*
X174931428Y-119115000D01*
X175002857Y-119257857D01*
X175002857Y-119400714D01*
X174288571Y-119543571D01*
X175574285Y-119972143D02*
X175717142Y-120043571D01*
X176002857Y-120043571D01*
X176145714Y-119972143D01*
X176217142Y-119829286D01*
X176217142Y-119757857D01*
X176145714Y-119615000D01*
X176002857Y-119543571D01*
X175788571Y-119543571D01*
X175645714Y-119472143D01*
X175574285Y-119329286D01*
X175574285Y-119257857D01*
X175645714Y-119115000D01*
X175788571Y-119043571D01*
X176002857Y-119043571D01*
X176145714Y-119115000D01*
X176860000Y-120043571D02*
X176860000Y-119043571D01*
X176860000Y-118543571D02*
X176788571Y-118615000D01*
X176860000Y-118686429D01*
X176931428Y-118615000D01*
X176860000Y-118543571D01*
X176860000Y-118686429D01*
X178217143Y-119043571D02*
X178217143Y-120257857D01*
X178145714Y-120400714D01*
X178074286Y-120472143D01*
X177931429Y-120543571D01*
X177717143Y-120543571D01*
X177574286Y-120472143D01*
X178217143Y-119972143D02*
X178074286Y-120043571D01*
X177788572Y-120043571D01*
X177645714Y-119972143D01*
X177574286Y-119900714D01*
X177502857Y-119757857D01*
X177502857Y-119329286D01*
X177574286Y-119186429D01*
X177645714Y-119115000D01*
X177788572Y-119043571D01*
X178074286Y-119043571D01*
X178217143Y-119115000D01*
X178931429Y-119043571D02*
X178931429Y-120043571D01*
X178931429Y-119186429D02*
X179002857Y-119115000D01*
X179145715Y-119043571D01*
X179360000Y-119043571D01*
X179502857Y-119115000D01*
X179574286Y-119257857D01*
X179574286Y-120043571D01*
X180860000Y-119972143D02*
X180717143Y-120043571D01*
X180431429Y-120043571D01*
X180288572Y-119972143D01*
X180217143Y-119829286D01*
X180217143Y-119257857D01*
X180288572Y-119115000D01*
X180431429Y-119043571D01*
X180717143Y-119043571D01*
X180860000Y-119115000D01*
X180931429Y-119257857D01*
X180931429Y-119400714D01*
X180217143Y-119543571D01*
X181574286Y-120043571D02*
X181574286Y-119043571D01*
X181574286Y-119329286D02*
X181645714Y-119186429D01*
X181717143Y-119115000D01*
X181860000Y-119043571D01*
X182002857Y-119043571D01*
X182360000Y-120615000D02*
X182431428Y-120543571D01*
X182574285Y-120329286D01*
X182645714Y-120186429D01*
X182717143Y-119972143D01*
X182788571Y-119615000D01*
X182788571Y-119329286D01*
X182717143Y-118972143D01*
X182645714Y-118757857D01*
X182574285Y-118615000D01*
X182431428Y-118400714D01*
X182360000Y-118329286D01*
X150217143Y-122593571D02*
X150217143Y-121093571D01*
X151074286Y-122593571D01*
X151074286Y-121093571D01*
X152431429Y-122593571D02*
X152431429Y-121807857D01*
X152360000Y-121665000D01*
X152217143Y-121593571D01*
X151931429Y-121593571D01*
X151788572Y-121665000D01*
X152431429Y-122522143D02*
X152288572Y-122593571D01*
X151931429Y-122593571D01*
X151788572Y-122522143D01*
X151717143Y-122379286D01*
X151717143Y-122236429D01*
X151788572Y-122093571D01*
X151931429Y-122022143D01*
X152288572Y-122022143D01*
X152431429Y-121950714D01*
X152931429Y-121593571D02*
X153502858Y-121593571D01*
X153145715Y-121093571D02*
X153145715Y-122379286D01*
X153217143Y-122522143D01*
X153360001Y-122593571D01*
X153502858Y-122593571D01*
X154002858Y-122593571D02*
X154002858Y-121093571D01*
X154645715Y-122593571D02*
X154645715Y-121807857D01*
X154574286Y-121665000D01*
X154431429Y-121593571D01*
X154217144Y-121593571D01*
X154074286Y-121665000D01*
X154002858Y-121736429D01*
X156002858Y-122593571D02*
X156002858Y-121807857D01*
X155931429Y-121665000D01*
X155788572Y-121593571D01*
X155502858Y-121593571D01*
X155360001Y-121665000D01*
X156002858Y-122522143D02*
X155860001Y-122593571D01*
X155502858Y-122593571D01*
X155360001Y-122522143D01*
X155288572Y-122379286D01*
X155288572Y-122236429D01*
X155360001Y-122093571D01*
X155502858Y-122022143D01*
X155860001Y-122022143D01*
X156002858Y-121950714D01*
X156717144Y-121593571D02*
X156717144Y-122593571D01*
X156717144Y-121736429D02*
X156788572Y-121665000D01*
X156931430Y-121593571D01*
X157145715Y-121593571D01*
X157288572Y-121665000D01*
X157360001Y-121807857D01*
X157360001Y-122593571D01*
X159931430Y-122593571D02*
X159217144Y-122593571D01*
X159217144Y-121093571D01*
X161002858Y-122522143D02*
X160860001Y-122593571D01*
X160574287Y-122593571D01*
X160431430Y-122522143D01*
X160360001Y-122379286D01*
X160360001Y-121807857D01*
X160431430Y-121665000D01*
X160574287Y-121593571D01*
X160860001Y-121593571D01*
X161002858Y-121665000D01*
X161074287Y-121807857D01*
X161074287Y-121950714D01*
X160360001Y-122093571D01*
X161717144Y-121593571D02*
X161717144Y-123093571D01*
X161717144Y-121665000D02*
X161860001Y-121593571D01*
X162145715Y-121593571D01*
X162288572Y-121665000D01*
X162360001Y-121736429D01*
X162431430Y-121879286D01*
X162431430Y-122307857D01*
X162360001Y-122450714D01*
X162288572Y-122522143D01*
X162145715Y-122593571D01*
X161860001Y-122593571D01*
X161717144Y-122522143D01*
X163288573Y-122593571D02*
X163145715Y-122522143D01*
X163074287Y-122450714D01*
X163002858Y-122307857D01*
X163002858Y-121879286D01*
X163074287Y-121736429D01*
X163145715Y-121665000D01*
X163288573Y-121593571D01*
X163502858Y-121593571D01*
X163645715Y-121665000D01*
X163717144Y-121736429D01*
X163788573Y-121879286D01*
X163788573Y-122307857D01*
X163717144Y-122450714D01*
X163645715Y-122522143D01*
X163502858Y-122593571D01*
X163288573Y-122593571D01*
X164431430Y-122593571D02*
X164431430Y-121593571D01*
X164431430Y-121879286D02*
X164502858Y-121736429D01*
X164574287Y-121665000D01*
X164717144Y-121593571D01*
X164860001Y-121593571D01*
X165931429Y-122522143D02*
X165788572Y-122593571D01*
X165502858Y-122593571D01*
X165360001Y-122522143D01*
X165288572Y-122379286D01*
X165288572Y-121807857D01*
X165360001Y-121665000D01*
X165502858Y-121593571D01*
X165788572Y-121593571D01*
X165931429Y-121665000D01*
X166002858Y-121807857D01*
X166002858Y-121950714D01*
X165288572Y-122093571D01*
X150145714Y-125072143D02*
X150360000Y-125143571D01*
X150717143Y-125143571D01*
X150860000Y-125072143D01*
X150931429Y-125000714D01*
X151002857Y-124857857D01*
X151002857Y-124715000D01*
X150931429Y-124572143D01*
X150860000Y-124500714D01*
X150717143Y-124429286D01*
X150431429Y-124357857D01*
X150288571Y-124286429D01*
X150217143Y-124215000D01*
X150145714Y-124072143D01*
X150145714Y-123929286D01*
X150217143Y-123786429D01*
X150288571Y-123715000D01*
X150431429Y-123643571D01*
X150788571Y-123643571D01*
X151002857Y-123715000D01*
X152217142Y-125072143D02*
X152074285Y-125143571D01*
X151788571Y-125143571D01*
X151645714Y-125072143D01*
X151574285Y-124929286D01*
X151574285Y-124357857D01*
X151645714Y-124215000D01*
X151788571Y-124143571D01*
X152074285Y-124143571D01*
X152217142Y-124215000D01*
X152288571Y-124357857D01*
X152288571Y-124500714D01*
X151574285Y-124643571D01*
X153574285Y-125143571D02*
X153574285Y-124357857D01*
X153502856Y-124215000D01*
X153359999Y-124143571D01*
X153074285Y-124143571D01*
X152931428Y-124215000D01*
X153574285Y-125072143D02*
X153431428Y-125143571D01*
X153074285Y-125143571D01*
X152931428Y-125072143D01*
X152859999Y-124929286D01*
X152859999Y-124786429D01*
X152931428Y-124643571D01*
X153074285Y-124572143D01*
X153431428Y-124572143D01*
X153574285Y-124500714D01*
X154288571Y-124143571D02*
X154288571Y-125143571D01*
X154288571Y-124286429D02*
X154359999Y-124215000D01*
X154502857Y-124143571D01*
X154717142Y-124143571D01*
X154859999Y-124215000D01*
X154931428Y-124357857D01*
X154931428Y-125143571D01*
X156717142Y-125072143D02*
X156931428Y-125143571D01*
X157288571Y-125143571D01*
X157431428Y-125072143D01*
X157502857Y-125000714D01*
X157574285Y-124857857D01*
X157574285Y-124715000D01*
X157502857Y-124572143D01*
X157431428Y-124500714D01*
X157288571Y-124429286D01*
X157002857Y-124357857D01*
X156859999Y-124286429D01*
X156788571Y-124215000D01*
X156717142Y-124072143D01*
X156717142Y-123929286D01*
X156788571Y-123786429D01*
X156859999Y-123715000D01*
X157002857Y-123643571D01*
X157359999Y-123643571D01*
X157574285Y-123715000D01*
X158074285Y-124143571D02*
X158859999Y-124143571D01*
X158074285Y-125143571D01*
X158859999Y-125143571D01*
X159288571Y-124143571D02*
X159645714Y-125143571D01*
X160002856Y-124143571D02*
X159645714Y-125143571D01*
X159502856Y-125500714D01*
X159431428Y-125572143D01*
X159288571Y-125643571D01*
X160574285Y-125143571D02*
X160574285Y-124143571D01*
X160574285Y-124286429D02*
X160645713Y-124215000D01*
X160788571Y-124143571D01*
X161002856Y-124143571D01*
X161145713Y-124215000D01*
X161217142Y-124357857D01*
X161217142Y-125143571D01*
X161217142Y-124357857D02*
X161288571Y-124215000D01*
X161431428Y-124143571D01*
X161645713Y-124143571D01*
X161788571Y-124215000D01*
X161859999Y-124357857D01*
X161859999Y-125143571D01*
X163217142Y-125143571D02*
X163217142Y-124357857D01*
X163145713Y-124215000D01*
X163002856Y-124143571D01*
X162717142Y-124143571D01*
X162574285Y-124215000D01*
X163217142Y-125072143D02*
X163074285Y-125143571D01*
X162717142Y-125143571D01*
X162574285Y-125072143D01*
X162502856Y-124929286D01*
X162502856Y-124786429D01*
X162574285Y-124643571D01*
X162717142Y-124572143D01*
X163074285Y-124572143D01*
X163217142Y-124500714D01*
X163931428Y-124143571D02*
X163931428Y-125143571D01*
X163931428Y-124286429D02*
X164002856Y-124215000D01*
X164145714Y-124143571D01*
X164359999Y-124143571D01*
X164502856Y-124215000D01*
X164574285Y-124357857D01*
X164574285Y-125143571D01*
X165217142Y-125072143D02*
X165359999Y-125143571D01*
X165645714Y-125143571D01*
X165788571Y-125072143D01*
X165859999Y-124929286D01*
X165859999Y-124857857D01*
X165788571Y-124715000D01*
X165645714Y-124643571D01*
X165431428Y-124643571D01*
X165288571Y-124572143D01*
X165217142Y-124429286D01*
X165217142Y-124357857D01*
X165288571Y-124215000D01*
X165431428Y-124143571D01*
X165645714Y-124143571D01*
X165788571Y-124215000D01*
X166502857Y-125143571D02*
X166502857Y-123643571D01*
X166645714Y-124572143D02*
X167074285Y-125143571D01*
X167074285Y-124143571D02*
X166502857Y-124715000D01*
X167717143Y-125143571D02*
X167717143Y-124143571D01*
X167717143Y-123643571D02*
X167645714Y-123715000D01*
X167717143Y-123786429D01*
X167788571Y-123715000D01*
X167717143Y-123643571D01*
X167717143Y-123786429D01*
X150502857Y-126193571D02*
X150788571Y-126193571D01*
X150931429Y-126265000D01*
X151074286Y-126407857D01*
X151145714Y-126693571D01*
X151145714Y-127193571D01*
X151074286Y-127479286D01*
X150931429Y-127622143D01*
X150788571Y-127693571D01*
X150502857Y-127693571D01*
X150360000Y-127622143D01*
X150217143Y-127479286D01*
X150145714Y-127193571D01*
X150145714Y-126693571D01*
X150217143Y-126407857D01*
X150360000Y-126265000D01*
X150502857Y-126193571D01*
X152431429Y-127693571D02*
X152431429Y-126193571D01*
X152431429Y-127622143D02*
X152288572Y-127693571D01*
X152002858Y-127693571D01*
X151860000Y-127622143D01*
X151788572Y-127550714D01*
X151717143Y-127407857D01*
X151717143Y-126979286D01*
X151788572Y-126836429D01*
X151860000Y-126765000D01*
X152002858Y-126693571D01*
X152288572Y-126693571D01*
X152431429Y-126765000D01*
X153002858Y-126693571D02*
X153360001Y-127693571D01*
X153717143Y-126693571D02*
X153360001Y-127693571D01*
X153217143Y-128050714D01*
X153145715Y-128122143D01*
X153002858Y-128193571D01*
X154217143Y-127622143D02*
X154360000Y-127693571D01*
X154645715Y-127693571D01*
X154788572Y-127622143D01*
X154860000Y-127479286D01*
X154860000Y-127407857D01*
X154788572Y-127265000D01*
X154645715Y-127193571D01*
X154431429Y-127193571D01*
X154288572Y-127122143D01*
X154217143Y-126979286D01*
X154217143Y-126907857D01*
X154288572Y-126765000D01*
X154431429Y-126693571D01*
X154645715Y-126693571D01*
X154788572Y-126765000D01*
X155431429Y-127622143D02*
X155574286Y-127693571D01*
X155860001Y-127693571D01*
X156002858Y-127622143D01*
X156074286Y-127479286D01*
X156074286Y-127407857D01*
X156002858Y-127265000D01*
X155860001Y-127193571D01*
X155645715Y-127193571D01*
X155502858Y-127122143D01*
X155431429Y-126979286D01*
X155431429Y-126907857D01*
X155502858Y-126765000D01*
X155645715Y-126693571D01*
X155860001Y-126693571D01*
X156002858Y-126765000D01*
X157288572Y-127622143D02*
X157145715Y-127693571D01*
X156860001Y-127693571D01*
X156717144Y-127622143D01*
X156645715Y-127479286D01*
X156645715Y-126907857D01*
X156717144Y-126765000D01*
X156860001Y-126693571D01*
X157145715Y-126693571D01*
X157288572Y-126765000D01*
X157360001Y-126907857D01*
X157360001Y-127050714D01*
X156645715Y-127193571D01*
X158645715Y-126693571D02*
X158645715Y-127693571D01*
X158002858Y-126693571D02*
X158002858Y-127479286D01*
X158074286Y-127622143D01*
X158217144Y-127693571D01*
X158431429Y-127693571D01*
X158574286Y-127622143D01*
X158645715Y-127550714D01*
X159288572Y-127622143D02*
X159431429Y-127693571D01*
X159717144Y-127693571D01*
X159860001Y-127622143D01*
X159931429Y-127479286D01*
X159931429Y-127407857D01*
X159860001Y-127265000D01*
X159717144Y-127193571D01*
X159502858Y-127193571D01*
X159360001Y-127122143D01*
X159288572Y-126979286D01*
X159288572Y-126907857D01*
X159360001Y-126765000D01*
X159502858Y-126693571D01*
X159717144Y-126693571D01*
X159860001Y-126765000D01*
X161645715Y-127622143D02*
X161860001Y-127693571D01*
X162217144Y-127693571D01*
X162360001Y-127622143D01*
X162431430Y-127550714D01*
X162502858Y-127407857D01*
X162502858Y-127265000D01*
X162431430Y-127122143D01*
X162360001Y-127050714D01*
X162217144Y-126979286D01*
X161931430Y-126907857D01*
X161788572Y-126836429D01*
X161717144Y-126765000D01*
X161645715Y-126622143D01*
X161645715Y-126479286D01*
X161717144Y-126336429D01*
X161788572Y-126265000D01*
X161931430Y-126193571D01*
X162288572Y-126193571D01*
X162502858Y-126265000D01*
X163145715Y-127693571D02*
X163145715Y-126193571D01*
X163788572Y-127693571D02*
X163788572Y-126907857D01*
X163717143Y-126765000D01*
X163574286Y-126693571D01*
X163360001Y-126693571D01*
X163217143Y-126765000D01*
X163145715Y-126836429D01*
X164502858Y-127693571D02*
X164502858Y-126693571D01*
X164502858Y-126193571D02*
X164431429Y-126265000D01*
X164502858Y-126336429D01*
X164574286Y-126265000D01*
X164502858Y-126193571D01*
X164502858Y-126336429D01*
X165788572Y-127622143D02*
X165645715Y-127693571D01*
X165360001Y-127693571D01*
X165217144Y-127622143D01*
X165145715Y-127479286D01*
X165145715Y-126907857D01*
X165217144Y-126765000D01*
X165360001Y-126693571D01*
X165645715Y-126693571D01*
X165788572Y-126765000D01*
X165860001Y-126907857D01*
X165860001Y-127050714D01*
X165145715Y-127193571D01*
X166717144Y-127693571D02*
X166574286Y-127622143D01*
X166502858Y-127479286D01*
X166502858Y-126193571D01*
X167931429Y-127693571D02*
X167931429Y-126193571D01*
X167931429Y-127622143D02*
X167788572Y-127693571D01*
X167502858Y-127693571D01*
X167360000Y-127622143D01*
X167288572Y-127550714D01*
X167217143Y-127407857D01*
X167217143Y-126979286D01*
X167288572Y-126836429D01*
X167360000Y-126765000D01*
X167502858Y-126693571D01*
X167788572Y-126693571D01*
X167931429Y-126765000D01*
X169574286Y-126193571D02*
X170074286Y-127693571D01*
X170574286Y-126193571D01*
X171860000Y-127693571D02*
X171002857Y-127693571D01*
X171431429Y-127693571D02*
X171431429Y-126193571D01*
X171288572Y-126407857D01*
X171145714Y-126550714D01*
X171002857Y-126622143D01*
X151002857Y-130243571D02*
X150145714Y-130243571D01*
X150574286Y-130243571D02*
X150574286Y-128743571D01*
X150431429Y-128957857D01*
X150288571Y-129100714D01*
X150145714Y-129172143D01*
X152431428Y-130243571D02*
X151574285Y-130243571D01*
X152002857Y-130243571D02*
X152002857Y-128743571D01*
X151860000Y-128957857D01*
X151717142Y-129100714D01*
X151574285Y-129172143D01*
X154145713Y-128672143D02*
X152859999Y-130600714D01*
X155431428Y-130243571D02*
X154574285Y-130243571D01*
X155002857Y-130243571D02*
X155002857Y-128743571D01*
X154860000Y-128957857D01*
X154717142Y-129100714D01*
X154574285Y-129172143D01*
X155931428Y-128743571D02*
X156931428Y-128743571D01*
X156288571Y-130243571D01*
X158574284Y-128672143D02*
X157288570Y-130600714D01*
X159002856Y-128886429D02*
X159074285Y-128815000D01*
X159217142Y-128743571D01*
X159574285Y-128743571D01*
X159717142Y-128815000D01*
X159788571Y-128886429D01*
X159859999Y-129029286D01*
X159859999Y-129172143D01*
X159788571Y-129386429D01*
X158931428Y-130243571D01*
X159859999Y-130243571D01*
X160788570Y-128743571D02*
X160931427Y-128743571D01*
X161074284Y-128815000D01*
X161145713Y-128886429D01*
X161217142Y-129029286D01*
X161288570Y-129315000D01*
X161288570Y-129672143D01*
X161217142Y-129957857D01*
X161145713Y-130100714D01*
X161074284Y-130172143D01*
X160931427Y-130243571D01*
X160788570Y-130243571D01*
X160645713Y-130172143D01*
X160574284Y-130100714D01*
X160502856Y-129957857D01*
X160431427Y-129672143D01*
X160431427Y-129315000D01*
X160502856Y-129029286D01*
X160574284Y-128886429D01*
X160645713Y-128815000D01*
X160788570Y-128743571D01*
X162717141Y-130243571D02*
X161859998Y-130243571D01*
X162288570Y-130243571D02*
X162288570Y-128743571D01*
X162145713Y-128957857D01*
X162002855Y-129100714D01*
X161859998Y-129172143D01*
X163217141Y-128743571D02*
X164217141Y-128743571D01*
X163574284Y-130243571D01*
X150502857Y-131293571D02*
X150788571Y-131293571D01*
X150931429Y-131365000D01*
X151074286Y-131507857D01*
X151145714Y-131793571D01*
X151145714Y-132293571D01*
X151074286Y-132579286D01*
X150931429Y-132722143D01*
X150788571Y-132793571D01*
X150502857Y-132793571D01*
X150360000Y-132722143D01*
X150217143Y-132579286D01*
X150145714Y-132293571D01*
X150145714Y-131793571D01*
X150217143Y-131507857D01*
X150360000Y-131365000D01*
X150502857Y-131293571D01*
X152002858Y-132793571D02*
X151860000Y-132722143D01*
X151788572Y-132579286D01*
X151788572Y-131293571D01*
X152574286Y-132793571D02*
X152574286Y-131793571D01*
X152574286Y-131293571D02*
X152502857Y-131365000D01*
X152574286Y-131436429D01*
X152645714Y-131365000D01*
X152574286Y-131293571D01*
X152574286Y-131436429D01*
X153288572Y-131793571D02*
X153288572Y-132793571D01*
X153288572Y-131936429D02*
X153360000Y-131865000D01*
X153502858Y-131793571D01*
X153717143Y-131793571D01*
X153860000Y-131865000D01*
X153931429Y-132007857D01*
X153931429Y-132793571D01*
X156645715Y-132650714D02*
X156574286Y-132722143D01*
X156360000Y-132793571D01*
X156217143Y-132793571D01*
X156002858Y-132722143D01*
X155860000Y-132579286D01*
X155788572Y-132436429D01*
X155717143Y-132150714D01*
X155717143Y-131936429D01*
X155788572Y-131650714D01*
X155860000Y-131507857D01*
X156002858Y-131365000D01*
X156217143Y-131293571D01*
X156360000Y-131293571D01*
X156574286Y-131365000D01*
X156645715Y-131436429D01*
X157502858Y-132793571D02*
X157360000Y-132722143D01*
X157288572Y-132650714D01*
X157217143Y-132507857D01*
X157217143Y-132079286D01*
X157288572Y-131936429D01*
X157360000Y-131865000D01*
X157502858Y-131793571D01*
X157717143Y-131793571D01*
X157860000Y-131865000D01*
X157931429Y-131936429D01*
X158002858Y-132079286D01*
X158002858Y-132507857D01*
X157931429Y-132650714D01*
X157860000Y-132722143D01*
X157717143Y-132793571D01*
X157502858Y-132793571D01*
X158860001Y-132793571D02*
X158717143Y-132722143D01*
X158645715Y-132579286D01*
X158645715Y-131293571D01*
X159645715Y-132793571D02*
X159502857Y-132722143D01*
X159431429Y-132579286D01*
X159431429Y-131293571D01*
X160788571Y-132722143D02*
X160645714Y-132793571D01*
X160360000Y-132793571D01*
X160217143Y-132722143D01*
X160145714Y-132579286D01*
X160145714Y-132007857D01*
X160217143Y-131865000D01*
X160360000Y-131793571D01*
X160645714Y-131793571D01*
X160788571Y-131865000D01*
X160860000Y-132007857D01*
X160860000Y-132150714D01*
X160145714Y-132293571D01*
X162145714Y-131793571D02*
X162145714Y-133007857D01*
X162074285Y-133150714D01*
X162002857Y-133222143D01*
X161860000Y-133293571D01*
X161645714Y-133293571D01*
X161502857Y-133222143D01*
X162145714Y-132722143D02*
X162002857Y-132793571D01*
X161717143Y-132793571D01*
X161574285Y-132722143D01*
X161502857Y-132650714D01*
X161431428Y-132507857D01*
X161431428Y-132079286D01*
X161502857Y-131936429D01*
X161574285Y-131865000D01*
X161717143Y-131793571D01*
X162002857Y-131793571D01*
X162145714Y-131865000D01*
X163431428Y-132722143D02*
X163288571Y-132793571D01*
X163002857Y-132793571D01*
X162860000Y-132722143D01*
X162788571Y-132579286D01*
X162788571Y-132007857D01*
X162860000Y-131865000D01*
X163002857Y-131793571D01*
X163288571Y-131793571D01*
X163431428Y-131865000D01*
X163502857Y-132007857D01*
X163502857Y-132150714D01*
X162788571Y-132293571D01*
X165502857Y-132793571D02*
X165359999Y-132722143D01*
X165288571Y-132650714D01*
X165217142Y-132507857D01*
X165217142Y-132079286D01*
X165288571Y-131936429D01*
X165359999Y-131865000D01*
X165502857Y-131793571D01*
X165717142Y-131793571D01*
X165859999Y-131865000D01*
X165931428Y-131936429D01*
X166002857Y-132079286D01*
X166002857Y-132507857D01*
X165931428Y-132650714D01*
X165859999Y-132722143D01*
X165717142Y-132793571D01*
X165502857Y-132793571D01*
X166431428Y-131793571D02*
X167002857Y-131793571D01*
X166645714Y-132793571D02*
X166645714Y-131507857D01*
X166717142Y-131365000D01*
X166860000Y-131293571D01*
X167002857Y-131293571D01*
X168645714Y-132007857D02*
X169145714Y-132007857D01*
X169360000Y-132793571D02*
X168645714Y-132793571D01*
X168645714Y-131293571D01*
X169360000Y-131293571D01*
X170002857Y-131793571D02*
X170002857Y-132793571D01*
X170002857Y-131936429D02*
X170074285Y-131865000D01*
X170217143Y-131793571D01*
X170431428Y-131793571D01*
X170574285Y-131865000D01*
X170645714Y-132007857D01*
X170645714Y-132793571D01*
X172002857Y-131793571D02*
X172002857Y-133007857D01*
X171931428Y-133150714D01*
X171860000Y-133222143D01*
X171717143Y-133293571D01*
X171502857Y-133293571D01*
X171360000Y-133222143D01*
X172002857Y-132722143D02*
X171860000Y-132793571D01*
X171574286Y-132793571D01*
X171431428Y-132722143D01*
X171360000Y-132650714D01*
X171288571Y-132507857D01*
X171288571Y-132079286D01*
X171360000Y-131936429D01*
X171431428Y-131865000D01*
X171574286Y-131793571D01*
X171860000Y-131793571D01*
X172002857Y-131865000D01*
X172717143Y-132793571D02*
X172717143Y-131793571D01*
X172717143Y-131293571D02*
X172645714Y-131365000D01*
X172717143Y-131436429D01*
X172788571Y-131365000D01*
X172717143Y-131293571D01*
X172717143Y-131436429D01*
X173431429Y-131793571D02*
X173431429Y-132793571D01*
X173431429Y-131936429D02*
X173502857Y-131865000D01*
X173645715Y-131793571D01*
X173860000Y-131793571D01*
X174002857Y-131865000D01*
X174074286Y-132007857D01*
X174074286Y-132793571D01*
X175360000Y-132722143D02*
X175217143Y-132793571D01*
X174931429Y-132793571D01*
X174788572Y-132722143D01*
X174717143Y-132579286D01*
X174717143Y-132007857D01*
X174788572Y-131865000D01*
X174931429Y-131793571D01*
X175217143Y-131793571D01*
X175360000Y-131865000D01*
X175431429Y-132007857D01*
X175431429Y-132150714D01*
X174717143Y-132293571D01*
X176645714Y-132722143D02*
X176502857Y-132793571D01*
X176217143Y-132793571D01*
X176074286Y-132722143D01*
X176002857Y-132579286D01*
X176002857Y-132007857D01*
X176074286Y-131865000D01*
X176217143Y-131793571D01*
X176502857Y-131793571D01*
X176645714Y-131865000D01*
X176717143Y-132007857D01*
X176717143Y-132150714D01*
X176002857Y-132293571D01*
X177360000Y-132793571D02*
X177360000Y-131793571D01*
X177360000Y-132079286D02*
X177431428Y-131936429D01*
X177502857Y-131865000D01*
X177645714Y-131793571D01*
X177788571Y-131793571D01*
X178288571Y-132793571D02*
X178288571Y-131793571D01*
X178288571Y-131293571D02*
X178217142Y-131365000D01*
X178288571Y-131436429D01*
X178359999Y-131365000D01*
X178288571Y-131293571D01*
X178288571Y-131436429D01*
X179002857Y-131793571D02*
X179002857Y-132793571D01*
X179002857Y-131936429D02*
X179074285Y-131865000D01*
X179217143Y-131793571D01*
X179431428Y-131793571D01*
X179574285Y-131865000D01*
X179645714Y-132007857D01*
X179645714Y-132793571D01*
X181002857Y-131793571D02*
X181002857Y-133007857D01*
X180931428Y-133150714D01*
X180860000Y-133222143D01*
X180717143Y-133293571D01*
X180502857Y-133293571D01*
X180360000Y-133222143D01*
X181002857Y-132722143D02*
X180860000Y-132793571D01*
X180574286Y-132793571D01*
X180431428Y-132722143D01*
X180360000Y-132650714D01*
X180288571Y-132507857D01*
X180288571Y-132079286D01*
X180360000Y-131936429D01*
X180431428Y-131865000D01*
X180574286Y-131793571D01*
X180860000Y-131793571D01*
X181002857Y-131865000D01*
X182860000Y-132793571D02*
X182860000Y-131293571D01*
X183431428Y-131293571D01*
X183574286Y-131365000D01*
X183645714Y-131436429D01*
X183717143Y-131579286D01*
X183717143Y-131793571D01*
X183645714Y-131936429D01*
X183574286Y-132007857D01*
X183431428Y-132079286D01*
X182860000Y-132079286D01*
X184645714Y-131293571D02*
X184931428Y-131293571D01*
X185074286Y-131365000D01*
X185217143Y-131507857D01*
X185288571Y-131793571D01*
X185288571Y-132293571D01*
X185217143Y-132579286D01*
X185074286Y-132722143D01*
X184931428Y-132793571D01*
X184645714Y-132793571D01*
X184502857Y-132722143D01*
X184360000Y-132579286D01*
X184288571Y-132293571D01*
X184288571Y-131793571D01*
X184360000Y-131507857D01*
X184502857Y-131365000D01*
X184645714Y-131293571D01*
X185931429Y-132007857D02*
X186431429Y-132007857D01*
X186645715Y-132793571D02*
X185931429Y-132793571D01*
X185931429Y-131293571D01*
X186645715Y-131293571D01*
D13*
X175570000Y-113540000D02*
X174640000Y-113540000D01*
X172410000Y-113540000D02*
X173340000Y-113540000D01*
X172410000Y-113540000D02*
X172410000Y-115700000D01*
X175570000Y-113540000D02*
X175570000Y-115000000D01*
X186180000Y-115880000D02*
X186180000Y-114950000D01*
X186180000Y-112720000D02*
X186180000Y-113650000D01*
X186180000Y-112720000D02*
X184020000Y-112720000D01*
X186180000Y-115880000D02*
X184720000Y-115880000D01*
X183125000Y-113700000D02*
X183125000Y-114900000D01*
X181365000Y-114900000D02*
X181365000Y-113700000D01*
X176285000Y-114900000D02*
X176285000Y-113700000D01*
X178045000Y-113700000D02*
X178045000Y-114900000D01*
D14*
G36*
X154892678Y-134515681D02*
X155834503Y-134980667D01*
X156648903Y-135680523D01*
X157277435Y-136555141D01*
X157661653Y-137544412D01*
X157754324Y-138328424D01*
X157591127Y-139427046D01*
X157141579Y-140403336D01*
X156459501Y-141218882D01*
X155598716Y-141835271D01*
X154613044Y-142214090D01*
X153556305Y-142316926D01*
X152482321Y-142105366D01*
X152469074Y-142100589D01*
X151536900Y-141596917D01*
X150756401Y-140856134D01*
X150178135Y-139955204D01*
X149852663Y-138971090D01*
X149823733Y-138194207D01*
X150179680Y-138194207D01*
X150276894Y-139133929D01*
X150612445Y-140010534D01*
X151150873Y-140778548D01*
X151856716Y-141392496D01*
X152694516Y-141806903D01*
X153628813Y-141976294D01*
X154624146Y-141855193D01*
X155052279Y-141706591D01*
X156018398Y-141134415D01*
X156731839Y-140367307D01*
X157182370Y-139464627D01*
X157359760Y-138485738D01*
X157253778Y-137490003D01*
X156854194Y-136536783D01*
X156150776Y-135685441D01*
X156098118Y-135638398D01*
X155170704Y-135037505D01*
X154168408Y-134758375D01*
X153149815Y-134793549D01*
X152173513Y-135135573D01*
X151298090Y-135776991D01*
X150842099Y-136307315D01*
X150356261Y-137236844D01*
X150179680Y-138194207D01*
X149823733Y-138194207D01*
X149818979Y-138066564D01*
X150117629Y-136905602D01*
X150691338Y-135911610D01*
X151493900Y-135126907D01*
X152479103Y-134593812D01*
X153600739Y-134354646D01*
X153881872Y-134345675D01*
X154892678Y-134515681D01*
X154892678Y-134515681D01*
G37*
X154892678Y-134515681D02*
X155834503Y-134980667D01*
X156648903Y-135680523D01*
X157277435Y-136555141D01*
X157661653Y-137544412D01*
X157754324Y-138328424D01*
X157591127Y-139427046D01*
X157141579Y-140403336D01*
X156459501Y-141218882D01*
X155598716Y-141835271D01*
X154613044Y-142214090D01*
X153556305Y-142316926D01*
X152482321Y-142105366D01*
X152469074Y-142100589D01*
X151536900Y-141596917D01*
X150756401Y-140856134D01*
X150178135Y-139955204D01*
X149852663Y-138971090D01*
X149823733Y-138194207D01*
X150179680Y-138194207D01*
X150276894Y-139133929D01*
X150612445Y-140010534D01*
X151150873Y-140778548D01*
X151856716Y-141392496D01*
X152694516Y-141806903D01*
X153628813Y-141976294D01*
X154624146Y-141855193D01*
X155052279Y-141706591D01*
X156018398Y-141134415D01*
X156731839Y-140367307D01*
X157182370Y-139464627D01*
X157359760Y-138485738D01*
X157253778Y-137490003D01*
X156854194Y-136536783D01*
X156150776Y-135685441D01*
X156098118Y-135638398D01*
X155170704Y-135037505D01*
X154168408Y-134758375D01*
X153149815Y-134793549D01*
X152173513Y-135135573D01*
X151298090Y-135776991D01*
X150842099Y-136307315D01*
X150356261Y-137236844D01*
X150179680Y-138194207D01*
X149823733Y-138194207D01*
X149818979Y-138066564D01*
X150117629Y-136905602D01*
X150691338Y-135911610D01*
X151493900Y-135126907D01*
X152479103Y-134593812D01*
X153600739Y-134354646D01*
X153881872Y-134345675D01*
X154892678Y-134515681D01*
G36*
X155034203Y-135366327D02*
X155865535Y-135958613D01*
X156536895Y-136751485D01*
X156909426Y-137635011D01*
X157001774Y-138550389D01*
X156832584Y-139438819D01*
X156420501Y-140241498D01*
X155784169Y-140899626D01*
X154942236Y-141354401D01*
X154097129Y-141535611D01*
X153493750Y-141555860D01*
X152978957Y-141519177D01*
X152825025Y-141486091D01*
X152183850Y-141152890D01*
X151536139Y-140602726D01*
X151004066Y-139949748D01*
X150813158Y-139606389D01*
X150537779Y-138785733D01*
X150536815Y-138732588D01*
X150883227Y-138732588D01*
X151180269Y-139570074D01*
X151237060Y-139680457D01*
X151765963Y-140367762D01*
X152494717Y-140906281D01*
X153305204Y-141221182D01*
X153749112Y-141271958D01*
X154245885Y-141190565D01*
X154851128Y-140985207D01*
X155097749Y-140872307D01*
X155776031Y-140408859D01*
X156250810Y-139755812D01*
X156289930Y-139680125D01*
X156614395Y-138826702D01*
X156647702Y-138048929D01*
X156391382Y-137221135D01*
X156321733Y-137071798D01*
X155775268Y-136302229D01*
X155050839Y-135786697D01*
X154218805Y-135525201D01*
X153349525Y-135517742D01*
X152513360Y-135764319D01*
X151780666Y-136264932D01*
X151221805Y-137019582D01*
X151195890Y-137071798D01*
X150889054Y-137939093D01*
X150883227Y-138732588D01*
X150536815Y-138732588D01*
X150523954Y-138023954D01*
X150776780Y-137199344D01*
X150927457Y-136876877D01*
X151290379Y-136261924D01*
X151716248Y-135845685D01*
X152294500Y-135509834D01*
X153292290Y-135136233D01*
X154186083Y-135085954D01*
X155034203Y-135366327D01*
X155034203Y-135366327D01*
G37*
X155034203Y-135366327D02*
X155865535Y-135958613D01*
X156536895Y-136751485D01*
X156909426Y-137635011D01*
X157001774Y-138550389D01*
X156832584Y-139438819D01*
X156420501Y-140241498D01*
X155784169Y-140899626D01*
X154942236Y-141354401D01*
X154097129Y-141535611D01*
X153493750Y-141555860D01*
X152978957Y-141519177D01*
X152825025Y-141486091D01*
X152183850Y-141152890D01*
X151536139Y-140602726D01*
X151004066Y-139949748D01*
X150813158Y-139606389D01*
X150537779Y-138785733D01*
X150536815Y-138732588D01*
X150883227Y-138732588D01*
X151180269Y-139570074D01*
X151237060Y-139680457D01*
X151765963Y-140367762D01*
X152494717Y-140906281D01*
X153305204Y-141221182D01*
X153749112Y-141271958D01*
X154245885Y-141190565D01*
X154851128Y-140985207D01*
X155097749Y-140872307D01*
X155776031Y-140408859D01*
X156250810Y-139755812D01*
X156289930Y-139680125D01*
X156614395Y-138826702D01*
X156647702Y-138048929D01*
X156391382Y-137221135D01*
X156321733Y-137071798D01*
X155775268Y-136302229D01*
X155050839Y-135786697D01*
X154218805Y-135525201D01*
X153349525Y-135517742D01*
X152513360Y-135764319D01*
X151780666Y-136264932D01*
X151221805Y-137019582D01*
X151195890Y-137071798D01*
X150889054Y-137939093D01*
X150883227Y-138732588D01*
X150536815Y-138732588D01*
X150523954Y-138023954D01*
X150776780Y-137199344D01*
X150927457Y-136876877D01*
X151290379Y-136261924D01*
X151716248Y-135845685D01*
X152294500Y-135509834D01*
X153292290Y-135136233D01*
X154186083Y-135085954D01*
X155034203Y-135366327D01*
G36*
X154604292Y-135974469D02*
X154918043Y-136123299D01*
X155545302Y-136607601D01*
X156035473Y-137292068D01*
X156306036Y-138046864D01*
X156334336Y-138351674D01*
X156174806Y-139200940D01*
X155742031Y-139914070D01*
X155104731Y-140451144D01*
X154331630Y-140772242D01*
X153491448Y-140837444D01*
X152652906Y-140606830D01*
X152546120Y-140552239D01*
X151983963Y-140090195D01*
X151517101Y-139428327D01*
X151233329Y-138708731D01*
X151211978Y-138544053D01*
X151627029Y-138544053D01*
X151817602Y-139243531D01*
X152220417Y-139833493D01*
X152788765Y-140265131D01*
X153475943Y-140489636D01*
X154235243Y-140458200D01*
X155019960Y-140122013D01*
X155035791Y-140111715D01*
X155505134Y-139620875D01*
X155821805Y-138936966D01*
X155925104Y-138210053D01*
X155899993Y-137975249D01*
X155605655Y-137216946D01*
X155091236Y-136651971D01*
X154432006Y-136299256D01*
X153703230Y-136177732D01*
X152980178Y-136306329D01*
X152338115Y-136703980D01*
X152069427Y-137011790D01*
X151695401Y-137783870D01*
X151627029Y-138544053D01*
X151211978Y-138544053D01*
X151187188Y-138352862D01*
X151329570Y-137674329D01*
X151715603Y-136980857D01*
X152262170Y-136396871D01*
X152671022Y-136131585D01*
X153387568Y-135847625D01*
X153982834Y-135795434D01*
X154604292Y-135974469D01*
X154604292Y-135974469D01*
G37*
X154604292Y-135974469D02*
X154918043Y-136123299D01*
X155545302Y-136607601D01*
X156035473Y-137292068D01*
X156306036Y-138046864D01*
X156334336Y-138351674D01*
X156174806Y-139200940D01*
X155742031Y-139914070D01*
X155104731Y-140451144D01*
X154331630Y-140772242D01*
X153491448Y-140837444D01*
X152652906Y-140606830D01*
X152546120Y-140552239D01*
X151983963Y-140090195D01*
X151517101Y-139428327D01*
X151233329Y-138708731D01*
X151211978Y-138544053D01*
X151627029Y-138544053D01*
X151817602Y-139243531D01*
X152220417Y-139833493D01*
X152788765Y-140265131D01*
X153475943Y-140489636D01*
X154235243Y-140458200D01*
X155019960Y-140122013D01*
X155035791Y-140111715D01*
X155505134Y-139620875D01*
X155821805Y-138936966D01*
X155925104Y-138210053D01*
X155899993Y-137975249D01*
X155605655Y-137216946D01*
X155091236Y-136651971D01*
X154432006Y-136299256D01*
X153703230Y-136177732D01*
X152980178Y-136306329D01*
X152338115Y-136703980D01*
X152069427Y-137011790D01*
X151695401Y-137783870D01*
X151627029Y-138544053D01*
X151211978Y-138544053D01*
X151187188Y-138352862D01*
X151329570Y-137674329D01*
X151715603Y-136980857D01*
X152262170Y-136396871D01*
X152671022Y-136131585D01*
X153387568Y-135847625D01*
X153982834Y-135795434D01*
X154604292Y-135974469D01*
G36*
X154601228Y-136771085D02*
X155152273Y-137234780D01*
X155379564Y-137602137D01*
X155558566Y-138320363D01*
X155443502Y-138987401D01*
X155094634Y-139549263D01*
X154572221Y-139951959D01*
X153936526Y-140141501D01*
X153247809Y-140063903D01*
X152844606Y-139873218D01*
X152336300Y-139383275D01*
X152075587Y-138886746D01*
X152007837Y-138597423D01*
X152350548Y-138597423D01*
X152608792Y-139178488D01*
X152845080Y-139429941D01*
X153453431Y-139786172D01*
X154047266Y-139788662D01*
X154638358Y-139436806D01*
X154749398Y-139331775D01*
X155167500Y-138739891D01*
X155231142Y-138147461D01*
X154940930Y-137542715D01*
X154847564Y-137427457D01*
X154393321Y-137052410D01*
X153825371Y-136938372D01*
X153777883Y-136937972D01*
X153115316Y-137083972D01*
X152635467Y-137465595D01*
X152369992Y-137998268D01*
X152350548Y-138597423D01*
X152007837Y-138597423D01*
X151961635Y-138400121D01*
X152020756Y-137982130D01*
X152190492Y-137588664D01*
X152655860Y-136982704D01*
X153268872Y-136644691D01*
X153945378Y-136574270D01*
X154601228Y-136771085D01*
X154601228Y-136771085D01*
G37*
X154601228Y-136771085D02*
X155152273Y-137234780D01*
X155379564Y-137602137D01*
X155558566Y-138320363D01*
X155443502Y-138987401D01*
X155094634Y-139549263D01*
X154572221Y-139951959D01*
X153936526Y-140141501D01*
X153247809Y-140063903D01*
X152844606Y-139873218D01*
X152336300Y-139383275D01*
X152075587Y-138886746D01*
X152007837Y-138597423D01*
X152350548Y-138597423D01*
X152608792Y-139178488D01*
X152845080Y-139429941D01*
X153453431Y-139786172D01*
X154047266Y-139788662D01*
X154638358Y-139436806D01*
X154749398Y-139331775D01*
X155167500Y-138739891D01*
X155231142Y-138147461D01*
X154940930Y-137542715D01*
X154847564Y-137427457D01*
X154393321Y-137052410D01*
X153825371Y-136938372D01*
X153777883Y-136937972D01*
X153115316Y-137083972D01*
X152635467Y-137465595D01*
X152369992Y-137998268D01*
X152350548Y-138597423D01*
X152007837Y-138597423D01*
X151961635Y-138400121D01*
X152020756Y-137982130D01*
X152190492Y-137588664D01*
X152655860Y-136982704D01*
X153268872Y-136644691D01*
X153945378Y-136574270D01*
X154601228Y-136771085D01*
D13*
X181080000Y-127570000D02*
X181080000Y-128970000D01*
D10*
X182734000Y-129340000D02*
X182734000Y-129740000D01*
X182734000Y-129540000D02*
X183034000Y-129340000D01*
X183034000Y-129740000D02*
X182734000Y-129540000D01*
X183034000Y-129340000D02*
X183034000Y-129740000D01*
D13*
X181080000Y-128970000D02*
X183880000Y-128970000D01*
X181080000Y-127570000D02*
X183880000Y-127570000D01*
X181080000Y-123760000D02*
X181080000Y-125160000D01*
D10*
X182734000Y-125530000D02*
X182734000Y-125930000D01*
X182734000Y-125730000D02*
X183034000Y-125530000D01*
X183034000Y-125930000D02*
X182734000Y-125730000D01*
X183034000Y-125530000D02*
X183034000Y-125930000D01*
D13*
X181080000Y-125160000D02*
X183880000Y-125160000D01*
X181080000Y-123760000D02*
X183880000Y-123760000D01*
X187360000Y-127390000D02*
X188560000Y-127390000D01*
X188560000Y-129150000D02*
X187360000Y-129150000D01*
X187360000Y-123580000D02*
X188560000Y-123580000D01*
X188560000Y-125340000D02*
X187360000Y-125340000D01*
D14*
G36*
X162309911Y-135091660D02*
X162659460Y-135091707D01*
X162822170Y-135091714D01*
X165426571Y-135091715D01*
X165426571Y-135245238D01*
X165442957Y-135432063D01*
X165492412Y-135604367D01*
X165575380Y-135763175D01*
X165692305Y-135909510D01*
X165731864Y-135949032D01*
X165874170Y-136061138D01*
X166031078Y-136142899D01*
X166197928Y-136194353D01*
X166370061Y-136215537D01*
X166542815Y-136206487D01*
X166711530Y-136167242D01*
X166871546Y-136097838D01*
X167018202Y-135998311D01*
X167084068Y-135938265D01*
X167206808Y-135791043D01*
X167296812Y-135629147D01*
X167353294Y-135454427D01*
X167375471Y-135268735D01*
X167375766Y-135250467D01*
X167376928Y-135091720D01*
X167446700Y-135091717D01*
X167508595Y-135100118D01*
X167565135Y-135120556D01*
X167568872Y-135122667D01*
X167581642Y-135129293D01*
X167593368Y-135134454D01*
X167604094Y-135139651D01*
X167613861Y-135146390D01*
X167622712Y-135156171D01*
X167630689Y-135170500D01*
X167637835Y-135190878D01*
X167644192Y-135218808D01*
X167649802Y-135255795D01*
X167654707Y-135303340D01*
X167658951Y-135362947D01*
X167662576Y-135436119D01*
X167665623Y-135524359D01*
X167668136Y-135629170D01*
X167670156Y-135752055D01*
X167671726Y-135894517D01*
X167672888Y-136058060D01*
X167673686Y-136244186D01*
X167674160Y-136454398D01*
X167674354Y-136690200D01*
X167674310Y-136953094D01*
X167674070Y-137244584D01*
X167673677Y-137566172D01*
X167673173Y-137919362D01*
X167672600Y-138305657D01*
X167672001Y-138726560D01*
X167671932Y-138777840D01*
X167671395Y-139201426D01*
X167670939Y-139590230D01*
X167670516Y-139945753D01*
X167670079Y-140269498D01*
X167669578Y-140562966D01*
X167668965Y-140827661D01*
X167668192Y-141065085D01*
X167667211Y-141276740D01*
X167665974Y-141464129D01*
X167664432Y-141628754D01*
X167662537Y-141772117D01*
X167660241Y-141895720D01*
X167657496Y-142001067D01*
X167654253Y-142089659D01*
X167650464Y-142163000D01*
X167646081Y-142222590D01*
X167641055Y-142269933D01*
X167635339Y-142306531D01*
X167628884Y-142333886D01*
X167621641Y-142353502D01*
X167613563Y-142366879D01*
X167604602Y-142375521D01*
X167594708Y-142380930D01*
X167583835Y-142384608D01*
X167571933Y-142388058D01*
X167558954Y-142392782D01*
X167555783Y-142394220D01*
X167545819Y-142397451D01*
X167529141Y-142400420D01*
X167504293Y-142403137D01*
X167469820Y-142405613D01*
X167424264Y-142407858D01*
X167366170Y-142409883D01*
X167294081Y-142411698D01*
X167206542Y-142413315D01*
X167102095Y-142414743D01*
X166979285Y-142415993D01*
X166836655Y-142417076D01*
X166672749Y-142418002D01*
X166486110Y-142418782D01*
X166275284Y-142419426D01*
X166038812Y-142419946D01*
X165775239Y-142420351D01*
X165483110Y-142420652D01*
X165160966Y-142420860D01*
X164807353Y-142420985D01*
X164420814Y-142421038D01*
X163999892Y-142421029D01*
X163863544Y-142421016D01*
X163433284Y-142420947D01*
X163037836Y-142420834D01*
X162675727Y-142420665D01*
X162345483Y-142420430D01*
X162045629Y-142420116D01*
X161774692Y-142419713D01*
X161531200Y-142419207D01*
X161313677Y-142418589D01*
X161120650Y-142417846D01*
X160950646Y-142416968D01*
X160802190Y-142415941D01*
X160673810Y-142414756D01*
X160564031Y-142413400D01*
X160471380Y-142411862D01*
X160394383Y-142410130D01*
X160331566Y-142408194D01*
X160281456Y-142406040D01*
X160242579Y-142403659D01*
X160213462Y-142401037D01*
X160192629Y-142398165D01*
X160178609Y-142395030D01*
X160170966Y-142392159D01*
X160157382Y-142386430D01*
X160144910Y-142382206D01*
X160133502Y-142377985D01*
X160123111Y-142372268D01*
X160113691Y-142363555D01*
X160105192Y-142350345D01*
X160097570Y-142331137D01*
X160090775Y-142304433D01*
X160084762Y-142268730D01*
X160079483Y-142222530D01*
X160074890Y-142164332D01*
X160070936Y-142092635D01*
X160067575Y-142005940D01*
X160064759Y-141902746D01*
X160062440Y-141781553D01*
X160060572Y-141640860D01*
X160060084Y-141586857D01*
X160544296Y-141586857D01*
X162255744Y-141586857D01*
X162222813Y-141536964D01*
X162190053Y-141485693D01*
X162162311Y-141436869D01*
X162139193Y-141387076D01*
X162120303Y-141332898D01*
X162105249Y-141270916D01*
X162093633Y-141197715D01*
X162085064Y-141109878D01*
X162079144Y-141003988D01*
X162075481Y-140876628D01*
X162073679Y-140724381D01*
X162073344Y-140543832D01*
X162074081Y-140331562D01*
X162074499Y-140252755D01*
X162079214Y-139407911D01*
X162614428Y-140136557D01*
X162766054Y-140343265D01*
X162897419Y-140523260D01*
X163009943Y-140678925D01*
X163105043Y-140812647D01*
X163184138Y-140926809D01*
X163248647Y-141023797D01*
X163299988Y-141105994D01*
X163339580Y-141175786D01*
X163368840Y-141235558D01*
X163389188Y-141287693D01*
X163402042Y-141334576D01*
X163408819Y-141378593D01*
X163410940Y-141422127D01*
X163409821Y-141467564D01*
X163409536Y-141473275D01*
X163403643Y-141586933D01*
X165279229Y-141586857D01*
X165139722Y-141446189D01*
X165101865Y-141407715D01*
X165065953Y-141370279D01*
X165030407Y-141331814D01*
X164993653Y-141290258D01*
X164954114Y-141243545D01*
X164910214Y-141189610D01*
X164860377Y-141126390D01*
X164803028Y-141051818D01*
X164736589Y-140963832D01*
X164659485Y-140860365D01*
X164570139Y-140739354D01*
X164466976Y-140598734D01*
X164348420Y-140436440D01*
X164212895Y-140250407D01*
X164058823Y-140038571D01*
X163932538Y-139864804D01*
X163774046Y-139646501D01*
X163635784Y-139455629D01*
X163516501Y-139290374D01*
X163414943Y-139148926D01*
X163329859Y-139029471D01*
X163259995Y-138930198D01*
X163204100Y-138849295D01*
X163160920Y-138784949D01*
X163129203Y-138735347D01*
X163107698Y-138698679D01*
X163095150Y-138673132D01*
X163090308Y-138656893D01*
X163091763Y-138648355D01*
X163109401Y-138625635D01*
X163147534Y-138577543D01*
X163203862Y-138506938D01*
X163276084Y-138416678D01*
X163361899Y-138309621D01*
X163459006Y-138188627D01*
X163565104Y-138056554D01*
X163677891Y-137916260D01*
X163795068Y-137770603D01*
X163914333Y-137622444D01*
X163979933Y-137541000D01*
X165608686Y-137541000D01*
X165676379Y-137663465D01*
X165744071Y-137785929D01*
X165744071Y-141341929D01*
X165676379Y-141464393D01*
X165608686Y-141586857D01*
X166409441Y-141586857D01*
X166600602Y-141586802D01*
X166758499Y-141586551D01*
X166886152Y-141585979D01*
X166986581Y-141584959D01*
X167062807Y-141583365D01*
X167117852Y-141581070D01*
X167154736Y-141577950D01*
X167176479Y-141573877D01*
X167186102Y-141568725D01*
X167186627Y-141562367D01*
X167181074Y-141554679D01*
X167181016Y-141554615D01*
X167158140Y-141521524D01*
X167127849Y-141467719D01*
X167101097Y-141414008D01*
X167050357Y-141305643D01*
X167045182Y-139423322D01*
X167040007Y-137541000D01*
X165608686Y-137541000D01*
X163979933Y-137541000D01*
X164033385Y-137474639D01*
X164149923Y-137330047D01*
X164261646Y-137191528D01*
X164366254Y-137061939D01*
X164461444Y-136944140D01*
X164544917Y-136840988D01*
X164614371Y-136755343D01*
X164667506Y-136690062D01*
X164698715Y-136652000D01*
X164819903Y-136509670D01*
X164936493Y-136381230D01*
X165044397Y-136270886D01*
X165139530Y-136182841D01*
X165207043Y-136128862D01*
X165286873Y-136071429D01*
X163450892Y-136071429D01*
X163451408Y-136179165D01*
X163446276Y-136258372D01*
X163426985Y-136331805D01*
X163397123Y-136401415D01*
X163377712Y-136440741D01*
X163356841Y-136479707D01*
X163332604Y-136520901D01*
X163303094Y-136566908D01*
X163266406Y-136620317D01*
X163220632Y-136683714D01*
X163163865Y-136759685D01*
X163094200Y-136850817D01*
X163009730Y-136959698D01*
X162908547Y-137088914D01*
X162788747Y-137241052D01*
X162648421Y-137418698D01*
X162632571Y-137438742D01*
X162079214Y-138138508D01*
X162073857Y-137363504D01*
X162072779Y-137131368D01*
X162073008Y-136934846D01*
X162074557Y-136773292D01*
X162077437Y-136646056D01*
X162081659Y-136552492D01*
X162087234Y-136491952D01*
X162089107Y-136480468D01*
X162118505Y-136359499D01*
X162157022Y-136250446D01*
X162200974Y-136162763D01*
X162227379Y-136125574D01*
X162272940Y-136071429D01*
X161408470Y-136071429D01*
X161202255Y-136071605D01*
X161029812Y-136072179D01*
X160888627Y-136073217D01*
X160776188Y-136074787D01*
X160689983Y-136076954D01*
X160627498Y-136079788D01*
X160586221Y-136083353D01*
X160563640Y-136087718D01*
X160557241Y-136092949D01*
X160557683Y-136094107D01*
X160576009Y-136121769D01*
X160606604Y-136165615D01*
X160622433Y-136187791D01*
X160638798Y-136209920D01*
X160653508Y-136229709D01*
X160666656Y-136249106D01*
X160678333Y-136270058D01*
X160688632Y-136294512D01*
X160697646Y-136324416D01*
X160705468Y-136361717D01*
X160712191Y-136408363D01*
X160717906Y-136466301D01*
X160722707Y-136537479D01*
X160726685Y-136623844D01*
X160729935Y-136727344D01*
X160732548Y-136849925D01*
X160734617Y-136993537D01*
X160736234Y-137160125D01*
X160737493Y-137351637D01*
X160738485Y-137570022D01*
X160739304Y-137817226D01*
X160740042Y-138095196D01*
X160740791Y-138405881D01*
X160741492Y-138691300D01*
X160742153Y-139009492D01*
X160742497Y-139313077D01*
X160742532Y-139600115D01*
X160742268Y-139868669D01*
X160741715Y-140116798D01*
X160740880Y-140342563D01*
X160739773Y-140544026D01*
X160738404Y-140719246D01*
X160736781Y-140866286D01*
X160734913Y-140983206D01*
X160732811Y-141068067D01*
X160730482Y-141118929D01*
X160730041Y-141124304D01*
X160713992Y-141247613D01*
X160688936Y-141346644D01*
X160650779Y-141433070D01*
X160595428Y-141518565D01*
X160588504Y-141527893D01*
X160544296Y-141586857D01*
X160060084Y-141586857D01*
X160059108Y-141479168D01*
X160057999Y-141294976D01*
X160057199Y-141086784D01*
X160056661Y-140853091D01*
X160056338Y-140592398D01*
X160056183Y-140303204D01*
X160056146Y-139984009D01*
X160056183Y-139633313D01*
X160056245Y-139249614D01*
X160056285Y-138831414D01*
X160056286Y-138748393D01*
X160056309Y-138325789D01*
X160056388Y-137937981D01*
X160056533Y-137583480D01*
X160056756Y-137260797D01*
X160057069Y-136968442D01*
X160057483Y-136704927D01*
X160058009Y-136468762D01*
X160058660Y-136258458D01*
X160059447Y-136072526D01*
X160060381Y-135909475D01*
X160061474Y-135767818D01*
X160062737Y-135646064D01*
X160064183Y-135542725D01*
X160065821Y-135456311D01*
X160067666Y-135385333D01*
X160069726Y-135328301D01*
X160072015Y-135283727D01*
X160074544Y-135250121D01*
X160077324Y-135225993D01*
X160080367Y-135209856D01*
X160083684Y-135200218D01*
X160083807Y-135199978D01*
X160090640Y-135185255D01*
X160096330Y-135171926D01*
X160102626Y-135159922D01*
X160111272Y-135149173D01*
X160124014Y-135139611D01*
X160142600Y-135131167D01*
X160168774Y-135123771D01*
X160204284Y-135117354D01*
X160250875Y-135111848D01*
X160310293Y-135107183D01*
X160384285Y-135103291D01*
X160474597Y-135100102D01*
X160582975Y-135097547D01*
X160711165Y-135095558D01*
X160860913Y-135094065D01*
X161033966Y-135092998D01*
X161232069Y-135092291D01*
X161456969Y-135091872D01*
X161710412Y-135091673D01*
X161994144Y-135091626D01*
X162309911Y-135091660D01*
X162309911Y-135091660D01*
G37*
X162309911Y-135091660D02*
X162659460Y-135091707D01*
X162822170Y-135091714D01*
X165426571Y-135091715D01*
X165426571Y-135245238D01*
X165442957Y-135432063D01*
X165492412Y-135604367D01*
X165575380Y-135763175D01*
X165692305Y-135909510D01*
X165731864Y-135949032D01*
X165874170Y-136061138D01*
X166031078Y-136142899D01*
X166197928Y-136194353D01*
X166370061Y-136215537D01*
X166542815Y-136206487D01*
X166711530Y-136167242D01*
X166871546Y-136097838D01*
X167018202Y-135998311D01*
X167084068Y-135938265D01*
X167206808Y-135791043D01*
X167296812Y-135629147D01*
X167353294Y-135454427D01*
X167375471Y-135268735D01*
X167375766Y-135250467D01*
X167376928Y-135091720D01*
X167446700Y-135091717D01*
X167508595Y-135100118D01*
X167565135Y-135120556D01*
X167568872Y-135122667D01*
X167581642Y-135129293D01*
X167593368Y-135134454D01*
X167604094Y-135139651D01*
X167613861Y-135146390D01*
X167622712Y-135156171D01*
X167630689Y-135170500D01*
X167637835Y-135190878D01*
X167644192Y-135218808D01*
X167649802Y-135255795D01*
X167654707Y-135303340D01*
X167658951Y-135362947D01*
X167662576Y-135436119D01*
X167665623Y-135524359D01*
X167668136Y-135629170D01*
X167670156Y-135752055D01*
X167671726Y-135894517D01*
X167672888Y-136058060D01*
X167673686Y-136244186D01*
X167674160Y-136454398D01*
X167674354Y-136690200D01*
X167674310Y-136953094D01*
X167674070Y-137244584D01*
X167673677Y-137566172D01*
X167673173Y-137919362D01*
X167672600Y-138305657D01*
X167672001Y-138726560D01*
X167671932Y-138777840D01*
X167671395Y-139201426D01*
X167670939Y-139590230D01*
X167670516Y-139945753D01*
X167670079Y-140269498D01*
X167669578Y-140562966D01*
X167668965Y-140827661D01*
X167668192Y-141065085D01*
X167667211Y-141276740D01*
X167665974Y-141464129D01*
X167664432Y-141628754D01*
X167662537Y-141772117D01*
X167660241Y-141895720D01*
X167657496Y-142001067D01*
X167654253Y-142089659D01*
X167650464Y-142163000D01*
X167646081Y-142222590D01*
X167641055Y-142269933D01*
X167635339Y-142306531D01*
X167628884Y-142333886D01*
X167621641Y-142353502D01*
X167613563Y-142366879D01*
X167604602Y-142375521D01*
X167594708Y-142380930D01*
X167583835Y-142384608D01*
X167571933Y-142388058D01*
X167558954Y-142392782D01*
X167555783Y-142394220D01*
X167545819Y-142397451D01*
X167529141Y-142400420D01*
X167504293Y-142403137D01*
X167469820Y-142405613D01*
X167424264Y-142407858D01*
X167366170Y-142409883D01*
X167294081Y-142411698D01*
X167206542Y-142413315D01*
X167102095Y-142414743D01*
X166979285Y-142415993D01*
X166836655Y-142417076D01*
X166672749Y-142418002D01*
X166486110Y-142418782D01*
X166275284Y-142419426D01*
X166038812Y-142419946D01*
X165775239Y-142420351D01*
X165483110Y-142420652D01*
X165160966Y-142420860D01*
X164807353Y-142420985D01*
X164420814Y-142421038D01*
X163999892Y-142421029D01*
X163863544Y-142421016D01*
X163433284Y-142420947D01*
X163037836Y-142420834D01*
X162675727Y-142420665D01*
X162345483Y-142420430D01*
X162045629Y-142420116D01*
X161774692Y-142419713D01*
X161531200Y-142419207D01*
X161313677Y-142418589D01*
X161120650Y-142417846D01*
X160950646Y-142416968D01*
X160802190Y-142415941D01*
X160673810Y-142414756D01*
X160564031Y-142413400D01*
X160471380Y-142411862D01*
X160394383Y-142410130D01*
X160331566Y-142408194D01*
X160281456Y-142406040D01*
X160242579Y-142403659D01*
X160213462Y-142401037D01*
X160192629Y-142398165D01*
X160178609Y-142395030D01*
X160170966Y-142392159D01*
X160157382Y-142386430D01*
X160144910Y-142382206D01*
X160133502Y-142377985D01*
X160123111Y-142372268D01*
X160113691Y-142363555D01*
X160105192Y-142350345D01*
X160097570Y-142331137D01*
X160090775Y-142304433D01*
X160084762Y-142268730D01*
X160079483Y-142222530D01*
X160074890Y-142164332D01*
X160070936Y-142092635D01*
X160067575Y-142005940D01*
X160064759Y-141902746D01*
X160062440Y-141781553D01*
X160060572Y-141640860D01*
X160060084Y-141586857D01*
X160544296Y-141586857D01*
X162255744Y-141586857D01*
X162222813Y-141536964D01*
X162190053Y-141485693D01*
X162162311Y-141436869D01*
X162139193Y-141387076D01*
X162120303Y-141332898D01*
X162105249Y-141270916D01*
X162093633Y-141197715D01*
X162085064Y-141109878D01*
X162079144Y-141003988D01*
X162075481Y-140876628D01*
X162073679Y-140724381D01*
X162073344Y-140543832D01*
X162074081Y-140331562D01*
X162074499Y-140252755D01*
X162079214Y-139407911D01*
X162614428Y-140136557D01*
X162766054Y-140343265D01*
X162897419Y-140523260D01*
X163009943Y-140678925D01*
X163105043Y-140812647D01*
X163184138Y-140926809D01*
X163248647Y-141023797D01*
X163299988Y-141105994D01*
X163339580Y-141175786D01*
X163368840Y-141235558D01*
X163389188Y-141287693D01*
X163402042Y-141334576D01*
X163408819Y-141378593D01*
X163410940Y-141422127D01*
X163409821Y-141467564D01*
X163409536Y-141473275D01*
X163403643Y-141586933D01*
X165279229Y-141586857D01*
X165139722Y-141446189D01*
X165101865Y-141407715D01*
X165065953Y-141370279D01*
X165030407Y-141331814D01*
X164993653Y-141290258D01*
X164954114Y-141243545D01*
X164910214Y-141189610D01*
X164860377Y-141126390D01*
X164803028Y-141051818D01*
X164736589Y-140963832D01*
X164659485Y-140860365D01*
X164570139Y-140739354D01*
X164466976Y-140598734D01*
X164348420Y-140436440D01*
X164212895Y-140250407D01*
X164058823Y-140038571D01*
X163932538Y-139864804D01*
X163774046Y-139646501D01*
X163635784Y-139455629D01*
X163516501Y-139290374D01*
X163414943Y-139148926D01*
X163329859Y-139029471D01*
X163259995Y-138930198D01*
X163204100Y-138849295D01*
X163160920Y-138784949D01*
X163129203Y-138735347D01*
X163107698Y-138698679D01*
X163095150Y-138673132D01*
X163090308Y-138656893D01*
X163091763Y-138648355D01*
X163109401Y-138625635D01*
X163147534Y-138577543D01*
X163203862Y-138506938D01*
X163276084Y-138416678D01*
X163361899Y-138309621D01*
X163459006Y-138188627D01*
X163565104Y-138056554D01*
X163677891Y-137916260D01*
X163795068Y-137770603D01*
X163914333Y-137622444D01*
X163979933Y-137541000D01*
X165608686Y-137541000D01*
X165676379Y-137663465D01*
X165744071Y-137785929D01*
X165744071Y-141341929D01*
X165676379Y-141464393D01*
X165608686Y-141586857D01*
X166409441Y-141586857D01*
X166600602Y-141586802D01*
X166758499Y-141586551D01*
X166886152Y-141585979D01*
X166986581Y-141584959D01*
X167062807Y-141583365D01*
X167117852Y-141581070D01*
X167154736Y-141577950D01*
X167176479Y-141573877D01*
X167186102Y-141568725D01*
X167186627Y-141562367D01*
X167181074Y-141554679D01*
X167181016Y-141554615D01*
X167158140Y-141521524D01*
X167127849Y-141467719D01*
X167101097Y-141414008D01*
X167050357Y-141305643D01*
X167045182Y-139423322D01*
X167040007Y-137541000D01*
X165608686Y-137541000D01*
X163979933Y-137541000D01*
X164033385Y-137474639D01*
X164149923Y-137330047D01*
X164261646Y-137191528D01*
X164366254Y-137061939D01*
X164461444Y-136944140D01*
X164544917Y-136840988D01*
X164614371Y-136755343D01*
X164667506Y-136690062D01*
X164698715Y-136652000D01*
X164819903Y-136509670D01*
X164936493Y-136381230D01*
X165044397Y-136270886D01*
X165139530Y-136182841D01*
X165207043Y-136128862D01*
X165286873Y-136071429D01*
X163450892Y-136071429D01*
X163451408Y-136179165D01*
X163446276Y-136258372D01*
X163426985Y-136331805D01*
X163397123Y-136401415D01*
X163377712Y-136440741D01*
X163356841Y-136479707D01*
X163332604Y-136520901D01*
X163303094Y-136566908D01*
X163266406Y-136620317D01*
X163220632Y-136683714D01*
X163163865Y-136759685D01*
X163094200Y-136850817D01*
X163009730Y-136959698D01*
X162908547Y-137088914D01*
X162788747Y-137241052D01*
X162648421Y-137418698D01*
X162632571Y-137438742D01*
X162079214Y-138138508D01*
X162073857Y-137363504D01*
X162072779Y-137131368D01*
X162073008Y-136934846D01*
X162074557Y-136773292D01*
X162077437Y-136646056D01*
X162081659Y-136552492D01*
X162087234Y-136491952D01*
X162089107Y-136480468D01*
X162118505Y-136359499D01*
X162157022Y-136250446D01*
X162200974Y-136162763D01*
X162227379Y-136125574D01*
X162272940Y-136071429D01*
X161408470Y-136071429D01*
X161202255Y-136071605D01*
X161029812Y-136072179D01*
X160888627Y-136073217D01*
X160776188Y-136074787D01*
X160689983Y-136076954D01*
X160627498Y-136079788D01*
X160586221Y-136083353D01*
X160563640Y-136087718D01*
X160557241Y-136092949D01*
X160557683Y-136094107D01*
X160576009Y-136121769D01*
X160606604Y-136165615D01*
X160622433Y-136187791D01*
X160638798Y-136209920D01*
X160653508Y-136229709D01*
X160666656Y-136249106D01*
X160678333Y-136270058D01*
X160688632Y-136294512D01*
X160697646Y-136324416D01*
X160705468Y-136361717D01*
X160712191Y-136408363D01*
X160717906Y-136466301D01*
X160722707Y-136537479D01*
X160726685Y-136623844D01*
X160729935Y-136727344D01*
X160732548Y-136849925D01*
X160734617Y-136993537D01*
X160736234Y-137160125D01*
X160737493Y-137351637D01*
X160738485Y-137570022D01*
X160739304Y-137817226D01*
X160740042Y-138095196D01*
X160740791Y-138405881D01*
X160741492Y-138691300D01*
X160742153Y-139009492D01*
X160742497Y-139313077D01*
X160742532Y-139600115D01*
X160742268Y-139868669D01*
X160741715Y-140116798D01*
X160740880Y-140342563D01*
X160739773Y-140544026D01*
X160738404Y-140719246D01*
X160736781Y-140866286D01*
X160734913Y-140983206D01*
X160732811Y-141068067D01*
X160730482Y-141118929D01*
X160730041Y-141124304D01*
X160713992Y-141247613D01*
X160688936Y-141346644D01*
X160650779Y-141433070D01*
X160595428Y-141518565D01*
X160588504Y-141527893D01*
X160544296Y-141586857D01*
X160060084Y-141586857D01*
X160059108Y-141479168D01*
X160057999Y-141294976D01*
X160057199Y-141086784D01*
X160056661Y-140853091D01*
X160056338Y-140592398D01*
X160056183Y-140303204D01*
X160056146Y-139984009D01*
X160056183Y-139633313D01*
X160056245Y-139249614D01*
X160056285Y-138831414D01*
X160056286Y-138748393D01*
X160056309Y-138325789D01*
X160056388Y-137937981D01*
X160056533Y-137583480D01*
X160056756Y-137260797D01*
X160057069Y-136968442D01*
X160057483Y-136704927D01*
X160058009Y-136468762D01*
X160058660Y-136258458D01*
X160059447Y-136072526D01*
X160060381Y-135909475D01*
X160061474Y-135767818D01*
X160062737Y-135646064D01*
X160064183Y-135542725D01*
X160065821Y-135456311D01*
X160067666Y-135385333D01*
X160069726Y-135328301D01*
X160072015Y-135283727D01*
X160074544Y-135250121D01*
X160077324Y-135225993D01*
X160080367Y-135209856D01*
X160083684Y-135200218D01*
X160083807Y-135199978D01*
X160090640Y-135185255D01*
X160096330Y-135171926D01*
X160102626Y-135159922D01*
X160111272Y-135149173D01*
X160124014Y-135139611D01*
X160142600Y-135131167D01*
X160168774Y-135123771D01*
X160204284Y-135117354D01*
X160250875Y-135111848D01*
X160310293Y-135107183D01*
X160384285Y-135103291D01*
X160474597Y-135100102D01*
X160582975Y-135097547D01*
X160711165Y-135095558D01*
X160860913Y-135094065D01*
X161033966Y-135092998D01*
X161232069Y-135092291D01*
X161456969Y-135091872D01*
X161710412Y-135091673D01*
X161994144Y-135091626D01*
X162309911Y-135091660D01*
G36*
X170761378Y-135999231D02*
X170957019Y-136020649D01*
X171146562Y-136058985D01*
X171337717Y-136116238D01*
X171538196Y-136194409D01*
X171755708Y-136295496D01*
X171794880Y-136315076D01*
X171884772Y-136359362D01*
X171969553Y-136399239D01*
X172040855Y-136430898D01*
X172090310Y-136450532D01*
X172097908Y-136453004D01*
X172170714Y-136474817D01*
X171844803Y-136948944D01*
X171765123Y-137064823D01*
X171692272Y-137170694D01*
X171628730Y-137262962D01*
X171576972Y-137338033D01*
X171539477Y-137392313D01*
X171518723Y-137422207D01*
X171515351Y-137426941D01*
X171501655Y-137417042D01*
X171467943Y-137387285D01*
X171420244Y-137343073D01*
X171393920Y-137318084D01*
X171244772Y-137199456D01*
X171077268Y-137109313D01*
X170932928Y-137059936D01*
X170846283Y-137044429D01*
X170737796Y-137034979D01*
X170620227Y-137031761D01*
X170506334Y-137034951D01*
X170408879Y-137044724D01*
X170369990Y-137052209D01*
X170194712Y-137112512D01*
X170036765Y-137204590D01*
X169896268Y-137328273D01*
X169773335Y-137483393D01*
X169668085Y-137669781D01*
X169580635Y-137887270D01*
X169511100Y-138135692D01*
X169469775Y-138348357D01*
X169458994Y-138442241D01*
X169451648Y-138563524D01*
X169447667Y-138703493D01*
X169446979Y-138853431D01*
X169449514Y-139004622D01*
X169455200Y-139148351D01*
X169463967Y-139275903D01*
X169475744Y-139378562D01*
X169478293Y-139394401D01*
X169534481Y-139649536D01*
X169611036Y-139875342D01*
X169708426Y-140072831D01*
X169827114Y-140243014D01*
X169911363Y-140335022D01*
X170062770Y-140459943D01*
X170228817Y-140552540D01*
X170406701Y-140612309D01*
X170593622Y-140638746D01*
X170786778Y-140631348D01*
X170983369Y-140589611D01*
X171099597Y-140548771D01*
X171260438Y-140466990D01*
X171426213Y-140349678D01*
X171519073Y-140270345D01*
X171571214Y-140224429D01*
X171612180Y-140190742D01*
X171635498Y-140174510D01*
X171638393Y-140174015D01*
X171648800Y-140190601D01*
X171675767Y-140234432D01*
X171716996Y-140301748D01*
X171770189Y-140388794D01*
X171833050Y-140491810D01*
X171903281Y-140607041D01*
X171942372Y-140671231D01*
X172240964Y-141161677D01*
X171868161Y-141345915D01*
X171733369Y-141412093D01*
X171624175Y-141464278D01*
X171533907Y-141505060D01*
X171455888Y-141537033D01*
X171383444Y-141562787D01*
X171309901Y-141584914D01*
X171228584Y-141606007D01*
X171150643Y-141624530D01*
X171081366Y-141638863D01*
X171008917Y-141649694D01*
X170926042Y-141657626D01*
X170825488Y-141663258D01*
X170700003Y-141667192D01*
X170615428Y-141668891D01*
X170494754Y-141670050D01*
X170379042Y-141669465D01*
X170275951Y-141667304D01*
X170193138Y-141663732D01*
X170138260Y-141658917D01*
X170135008Y-141658437D01*
X169850043Y-141596786D01*
X169582442Y-141503285D01*
X169332297Y-141377993D01*
X169099704Y-141220974D01*
X168884757Y-141032289D01*
X168687550Y-140812000D01*
X168544727Y-140616214D01*
X168392680Y-140359949D01*
X168269773Y-140089317D01*
X168175410Y-139802149D01*
X168108999Y-139496276D01*
X168069944Y-139169528D01*
X168057640Y-138837739D01*
X168067759Y-138516779D01*
X168099561Y-138220646D01*
X168154054Y-137944345D01*
X168232250Y-137682881D01*
X168335159Y-137431258D01*
X168347447Y-137405190D01*
X168482820Y-137161507D01*
X168649089Y-136929618D01*
X168841541Y-136714323D01*
X169055466Y-136520422D01*
X169286155Y-136352715D01*
X169501109Y-136229696D01*
X169718258Y-136133345D01*
X169935868Y-136063551D01*
X170162362Y-136018413D01*
X170406166Y-135996031D01*
X170551928Y-135992731D01*
X170761378Y-135999231D01*
X170761378Y-135999231D01*
G37*
X170761378Y-135999231D02*
X170957019Y-136020649D01*
X171146562Y-136058985D01*
X171337717Y-136116238D01*
X171538196Y-136194409D01*
X171755708Y-136295496D01*
X171794880Y-136315076D01*
X171884772Y-136359362D01*
X171969553Y-136399239D01*
X172040855Y-136430898D01*
X172090310Y-136450532D01*
X172097908Y-136453004D01*
X172170714Y-136474817D01*
X171844803Y-136948944D01*
X171765123Y-137064823D01*
X171692272Y-137170694D01*
X171628730Y-137262962D01*
X171576972Y-137338033D01*
X171539477Y-137392313D01*
X171518723Y-137422207D01*
X171515351Y-137426941D01*
X171501655Y-137417042D01*
X171467943Y-137387285D01*
X171420244Y-137343073D01*
X171393920Y-137318084D01*
X171244772Y-137199456D01*
X171077268Y-137109313D01*
X170932928Y-137059936D01*
X170846283Y-137044429D01*
X170737796Y-137034979D01*
X170620227Y-137031761D01*
X170506334Y-137034951D01*
X170408879Y-137044724D01*
X170369990Y-137052209D01*
X170194712Y-137112512D01*
X170036765Y-137204590D01*
X169896268Y-137328273D01*
X169773335Y-137483393D01*
X169668085Y-137669781D01*
X169580635Y-137887270D01*
X169511100Y-138135692D01*
X169469775Y-138348357D01*
X169458994Y-138442241D01*
X169451648Y-138563524D01*
X169447667Y-138703493D01*
X169446979Y-138853431D01*
X169449514Y-139004622D01*
X169455200Y-139148351D01*
X169463967Y-139275903D01*
X169475744Y-139378562D01*
X169478293Y-139394401D01*
X169534481Y-139649536D01*
X169611036Y-139875342D01*
X169708426Y-140072831D01*
X169827114Y-140243014D01*
X169911363Y-140335022D01*
X170062770Y-140459943D01*
X170228817Y-140552540D01*
X170406701Y-140612309D01*
X170593622Y-140638746D01*
X170786778Y-140631348D01*
X170983369Y-140589611D01*
X171099597Y-140548771D01*
X171260438Y-140466990D01*
X171426213Y-140349678D01*
X171519073Y-140270345D01*
X171571214Y-140224429D01*
X171612180Y-140190742D01*
X171635498Y-140174510D01*
X171638393Y-140174015D01*
X171648800Y-140190601D01*
X171675767Y-140234432D01*
X171716996Y-140301748D01*
X171770189Y-140388794D01*
X171833050Y-140491810D01*
X171903281Y-140607041D01*
X171942372Y-140671231D01*
X172240964Y-141161677D01*
X171868161Y-141345915D01*
X171733369Y-141412093D01*
X171624175Y-141464278D01*
X171533907Y-141505060D01*
X171455888Y-141537033D01*
X171383444Y-141562787D01*
X171309901Y-141584914D01*
X171228584Y-141606007D01*
X171150643Y-141624530D01*
X171081366Y-141638863D01*
X171008917Y-141649694D01*
X170926042Y-141657626D01*
X170825488Y-141663258D01*
X170700003Y-141667192D01*
X170615428Y-141668891D01*
X170494754Y-141670050D01*
X170379042Y-141669465D01*
X170275951Y-141667304D01*
X170193138Y-141663732D01*
X170138260Y-141658917D01*
X170135008Y-141658437D01*
X169850043Y-141596786D01*
X169582442Y-141503285D01*
X169332297Y-141377993D01*
X169099704Y-141220974D01*
X168884757Y-141032289D01*
X168687550Y-140812000D01*
X168544727Y-140616214D01*
X168392680Y-140359949D01*
X168269773Y-140089317D01*
X168175410Y-139802149D01*
X168108999Y-139496276D01*
X168069944Y-139169528D01*
X168057640Y-138837739D01*
X168067759Y-138516779D01*
X168099561Y-138220646D01*
X168154054Y-137944345D01*
X168232250Y-137682881D01*
X168335159Y-137431258D01*
X168347447Y-137405190D01*
X168482820Y-137161507D01*
X168649089Y-136929618D01*
X168841541Y-136714323D01*
X169055466Y-136520422D01*
X169286155Y-136352715D01*
X169501109Y-136229696D01*
X169718258Y-136133345D01*
X169935868Y-136063551D01*
X170162362Y-136018413D01*
X170406166Y-135996031D01*
X170551928Y-135992731D01*
X170761378Y-135999231D01*
G36*
X174365632Y-137457730D02*
X174455523Y-137464535D01*
X174712715Y-137498753D01*
X174940485Y-137553331D01*
X175139943Y-137629020D01*
X175312197Y-137726570D01*
X175458359Y-137846732D01*
X175579536Y-137990258D01*
X175676839Y-138157898D01*
X175747891Y-138339286D01*
X175765927Y-138397146D01*
X175781632Y-138451329D01*
X175795192Y-138504752D01*
X175806792Y-138560333D01*
X175816617Y-138620988D01*
X175824853Y-138689635D01*
X175831684Y-138769190D01*
X175837295Y-138862572D01*
X175841872Y-138972696D01*
X175845600Y-139102481D01*
X175848665Y-139254842D01*
X175851250Y-139432698D01*
X175853542Y-139638965D01*
X175855725Y-139876561D01*
X175857286Y-140062857D01*
X175867785Y-141341929D01*
X175935821Y-141465018D01*
X175968038Y-141524317D01*
X175992012Y-141570377D01*
X176003450Y-141594893D01*
X176003857Y-141596553D01*
X175986375Y-141598454D01*
X175936574Y-141600205D01*
X175858421Y-141601758D01*
X175755882Y-141603062D01*
X175632922Y-141604070D01*
X175493510Y-141604731D01*
X175341611Y-141604997D01*
X175323500Y-141605000D01*
X174643143Y-141605000D01*
X174643143Y-141450786D01*
X174641982Y-141381094D01*
X174638887Y-141327794D01*
X174634432Y-141299217D01*
X174632463Y-141296572D01*
X174614455Y-141307653D01*
X174577393Y-141336736D01*
X174529222Y-141377579D01*
X174528141Y-141378524D01*
X174440235Y-141443971D01*
X174329217Y-141509688D01*
X174207631Y-141569219D01*
X174088021Y-141616109D01*
X174035357Y-141632133D01*
X173930551Y-141652485D01*
X173801950Y-141665472D01*
X173661325Y-141670909D01*
X173520448Y-141668611D01*
X173391093Y-141658392D01*
X173300571Y-141643689D01*
X173078580Y-141578499D01*
X172878729Y-141485594D01*
X172702319Y-141366126D01*
X172550650Y-141221247D01*
X172425024Y-141052110D01*
X172326741Y-140859867D01*
X172284341Y-140743214D01*
X172257768Y-140629833D01*
X172240158Y-140493722D01*
X172232010Y-140347437D01*
X172232278Y-140326151D01*
X173459321Y-140326151D01*
X173469496Y-140434850D01*
X173503378Y-140525185D01*
X173566000Y-140608995D01*
X173590052Y-140633571D01*
X173675551Y-140700011D01*
X173774373Y-140742574D01*
X173892768Y-140763177D01*
X174017445Y-140764694D01*
X174135698Y-140754677D01*
X174226239Y-140735085D01*
X174265560Y-140720370D01*
X174336432Y-140680265D01*
X174411525Y-140623863D01*
X174480038Y-140560561D01*
X174531172Y-140499755D01*
X174544750Y-140477449D01*
X174555305Y-140446212D01*
X174562810Y-140396507D01*
X174567613Y-140323587D01*
X174570065Y-140222703D01*
X174570571Y-140126689D01*
X174570228Y-140014750D01*
X174568843Y-139933809D01*
X174565881Y-139878585D01*
X174560808Y-139843794D01*
X174553090Y-139824154D01*
X174542192Y-139814380D01*
X174538821Y-139812824D01*
X174509529Y-139808029D01*
X174451756Y-139804108D01*
X174373304Y-139801414D01*
X174281974Y-139800299D01*
X174262143Y-139800298D01*
X174140063Y-139802246D01*
X174045749Y-139808041D01*
X173970807Y-139818475D01*
X173908903Y-139833714D01*
X173755349Y-139891784D01*
X173634932Y-139963179D01*
X173546610Y-140049039D01*
X173489339Y-140150507D01*
X173462078Y-140268725D01*
X173459321Y-140326151D01*
X172232278Y-140326151D01*
X172233823Y-140203533D01*
X172246096Y-140074565D01*
X172255670Y-140022460D01*
X172316801Y-139828997D01*
X172409757Y-139650993D01*
X172532783Y-139490155D01*
X172684124Y-139348190D01*
X172862025Y-139226806D01*
X173064732Y-139127709D01*
X173237071Y-139067533D01*
X173352253Y-139035919D01*
X173462423Y-139011354D01*
X173574719Y-138993039D01*
X173696275Y-138980178D01*
X173834229Y-138971972D01*
X173995715Y-138967624D01*
X174141715Y-138966400D01*
X174574645Y-138965215D01*
X174566351Y-138835080D01*
X174542801Y-138693883D01*
X174492703Y-138572518D01*
X174418191Y-138474017D01*
X174321399Y-138401409D01*
X174236171Y-138365979D01*
X174114056Y-138343650D01*
X173968683Y-138340443D01*
X173806867Y-138355177D01*
X173635422Y-138386670D01*
X173461163Y-138433740D01*
X173290904Y-138495203D01*
X173167176Y-138551417D01*
X173107647Y-138580283D01*
X173062242Y-138600443D01*
X173039150Y-138608310D01*
X173037897Y-138608058D01*
X173029929Y-138590437D01*
X173010031Y-138543733D01*
X172980077Y-138472418D01*
X172941939Y-138380969D01*
X172897488Y-138273859D01*
X172852305Y-138164549D01*
X172671667Y-137726740D01*
X172800155Y-137705636D01*
X172855846Y-137695047D01*
X172939564Y-137677263D01*
X173044139Y-137653898D01*
X173162399Y-137626565D01*
X173287172Y-137596881D01*
X173336857Y-137584818D01*
X173551807Y-137534962D01*
X173739995Y-137497584D01*
X173908446Y-137471927D01*
X174064186Y-137457235D01*
X174214240Y-137452755D01*
X174365632Y-137457730D01*
X174365632Y-137457730D01*
G37*
X174365632Y-137457730D02*
X174455523Y-137464535D01*
X174712715Y-137498753D01*
X174940485Y-137553331D01*
X175139943Y-137629020D01*
X175312197Y-137726570D01*
X175458359Y-137846732D01*
X175579536Y-137990258D01*
X175676839Y-138157898D01*
X175747891Y-138339286D01*
X175765927Y-138397146D01*
X175781632Y-138451329D01*
X175795192Y-138504752D01*
X175806792Y-138560333D01*
X175816617Y-138620988D01*
X175824853Y-138689635D01*
X175831684Y-138769190D01*
X175837295Y-138862572D01*
X175841872Y-138972696D01*
X175845600Y-139102481D01*
X175848665Y-139254842D01*
X175851250Y-139432698D01*
X175853542Y-139638965D01*
X175855725Y-139876561D01*
X175857286Y-140062857D01*
X175867785Y-141341929D01*
X175935821Y-141465018D01*
X175968038Y-141524317D01*
X175992012Y-141570377D01*
X176003450Y-141594893D01*
X176003857Y-141596553D01*
X175986375Y-141598454D01*
X175936574Y-141600205D01*
X175858421Y-141601758D01*
X175755882Y-141603062D01*
X175632922Y-141604070D01*
X175493510Y-141604731D01*
X175341611Y-141604997D01*
X175323500Y-141605000D01*
X174643143Y-141605000D01*
X174643143Y-141450786D01*
X174641982Y-141381094D01*
X174638887Y-141327794D01*
X174634432Y-141299217D01*
X174632463Y-141296572D01*
X174614455Y-141307653D01*
X174577393Y-141336736D01*
X174529222Y-141377579D01*
X174528141Y-141378524D01*
X174440235Y-141443971D01*
X174329217Y-141509688D01*
X174207631Y-141569219D01*
X174088021Y-141616109D01*
X174035357Y-141632133D01*
X173930551Y-141652485D01*
X173801950Y-141665472D01*
X173661325Y-141670909D01*
X173520448Y-141668611D01*
X173391093Y-141658392D01*
X173300571Y-141643689D01*
X173078580Y-141578499D01*
X172878729Y-141485594D01*
X172702319Y-141366126D01*
X172550650Y-141221247D01*
X172425024Y-141052110D01*
X172326741Y-140859867D01*
X172284341Y-140743214D01*
X172257768Y-140629833D01*
X172240158Y-140493722D01*
X172232010Y-140347437D01*
X172232278Y-140326151D01*
X173459321Y-140326151D01*
X173469496Y-140434850D01*
X173503378Y-140525185D01*
X173566000Y-140608995D01*
X173590052Y-140633571D01*
X173675551Y-140700011D01*
X173774373Y-140742574D01*
X173892768Y-140763177D01*
X174017445Y-140764694D01*
X174135698Y-140754677D01*
X174226239Y-140735085D01*
X174265560Y-140720370D01*
X174336432Y-140680265D01*
X174411525Y-140623863D01*
X174480038Y-140560561D01*
X174531172Y-140499755D01*
X174544750Y-140477449D01*
X174555305Y-140446212D01*
X174562810Y-140396507D01*
X174567613Y-140323587D01*
X174570065Y-140222703D01*
X174570571Y-140126689D01*
X174570228Y-140014750D01*
X174568843Y-139933809D01*
X174565881Y-139878585D01*
X174560808Y-139843794D01*
X174553090Y-139824154D01*
X174542192Y-139814380D01*
X174538821Y-139812824D01*
X174509529Y-139808029D01*
X174451756Y-139804108D01*
X174373304Y-139801414D01*
X174281974Y-139800299D01*
X174262143Y-139800298D01*
X174140063Y-139802246D01*
X174045749Y-139808041D01*
X173970807Y-139818475D01*
X173908903Y-139833714D01*
X173755349Y-139891784D01*
X173634932Y-139963179D01*
X173546610Y-140049039D01*
X173489339Y-140150507D01*
X173462078Y-140268725D01*
X173459321Y-140326151D01*
X172232278Y-140326151D01*
X172233823Y-140203533D01*
X172246096Y-140074565D01*
X172255670Y-140022460D01*
X172316801Y-139828997D01*
X172409757Y-139650993D01*
X172532783Y-139490155D01*
X172684124Y-139348190D01*
X172862025Y-139226806D01*
X173064732Y-139127709D01*
X173237071Y-139067533D01*
X173352253Y-139035919D01*
X173462423Y-139011354D01*
X173574719Y-138993039D01*
X173696275Y-138980178D01*
X173834229Y-138971972D01*
X173995715Y-138967624D01*
X174141715Y-138966400D01*
X174574645Y-138965215D01*
X174566351Y-138835080D01*
X174542801Y-138693883D01*
X174492703Y-138572518D01*
X174418191Y-138474017D01*
X174321399Y-138401409D01*
X174236171Y-138365979D01*
X174114056Y-138343650D01*
X173968683Y-138340443D01*
X173806867Y-138355177D01*
X173635422Y-138386670D01*
X173461163Y-138433740D01*
X173290904Y-138495203D01*
X173167176Y-138551417D01*
X173107647Y-138580283D01*
X173062242Y-138600443D01*
X173039150Y-138608310D01*
X173037897Y-138608058D01*
X173029929Y-138590437D01*
X173010031Y-138543733D01*
X172980077Y-138472418D01*
X172941939Y-138380969D01*
X172897488Y-138273859D01*
X172852305Y-138164549D01*
X172671667Y-137726740D01*
X172800155Y-137705636D01*
X172855846Y-137695047D01*
X172939564Y-137677263D01*
X173044139Y-137653898D01*
X173162399Y-137626565D01*
X173287172Y-137596881D01*
X173336857Y-137584818D01*
X173551807Y-137534962D01*
X173739995Y-137497584D01*
X173908446Y-137471927D01*
X174064186Y-137457235D01*
X174214240Y-137452755D01*
X174365632Y-137457730D01*
G36*
X179221571Y-135730089D02*
X179375876Y-135730723D01*
X179428321Y-135731042D01*
X180149500Y-135735786D01*
X180158571Y-138502572D01*
X180159769Y-138877756D01*
X180160832Y-139218417D01*
X180161827Y-139526318D01*
X180162823Y-139803221D01*
X180163888Y-140050888D01*
X180165091Y-140271081D01*
X180166499Y-140465562D01*
X180168182Y-140636094D01*
X180170206Y-140784440D01*
X180172641Y-140912361D01*
X180175554Y-141021620D01*
X180179015Y-141113979D01*
X180183090Y-141191200D01*
X180187849Y-141255046D01*
X180193360Y-141307278D01*
X180199691Y-141349660D01*
X180206910Y-141383953D01*
X180215085Y-141411920D01*
X180224285Y-141435324D01*
X180234577Y-141455925D01*
X180246031Y-141475487D01*
X180258715Y-141495772D01*
X180272695Y-141518543D01*
X180275561Y-141523393D01*
X180323640Y-141605433D01*
X178933928Y-141595929D01*
X178924857Y-141443295D01*
X178919918Y-141370045D01*
X178914771Y-141327696D01*
X178907786Y-141310892D01*
X178897337Y-141314277D01*
X178888571Y-141323960D01*
X178850388Y-141359229D01*
X178788155Y-141404563D01*
X178710641Y-141454546D01*
X178626613Y-141503761D01*
X178544839Y-141546791D01*
X178482052Y-141575101D01*
X178334954Y-141621624D01*
X178166180Y-141654579D01*
X177988191Y-141672707D01*
X177813447Y-141674750D01*
X177654407Y-141659447D01*
X177651788Y-141659009D01*
X177434168Y-141604402D01*
X177230455Y-141517401D01*
X177042613Y-141399876D01*
X176872607Y-141253697D01*
X176722402Y-141080734D01*
X176593964Y-140882857D01*
X176489257Y-140661936D01*
X176432246Y-140498286D01*
X176394651Y-140361375D01*
X176366771Y-140228798D01*
X176347753Y-140092502D01*
X176336745Y-139944433D01*
X176332895Y-139776537D01*
X176334600Y-139639440D01*
X177673359Y-139639440D01*
X177679694Y-139869329D01*
X177699679Y-140067111D01*
X177733927Y-140234539D01*
X177783055Y-140373369D01*
X177847676Y-140485358D01*
X177928405Y-140572259D01*
X178021591Y-140633692D01*
X178070080Y-140656626D01*
X178112134Y-140670375D01*
X178159020Y-140676666D01*
X178222004Y-140677222D01*
X178289857Y-140674773D01*
X178423295Y-140663004D01*
X178528832Y-140639955D01*
X178562000Y-140628410D01*
X178637735Y-140594311D01*
X178717614Y-140551491D01*
X178752500Y-140530057D01*
X178843214Y-140470556D01*
X178843214Y-138584584D01*
X178743428Y-138524771D01*
X178604267Y-138457185D01*
X178462087Y-138417214D01*
X178322090Y-138404622D01*
X178189474Y-138419173D01*
X178069440Y-138460632D01*
X177967188Y-138528763D01*
X177934195Y-138561466D01*
X177854667Y-138668619D01*
X177790299Y-138798327D01*
X177740553Y-138952814D01*
X177704891Y-139134302D01*
X177682775Y-139345015D01*
X177673667Y-139587175D01*
X177673359Y-139639440D01*
X176334600Y-139639440D01*
X176335310Y-139582374D01*
X176350605Y-139283713D01*
X176381358Y-139014325D01*
X176428381Y-138770285D01*
X176492482Y-138547670D01*
X176574472Y-138342556D01*
X176603730Y-138281746D01*
X176721581Y-138083440D01*
X176863996Y-137907212D01*
X177027629Y-137755908D01*
X177209131Y-137632371D01*
X177405153Y-137539447D01*
X177522655Y-137501115D01*
X177638054Y-137478359D01*
X177776907Y-137464820D01*
X177927574Y-137460492D01*
X178078413Y-137465368D01*
X178217785Y-137479444D01*
X178329691Y-137501525D01*
X178462884Y-137544828D01*
X178591979Y-137600511D01*
X178704928Y-137662936D01*
X178765043Y-137705303D01*
X178806510Y-137736807D01*
X178835545Y-137755990D01*
X178842150Y-137758714D01*
X178844198Y-137741163D01*
X178846107Y-137690875D01*
X178847836Y-137611400D01*
X178849341Y-137506286D01*
X178850581Y-137379083D01*
X178851513Y-137233339D01*
X178852095Y-137072603D01*
X178852286Y-136908884D01*
X178852179Y-136699188D01*
X178851658Y-136522396D01*
X178850416Y-136375126D01*
X178848148Y-136253997D01*
X178844550Y-136155627D01*
X178839317Y-136076634D01*
X178832144Y-136013638D01*
X178822726Y-135963255D01*
X178810758Y-135922105D01*
X178795935Y-135886806D01*
X178777952Y-135853977D01*
X178756505Y-135820235D01*
X178753745Y-135816057D01*
X178726083Y-135772356D01*
X178709382Y-135742305D01*
X178707143Y-135735967D01*
X178724643Y-135733967D01*
X178774574Y-135732340D01*
X178853085Y-135731112D01*
X178956323Y-135730311D01*
X179080436Y-135729961D01*
X179221571Y-135730089D01*
X179221571Y-135730089D01*
G37*
X179221571Y-135730089D02*
X179375876Y-135730723D01*
X179428321Y-135731042D01*
X180149500Y-135735786D01*
X180158571Y-138502572D01*
X180159769Y-138877756D01*
X180160832Y-139218417D01*
X180161827Y-139526318D01*
X180162823Y-139803221D01*
X180163888Y-140050888D01*
X180165091Y-140271081D01*
X180166499Y-140465562D01*
X180168182Y-140636094D01*
X180170206Y-140784440D01*
X180172641Y-140912361D01*
X180175554Y-141021620D01*
X180179015Y-141113979D01*
X180183090Y-141191200D01*
X180187849Y-141255046D01*
X180193360Y-141307278D01*
X180199691Y-141349660D01*
X180206910Y-141383953D01*
X180215085Y-141411920D01*
X180224285Y-141435324D01*
X180234577Y-141455925D01*
X180246031Y-141475487D01*
X180258715Y-141495772D01*
X180272695Y-141518543D01*
X180275561Y-141523393D01*
X180323640Y-141605433D01*
X178933928Y-141595929D01*
X178924857Y-141443295D01*
X178919918Y-141370045D01*
X178914771Y-141327696D01*
X178907786Y-141310892D01*
X178897337Y-141314277D01*
X178888571Y-141323960D01*
X178850388Y-141359229D01*
X178788155Y-141404563D01*
X178710641Y-141454546D01*
X178626613Y-141503761D01*
X178544839Y-141546791D01*
X178482052Y-141575101D01*
X178334954Y-141621624D01*
X178166180Y-141654579D01*
X177988191Y-141672707D01*
X177813447Y-141674750D01*
X177654407Y-141659447D01*
X177651788Y-141659009D01*
X177434168Y-141604402D01*
X177230455Y-141517401D01*
X177042613Y-141399876D01*
X176872607Y-141253697D01*
X176722402Y-141080734D01*
X176593964Y-140882857D01*
X176489257Y-140661936D01*
X176432246Y-140498286D01*
X176394651Y-140361375D01*
X176366771Y-140228798D01*
X176347753Y-140092502D01*
X176336745Y-139944433D01*
X176332895Y-139776537D01*
X176334600Y-139639440D01*
X177673359Y-139639440D01*
X177679694Y-139869329D01*
X177699679Y-140067111D01*
X177733927Y-140234539D01*
X177783055Y-140373369D01*
X177847676Y-140485358D01*
X177928405Y-140572259D01*
X178021591Y-140633692D01*
X178070080Y-140656626D01*
X178112134Y-140670375D01*
X178159020Y-140676666D01*
X178222004Y-140677222D01*
X178289857Y-140674773D01*
X178423295Y-140663004D01*
X178528832Y-140639955D01*
X178562000Y-140628410D01*
X178637735Y-140594311D01*
X178717614Y-140551491D01*
X178752500Y-140530057D01*
X178843214Y-140470556D01*
X178843214Y-138584584D01*
X178743428Y-138524771D01*
X178604267Y-138457185D01*
X178462087Y-138417214D01*
X178322090Y-138404622D01*
X178189474Y-138419173D01*
X178069440Y-138460632D01*
X177967188Y-138528763D01*
X177934195Y-138561466D01*
X177854667Y-138668619D01*
X177790299Y-138798327D01*
X177740553Y-138952814D01*
X177704891Y-139134302D01*
X177682775Y-139345015D01*
X177673667Y-139587175D01*
X177673359Y-139639440D01*
X176334600Y-139639440D01*
X176335310Y-139582374D01*
X176350605Y-139283713D01*
X176381358Y-139014325D01*
X176428381Y-138770285D01*
X176492482Y-138547670D01*
X176574472Y-138342556D01*
X176603730Y-138281746D01*
X176721581Y-138083440D01*
X176863996Y-137907212D01*
X177027629Y-137755908D01*
X177209131Y-137632371D01*
X177405153Y-137539447D01*
X177522655Y-137501115D01*
X177638054Y-137478359D01*
X177776907Y-137464820D01*
X177927574Y-137460492D01*
X178078413Y-137465368D01*
X178217785Y-137479444D01*
X178329691Y-137501525D01*
X178462884Y-137544828D01*
X178591979Y-137600511D01*
X178704928Y-137662936D01*
X178765043Y-137705303D01*
X178806510Y-137736807D01*
X178835545Y-137755990D01*
X178842150Y-137758714D01*
X178844198Y-137741163D01*
X178846107Y-137690875D01*
X178847836Y-137611400D01*
X178849341Y-137506286D01*
X178850581Y-137379083D01*
X178851513Y-137233339D01*
X178852095Y-137072603D01*
X178852286Y-136908884D01*
X178852179Y-136699188D01*
X178851658Y-136522396D01*
X178850416Y-136375126D01*
X178848148Y-136253997D01*
X178844550Y-136155627D01*
X178839317Y-136076634D01*
X178832144Y-136013638D01*
X178822726Y-135963255D01*
X178810758Y-135922105D01*
X178795935Y-135886806D01*
X178777952Y-135853977D01*
X178756505Y-135820235D01*
X178753745Y-135816057D01*
X178726083Y-135772356D01*
X178709382Y-135742305D01*
X178707143Y-135735967D01*
X178724643Y-135733967D01*
X178774574Y-135732340D01*
X178853085Y-135731112D01*
X178956323Y-135730311D01*
X179080436Y-135729961D01*
X179221571Y-135730089D01*
G36*
X166577682Y-134513933D02*
X166713929Y-134561172D01*
X166840779Y-134635527D01*
X166954067Y-134736987D01*
X167049628Y-134865543D01*
X167092554Y-134946572D01*
X167129705Y-135059908D01*
X167147712Y-135190751D01*
X167145717Y-135325265D01*
X167123577Y-135447158D01*
X167063064Y-135596107D01*
X166975314Y-135725309D01*
X166864788Y-135832223D01*
X166735946Y-135914306D01*
X166593247Y-135969016D01*
X166441151Y-135993810D01*
X166284119Y-135986147D01*
X166206714Y-135969772D01*
X166055859Y-135911089D01*
X165921875Y-135821543D01*
X165807994Y-135703893D01*
X165717448Y-135560902D01*
X165709788Y-135545286D01*
X165683306Y-135486686D01*
X165666678Y-135437334D01*
X165657650Y-135385270D01*
X165653968Y-135318539D01*
X165653357Y-135245929D01*
X165654367Y-135158691D01*
X165658928Y-135095624D01*
X165669334Y-135044636D01*
X165687879Y-134993633D01*
X165710770Y-134943313D01*
X165796154Y-134800470D01*
X165901301Y-134684810D01*
X166022045Y-134596325D01*
X166154221Y-134535005D01*
X166293663Y-134500839D01*
X166436205Y-134493818D01*
X166577682Y-134513933D01*
X166577682Y-134513933D01*
G37*
X166577682Y-134513933D02*
X166713929Y-134561172D01*
X166840779Y-134635527D01*
X166954067Y-134736987D01*
X167049628Y-134865543D01*
X167092554Y-134946572D01*
X167129705Y-135059908D01*
X167147712Y-135190751D01*
X167145717Y-135325265D01*
X167123577Y-135447158D01*
X167063064Y-135596107D01*
X166975314Y-135725309D01*
X166864788Y-135832223D01*
X166735946Y-135914306D01*
X166593247Y-135969016D01*
X166441151Y-135993810D01*
X166284119Y-135986147D01*
X166206714Y-135969772D01*
X166055859Y-135911089D01*
X165921875Y-135821543D01*
X165807994Y-135703893D01*
X165717448Y-135560902D01*
X165709788Y-135545286D01*
X165683306Y-135486686D01*
X165666678Y-135437334D01*
X165657650Y-135385270D01*
X165653968Y-135318539D01*
X165653357Y-135245929D01*
X165654367Y-135158691D01*
X165658928Y-135095624D01*
X165669334Y-135044636D01*
X165687879Y-134993633D01*
X165710770Y-134943313D01*
X165796154Y-134800470D01*
X165901301Y-134684810D01*
X166022045Y-134596325D01*
X166154221Y-134535005D01*
X166293663Y-134500839D01*
X166436205Y-134493818D01*
X166577682Y-134513933D01*
G36*
X184153360Y-140382468D02*
X184188592Y-140399874D01*
X184232040Y-140430206D01*
X184263706Y-140463283D01*
X184285394Y-140504817D01*
X184298903Y-140560522D01*
X184306038Y-140636111D01*
X184308600Y-140737296D01*
X184308750Y-140780797D01*
X184308312Y-140876135D01*
X184306496Y-140944271D01*
X184302545Y-140991418D01*
X184295702Y-141023790D01*
X184285211Y-141047600D01*
X184274296Y-141063843D01*
X184204619Y-141132952D01*
X184122566Y-141174521D01*
X184034050Y-141187023D01*
X183944981Y-141168934D01*
X183916763Y-141156142D01*
X183849210Y-141120931D01*
X183849210Y-141672700D01*
X183898512Y-141647205D01*
X183963473Y-141627480D01*
X184043320Y-141622427D01*
X184123052Y-141631756D01*
X184183265Y-141652714D01*
X184233208Y-141692627D01*
X184275881Y-141749741D01*
X184279090Y-141755605D01*
X184292622Y-141783227D01*
X184302505Y-141811068D01*
X184309309Y-141844794D01*
X184313601Y-141890071D01*
X184315951Y-141952562D01*
X184316928Y-142037935D01*
X184317105Y-142134010D01*
X184317105Y-142440526D01*
X184133289Y-142440526D01*
X184133289Y-141875339D01*
X184081875Y-141832077D01*
X184028466Y-141797472D01*
X183977888Y-141791180D01*
X183927030Y-141807372D01*
X183899925Y-141823227D01*
X183879751Y-141845810D01*
X183865403Y-141879940D01*
X183855776Y-141930434D01*
X183849763Y-142002111D01*
X183846260Y-142099788D01*
X183845026Y-142164802D01*
X183840855Y-142432171D01*
X183753125Y-142437222D01*
X183665394Y-142442273D01*
X183665394Y-140783101D01*
X183849210Y-140783101D01*
X183853896Y-140875600D01*
X183869688Y-140939809D01*
X183899183Y-140979759D01*
X183944980Y-140999480D01*
X183991250Y-141003421D01*
X184043628Y-140998892D01*
X184078390Y-140981069D01*
X184100128Y-140957519D01*
X184117240Y-140932189D01*
X184127427Y-140903969D01*
X184131960Y-140864431D01*
X184132109Y-140805142D01*
X184130584Y-140755498D01*
X184127081Y-140680710D01*
X184121867Y-140631611D01*
X184113087Y-140600467D01*
X184098886Y-140579545D01*
X184085484Y-140567452D01*
X184029487Y-140541081D01*
X183963211Y-140536822D01*
X183925156Y-140545906D01*
X183887477Y-140578196D01*
X183862519Y-140641006D01*
X183850422Y-140733894D01*
X183849210Y-140783101D01*
X183665394Y-140783101D01*
X183665394Y-140368421D01*
X183757302Y-140368421D01*
X183812483Y-140370603D01*
X183840952Y-140378351D01*
X183849206Y-140393468D01*
X183849210Y-140393916D01*
X183853040Y-140408720D01*
X183869933Y-140407039D01*
X183903519Y-140390772D01*
X183981778Y-140365887D01*
X184069827Y-140363271D01*
X184153360Y-140382468D01*
X184153360Y-140382468D01*
G37*
X184153360Y-140382468D02*
X184188592Y-140399874D01*
X184232040Y-140430206D01*
X184263706Y-140463283D01*
X184285394Y-140504817D01*
X184298903Y-140560522D01*
X184306038Y-140636111D01*
X184308600Y-140737296D01*
X184308750Y-140780797D01*
X184308312Y-140876135D01*
X184306496Y-140944271D01*
X184302545Y-140991418D01*
X184295702Y-141023790D01*
X184285211Y-141047600D01*
X184274296Y-141063843D01*
X184204619Y-141132952D01*
X184122566Y-141174521D01*
X184034050Y-141187023D01*
X183944981Y-141168934D01*
X183916763Y-141156142D01*
X183849210Y-141120931D01*
X183849210Y-141672700D01*
X183898512Y-141647205D01*
X183963473Y-141627480D01*
X184043320Y-141622427D01*
X184123052Y-141631756D01*
X184183265Y-141652714D01*
X184233208Y-141692627D01*
X184275881Y-141749741D01*
X184279090Y-141755605D01*
X184292622Y-141783227D01*
X184302505Y-141811068D01*
X184309309Y-141844794D01*
X184313601Y-141890071D01*
X184315951Y-141952562D01*
X184316928Y-142037935D01*
X184317105Y-142134010D01*
X184317105Y-142440526D01*
X184133289Y-142440526D01*
X184133289Y-141875339D01*
X184081875Y-141832077D01*
X184028466Y-141797472D01*
X183977888Y-141791180D01*
X183927030Y-141807372D01*
X183899925Y-141823227D01*
X183879751Y-141845810D01*
X183865403Y-141879940D01*
X183855776Y-141930434D01*
X183849763Y-142002111D01*
X183846260Y-142099788D01*
X183845026Y-142164802D01*
X183840855Y-142432171D01*
X183753125Y-142437222D01*
X183665394Y-142442273D01*
X183665394Y-140783101D01*
X183849210Y-140783101D01*
X183853896Y-140875600D01*
X183869688Y-140939809D01*
X183899183Y-140979759D01*
X183944980Y-140999480D01*
X183991250Y-141003421D01*
X184043628Y-140998892D01*
X184078390Y-140981069D01*
X184100128Y-140957519D01*
X184117240Y-140932189D01*
X184127427Y-140903969D01*
X184131960Y-140864431D01*
X184132109Y-140805142D01*
X184130584Y-140755498D01*
X184127081Y-140680710D01*
X184121867Y-140631611D01*
X184113087Y-140600467D01*
X184098886Y-140579545D01*
X184085484Y-140567452D01*
X184029487Y-140541081D01*
X183963211Y-140536822D01*
X183925156Y-140545906D01*
X183887477Y-140578196D01*
X183862519Y-140641006D01*
X183850422Y-140733894D01*
X183849210Y-140783101D01*
X183665394Y-140783101D01*
X183665394Y-140368421D01*
X183757302Y-140368421D01*
X183812483Y-140370603D01*
X183840952Y-140378351D01*
X183849206Y-140393468D01*
X183849210Y-140393916D01*
X183853040Y-140408720D01*
X183869933Y-140407039D01*
X183903519Y-140390772D01*
X183981778Y-140365887D01*
X184069827Y-140363271D01*
X184153360Y-140382468D01*
G36*
X184850457Y-141628184D02*
X184929070Y-141649160D01*
X184988916Y-141687180D01*
X185031147Y-141736978D01*
X185044275Y-141758230D01*
X185053968Y-141780492D01*
X185060744Y-141808970D01*
X185065123Y-141848871D01*
X185067624Y-141905401D01*
X185068768Y-141983767D01*
X185069072Y-142089176D01*
X185069078Y-142117142D01*
X185069078Y-142440526D01*
X184988868Y-142440526D01*
X184937706Y-142436943D01*
X184899877Y-142427866D01*
X184890399Y-142422268D01*
X184864488Y-142412606D01*
X184838024Y-142422268D01*
X184794452Y-142434330D01*
X184731160Y-142439185D01*
X184661010Y-142437078D01*
X184596860Y-142428256D01*
X184559407Y-142416937D01*
X184486933Y-142370412D01*
X184441640Y-142305846D01*
X184421278Y-142220000D01*
X184421088Y-142217796D01*
X184422875Y-142179713D01*
X184584473Y-142179713D01*
X184598601Y-142223030D01*
X184621612Y-142247408D01*
X184667804Y-142265845D01*
X184728775Y-142273205D01*
X184790949Y-142269583D01*
X184840751Y-142255074D01*
X184854703Y-142245765D01*
X184879085Y-142202753D01*
X184885263Y-142153857D01*
X184885263Y-142089605D01*
X184792818Y-142089605D01*
X184704995Y-142096366D01*
X184638418Y-142115520D01*
X184597002Y-142145376D01*
X184584473Y-142179713D01*
X184422875Y-142179713D01*
X184425490Y-142124004D01*
X184456424Y-142049847D01*
X184514581Y-141993767D01*
X184522620Y-141988665D01*
X184557163Y-141972055D01*
X184599918Y-141961996D01*
X184659686Y-141957107D01*
X184730690Y-141955983D01*
X184885263Y-141955921D01*
X184885263Y-141891125D01*
X184878706Y-141840850D01*
X184861975Y-141807169D01*
X184860016Y-141805376D01*
X184822783Y-141790642D01*
X184766580Y-141784931D01*
X184704467Y-141787737D01*
X184649510Y-141798556D01*
X184616899Y-141814782D01*
X184599228Y-141827780D01*
X184580569Y-141830262D01*
X184554819Y-141819613D01*
X184515873Y-141793218D01*
X184457630Y-141748465D01*
X184452284Y-141744273D01*
X184455023Y-141728760D01*
X184477876Y-141702960D01*
X184512609Y-141674289D01*
X184550990Y-141650166D01*
X184563048Y-141644470D01*
X184607034Y-141633103D01*
X184671487Y-141624995D01*
X184743497Y-141621743D01*
X184746864Y-141621736D01*
X184850457Y-141628184D01*
X184850457Y-141628184D01*
G37*
X184850457Y-141628184D02*
X184929070Y-141649160D01*
X184988916Y-141687180D01*
X185031147Y-141736978D01*
X185044275Y-141758230D01*
X185053968Y-141780492D01*
X185060744Y-141808970D01*
X185065123Y-141848871D01*
X185067624Y-141905401D01*
X185068768Y-141983767D01*
X185069072Y-142089176D01*
X185069078Y-142117142D01*
X185069078Y-142440526D01*
X184988868Y-142440526D01*
X184937706Y-142436943D01*
X184899877Y-142427866D01*
X184890399Y-142422268D01*
X184864488Y-142412606D01*
X184838024Y-142422268D01*
X184794452Y-142434330D01*
X184731160Y-142439185D01*
X184661010Y-142437078D01*
X184596860Y-142428256D01*
X184559407Y-142416937D01*
X184486933Y-142370412D01*
X184441640Y-142305846D01*
X184421278Y-142220000D01*
X184421088Y-142217796D01*
X184422875Y-142179713D01*
X184584473Y-142179713D01*
X184598601Y-142223030D01*
X184621612Y-142247408D01*
X184667804Y-142265845D01*
X184728775Y-142273205D01*
X184790949Y-142269583D01*
X184840751Y-142255074D01*
X184854703Y-142245765D01*
X184879085Y-142202753D01*
X184885263Y-142153857D01*
X184885263Y-142089605D01*
X184792818Y-142089605D01*
X184704995Y-142096366D01*
X184638418Y-142115520D01*
X184597002Y-142145376D01*
X184584473Y-142179713D01*
X184422875Y-142179713D01*
X184425490Y-142124004D01*
X184456424Y-142049847D01*
X184514581Y-141993767D01*
X184522620Y-141988665D01*
X184557163Y-141972055D01*
X184599918Y-141961996D01*
X184659686Y-141957107D01*
X184730690Y-141955983D01*
X184885263Y-141955921D01*
X184885263Y-141891125D01*
X184878706Y-141840850D01*
X184861975Y-141807169D01*
X184860016Y-141805376D01*
X184822783Y-141790642D01*
X184766580Y-141784931D01*
X184704467Y-141787737D01*
X184649510Y-141798556D01*
X184616899Y-141814782D01*
X184599228Y-141827780D01*
X184580569Y-141830262D01*
X184554819Y-141819613D01*
X184515873Y-141793218D01*
X184457630Y-141748465D01*
X184452284Y-141744273D01*
X184455023Y-141728760D01*
X184477876Y-141702960D01*
X184512609Y-141674289D01*
X184550990Y-141650166D01*
X184563048Y-141644470D01*
X184607034Y-141633103D01*
X184671487Y-141624995D01*
X184743497Y-141621743D01*
X184746864Y-141621736D01*
X184850457Y-141628184D01*
G36*
X185369881Y-141623486D02*
X185394888Y-141630982D01*
X185402950Y-141647451D01*
X185403289Y-141654886D01*
X185404736Y-141675594D01*
X185414698Y-141678845D01*
X185441612Y-141664648D01*
X185457598Y-141654948D01*
X185508033Y-141634175D01*
X185568272Y-141623904D01*
X185631434Y-141623114D01*
X185690637Y-141630786D01*
X185739002Y-141645898D01*
X185769646Y-141667432D01*
X185775689Y-141694366D01*
X185772639Y-141701660D01*
X185750406Y-141731937D01*
X185715930Y-141769175D01*
X185709694Y-141775195D01*
X185676833Y-141802875D01*
X185648480Y-141811818D01*
X185608827Y-141805576D01*
X185592942Y-141801429D01*
X185543509Y-141791467D01*
X185508752Y-141795947D01*
X185479400Y-141811746D01*
X185452513Y-141832949D01*
X185432710Y-141859614D01*
X185418948Y-141896827D01*
X185410184Y-141949673D01*
X185405374Y-142023237D01*
X185403474Y-142122605D01*
X185403289Y-142182601D01*
X185403289Y-142440526D01*
X185236184Y-142440526D01*
X185236184Y-141621710D01*
X185319736Y-141621710D01*
X185369881Y-141623486D01*
X185369881Y-141623486D01*
G37*
X185369881Y-141623486D02*
X185394888Y-141630982D01*
X185402950Y-141647451D01*
X185403289Y-141654886D01*
X185404736Y-141675594D01*
X185414698Y-141678845D01*
X185441612Y-141664648D01*
X185457598Y-141654948D01*
X185508033Y-141634175D01*
X185568272Y-141623904D01*
X185631434Y-141623114D01*
X185690637Y-141630786D01*
X185739002Y-141645898D01*
X185769646Y-141667432D01*
X185775689Y-141694366D01*
X185772639Y-141701660D01*
X185750406Y-141731937D01*
X185715930Y-141769175D01*
X185709694Y-141775195D01*
X185676833Y-141802875D01*
X185648480Y-141811818D01*
X185608827Y-141805576D01*
X185592942Y-141801429D01*
X185543509Y-141791467D01*
X185508752Y-141795947D01*
X185479400Y-141811746D01*
X185452513Y-141832949D01*
X185432710Y-141859614D01*
X185418948Y-141896827D01*
X185410184Y-141949673D01*
X185405374Y-142023237D01*
X185403474Y-142122605D01*
X185403289Y-142182601D01*
X185403289Y-142440526D01*
X185236184Y-142440526D01*
X185236184Y-141621710D01*
X185319736Y-141621710D01*
X185369881Y-141623486D01*
G36*
X186422631Y-142440526D02*
X186330723Y-142440526D01*
X186277377Y-142438962D01*
X186249593Y-142432485D01*
X186239590Y-142418418D01*
X186238815Y-142408906D01*
X186237128Y-142389832D01*
X186226490Y-142386174D01*
X186198535Y-142397932D01*
X186176795Y-142408906D01*
X186093332Y-142434911D01*
X186002604Y-142436416D01*
X185928842Y-142417021D01*
X185860154Y-142370165D01*
X185807794Y-142301004D01*
X185779122Y-142219427D01*
X185778392Y-142214866D01*
X185774132Y-142165101D01*
X185772014Y-142093659D01*
X185772184Y-142039626D01*
X185954720Y-142039626D01*
X185958949Y-142111441D01*
X185968568Y-142170634D01*
X185981590Y-142204060D01*
X186030856Y-142249740D01*
X186089350Y-142266115D01*
X186149671Y-142252873D01*
X186201217Y-142213373D01*
X186220738Y-142186807D01*
X186232152Y-142155106D01*
X186237498Y-142108832D01*
X186238815Y-142039328D01*
X186236458Y-141970499D01*
X186230233Y-141910026D01*
X186221408Y-141869556D01*
X186219937Y-141865929D01*
X186184347Y-141822802D01*
X186132400Y-141799124D01*
X186074278Y-141795301D01*
X186020160Y-141811738D01*
X185980226Y-141848840D01*
X185976083Y-141856222D01*
X185963116Y-141901239D01*
X185956052Y-141965967D01*
X185954720Y-142039626D01*
X185772184Y-142039626D01*
X185772271Y-142012230D01*
X185773472Y-141968405D01*
X185781645Y-141859988D01*
X185798630Y-141778588D01*
X185826887Y-141718412D01*
X185868872Y-141673666D01*
X185909632Y-141647400D01*
X185966581Y-141628935D01*
X186037411Y-141622602D01*
X186109941Y-141627760D01*
X186171986Y-141643769D01*
X186204768Y-141662920D01*
X186238815Y-141693732D01*
X186238815Y-141304210D01*
X186422631Y-141304210D01*
X186422631Y-142440526D01*
X186422631Y-142440526D01*
G37*
X186422631Y-142440526D02*
X186330723Y-142440526D01*
X186277377Y-142438962D01*
X186249593Y-142432485D01*
X186239590Y-142418418D01*
X186238815Y-142408906D01*
X186237128Y-142389832D01*
X186226490Y-142386174D01*
X186198535Y-142397932D01*
X186176795Y-142408906D01*
X186093332Y-142434911D01*
X186002604Y-142436416D01*
X185928842Y-142417021D01*
X185860154Y-142370165D01*
X185807794Y-142301004D01*
X185779122Y-142219427D01*
X185778392Y-142214866D01*
X185774132Y-142165101D01*
X185772014Y-142093659D01*
X185772184Y-142039626D01*
X185954720Y-142039626D01*
X185958949Y-142111441D01*
X185968568Y-142170634D01*
X185981590Y-142204060D01*
X186030856Y-142249740D01*
X186089350Y-142266115D01*
X186149671Y-142252873D01*
X186201217Y-142213373D01*
X186220738Y-142186807D01*
X186232152Y-142155106D01*
X186237498Y-142108832D01*
X186238815Y-142039328D01*
X186236458Y-141970499D01*
X186230233Y-141910026D01*
X186221408Y-141869556D01*
X186219937Y-141865929D01*
X186184347Y-141822802D01*
X186132400Y-141799124D01*
X186074278Y-141795301D01*
X186020160Y-141811738D01*
X185980226Y-141848840D01*
X185976083Y-141856222D01*
X185963116Y-141901239D01*
X185956052Y-141965967D01*
X185954720Y-142039626D01*
X185772184Y-142039626D01*
X185772271Y-142012230D01*
X185773472Y-141968405D01*
X185781645Y-141859988D01*
X185798630Y-141778588D01*
X185826887Y-141718412D01*
X185868872Y-141673666D01*
X185909632Y-141647400D01*
X185966581Y-141628935D01*
X186037411Y-141622602D01*
X186109941Y-141627760D01*
X186171986Y-141643769D01*
X186204768Y-141662920D01*
X186238815Y-141693732D01*
X186238815Y-141304210D01*
X186422631Y-141304210D01*
X186422631Y-142440526D01*
G36*
X187064130Y-141625104D02*
X187130220Y-141630066D01*
X187216626Y-141889079D01*
X187303031Y-142148092D01*
X187330124Y-142056184D01*
X187346428Y-141999384D01*
X187367875Y-141922625D01*
X187391035Y-141838251D01*
X187403280Y-141792993D01*
X187449344Y-141621710D01*
X187639387Y-141621710D01*
X187582582Y-141801349D01*
X187554607Y-141889704D01*
X187520813Y-141996281D01*
X187485520Y-142107454D01*
X187454013Y-142206579D01*
X187382250Y-142432171D01*
X187227286Y-142442253D01*
X187185270Y-142303528D01*
X187159359Y-142217351D01*
X187131083Y-142122347D01*
X187106369Y-142038441D01*
X187105394Y-142035102D01*
X187086935Y-141978248D01*
X187070649Y-141939456D01*
X187059242Y-141924787D01*
X187056898Y-141926483D01*
X187048671Y-141949225D01*
X187033038Y-141997940D01*
X187011904Y-142066502D01*
X186987170Y-142148785D01*
X186973787Y-142194046D01*
X186901311Y-142440526D01*
X186747495Y-142440526D01*
X186624531Y-142052006D01*
X186589988Y-141943022D01*
X186558521Y-141844048D01*
X186531616Y-141759736D01*
X186510759Y-141694734D01*
X186497438Y-141653692D01*
X186493388Y-141641701D01*
X186496594Y-141629423D01*
X186521765Y-141624046D01*
X186574146Y-141624584D01*
X186582345Y-141624990D01*
X186679482Y-141630066D01*
X186743100Y-141864013D01*
X186766484Y-141949333D01*
X186787381Y-142024335D01*
X186803951Y-142082507D01*
X186814354Y-142117337D01*
X186816276Y-142123016D01*
X186824241Y-142116486D01*
X186840304Y-142082654D01*
X186862621Y-142026127D01*
X186889345Y-141951510D01*
X186911937Y-141884107D01*
X186998041Y-141620143D01*
X187064130Y-141625104D01*
X187064130Y-141625104D01*
G37*
X187064130Y-141625104D02*
X187130220Y-141630066D01*
X187216626Y-141889079D01*
X187303031Y-142148092D01*
X187330124Y-142056184D01*
X187346428Y-141999384D01*
X187367875Y-141922625D01*
X187391035Y-141838251D01*
X187403280Y-141792993D01*
X187449344Y-141621710D01*
X187639387Y-141621710D01*
X187582582Y-141801349D01*
X187554607Y-141889704D01*
X187520813Y-141996281D01*
X187485520Y-142107454D01*
X187454013Y-142206579D01*
X187382250Y-142432171D01*
X187227286Y-142442253D01*
X187185270Y-142303528D01*
X187159359Y-142217351D01*
X187131083Y-142122347D01*
X187106369Y-142038441D01*
X187105394Y-142035102D01*
X187086935Y-141978248D01*
X187070649Y-141939456D01*
X187059242Y-141924787D01*
X187056898Y-141926483D01*
X187048671Y-141949225D01*
X187033038Y-141997940D01*
X187011904Y-142066502D01*
X186987170Y-142148785D01*
X186973787Y-142194046D01*
X186901311Y-142440526D01*
X186747495Y-142440526D01*
X186624531Y-142052006D01*
X186589988Y-141943022D01*
X186558521Y-141844048D01*
X186531616Y-141759736D01*
X186510759Y-141694734D01*
X186497438Y-141653692D01*
X186493388Y-141641701D01*
X186496594Y-141629423D01*
X186521765Y-141624046D01*
X186574146Y-141624584D01*
X186582345Y-141624990D01*
X186679482Y-141630066D01*
X186743100Y-141864013D01*
X186766484Y-141949333D01*
X186787381Y-142024335D01*
X186803951Y-142082507D01*
X186814354Y-142117337D01*
X186816276Y-142123016D01*
X186824241Y-142116486D01*
X186840304Y-142082654D01*
X186862621Y-142026127D01*
X186889345Y-141951510D01*
X186911937Y-141884107D01*
X186998041Y-141620143D01*
X187064130Y-141625104D01*
G36*
X188069992Y-141626673D02*
X188140427Y-141643780D01*
X188160787Y-141652844D01*
X188200253Y-141676583D01*
X188230541Y-141703321D01*
X188252952Y-141737699D01*
X188268786Y-141784360D01*
X188279343Y-141847946D01*
X188285924Y-141933099D01*
X188289828Y-142044462D01*
X188291310Y-142118849D01*
X188296765Y-142440526D01*
X188203580Y-142440526D01*
X188147047Y-142438156D01*
X188117922Y-142430055D01*
X188110394Y-142416451D01*
X188106420Y-142401741D01*
X188088652Y-142404554D01*
X188064440Y-142416348D01*
X188003828Y-142434427D01*
X187925929Y-142439299D01*
X187843995Y-142431330D01*
X187771281Y-142410889D01*
X187764759Y-142408051D01*
X187698302Y-142361365D01*
X187654491Y-142296464D01*
X187634332Y-142220600D01*
X187635872Y-142193344D01*
X187800345Y-142193344D01*
X187814837Y-142230024D01*
X187857805Y-142256309D01*
X187927129Y-142270417D01*
X187964177Y-142272290D01*
X188025919Y-142267494D01*
X188066960Y-142248858D01*
X188076973Y-142240000D01*
X188104100Y-142191806D01*
X188110394Y-142148092D01*
X188110394Y-142089605D01*
X188028930Y-142089605D01*
X187934234Y-142094432D01*
X187867813Y-142109613D01*
X187825846Y-142136200D01*
X187816449Y-142148052D01*
X187800345Y-142193344D01*
X187635872Y-142193344D01*
X187638829Y-142141026D01*
X187668985Y-142064995D01*
X187710131Y-142013612D01*
X187735052Y-141991397D01*
X187759448Y-141976798D01*
X187791191Y-141967897D01*
X187838152Y-141962775D01*
X187908204Y-141959515D01*
X187935990Y-141958577D01*
X188110394Y-141952879D01*
X188110138Y-141900091D01*
X188103384Y-141844603D01*
X188078964Y-141811052D01*
X188029630Y-141789618D01*
X188028306Y-141789236D01*
X187958360Y-141780808D01*
X187889914Y-141791816D01*
X187839047Y-141818585D01*
X187818637Y-141831803D01*
X187796654Y-141829974D01*
X187762826Y-141810824D01*
X187742961Y-141797308D01*
X187704106Y-141768432D01*
X187680038Y-141746786D01*
X187676176Y-141740589D01*
X187692079Y-141708519D01*
X187739065Y-141670219D01*
X187759473Y-141657297D01*
X187818143Y-141635041D01*
X187897212Y-141622432D01*
X187985041Y-141619600D01*
X188069992Y-141626673D01*
X188069992Y-141626673D01*
G37*
X188069992Y-141626673D02*
X188140427Y-141643780D01*
X188160787Y-141652844D01*
X188200253Y-141676583D01*
X188230541Y-141703321D01*
X188252952Y-141737699D01*
X188268786Y-141784360D01*
X188279343Y-141847946D01*
X188285924Y-141933099D01*
X188289828Y-142044462D01*
X188291310Y-142118849D01*
X188296765Y-142440526D01*
X188203580Y-142440526D01*
X188147047Y-142438156D01*
X188117922Y-142430055D01*
X188110394Y-142416451D01*
X188106420Y-142401741D01*
X188088652Y-142404554D01*
X188064440Y-142416348D01*
X188003828Y-142434427D01*
X187925929Y-142439299D01*
X187843995Y-142431330D01*
X187771281Y-142410889D01*
X187764759Y-142408051D01*
X187698302Y-142361365D01*
X187654491Y-142296464D01*
X187634332Y-142220600D01*
X187635872Y-142193344D01*
X187800345Y-142193344D01*
X187814837Y-142230024D01*
X187857805Y-142256309D01*
X187927129Y-142270417D01*
X187964177Y-142272290D01*
X188025919Y-142267494D01*
X188066960Y-142248858D01*
X188076973Y-142240000D01*
X188104100Y-142191806D01*
X188110394Y-142148092D01*
X188110394Y-142089605D01*
X188028930Y-142089605D01*
X187934234Y-142094432D01*
X187867813Y-142109613D01*
X187825846Y-142136200D01*
X187816449Y-142148052D01*
X187800345Y-142193344D01*
X187635872Y-142193344D01*
X187638829Y-142141026D01*
X187668985Y-142064995D01*
X187710131Y-142013612D01*
X187735052Y-141991397D01*
X187759448Y-141976798D01*
X187791191Y-141967897D01*
X187838152Y-141962775D01*
X187908204Y-141959515D01*
X187935990Y-141958577D01*
X188110394Y-141952879D01*
X188110138Y-141900091D01*
X188103384Y-141844603D01*
X188078964Y-141811052D01*
X188029630Y-141789618D01*
X188028306Y-141789236D01*
X187958360Y-141780808D01*
X187889914Y-141791816D01*
X187839047Y-141818585D01*
X187818637Y-141831803D01*
X187796654Y-141829974D01*
X187762826Y-141810824D01*
X187742961Y-141797308D01*
X187704106Y-141768432D01*
X187680038Y-141746786D01*
X187676176Y-141740589D01*
X187692079Y-141708519D01*
X187739065Y-141670219D01*
X187759473Y-141657297D01*
X187818143Y-141635041D01*
X187897212Y-141622432D01*
X187985041Y-141619600D01*
X188069992Y-141626673D01*
G36*
X188863167Y-141621447D02*
X188927408Y-141634112D01*
X188963980Y-141652864D01*
X189002453Y-141684017D01*
X188947717Y-141753127D01*
X188913969Y-141794979D01*
X188891053Y-141815398D01*
X188868279Y-141818517D01*
X188834956Y-141808472D01*
X188819314Y-141802789D01*
X188755542Y-141794404D01*
X188697140Y-141812378D01*
X188654264Y-141852982D01*
X188647299Y-141865929D01*
X188639713Y-141900224D01*
X188633859Y-141963427D01*
X188630011Y-142051060D01*
X188628443Y-142158640D01*
X188628421Y-142173944D01*
X188628421Y-142440526D01*
X188444605Y-142440526D01*
X188444605Y-141621710D01*
X188536513Y-141621710D01*
X188589507Y-141623094D01*
X188617115Y-141629252D01*
X188627324Y-141643194D01*
X188628421Y-141656344D01*
X188628421Y-141690978D01*
X188672450Y-141656344D01*
X188722937Y-141632716D01*
X188790760Y-141621033D01*
X188863167Y-141621447D01*
X188863167Y-141621447D01*
G37*
X188863167Y-141621447D02*
X188927408Y-141634112D01*
X188963980Y-141652864D01*
X189002453Y-141684017D01*
X188947717Y-141753127D01*
X188913969Y-141794979D01*
X188891053Y-141815398D01*
X188868279Y-141818517D01*
X188834956Y-141808472D01*
X188819314Y-141802789D01*
X188755542Y-141794404D01*
X188697140Y-141812378D01*
X188654264Y-141852982D01*
X188647299Y-141865929D01*
X188639713Y-141900224D01*
X188633859Y-141963427D01*
X188630011Y-142051060D01*
X188628443Y-142158640D01*
X188628421Y-142173944D01*
X188628421Y-142440526D01*
X188444605Y-142440526D01*
X188444605Y-141621710D01*
X188536513Y-141621710D01*
X188589507Y-141623094D01*
X188617115Y-141629252D01*
X188627324Y-141643194D01*
X188628421Y-141656344D01*
X188628421Y-141690978D01*
X188672450Y-141656344D01*
X188722937Y-141632716D01*
X188790760Y-141621033D01*
X188863167Y-141621447D01*
G36*
X189391193Y-141626078D02*
X189471068Y-141646845D01*
X189537962Y-141689705D01*
X189570351Y-141721723D01*
X189623445Y-141797413D01*
X189653873Y-141885216D01*
X189664327Y-141993150D01*
X189664380Y-142001875D01*
X189664473Y-142089605D01*
X189159534Y-142089605D01*
X189170298Y-142135559D01*
X189189732Y-142177178D01*
X189223745Y-142220544D01*
X189230860Y-142227467D01*
X189292003Y-142264935D01*
X189361729Y-142271289D01*
X189441987Y-142246638D01*
X189455592Y-142240000D01*
X189497319Y-142219819D01*
X189525268Y-142208321D01*
X189530145Y-142207258D01*
X189547168Y-142217583D01*
X189579633Y-142242845D01*
X189596114Y-142256650D01*
X189630264Y-142288361D01*
X189641478Y-142309299D01*
X189633695Y-142328560D01*
X189629535Y-142333827D01*
X189601357Y-142356878D01*
X189554862Y-142384892D01*
X189522434Y-142401246D01*
X189430385Y-142430059D01*
X189328476Y-142439395D01*
X189231963Y-142428332D01*
X189204934Y-142420412D01*
X189121276Y-142375581D01*
X189059266Y-142306598D01*
X189018545Y-142212794D01*
X188998755Y-142093498D01*
X188996582Y-142031118D01*
X189002926Y-141940298D01*
X189163157Y-141940298D01*
X189178655Y-141947012D01*
X189220312Y-141952280D01*
X189280876Y-141955389D01*
X189321907Y-141955921D01*
X189395711Y-141955408D01*
X189442293Y-141953006D01*
X189467848Y-141947422D01*
X189478569Y-141937361D01*
X189480657Y-141922763D01*
X189466331Y-141877796D01*
X189430262Y-141833353D01*
X189382815Y-141799242D01*
X189335349Y-141785288D01*
X189270879Y-141797666D01*
X189215070Y-141833452D01*
X189176374Y-141885033D01*
X189163157Y-141940298D01*
X189002926Y-141940298D01*
X189005821Y-141898866D01*
X189034336Y-141793498D01*
X189082729Y-141714178D01*
X189151604Y-141660071D01*
X189241565Y-141630343D01*
X189290300Y-141624618D01*
X189391193Y-141626078D01*
X189391193Y-141626078D01*
G37*
X189391193Y-141626078D02*
X189471068Y-141646845D01*
X189537962Y-141689705D01*
X189570351Y-141721723D01*
X189623445Y-141797413D01*
X189653873Y-141885216D01*
X189664327Y-141993150D01*
X189664380Y-142001875D01*
X189664473Y-142089605D01*
X189159534Y-142089605D01*
X189170298Y-142135559D01*
X189189732Y-142177178D01*
X189223745Y-142220544D01*
X189230860Y-142227467D01*
X189292003Y-142264935D01*
X189361729Y-142271289D01*
X189441987Y-142246638D01*
X189455592Y-142240000D01*
X189497319Y-142219819D01*
X189525268Y-142208321D01*
X189530145Y-142207258D01*
X189547168Y-142217583D01*
X189579633Y-142242845D01*
X189596114Y-142256650D01*
X189630264Y-142288361D01*
X189641478Y-142309299D01*
X189633695Y-142328560D01*
X189629535Y-142333827D01*
X189601357Y-142356878D01*
X189554862Y-142384892D01*
X189522434Y-142401246D01*
X189430385Y-142430059D01*
X189328476Y-142439395D01*
X189231963Y-142428332D01*
X189204934Y-142420412D01*
X189121276Y-142375581D01*
X189059266Y-142306598D01*
X189018545Y-142212794D01*
X188998755Y-142093498D01*
X188996582Y-142031118D01*
X189002926Y-141940298D01*
X189163157Y-141940298D01*
X189178655Y-141947012D01*
X189220312Y-141952280D01*
X189280876Y-141955389D01*
X189321907Y-141955921D01*
X189395711Y-141955408D01*
X189442293Y-141953006D01*
X189467848Y-141947422D01*
X189478569Y-141937361D01*
X189480657Y-141922763D01*
X189466331Y-141877796D01*
X189430262Y-141833353D01*
X189382815Y-141799242D01*
X189335349Y-141785288D01*
X189270879Y-141797666D01*
X189215070Y-141833452D01*
X189176374Y-141885033D01*
X189163157Y-141940298D01*
X189002926Y-141940298D01*
X189005821Y-141898866D01*
X189034336Y-141793498D01*
X189082729Y-141714178D01*
X189151604Y-141660071D01*
X189241565Y-141630343D01*
X189290300Y-141624618D01*
X189391193Y-141626078D01*
G36*
X183316784Y-140377104D02*
X183404205Y-140415754D01*
X183470570Y-140480290D01*
X183515976Y-140570812D01*
X183540518Y-140687418D01*
X183542277Y-140705624D01*
X183543656Y-140833984D01*
X183525784Y-140946496D01*
X183489750Y-141037688D01*
X183470455Y-141067022D01*
X183403245Y-141129106D01*
X183317650Y-141169316D01*
X183221890Y-141186003D01*
X183124187Y-141177517D01*
X183049917Y-141151380D01*
X182986047Y-141107335D01*
X182933846Y-141049587D01*
X182932943Y-141048236D01*
X182911744Y-141012593D01*
X182897967Y-140976752D01*
X182889624Y-140931519D01*
X182884727Y-140867701D01*
X182882569Y-140815368D01*
X182881671Y-140767910D01*
X183048743Y-140767910D01*
X183050376Y-140815154D01*
X183056304Y-140878046D01*
X183066761Y-140918407D01*
X183085619Y-140947122D01*
X183103281Y-140963896D01*
X183165894Y-140999016D01*
X183231408Y-141003710D01*
X183292421Y-140978440D01*
X183322928Y-140950124D01*
X183344911Y-140921589D01*
X183357769Y-140894284D01*
X183363412Y-140858750D01*
X183363751Y-140805524D01*
X183362012Y-140756506D01*
X183358271Y-140686482D01*
X183352341Y-140641064D01*
X183341653Y-140611440D01*
X183323639Y-140588797D01*
X183309363Y-140575855D01*
X183249651Y-140541860D01*
X183185234Y-140540165D01*
X183131219Y-140560301D01*
X183085140Y-140602352D01*
X183057689Y-140671428D01*
X183048743Y-140767910D01*
X182881671Y-140767910D01*
X182880599Y-140711299D01*
X182883964Y-140633468D01*
X182894045Y-140574930D01*
X182912226Y-140528737D01*
X182939890Y-140487942D01*
X182950146Y-140475828D01*
X183014278Y-140415474D01*
X183083066Y-140380220D01*
X183167189Y-140365450D01*
X183208209Y-140364243D01*
X183316784Y-140377104D01*
X183316784Y-140377104D01*
G37*
X183316784Y-140377104D02*
X183404205Y-140415754D01*
X183470570Y-140480290D01*
X183515976Y-140570812D01*
X183540518Y-140687418D01*
X183542277Y-140705624D01*
X183543656Y-140833984D01*
X183525784Y-140946496D01*
X183489750Y-141037688D01*
X183470455Y-141067022D01*
X183403245Y-141129106D01*
X183317650Y-141169316D01*
X183221890Y-141186003D01*
X183124187Y-141177517D01*
X183049917Y-141151380D01*
X182986047Y-141107335D01*
X182933846Y-141049587D01*
X182932943Y-141048236D01*
X182911744Y-141012593D01*
X182897967Y-140976752D01*
X182889624Y-140931519D01*
X182884727Y-140867701D01*
X182882569Y-140815368D01*
X182881671Y-140767910D01*
X183048743Y-140767910D01*
X183050376Y-140815154D01*
X183056304Y-140878046D01*
X183066761Y-140918407D01*
X183085619Y-140947122D01*
X183103281Y-140963896D01*
X183165894Y-140999016D01*
X183231408Y-141003710D01*
X183292421Y-140978440D01*
X183322928Y-140950124D01*
X183344911Y-140921589D01*
X183357769Y-140894284D01*
X183363412Y-140858750D01*
X183363751Y-140805524D01*
X183362012Y-140756506D01*
X183358271Y-140686482D01*
X183352341Y-140641064D01*
X183341653Y-140611440D01*
X183323639Y-140588797D01*
X183309363Y-140575855D01*
X183249651Y-140541860D01*
X183185234Y-140540165D01*
X183131219Y-140560301D01*
X183085140Y-140602352D01*
X183057689Y-140671428D01*
X183048743Y-140767910D01*
X182881671Y-140767910D01*
X182880599Y-140711299D01*
X182883964Y-140633468D01*
X182894045Y-140574930D01*
X182912226Y-140528737D01*
X182939890Y-140487942D01*
X182950146Y-140475828D01*
X183014278Y-140415474D01*
X183083066Y-140380220D01*
X183167189Y-140365450D01*
X183208209Y-140364243D01*
X183316784Y-140377104D01*
G36*
X184887018Y-140387027D02*
X184903670Y-140394866D01*
X184961305Y-140437086D01*
X185015805Y-140498700D01*
X185056499Y-140566543D01*
X185068074Y-140597734D01*
X185078634Y-140653449D01*
X185084931Y-140720781D01*
X185085696Y-140748585D01*
X185085789Y-140836316D01*
X184580850Y-140836316D01*
X184591613Y-140882270D01*
X184618033Y-140936620D01*
X184664222Y-140983591D01*
X184719172Y-141013848D01*
X184754189Y-141020131D01*
X184801677Y-141012506D01*
X184858335Y-140993383D01*
X184877582Y-140984584D01*
X184948759Y-140949036D01*
X185009502Y-140995367D01*
X185044552Y-141026703D01*
X185063202Y-141052567D01*
X185064147Y-141060158D01*
X185047485Y-141078556D01*
X185010970Y-141106515D01*
X184977828Y-141128327D01*
X184888393Y-141167537D01*
X184788129Y-141185285D01*
X184688754Y-141180670D01*
X184609539Y-141156551D01*
X184527880Y-141104884D01*
X184469849Y-141036856D01*
X184433546Y-140948843D01*
X184417072Y-140837216D01*
X184415611Y-140786138D01*
X184421457Y-140669091D01*
X184422175Y-140665686D01*
X184589489Y-140665686D01*
X184594097Y-140676662D01*
X184613036Y-140682715D01*
X184652098Y-140685310D01*
X184717077Y-140685910D01*
X184742097Y-140685921D01*
X184818221Y-140685014D01*
X184866496Y-140681720D01*
X184892460Y-140675181D01*
X184901648Y-140664537D01*
X184901973Y-140661119D01*
X184891487Y-140633956D01*
X184865242Y-140595903D01*
X184853959Y-140582579D01*
X184812072Y-140544896D01*
X184768409Y-140530080D01*
X184744885Y-140528842D01*
X184681243Y-140544329D01*
X184627873Y-140585930D01*
X184594019Y-140646353D01*
X184593419Y-140648322D01*
X184589489Y-140665686D01*
X184422175Y-140665686D01*
X184440899Y-140576928D01*
X184475922Y-140503190D01*
X184518756Y-140450848D01*
X184597948Y-140394092D01*
X184691040Y-140363762D01*
X184790055Y-140361021D01*
X184887018Y-140387027D01*
X184887018Y-140387027D01*
G37*
X184887018Y-140387027D02*
X184903670Y-140394866D01*
X184961305Y-140437086D01*
X185015805Y-140498700D01*
X185056499Y-140566543D01*
X185068074Y-140597734D01*
X185078634Y-140653449D01*
X185084931Y-140720781D01*
X185085696Y-140748585D01*
X185085789Y-140836316D01*
X184580850Y-140836316D01*
X184591613Y-140882270D01*
X184618033Y-140936620D01*
X184664222Y-140983591D01*
X184719172Y-141013848D01*
X184754189Y-141020131D01*
X184801677Y-141012506D01*
X184858335Y-140993383D01*
X184877582Y-140984584D01*
X184948759Y-140949036D01*
X185009502Y-140995367D01*
X185044552Y-141026703D01*
X185063202Y-141052567D01*
X185064147Y-141060158D01*
X185047485Y-141078556D01*
X185010970Y-141106515D01*
X184977828Y-141128327D01*
X184888393Y-141167537D01*
X184788129Y-141185285D01*
X184688754Y-141180670D01*
X184609539Y-141156551D01*
X184527880Y-141104884D01*
X184469849Y-141036856D01*
X184433546Y-140948843D01*
X184417072Y-140837216D01*
X184415611Y-140786138D01*
X184421457Y-140669091D01*
X184422175Y-140665686D01*
X184589489Y-140665686D01*
X184594097Y-140676662D01*
X184613036Y-140682715D01*
X184652098Y-140685310D01*
X184717077Y-140685910D01*
X184742097Y-140685921D01*
X184818221Y-140685014D01*
X184866496Y-140681720D01*
X184892460Y-140675181D01*
X184901648Y-140664537D01*
X184901973Y-140661119D01*
X184891487Y-140633956D01*
X184865242Y-140595903D01*
X184853959Y-140582579D01*
X184812072Y-140544896D01*
X184768409Y-140530080D01*
X184744885Y-140528842D01*
X184681243Y-140544329D01*
X184627873Y-140585930D01*
X184594019Y-140646353D01*
X184593419Y-140648322D01*
X184589489Y-140665686D01*
X184422175Y-140665686D01*
X184440899Y-140576928D01*
X184475922Y-140503190D01*
X184518756Y-140450848D01*
X184597948Y-140394092D01*
X184691040Y-140363762D01*
X184790055Y-140361021D01*
X184887018Y-140387027D01*
G36*
X186708628Y-140365547D02*
X186771908Y-140377548D01*
X186837557Y-140402648D01*
X186844572Y-140405848D01*
X186894356Y-140432026D01*
X186928834Y-140456353D01*
X186939978Y-140471937D01*
X186929366Y-140497353D01*
X186903588Y-140534853D01*
X186892146Y-140548852D01*
X186844992Y-140603954D01*
X186784201Y-140568086D01*
X186726347Y-140544192D01*
X186659500Y-140531420D01*
X186595394Y-140530613D01*
X186545764Y-140542615D01*
X186533854Y-140550105D01*
X186511172Y-140584450D01*
X186508416Y-140624013D01*
X186525388Y-140654920D01*
X186535427Y-140660913D01*
X186565510Y-140668357D01*
X186618389Y-140677106D01*
X186683575Y-140685467D01*
X186695600Y-140686778D01*
X186800297Y-140704888D01*
X186876232Y-140735651D01*
X186926592Y-140781907D01*
X186954564Y-140846497D01*
X186963278Y-140925387D01*
X186951240Y-141015065D01*
X186912151Y-141085486D01*
X186845855Y-141136777D01*
X186752194Y-141169067D01*
X186648223Y-141181807D01*
X186563438Y-141181654D01*
X186494665Y-141170083D01*
X186447697Y-141154109D01*
X186388350Y-141126275D01*
X186333506Y-141093973D01*
X186314013Y-141079755D01*
X186263881Y-141038835D01*
X186384803Y-140916477D01*
X186453543Y-140961967D01*
X186522488Y-140996133D01*
X186596111Y-141014004D01*
X186666883Y-141015889D01*
X186727274Y-141002101D01*
X186769757Y-140972949D01*
X186783474Y-140948352D01*
X186781417Y-140908904D01*
X186747330Y-140878737D01*
X186681308Y-140857906D01*
X186608974Y-140848279D01*
X186497652Y-140829910D01*
X186414952Y-140795254D01*
X186359765Y-140743297D01*
X186330988Y-140673023D01*
X186327001Y-140589707D01*
X186346693Y-140502681D01*
X186391589Y-140436902D01*
X186462091Y-140392068D01*
X186558601Y-140367879D01*
X186630100Y-140363137D01*
X186708628Y-140365547D01*
X186708628Y-140365547D01*
G37*
X186708628Y-140365547D02*
X186771908Y-140377548D01*
X186837557Y-140402648D01*
X186844572Y-140405848D01*
X186894356Y-140432026D01*
X186928834Y-140456353D01*
X186939978Y-140471937D01*
X186929366Y-140497353D01*
X186903588Y-140534853D01*
X186892146Y-140548852D01*
X186844992Y-140603954D01*
X186784201Y-140568086D01*
X186726347Y-140544192D01*
X186659500Y-140531420D01*
X186595394Y-140530613D01*
X186545764Y-140542615D01*
X186533854Y-140550105D01*
X186511172Y-140584450D01*
X186508416Y-140624013D01*
X186525388Y-140654920D01*
X186535427Y-140660913D01*
X186565510Y-140668357D01*
X186618389Y-140677106D01*
X186683575Y-140685467D01*
X186695600Y-140686778D01*
X186800297Y-140704888D01*
X186876232Y-140735651D01*
X186926592Y-140781907D01*
X186954564Y-140846497D01*
X186963278Y-140925387D01*
X186951240Y-141015065D01*
X186912151Y-141085486D01*
X186845855Y-141136777D01*
X186752194Y-141169067D01*
X186648223Y-141181807D01*
X186563438Y-141181654D01*
X186494665Y-141170083D01*
X186447697Y-141154109D01*
X186388350Y-141126275D01*
X186333506Y-141093973D01*
X186314013Y-141079755D01*
X186263881Y-141038835D01*
X186384803Y-140916477D01*
X186453543Y-140961967D01*
X186522488Y-140996133D01*
X186596111Y-141014004D01*
X186666883Y-141015889D01*
X186727274Y-141002101D01*
X186769757Y-140972949D01*
X186783474Y-140948352D01*
X186781417Y-140908904D01*
X186747330Y-140878737D01*
X186681308Y-140857906D01*
X186608974Y-140848279D01*
X186497652Y-140829910D01*
X186414952Y-140795254D01*
X186359765Y-140743297D01*
X186330988Y-140673023D01*
X186327001Y-140589707D01*
X186346693Y-140502681D01*
X186391589Y-140436902D01*
X186462091Y-140392068D01*
X186558601Y-140367879D01*
X186630100Y-140363137D01*
X186708628Y-140365547D01*
G36*
X187501669Y-140378310D02*
X187586192Y-140424340D01*
X187652321Y-140497006D01*
X187683478Y-140556106D01*
X187696855Y-140608305D01*
X187705522Y-140682719D01*
X187709237Y-140768442D01*
X187707754Y-140854569D01*
X187700831Y-140930193D01*
X187692745Y-140970584D01*
X187665465Y-141025840D01*
X187618220Y-141084530D01*
X187561282Y-141135852D01*
X187504924Y-141169005D01*
X187503550Y-141169531D01*
X187433616Y-141184018D01*
X187350737Y-141184377D01*
X187271977Y-141171188D01*
X187241566Y-141160617D01*
X187163239Y-141116201D01*
X187107143Y-141058007D01*
X187070286Y-140980965D01*
X187049680Y-140880001D01*
X187045018Y-140827116D01*
X187045613Y-140760663D01*
X187224736Y-140760663D01*
X187230770Y-140857630D01*
X187248138Y-140931523D01*
X187275740Y-140978736D01*
X187295404Y-140992237D01*
X187345787Y-141001651D01*
X187405673Y-140998864D01*
X187457449Y-140985316D01*
X187471027Y-140977862D01*
X187506849Y-140934451D01*
X187530493Y-140868014D01*
X187540558Y-140787161D01*
X187535642Y-140700502D01*
X187524655Y-140648349D01*
X187493109Y-140587951D01*
X187443311Y-140550197D01*
X187383337Y-140537143D01*
X187321264Y-140550849D01*
X187273582Y-140584372D01*
X187248525Y-140612031D01*
X187233900Y-140639294D01*
X187226929Y-140676190D01*
X187224833Y-140732750D01*
X187224736Y-140760663D01*
X187045613Y-140760663D01*
X187046282Y-140685994D01*
X187069265Y-140570271D01*
X187113972Y-140479941D01*
X187180405Y-140415000D01*
X187268565Y-140375445D01*
X187287495Y-140370858D01*
X187401266Y-140360090D01*
X187501669Y-140378310D01*
X187501669Y-140378310D01*
G37*
X187501669Y-140378310D02*
X187586192Y-140424340D01*
X187652321Y-140497006D01*
X187683478Y-140556106D01*
X187696855Y-140608305D01*
X187705522Y-140682719D01*
X187709237Y-140768442D01*
X187707754Y-140854569D01*
X187700831Y-140930193D01*
X187692745Y-140970584D01*
X187665465Y-141025840D01*
X187618220Y-141084530D01*
X187561282Y-141135852D01*
X187504924Y-141169005D01*
X187503550Y-141169531D01*
X187433616Y-141184018D01*
X187350737Y-141184377D01*
X187271977Y-141171188D01*
X187241566Y-141160617D01*
X187163239Y-141116201D01*
X187107143Y-141058007D01*
X187070286Y-140980965D01*
X187049680Y-140880001D01*
X187045018Y-140827116D01*
X187045613Y-140760663D01*
X187224736Y-140760663D01*
X187230770Y-140857630D01*
X187248138Y-140931523D01*
X187275740Y-140978736D01*
X187295404Y-140992237D01*
X187345787Y-141001651D01*
X187405673Y-140998864D01*
X187457449Y-140985316D01*
X187471027Y-140977862D01*
X187506849Y-140934451D01*
X187530493Y-140868014D01*
X187540558Y-140787161D01*
X187535642Y-140700502D01*
X187524655Y-140648349D01*
X187493109Y-140587951D01*
X187443311Y-140550197D01*
X187383337Y-140537143D01*
X187321264Y-140550849D01*
X187273582Y-140584372D01*
X187248525Y-140612031D01*
X187233900Y-140639294D01*
X187226929Y-140676190D01*
X187224833Y-140732750D01*
X187224736Y-140760663D01*
X187045613Y-140760663D01*
X187046282Y-140685994D01*
X187069265Y-140570271D01*
X187113972Y-140479941D01*
X187180405Y-140415000D01*
X187268565Y-140375445D01*
X187287495Y-140370858D01*
X187401266Y-140360090D01*
X187501669Y-140378310D01*
G36*
X188010131Y-140628533D02*
X188011710Y-140751089D01*
X188017481Y-140844179D01*
X188028991Y-140911651D01*
X188047790Y-140957355D01*
X188075426Y-140985139D01*
X188113448Y-140998854D01*
X188160526Y-141002358D01*
X188209832Y-140998432D01*
X188247283Y-140984089D01*
X188274428Y-140955478D01*
X188292815Y-140908751D01*
X188303993Y-140840058D01*
X188309511Y-140745550D01*
X188310921Y-140628533D01*
X188310921Y-140368421D01*
X188494736Y-140368421D01*
X188494736Y-141170526D01*
X188402828Y-141170526D01*
X188347422Y-141168281D01*
X188318891Y-141160396D01*
X188310921Y-141145428D01*
X188306120Y-141132097D01*
X188287014Y-141134917D01*
X188248504Y-141153783D01*
X188160239Y-141182887D01*
X188066623Y-141180825D01*
X187976921Y-141149221D01*
X187934204Y-141124257D01*
X187901621Y-141097226D01*
X187877817Y-141063405D01*
X187861439Y-141018068D01*
X187851131Y-140956489D01*
X187845541Y-140873943D01*
X187843312Y-140765705D01*
X187843026Y-140682004D01*
X187843026Y-140368421D01*
X188010131Y-140368421D01*
X188010131Y-140628533D01*
X188010131Y-140628533D01*
G37*
X188010131Y-140628533D02*
X188011710Y-140751089D01*
X188017481Y-140844179D01*
X188028991Y-140911651D01*
X188047790Y-140957355D01*
X188075426Y-140985139D01*
X188113448Y-140998854D01*
X188160526Y-141002358D01*
X188209832Y-140998432D01*
X188247283Y-140984089D01*
X188274428Y-140955478D01*
X188292815Y-140908751D01*
X188303993Y-140840058D01*
X188309511Y-140745550D01*
X188310921Y-140628533D01*
X188310921Y-140368421D01*
X188494736Y-140368421D01*
X188494736Y-141170526D01*
X188402828Y-141170526D01*
X188347422Y-141168281D01*
X188318891Y-141160396D01*
X188310921Y-141145428D01*
X188306120Y-141132097D01*
X188287014Y-141134917D01*
X188248504Y-141153783D01*
X188160239Y-141182887D01*
X188066623Y-141180825D01*
X187976921Y-141149221D01*
X187934204Y-141124257D01*
X187901621Y-141097226D01*
X187877817Y-141063405D01*
X187861439Y-141018068D01*
X187851131Y-140956489D01*
X187845541Y-140873943D01*
X187843312Y-140765705D01*
X187843026Y-140682004D01*
X187843026Y-140368421D01*
X188010131Y-140368421D01*
X188010131Y-140628533D01*
G36*
X189636576Y-140375419D02*
X189733395Y-140416549D01*
X189763890Y-140436571D01*
X189802865Y-140467340D01*
X189827331Y-140491533D01*
X189831578Y-140499413D01*
X189819584Y-140516899D01*
X189788887Y-140546570D01*
X189764312Y-140567279D01*
X189697046Y-140621336D01*
X189643930Y-140576642D01*
X189602884Y-140547789D01*
X189562863Y-140537829D01*
X189517059Y-140540261D01*
X189444324Y-140558345D01*
X189394256Y-140595881D01*
X189363829Y-140656562D01*
X189350017Y-140744081D01*
X189350013Y-140744136D01*
X189351208Y-140841958D01*
X189369772Y-140913730D01*
X189406804Y-140962595D01*
X189432050Y-140979143D01*
X189499097Y-140999749D01*
X189570709Y-140999762D01*
X189633015Y-140979768D01*
X189647763Y-140970000D01*
X189684750Y-140945047D01*
X189713668Y-140940958D01*
X189744856Y-140959530D01*
X189779336Y-140992887D01*
X189833912Y-141049196D01*
X189773318Y-141099142D01*
X189679698Y-141155513D01*
X189574125Y-141183293D01*
X189463798Y-141181282D01*
X189391343Y-141162862D01*
X189306656Y-141117310D01*
X189238927Y-141045650D01*
X189208157Y-140995066D01*
X189183236Y-140922488D01*
X189170766Y-140830569D01*
X189170670Y-140730948D01*
X189182870Y-140635267D01*
X189207290Y-140555169D01*
X189211136Y-140546956D01*
X189268093Y-140466413D01*
X189345209Y-140407771D01*
X189436390Y-140372247D01*
X189535543Y-140361057D01*
X189636576Y-140375419D01*
X189636576Y-140375419D01*
G37*
X189636576Y-140375419D02*
X189733395Y-140416549D01*
X189763890Y-140436571D01*
X189802865Y-140467340D01*
X189827331Y-140491533D01*
X189831578Y-140499413D01*
X189819584Y-140516899D01*
X189788887Y-140546570D01*
X189764312Y-140567279D01*
X189697046Y-140621336D01*
X189643930Y-140576642D01*
X189602884Y-140547789D01*
X189562863Y-140537829D01*
X189517059Y-140540261D01*
X189444324Y-140558345D01*
X189394256Y-140595881D01*
X189363829Y-140656562D01*
X189350017Y-140744081D01*
X189350013Y-140744136D01*
X189351208Y-140841958D01*
X189369772Y-140913730D01*
X189406804Y-140962595D01*
X189432050Y-140979143D01*
X189499097Y-140999749D01*
X189570709Y-140999762D01*
X189633015Y-140979768D01*
X189647763Y-140970000D01*
X189684750Y-140945047D01*
X189713668Y-140940958D01*
X189744856Y-140959530D01*
X189779336Y-140992887D01*
X189833912Y-141049196D01*
X189773318Y-141099142D01*
X189679698Y-141155513D01*
X189574125Y-141183293D01*
X189463798Y-141181282D01*
X189391343Y-141162862D01*
X189306656Y-141117310D01*
X189238927Y-141045650D01*
X189208157Y-140995066D01*
X189183236Y-140922488D01*
X189170766Y-140830569D01*
X189170670Y-140730948D01*
X189182870Y-140635267D01*
X189207290Y-140555169D01*
X189211136Y-140546956D01*
X189268093Y-140466413D01*
X189345209Y-140407771D01*
X189436390Y-140372247D01*
X189535543Y-140361057D01*
X189636576Y-140375419D01*
G36*
X190248784Y-140365554D02*
X190291574Y-140375949D01*
X190373609Y-140414013D01*
X190443757Y-140472149D01*
X190492305Y-140541852D01*
X190498975Y-140557502D01*
X190508124Y-140598496D01*
X190514529Y-140659138D01*
X190516710Y-140720430D01*
X190516710Y-140836316D01*
X190274407Y-140836316D01*
X190174471Y-140836693D01*
X190104069Y-140838987D01*
X190059313Y-140844938D01*
X190036315Y-140856285D01*
X190031189Y-140874771D01*
X190040048Y-140902136D01*
X190055917Y-140934155D01*
X190100184Y-140987592D01*
X190161699Y-141014215D01*
X190236885Y-141013347D01*
X190322053Y-140984371D01*
X190395659Y-140948611D01*
X190456734Y-140996904D01*
X190517810Y-141045197D01*
X190460351Y-141098285D01*
X190383641Y-141148445D01*
X190289302Y-141178688D01*
X190187827Y-141187151D01*
X190089711Y-141171974D01*
X190073881Y-141166824D01*
X189987647Y-141121791D01*
X189923501Y-141054652D01*
X189880091Y-140963405D01*
X189856064Y-140846044D01*
X189855784Y-140843529D01*
X189853633Y-140715627D01*
X189862329Y-140669997D01*
X190032105Y-140669997D01*
X190047697Y-140677013D01*
X190090029Y-140682388D01*
X190152434Y-140685457D01*
X190191981Y-140685921D01*
X190265728Y-140685630D01*
X190311840Y-140683783D01*
X190336100Y-140678912D01*
X190344294Y-140669555D01*
X190342206Y-140654245D01*
X190340455Y-140648322D01*
X190310560Y-140592668D01*
X190263542Y-140547815D01*
X190222049Y-140528105D01*
X190166926Y-140529295D01*
X190111068Y-140553875D01*
X190064212Y-140594570D01*
X190036094Y-140644108D01*
X190032105Y-140669997D01*
X189862329Y-140669997D01*
X189875074Y-140603133D01*
X189917611Y-140508727D01*
X189978747Y-140435088D01*
X190055985Y-140384893D01*
X190146830Y-140360822D01*
X190248784Y-140365554D01*
X190248784Y-140365554D01*
G37*
X190248784Y-140365554D02*
X190291574Y-140375949D01*
X190373609Y-140414013D01*
X190443757Y-140472149D01*
X190492305Y-140541852D01*
X190498975Y-140557502D01*
X190508124Y-140598496D01*
X190514529Y-140659138D01*
X190516710Y-140720430D01*
X190516710Y-140836316D01*
X190274407Y-140836316D01*
X190174471Y-140836693D01*
X190104069Y-140838987D01*
X190059313Y-140844938D01*
X190036315Y-140856285D01*
X190031189Y-140874771D01*
X190040048Y-140902136D01*
X190055917Y-140934155D01*
X190100184Y-140987592D01*
X190161699Y-141014215D01*
X190236885Y-141013347D01*
X190322053Y-140984371D01*
X190395659Y-140948611D01*
X190456734Y-140996904D01*
X190517810Y-141045197D01*
X190460351Y-141098285D01*
X190383641Y-141148445D01*
X190289302Y-141178688D01*
X190187827Y-141187151D01*
X190089711Y-141171974D01*
X190073881Y-141166824D01*
X189987647Y-141121791D01*
X189923501Y-141054652D01*
X189880091Y-140963405D01*
X189856064Y-140846044D01*
X189855784Y-140843529D01*
X189853633Y-140715627D01*
X189862329Y-140669997D01*
X190032105Y-140669997D01*
X190047697Y-140677013D01*
X190090029Y-140682388D01*
X190152434Y-140685457D01*
X190191981Y-140685921D01*
X190265728Y-140685630D01*
X190311840Y-140683783D01*
X190336100Y-140678912D01*
X190344294Y-140669555D01*
X190342206Y-140654245D01*
X190340455Y-140648322D01*
X190310560Y-140592668D01*
X190263542Y-140547815D01*
X190222049Y-140528105D01*
X190166926Y-140529295D01*
X190111068Y-140553875D01*
X190064212Y-140594570D01*
X190036094Y-140644108D01*
X190032105Y-140669997D01*
X189862329Y-140669997D01*
X189875074Y-140603133D01*
X189917611Y-140508727D01*
X189978747Y-140435088D01*
X190055985Y-140384893D01*
X190146830Y-140360822D01*
X190248784Y-140365554D01*
G36*
X185687957Y-140382226D02*
X185729546Y-140402090D01*
X185769825Y-140430784D01*
X185800510Y-140463809D01*
X185822861Y-140505931D01*
X185838136Y-140561915D01*
X185847592Y-140636528D01*
X185852487Y-140734535D01*
X185854081Y-140860702D01*
X185854106Y-140873914D01*
X185854473Y-141170526D01*
X185670657Y-141170526D01*
X185670657Y-140897081D01*
X185670527Y-140795777D01*
X185669621Y-140722353D01*
X185667173Y-140671271D01*
X185662414Y-140636990D01*
X185654574Y-140613971D01*
X185642885Y-140596673D01*
X185626602Y-140579581D01*
X185569634Y-140542857D01*
X185507445Y-140536042D01*
X185448199Y-140559261D01*
X185427595Y-140576543D01*
X185412470Y-140592791D01*
X185401610Y-140610191D01*
X185394310Y-140634212D01*
X185389863Y-140670322D01*
X185387564Y-140723988D01*
X185386704Y-140800680D01*
X185386578Y-140894043D01*
X185386578Y-141170526D01*
X185202763Y-141170526D01*
X185202763Y-140368421D01*
X185294671Y-140368421D01*
X185349851Y-140370603D01*
X185378320Y-140378351D01*
X185386575Y-140393468D01*
X185386578Y-140393916D01*
X185390408Y-140408720D01*
X185407301Y-140407040D01*
X185440888Y-140390773D01*
X185517063Y-140366840D01*
X185604200Y-140364178D01*
X185687957Y-140382226D01*
X185687957Y-140382226D01*
G37*
X185687957Y-140382226D02*
X185729546Y-140402090D01*
X185769825Y-140430784D01*
X185800510Y-140463809D01*
X185822861Y-140505931D01*
X185838136Y-140561915D01*
X185847592Y-140636528D01*
X185852487Y-140734535D01*
X185854081Y-140860702D01*
X185854106Y-140873914D01*
X185854473Y-141170526D01*
X185670657Y-141170526D01*
X185670657Y-140897081D01*
X185670527Y-140795777D01*
X185669621Y-140722353D01*
X185667173Y-140671271D01*
X185662414Y-140636990D01*
X185654574Y-140613971D01*
X185642885Y-140596673D01*
X185626602Y-140579581D01*
X185569634Y-140542857D01*
X185507445Y-140536042D01*
X185448199Y-140559261D01*
X185427595Y-140576543D01*
X185412470Y-140592791D01*
X185401610Y-140610191D01*
X185394310Y-140634212D01*
X185389863Y-140670322D01*
X185387564Y-140723988D01*
X185386704Y-140800680D01*
X185386578Y-140894043D01*
X185386578Y-141170526D01*
X185202763Y-141170526D01*
X185202763Y-140368421D01*
X185294671Y-140368421D01*
X185349851Y-140370603D01*
X185378320Y-140378351D01*
X185386575Y-140393468D01*
X185386578Y-140393916D01*
X185390408Y-140408720D01*
X185407301Y-140407040D01*
X185440888Y-140390773D01*
X185517063Y-140366840D01*
X185604200Y-140364178D01*
X185687957Y-140382226D01*
G36*
X189081388Y-140367645D02*
X189138865Y-140385206D01*
X189175872Y-140407395D01*
X189187927Y-140424942D01*
X189184609Y-140445742D01*
X189163079Y-140478419D01*
X189144874Y-140501562D01*
X189107344Y-140543402D01*
X189079148Y-140561005D01*
X189055111Y-140559856D01*
X188983808Y-140541710D01*
X188931442Y-140542534D01*
X188888918Y-140563098D01*
X188874642Y-140575134D01*
X188828947Y-140617483D01*
X188828947Y-141170526D01*
X188645131Y-141170526D01*
X188645131Y-140368421D01*
X188737039Y-140368421D01*
X188792219Y-140370603D01*
X188820688Y-140378351D01*
X188828943Y-140393468D01*
X188828947Y-140393916D01*
X188832845Y-140409749D01*
X188850474Y-140407684D01*
X188874901Y-140396261D01*
X188925350Y-140375005D01*
X188966316Y-140362216D01*
X189019028Y-140358938D01*
X189081388Y-140367645D01*
X189081388Y-140367645D01*
G37*
X189081388Y-140367645D02*
X189138865Y-140385206D01*
X189175872Y-140407395D01*
X189187927Y-140424942D01*
X189184609Y-140445742D01*
X189163079Y-140478419D01*
X189144874Y-140501562D01*
X189107344Y-140543402D01*
X189079148Y-140561005D01*
X189055111Y-140559856D01*
X188983808Y-140541710D01*
X188931442Y-140542534D01*
X188888918Y-140563098D01*
X188874642Y-140575134D01*
X188828947Y-140617483D01*
X188828947Y-141170526D01*
X188645131Y-141170526D01*
X188645131Y-140368421D01*
X188737039Y-140368421D01*
X188792219Y-140370603D01*
X188820688Y-140378351D01*
X188828943Y-140393468D01*
X188828947Y-140393916D01*
X188832845Y-140409749D01*
X188850474Y-140407684D01*
X188874901Y-140396261D01*
X188925350Y-140375005D01*
X188966316Y-140362216D01*
X189019028Y-140358938D01*
X189081388Y-140367645D01*
G36*
X187190964Y-134828576D02*
X187266513Y-135229322D01*
X187824041Y-135459154D01*
X188158465Y-135231748D01*
X188252122Y-135168431D01*
X188336782Y-135111896D01*
X188408495Y-135064727D01*
X188463311Y-135029502D01*
X188497280Y-135008805D01*
X188506530Y-135004342D01*
X188523195Y-135015820D01*
X188558806Y-135047551D01*
X188609371Y-135095483D01*
X188670900Y-135155562D01*
X188739399Y-135223733D01*
X188810879Y-135295945D01*
X188881347Y-135368142D01*
X188946811Y-135436273D01*
X189003280Y-135496283D01*
X189046763Y-135544119D01*
X189073268Y-135575727D01*
X189079605Y-135586305D01*
X189070486Y-135605806D01*
X189044920Y-135648531D01*
X189005597Y-135710298D01*
X188955203Y-135786931D01*
X188896427Y-135874248D01*
X188862368Y-135924052D01*
X188800289Y-136014993D01*
X188745126Y-136097059D01*
X188699554Y-136166163D01*
X188666250Y-136218222D01*
X188647890Y-136249150D01*
X188645131Y-136255650D01*
X188651385Y-136274121D01*
X188668434Y-136317172D01*
X188693703Y-136378749D01*
X188724622Y-136452799D01*
X188758618Y-136533270D01*
X188793118Y-136614107D01*
X188825551Y-136689258D01*
X188853343Y-136752671D01*
X188873923Y-136798293D01*
X188884719Y-136820069D01*
X188885356Y-136820926D01*
X188902307Y-136825084D01*
X188947451Y-136834361D01*
X189016110Y-136847844D01*
X189103602Y-136864621D01*
X189205250Y-136883781D01*
X189264556Y-136894830D01*
X189373172Y-136915510D01*
X189471277Y-136935189D01*
X189553909Y-136952789D01*
X189616104Y-136967233D01*
X189652899Y-136977446D01*
X189660296Y-136980686D01*
X189667540Y-137002617D01*
X189673385Y-137052147D01*
X189677835Y-137123485D01*
X189680893Y-137210839D01*
X189682565Y-137308417D01*
X189682853Y-137410426D01*
X189681761Y-137511075D01*
X189679294Y-137604572D01*
X189675456Y-137685125D01*
X189670250Y-137746942D01*
X189663681Y-137784230D01*
X189659741Y-137791993D01*
X189636188Y-137801298D01*
X189586282Y-137814600D01*
X189516623Y-137830337D01*
X189433813Y-137846946D01*
X189404905Y-137852319D01*
X189265531Y-137877848D01*
X189155436Y-137898408D01*
X189070982Y-137914815D01*
X189008530Y-137927887D01*
X188964444Y-137938441D01*
X188935085Y-137947294D01*
X188916815Y-137955263D01*
X188905998Y-137963165D01*
X188904485Y-137964727D01*
X188889377Y-137989886D01*
X188866329Y-138038850D01*
X188837644Y-138105621D01*
X188805622Y-138184205D01*
X188772565Y-138268607D01*
X188740773Y-138352830D01*
X188712549Y-138430879D01*
X188690193Y-138496759D01*
X188676007Y-138544473D01*
X188672293Y-138568027D01*
X188672602Y-138568852D01*
X188685189Y-138588104D01*
X188713744Y-138630463D01*
X188755267Y-138691521D01*
X188806756Y-138766868D01*
X188865211Y-138852096D01*
X188881858Y-138876315D01*
X188941215Y-138964123D01*
X188993447Y-139044238D01*
X189035708Y-139112062D01*
X189065153Y-139162993D01*
X189078937Y-139192431D01*
X189079605Y-139196048D01*
X189068024Y-139215057D01*
X189036024Y-139252714D01*
X188987718Y-139304973D01*
X188927220Y-139367786D01*
X188858644Y-139437106D01*
X188786104Y-139508885D01*
X188713712Y-139579077D01*
X188645584Y-139643635D01*
X188585832Y-139698510D01*
X188538571Y-139739656D01*
X188507913Y-139763026D01*
X188499432Y-139766842D01*
X188479691Y-139757855D01*
X188439274Y-139733616D01*
X188384763Y-139698209D01*
X188342823Y-139669711D01*
X188266829Y-139617418D01*
X188176834Y-139555845D01*
X188086564Y-139494370D01*
X188038032Y-139461469D01*
X187873762Y-139350359D01*
X187735869Y-139424916D01*
X187673049Y-139457578D01*
X187619629Y-139482966D01*
X187583484Y-139497446D01*
X187574284Y-139499460D01*
X187563221Y-139484584D01*
X187541394Y-139442547D01*
X187510434Y-139377227D01*
X187471970Y-139292500D01*
X187427632Y-139192245D01*
X187379047Y-139080339D01*
X187327846Y-138960659D01*
X187275659Y-138837084D01*
X187224113Y-138713491D01*
X187174840Y-138593757D01*
X187129467Y-138481759D01*
X187089625Y-138381377D01*
X187056942Y-138296486D01*
X187033049Y-138230965D01*
X187019574Y-138188690D01*
X187017406Y-138174172D01*
X187034583Y-138155653D01*
X187072190Y-138125590D01*
X187122366Y-138090232D01*
X187126578Y-138087434D01*
X187256264Y-137983625D01*
X187360834Y-137862515D01*
X187439381Y-137727976D01*
X187490999Y-137583882D01*
X187514782Y-137434105D01*
X187509823Y-137282517D01*
X187475217Y-137132992D01*
X187410057Y-136989400D01*
X187390886Y-136957984D01*
X187291174Y-136831125D01*
X187173377Y-136729255D01*
X187041571Y-136652904D01*
X186899833Y-136602602D01*
X186752242Y-136578879D01*
X186602873Y-136582265D01*
X186455803Y-136613288D01*
X186315111Y-136672480D01*
X186184873Y-136760369D01*
X186144586Y-136796042D01*
X186042055Y-136907706D01*
X185967341Y-137025257D01*
X185916090Y-137157020D01*
X185887546Y-137287507D01*
X185880500Y-137434216D01*
X185903996Y-137581653D01*
X185955649Y-137724834D01*
X186033071Y-137858777D01*
X186133875Y-137978498D01*
X186255676Y-138079014D01*
X186271684Y-138089609D01*
X186322398Y-138124306D01*
X186360950Y-138154370D01*
X186379381Y-138173565D01*
X186379649Y-138174172D01*
X186375692Y-138194936D01*
X186360007Y-138242062D01*
X186334222Y-138311673D01*
X186299969Y-138399893D01*
X186258877Y-138502844D01*
X186212576Y-138616650D01*
X186162696Y-138737435D01*
X186110867Y-138861321D01*
X186058719Y-138984432D01*
X186007882Y-139102891D01*
X185959987Y-139212823D01*
X185916662Y-139310349D01*
X185879538Y-139391593D01*
X185850244Y-139452679D01*
X185830412Y-139489730D01*
X185822426Y-139499460D01*
X185798021Y-139491883D01*
X185752358Y-139471560D01*
X185693310Y-139442125D01*
X185660840Y-139424916D01*
X185522947Y-139350359D01*
X185358677Y-139461469D01*
X185274821Y-139518390D01*
X185183013Y-139581030D01*
X185096980Y-139640011D01*
X185053887Y-139669711D01*
X184993277Y-139710410D01*
X184941955Y-139742663D01*
X184906615Y-139762384D01*
X184895137Y-139766554D01*
X184878430Y-139755307D01*
X184841454Y-139723911D01*
X184787795Y-139675624D01*
X184721038Y-139613708D01*
X184644766Y-139541421D01*
X184596527Y-139495008D01*
X184512133Y-139412087D01*
X184439197Y-139337920D01*
X184380669Y-139275680D01*
X184339497Y-139228541D01*
X184318628Y-139199673D01*
X184316626Y-139193815D01*
X184325917Y-139171532D01*
X184351591Y-139126477D01*
X184390800Y-139063211D01*
X184440697Y-138986295D01*
X184498433Y-138900292D01*
X184514851Y-138876315D01*
X184574677Y-138789170D01*
X184628350Y-138710710D01*
X184672870Y-138645345D01*
X184705235Y-138597484D01*
X184722445Y-138571535D01*
X184724107Y-138568852D01*
X184721621Y-138548172D01*
X184708423Y-138502704D01*
X184686814Y-138438444D01*
X184659096Y-138361387D01*
X184627570Y-138277529D01*
X184594537Y-138192866D01*
X184562299Y-138113392D01*
X184533157Y-138045104D01*
X184509412Y-137993997D01*
X184493365Y-137966067D01*
X184492225Y-137964727D01*
X184482412Y-137956745D01*
X184465839Y-137948851D01*
X184438868Y-137940229D01*
X184397861Y-137930062D01*
X184339180Y-137917531D01*
X184259187Y-137901821D01*
X184154245Y-137882113D01*
X184020715Y-137857592D01*
X183991804Y-137852319D01*
X183906118Y-137835764D01*
X183831418Y-137819569D01*
X183774306Y-137805296D01*
X183741383Y-137794508D01*
X183736969Y-137791993D01*
X183729694Y-137769696D01*
X183723781Y-137719869D01*
X183719234Y-137648304D01*
X183716055Y-137560793D01*
X183714251Y-137463128D01*
X183713823Y-137361101D01*
X183714777Y-137260503D01*
X183717116Y-137167127D01*
X183720844Y-137086765D01*
X183725966Y-137025209D01*
X183732484Y-136988250D01*
X183736414Y-136980686D01*
X183758292Y-136973056D01*
X183808109Y-136960642D01*
X183880903Y-136944522D01*
X183971711Y-136925773D01*
X184075569Y-136905471D01*
X184132154Y-136894830D01*
X184239514Y-136874760D01*
X184335254Y-136856580D01*
X184414694Y-136841199D01*
X184473154Y-136829531D01*
X184505955Y-136822488D01*
X184511354Y-136820926D01*
X184520478Y-136803322D01*
X184539765Y-136760918D01*
X184566645Y-136699772D01*
X184598546Y-136625943D01*
X184632898Y-136545489D01*
X184667129Y-136464468D01*
X184698669Y-136388937D01*
X184724946Y-136324955D01*
X184743389Y-136278580D01*
X184751429Y-136255869D01*
X184751578Y-136254876D01*
X184742465Y-136236961D01*
X184716914Y-136195733D01*
X184677612Y-136135291D01*
X184627243Y-136059731D01*
X184568494Y-135973152D01*
X184534342Y-135923421D01*
X184472110Y-135832236D01*
X184416836Y-135749449D01*
X184371218Y-135679249D01*
X184337952Y-135625824D01*
X184319736Y-135593361D01*
X184317105Y-135586083D01*
X184328414Y-135569145D01*
X184359681Y-135532978D01*
X184406910Y-135481635D01*
X184466108Y-135419167D01*
X184533281Y-135349626D01*
X184604434Y-135277065D01*
X184675574Y-135205535D01*
X184742707Y-135139087D01*
X184801839Y-135081774D01*
X184848975Y-135037647D01*
X184880123Y-135010759D01*
X184890543Y-135004342D01*
X184907509Y-135013365D01*
X184948089Y-135038715D01*
X185008337Y-135077810D01*
X185084307Y-135128071D01*
X185172054Y-135186917D01*
X185238244Y-135231748D01*
X185572668Y-135459154D01*
X185851433Y-135344238D01*
X186130197Y-135229322D01*
X186205746Y-134828576D01*
X186281294Y-134427829D01*
X187115415Y-134427829D01*
X187190964Y-134828576D01*
X187190964Y-134828576D01*
G37*
X187190964Y-134828576D02*
X187266513Y-135229322D01*
X187824041Y-135459154D01*
X188158465Y-135231748D01*
X188252122Y-135168431D01*
X188336782Y-135111896D01*
X188408495Y-135064727D01*
X188463311Y-135029502D01*
X188497280Y-135008805D01*
X188506530Y-135004342D01*
X188523195Y-135015820D01*
X188558806Y-135047551D01*
X188609371Y-135095483D01*
X188670900Y-135155562D01*
X188739399Y-135223733D01*
X188810879Y-135295945D01*
X188881347Y-135368142D01*
X188946811Y-135436273D01*
X189003280Y-135496283D01*
X189046763Y-135544119D01*
X189073268Y-135575727D01*
X189079605Y-135586305D01*
X189070486Y-135605806D01*
X189044920Y-135648531D01*
X189005597Y-135710298D01*
X188955203Y-135786931D01*
X188896427Y-135874248D01*
X188862368Y-135924052D01*
X188800289Y-136014993D01*
X188745126Y-136097059D01*
X188699554Y-136166163D01*
X188666250Y-136218222D01*
X188647890Y-136249150D01*
X188645131Y-136255650D01*
X188651385Y-136274121D01*
X188668434Y-136317172D01*
X188693703Y-136378749D01*
X188724622Y-136452799D01*
X188758618Y-136533270D01*
X188793118Y-136614107D01*
X188825551Y-136689258D01*
X188853343Y-136752671D01*
X188873923Y-136798293D01*
X188884719Y-136820069D01*
X188885356Y-136820926D01*
X188902307Y-136825084D01*
X188947451Y-136834361D01*
X189016110Y-136847844D01*
X189103602Y-136864621D01*
X189205250Y-136883781D01*
X189264556Y-136894830D01*
X189373172Y-136915510D01*
X189471277Y-136935189D01*
X189553909Y-136952789D01*
X189616104Y-136967233D01*
X189652899Y-136977446D01*
X189660296Y-136980686D01*
X189667540Y-137002617D01*
X189673385Y-137052147D01*
X189677835Y-137123485D01*
X189680893Y-137210839D01*
X189682565Y-137308417D01*
X189682853Y-137410426D01*
X189681761Y-137511075D01*
X189679294Y-137604572D01*
X189675456Y-137685125D01*
X189670250Y-137746942D01*
X189663681Y-137784230D01*
X189659741Y-137791993D01*
X189636188Y-137801298D01*
X189586282Y-137814600D01*
X189516623Y-137830337D01*
X189433813Y-137846946D01*
X189404905Y-137852319D01*
X189265531Y-137877848D01*
X189155436Y-137898408D01*
X189070982Y-137914815D01*
X189008530Y-137927887D01*
X188964444Y-137938441D01*
X188935085Y-137947294D01*
X188916815Y-137955263D01*
X188905998Y-137963165D01*
X188904485Y-137964727D01*
X188889377Y-137989886D01*
X188866329Y-138038850D01*
X188837644Y-138105621D01*
X188805622Y-138184205D01*
X188772565Y-138268607D01*
X188740773Y-138352830D01*
X188712549Y-138430879D01*
X188690193Y-138496759D01*
X188676007Y-138544473D01*
X188672293Y-138568027D01*
X188672602Y-138568852D01*
X188685189Y-138588104D01*
X188713744Y-138630463D01*
X188755267Y-138691521D01*
X188806756Y-138766868D01*
X188865211Y-138852096D01*
X188881858Y-138876315D01*
X188941215Y-138964123D01*
X188993447Y-139044238D01*
X189035708Y-139112062D01*
X189065153Y-139162993D01*
X189078937Y-139192431D01*
X189079605Y-139196048D01*
X189068024Y-139215057D01*
X189036024Y-139252714D01*
X188987718Y-139304973D01*
X188927220Y-139367786D01*
X188858644Y-139437106D01*
X188786104Y-139508885D01*
X188713712Y-139579077D01*
X188645584Y-139643635D01*
X188585832Y-139698510D01*
X188538571Y-139739656D01*
X188507913Y-139763026D01*
X188499432Y-139766842D01*
X188479691Y-139757855D01*
X188439274Y-139733616D01*
X188384763Y-139698209D01*
X188342823Y-139669711D01*
X188266829Y-139617418D01*
X188176834Y-139555845D01*
X188086564Y-139494370D01*
X188038032Y-139461469D01*
X187873762Y-139350359D01*
X187735869Y-139424916D01*
X187673049Y-139457578D01*
X187619629Y-139482966D01*
X187583484Y-139497446D01*
X187574284Y-139499460D01*
X187563221Y-139484584D01*
X187541394Y-139442547D01*
X187510434Y-139377227D01*
X187471970Y-139292500D01*
X187427632Y-139192245D01*
X187379047Y-139080339D01*
X187327846Y-138960659D01*
X187275659Y-138837084D01*
X187224113Y-138713491D01*
X187174840Y-138593757D01*
X187129467Y-138481759D01*
X187089625Y-138381377D01*
X187056942Y-138296486D01*
X187033049Y-138230965D01*
X187019574Y-138188690D01*
X187017406Y-138174172D01*
X187034583Y-138155653D01*
X187072190Y-138125590D01*
X187122366Y-138090232D01*
X187126578Y-138087434D01*
X187256264Y-137983625D01*
X187360834Y-137862515D01*
X187439381Y-137727976D01*
X187490999Y-137583882D01*
X187514782Y-137434105D01*
X187509823Y-137282517D01*
X187475217Y-137132992D01*
X187410057Y-136989400D01*
X187390886Y-136957984D01*
X187291174Y-136831125D01*
X187173377Y-136729255D01*
X187041571Y-136652904D01*
X186899833Y-136602602D01*
X186752242Y-136578879D01*
X186602873Y-136582265D01*
X186455803Y-136613288D01*
X186315111Y-136672480D01*
X186184873Y-136760369D01*
X186144586Y-136796042D01*
X186042055Y-136907706D01*
X185967341Y-137025257D01*
X185916090Y-137157020D01*
X185887546Y-137287507D01*
X185880500Y-137434216D01*
X185903996Y-137581653D01*
X185955649Y-137724834D01*
X186033071Y-137858777D01*
X186133875Y-137978498D01*
X186255676Y-138079014D01*
X186271684Y-138089609D01*
X186322398Y-138124306D01*
X186360950Y-138154370D01*
X186379381Y-138173565D01*
X186379649Y-138174172D01*
X186375692Y-138194936D01*
X186360007Y-138242062D01*
X186334222Y-138311673D01*
X186299969Y-138399893D01*
X186258877Y-138502844D01*
X186212576Y-138616650D01*
X186162696Y-138737435D01*
X186110867Y-138861321D01*
X186058719Y-138984432D01*
X186007882Y-139102891D01*
X185959987Y-139212823D01*
X185916662Y-139310349D01*
X185879538Y-139391593D01*
X185850244Y-139452679D01*
X185830412Y-139489730D01*
X185822426Y-139499460D01*
X185798021Y-139491883D01*
X185752358Y-139471560D01*
X185693310Y-139442125D01*
X185660840Y-139424916D01*
X185522947Y-139350359D01*
X185358677Y-139461469D01*
X185274821Y-139518390D01*
X185183013Y-139581030D01*
X185096980Y-139640011D01*
X185053887Y-139669711D01*
X184993277Y-139710410D01*
X184941955Y-139742663D01*
X184906615Y-139762384D01*
X184895137Y-139766554D01*
X184878430Y-139755307D01*
X184841454Y-139723911D01*
X184787795Y-139675624D01*
X184721038Y-139613708D01*
X184644766Y-139541421D01*
X184596527Y-139495008D01*
X184512133Y-139412087D01*
X184439197Y-139337920D01*
X184380669Y-139275680D01*
X184339497Y-139228541D01*
X184318628Y-139199673D01*
X184316626Y-139193815D01*
X184325917Y-139171532D01*
X184351591Y-139126477D01*
X184390800Y-139063211D01*
X184440697Y-138986295D01*
X184498433Y-138900292D01*
X184514851Y-138876315D01*
X184574677Y-138789170D01*
X184628350Y-138710710D01*
X184672870Y-138645345D01*
X184705235Y-138597484D01*
X184722445Y-138571535D01*
X184724107Y-138568852D01*
X184721621Y-138548172D01*
X184708423Y-138502704D01*
X184686814Y-138438444D01*
X184659096Y-138361387D01*
X184627570Y-138277529D01*
X184594537Y-138192866D01*
X184562299Y-138113392D01*
X184533157Y-138045104D01*
X184509412Y-137993997D01*
X184493365Y-137966067D01*
X184492225Y-137964727D01*
X184482412Y-137956745D01*
X184465839Y-137948851D01*
X184438868Y-137940229D01*
X184397861Y-137930062D01*
X184339180Y-137917531D01*
X184259187Y-137901821D01*
X184154245Y-137882113D01*
X184020715Y-137857592D01*
X183991804Y-137852319D01*
X183906118Y-137835764D01*
X183831418Y-137819569D01*
X183774306Y-137805296D01*
X183741383Y-137794508D01*
X183736969Y-137791993D01*
X183729694Y-137769696D01*
X183723781Y-137719869D01*
X183719234Y-137648304D01*
X183716055Y-137560793D01*
X183714251Y-137463128D01*
X183713823Y-137361101D01*
X183714777Y-137260503D01*
X183717116Y-137167127D01*
X183720844Y-137086765D01*
X183725966Y-137025209D01*
X183732484Y-136988250D01*
X183736414Y-136980686D01*
X183758292Y-136973056D01*
X183808109Y-136960642D01*
X183880903Y-136944522D01*
X183971711Y-136925773D01*
X184075569Y-136905471D01*
X184132154Y-136894830D01*
X184239514Y-136874760D01*
X184335254Y-136856580D01*
X184414694Y-136841199D01*
X184473154Y-136829531D01*
X184505955Y-136822488D01*
X184511354Y-136820926D01*
X184520478Y-136803322D01*
X184539765Y-136760918D01*
X184566645Y-136699772D01*
X184598546Y-136625943D01*
X184632898Y-136545489D01*
X184667129Y-136464468D01*
X184698669Y-136388937D01*
X184724946Y-136324955D01*
X184743389Y-136278580D01*
X184751429Y-136255869D01*
X184751578Y-136254876D01*
X184742465Y-136236961D01*
X184716914Y-136195733D01*
X184677612Y-136135291D01*
X184627243Y-136059731D01*
X184568494Y-135973152D01*
X184534342Y-135923421D01*
X184472110Y-135832236D01*
X184416836Y-135749449D01*
X184371218Y-135679249D01*
X184337952Y-135625824D01*
X184319736Y-135593361D01*
X184317105Y-135586083D01*
X184328414Y-135569145D01*
X184359681Y-135532978D01*
X184406910Y-135481635D01*
X184466108Y-135419167D01*
X184533281Y-135349626D01*
X184604434Y-135277065D01*
X184675574Y-135205535D01*
X184742707Y-135139087D01*
X184801839Y-135081774D01*
X184848975Y-135037647D01*
X184880123Y-135010759D01*
X184890543Y-135004342D01*
X184907509Y-135013365D01*
X184948089Y-135038715D01*
X185008337Y-135077810D01*
X185084307Y-135128071D01*
X185172054Y-135186917D01*
X185238244Y-135231748D01*
X185572668Y-135459154D01*
X185851433Y-135344238D01*
X186130197Y-135229322D01*
X186205746Y-134828576D01*
X186281294Y-134427829D01*
X187115415Y-134427829D01*
X187190964Y-134828576D01*
D15*
X172037619Y-115665238D02*
X171990000Y-115760476D01*
X171894762Y-115855714D01*
X171751905Y-115998571D01*
X171704286Y-116093810D01*
X171704286Y-116189048D01*
X171942381Y-116141429D02*
X171894762Y-116236667D01*
X171799524Y-116331905D01*
X171609048Y-116379524D01*
X171275714Y-116379524D01*
X171085238Y-116331905D01*
X170990000Y-116236667D01*
X170942381Y-116141429D01*
X170942381Y-115950952D01*
X170990000Y-115855714D01*
X171085238Y-115760476D01*
X171275714Y-115712857D01*
X171609048Y-115712857D01*
X171799524Y-115760476D01*
X171894762Y-115855714D01*
X171942381Y-115950952D01*
X171942381Y-116141429D01*
X171037619Y-115331905D02*
X170990000Y-115284286D01*
X170942381Y-115189048D01*
X170942381Y-114950952D01*
X170990000Y-114855714D01*
X171037619Y-114808095D01*
X171132857Y-114760476D01*
X171228095Y-114760476D01*
X171370952Y-114808095D01*
X171942381Y-115379524D01*
X171942381Y-114760476D01*
X186594762Y-112347619D02*
X186499524Y-112300000D01*
X186404286Y-112204762D01*
X186261429Y-112061905D01*
X186166190Y-112014286D01*
X186070952Y-112014286D01*
X186118571Y-112252381D02*
X186023333Y-112204762D01*
X185928095Y-112109524D01*
X185880476Y-111919048D01*
X185880476Y-111585714D01*
X185928095Y-111395238D01*
X186023333Y-111300000D01*
X186118571Y-111252381D01*
X186309048Y-111252381D01*
X186404286Y-111300000D01*
X186499524Y-111395238D01*
X186547143Y-111585714D01*
X186547143Y-111919048D01*
X186499524Y-112109524D01*
X186404286Y-112204762D01*
X186309048Y-112252381D01*
X186118571Y-112252381D01*
X187499524Y-112252381D02*
X186928095Y-112252381D01*
X187213809Y-112252381D02*
X187213809Y-111252381D01*
X187118571Y-111395238D01*
X187023333Y-111490476D01*
X186928095Y-111538095D01*
X181047381Y-114466666D02*
X180571190Y-114800000D01*
X181047381Y-115038095D02*
X180047381Y-115038095D01*
X180047381Y-114657142D01*
X180095000Y-114561904D01*
X180142619Y-114514285D01*
X180237857Y-114466666D01*
X180380714Y-114466666D01*
X180475952Y-114514285D01*
X180523571Y-114561904D01*
X180571190Y-114657142D01*
X180571190Y-115038095D01*
X181047381Y-113514285D02*
X181047381Y-114085714D01*
X181047381Y-113800000D02*
X180047381Y-113800000D01*
X180190238Y-113895238D01*
X180285476Y-113990476D01*
X180333095Y-114085714D01*
X179267381Y-114466666D02*
X178791190Y-114800000D01*
X179267381Y-115038095D02*
X178267381Y-115038095D01*
X178267381Y-114657142D01*
X178315000Y-114561904D01*
X178362619Y-114514285D01*
X178457857Y-114466666D01*
X178600714Y-114466666D01*
X178695952Y-114514285D01*
X178743571Y-114561904D01*
X178791190Y-114657142D01*
X178791190Y-115038095D01*
X178362619Y-114085714D02*
X178315000Y-114038095D01*
X178267381Y-113942857D01*
X178267381Y-113704761D01*
X178315000Y-113609523D01*
X178362619Y-113561904D01*
X178457857Y-113514285D01*
X178553095Y-113514285D01*
X178695952Y-113561904D01*
X179267381Y-114133333D01*
X179267381Y-113514285D01*
X183284905Y-127198381D02*
X183284905Y-126198381D01*
X183523000Y-126198381D01*
X183665858Y-126246000D01*
X183761096Y-126341238D01*
X183808715Y-126436476D01*
X183856334Y-126626952D01*
X183856334Y-126769810D01*
X183808715Y-126960286D01*
X183761096Y-127055524D01*
X183665858Y-127150762D01*
X183523000Y-127198381D01*
X183284905Y-127198381D01*
X184808715Y-127198381D02*
X184237286Y-127198381D01*
X184523000Y-127198381D02*
X184523000Y-126198381D01*
X184427762Y-126341238D01*
X184332524Y-126436476D01*
X184237286Y-126484095D01*
X183284905Y-123388381D02*
X183284905Y-122388381D01*
X183523000Y-122388381D01*
X183665858Y-122436000D01*
X183761096Y-122531238D01*
X183808715Y-122626476D01*
X183856334Y-122816952D01*
X183856334Y-122959810D01*
X183808715Y-123150286D01*
X183761096Y-123245524D01*
X183665858Y-123340762D01*
X183523000Y-123388381D01*
X183284905Y-123388381D01*
X184237286Y-122483619D02*
X184284905Y-122436000D01*
X184380143Y-122388381D01*
X184618239Y-122388381D01*
X184713477Y-122436000D01*
X184761096Y-122483619D01*
X184808715Y-122578857D01*
X184808715Y-122674095D01*
X184761096Y-122816952D01*
X184189667Y-123388381D01*
X184808715Y-123388381D01*
X187793334Y-127198381D02*
X187460000Y-126722190D01*
X187221905Y-127198381D02*
X187221905Y-126198381D01*
X187602858Y-126198381D01*
X187698096Y-126246000D01*
X187745715Y-126293619D01*
X187793334Y-126388857D01*
X187793334Y-126531714D01*
X187745715Y-126626952D01*
X187698096Y-126674571D01*
X187602858Y-126722190D01*
X187221905Y-126722190D01*
X188126667Y-126198381D02*
X188745715Y-126198381D01*
X188412381Y-126579333D01*
X188555239Y-126579333D01*
X188650477Y-126626952D01*
X188698096Y-126674571D01*
X188745715Y-126769810D01*
X188745715Y-127007905D01*
X188698096Y-127103143D01*
X188650477Y-127150762D01*
X188555239Y-127198381D01*
X188269524Y-127198381D01*
X188174286Y-127150762D01*
X188126667Y-127103143D01*
X187793334Y-123388381D02*
X187460000Y-122912190D01*
X187221905Y-123388381D02*
X187221905Y-122388381D01*
X187602858Y-122388381D01*
X187698096Y-122436000D01*
X187745715Y-122483619D01*
X187793334Y-122578857D01*
X187793334Y-122721714D01*
X187745715Y-122816952D01*
X187698096Y-122864571D01*
X187602858Y-122912190D01*
X187221905Y-122912190D01*
X188650477Y-122721714D02*
X188650477Y-123388381D01*
X188412381Y-122340762D02*
X188174286Y-123055048D01*
X188793334Y-123055048D01*
M02*
