M48
;DRILL file {KiCad 4.0.7} date 11/20/17 17:17:06
;FORMAT={-:-/ absolute / inch / decimal}
FMAT,2
INCH,TZ
T1C0.012
T2C0.040
%
G90
G05
M72
T1
X6.775Y-4.475
X7.15Y-4.98
X7.275Y-4.4
X7.275Y-4.6
X7.47Y-4.73
T2
X5.7Y-3.9
X5.7Y-4.
X5.7Y-4.1
X5.7Y-4.2
X5.7Y-4.3
X5.7Y-4.4
X5.7Y-4.5
X5.7Y-4.6
X5.7Y-4.76
X5.7Y-4.86
X5.7Y-4.96
X5.7Y-5.06
X5.7Y-5.16
X5.7Y-5.26
X5.7Y-5.36
X5.7Y-5.46
X5.7Y-5.56
X5.7Y-5.66
X6.15Y-4.2
X6.25Y-4.2
X6.35Y-4.2
X6.45Y-4.2
X6.55Y-4.2
X6.65Y-4.2
X6.75Y-4.2
X6.85Y-4.2
X6.95Y-4.2
X7.05Y-4.2
X7.15Y-4.2
X7.25Y-4.2
X7.35Y-4.2
X7.45Y-4.2
X7.6Y-3.9
X7.6Y-4.
X7.6Y-4.1
X7.6Y-4.2
X7.6Y-4.3
X7.6Y-4.4
X7.6Y-4.6
X7.6Y-4.7
X7.6Y-4.8
X7.6Y-4.9
X7.6Y-5.
X7.6Y-5.1
X7.6Y-5.2
X7.6Y-5.3
T0
M30
