G04 #@! TF.FileFunction,Copper,L2,Bot,Signal*
%FSLAX46Y46*%
G04 Gerber Fmt 4.6, Leading zero omitted, Abs format (unit mm)*
G04 Created by KiCad (PCBNEW 4.0.7-e2-6376~58~ubuntu14.04.1) date Sat Nov 11 23:25:02 2017*
%MOMM*%
%LPD*%
G01*
G04 APERTURE LIST*
%ADD10C,0.100000*%
%ADD11C,1.420000*%
%ADD12C,0.600000*%
%ADD13C,0.254000*%
G04 APERTURE END LIST*
D10*
D11*
X144780000Y-99060000D03*
X144780000Y-101600000D03*
X144780000Y-104140000D03*
X144780000Y-106680000D03*
X144780000Y-109220000D03*
X144780000Y-111760000D03*
X144780000Y-114300000D03*
X144780000Y-116840000D03*
X144780000Y-120904000D03*
X144780000Y-123444000D03*
X144780000Y-125984000D03*
X144780000Y-128524000D03*
X144780000Y-131064000D03*
X144780000Y-133604000D03*
X144780000Y-136144000D03*
X144780000Y-138684000D03*
X144780000Y-141224000D03*
X144780000Y-143764000D03*
X193040000Y-99060000D03*
X193040000Y-101600000D03*
X193040000Y-104140000D03*
X193040000Y-106680000D03*
X193040000Y-109220000D03*
X193040000Y-111760000D03*
X193040000Y-116840000D03*
X193040000Y-119380000D03*
X193040000Y-121920000D03*
X193040000Y-124460000D03*
X193040000Y-127000000D03*
X193040000Y-129540000D03*
X193040000Y-132080000D03*
X193040000Y-134620000D03*
X173990000Y-106680000D03*
X176530000Y-106680000D03*
X179070000Y-106680000D03*
X181610000Y-106680000D03*
X184150000Y-106680000D03*
X186690000Y-106680000D03*
X189230000Y-106680000D03*
D12*
X184785000Y-116840000D03*
X172085000Y-113665000D03*
X184785000Y-111760000D03*
D13*
X184785000Y-111760000D02*
X186690000Y-109855000D01*
X186690000Y-109855000D02*
X186690000Y-106680000D01*
G36*
X194425051Y-97332636D02*
X194630253Y-97469747D01*
X194767364Y-97674949D01*
X194818000Y-97929510D01*
X194818000Y-144640490D01*
X194767364Y-144895051D01*
X194630253Y-145100253D01*
X194425051Y-145237364D01*
X194170490Y-145288000D01*
X143649510Y-145288000D01*
X143394949Y-145237364D01*
X143189747Y-145100253D01*
X143052636Y-144895051D01*
X143002000Y-144640490D01*
X143002000Y-143980061D01*
X143688811Y-143980061D01*
X143854556Y-144381195D01*
X144161191Y-144688366D01*
X144562035Y-144854810D01*
X144996061Y-144855189D01*
X145397195Y-144689444D01*
X145704366Y-144382809D01*
X145870810Y-143981965D01*
X145871189Y-143547939D01*
X145705444Y-143146805D01*
X145398809Y-142839634D01*
X144997965Y-142673190D01*
X144563939Y-142672811D01*
X144162805Y-142838556D01*
X143855634Y-143145191D01*
X143689190Y-143546035D01*
X143688811Y-143980061D01*
X143002000Y-143980061D01*
X143002000Y-141440061D01*
X143688811Y-141440061D01*
X143854556Y-141841195D01*
X144161191Y-142148366D01*
X144562035Y-142314810D01*
X144996061Y-142315189D01*
X145397195Y-142149444D01*
X145704366Y-141842809D01*
X145870810Y-141441965D01*
X145871189Y-141007939D01*
X145705444Y-140606805D01*
X145398809Y-140299634D01*
X144997965Y-140133190D01*
X144563939Y-140132811D01*
X144162805Y-140298556D01*
X143855634Y-140605191D01*
X143689190Y-141006035D01*
X143688811Y-141440061D01*
X143002000Y-141440061D01*
X143002000Y-138900061D01*
X143688811Y-138900061D01*
X143854556Y-139301195D01*
X144161191Y-139608366D01*
X144562035Y-139774810D01*
X144996061Y-139775189D01*
X145397195Y-139609444D01*
X145704366Y-139302809D01*
X145870810Y-138901965D01*
X145871189Y-138467939D01*
X145705444Y-138066805D01*
X145398809Y-137759634D01*
X144997965Y-137593190D01*
X144563939Y-137592811D01*
X144162805Y-137758556D01*
X143855634Y-138065191D01*
X143689190Y-138466035D01*
X143688811Y-138900061D01*
X143002000Y-138900061D01*
X143002000Y-136360061D01*
X143688811Y-136360061D01*
X143854556Y-136761195D01*
X144161191Y-137068366D01*
X144562035Y-137234810D01*
X144996061Y-137235189D01*
X145397195Y-137069444D01*
X145704366Y-136762809D01*
X145870810Y-136361965D01*
X145871189Y-135927939D01*
X145705444Y-135526805D01*
X145398809Y-135219634D01*
X144997965Y-135053190D01*
X144563939Y-135052811D01*
X144162805Y-135218556D01*
X143855634Y-135525191D01*
X143689190Y-135926035D01*
X143688811Y-136360061D01*
X143002000Y-136360061D01*
X143002000Y-134836061D01*
X191948811Y-134836061D01*
X192114556Y-135237195D01*
X192421191Y-135544366D01*
X192822035Y-135710810D01*
X193256061Y-135711189D01*
X193657195Y-135545444D01*
X193964366Y-135238809D01*
X194130810Y-134837965D01*
X194131189Y-134403939D01*
X193965444Y-134002805D01*
X193658809Y-133695634D01*
X193257965Y-133529190D01*
X192823939Y-133528811D01*
X192422805Y-133694556D01*
X192115634Y-134001191D01*
X191949190Y-134402035D01*
X191948811Y-134836061D01*
X143002000Y-134836061D01*
X143002000Y-133820061D01*
X143688811Y-133820061D01*
X143854556Y-134221195D01*
X144161191Y-134528366D01*
X144562035Y-134694810D01*
X144996061Y-134695189D01*
X145397195Y-134529444D01*
X145704366Y-134222809D01*
X145870810Y-133821965D01*
X145871189Y-133387939D01*
X145705444Y-132986805D01*
X145398809Y-132679634D01*
X144997965Y-132513190D01*
X144563939Y-132512811D01*
X144162805Y-132678556D01*
X143855634Y-132985191D01*
X143689190Y-133386035D01*
X143688811Y-133820061D01*
X143002000Y-133820061D01*
X143002000Y-132296061D01*
X191948811Y-132296061D01*
X192114556Y-132697195D01*
X192421191Y-133004366D01*
X192822035Y-133170810D01*
X193256061Y-133171189D01*
X193657195Y-133005444D01*
X193964366Y-132698809D01*
X194130810Y-132297965D01*
X194131189Y-131863939D01*
X193965444Y-131462805D01*
X193658809Y-131155634D01*
X193257965Y-130989190D01*
X192823939Y-130988811D01*
X192422805Y-131154556D01*
X192115634Y-131461191D01*
X191949190Y-131862035D01*
X191948811Y-132296061D01*
X143002000Y-132296061D01*
X143002000Y-131280061D01*
X143688811Y-131280061D01*
X143854556Y-131681195D01*
X144161191Y-131988366D01*
X144562035Y-132154810D01*
X144996061Y-132155189D01*
X145397195Y-131989444D01*
X145704366Y-131682809D01*
X145870810Y-131281965D01*
X145871189Y-130847939D01*
X145705444Y-130446805D01*
X145398809Y-130139634D01*
X144997965Y-129973190D01*
X144563939Y-129972811D01*
X144162805Y-130138556D01*
X143855634Y-130445191D01*
X143689190Y-130846035D01*
X143688811Y-131280061D01*
X143002000Y-131280061D01*
X143002000Y-129756061D01*
X191948811Y-129756061D01*
X192114556Y-130157195D01*
X192421191Y-130464366D01*
X192822035Y-130630810D01*
X193256061Y-130631189D01*
X193657195Y-130465444D01*
X193964366Y-130158809D01*
X194130810Y-129757965D01*
X194131189Y-129323939D01*
X193965444Y-128922805D01*
X193658809Y-128615634D01*
X193257965Y-128449190D01*
X192823939Y-128448811D01*
X192422805Y-128614556D01*
X192115634Y-128921191D01*
X191949190Y-129322035D01*
X191948811Y-129756061D01*
X143002000Y-129756061D01*
X143002000Y-128740061D01*
X143688811Y-128740061D01*
X143854556Y-129141195D01*
X144161191Y-129448366D01*
X144562035Y-129614810D01*
X144996061Y-129615189D01*
X145397195Y-129449444D01*
X145704366Y-129142809D01*
X145870810Y-128741965D01*
X145871189Y-128307939D01*
X145705444Y-127906805D01*
X145398809Y-127599634D01*
X144997965Y-127433190D01*
X144563939Y-127432811D01*
X144162805Y-127598556D01*
X143855634Y-127905191D01*
X143689190Y-128306035D01*
X143688811Y-128740061D01*
X143002000Y-128740061D01*
X143002000Y-127216061D01*
X191948811Y-127216061D01*
X192114556Y-127617195D01*
X192421191Y-127924366D01*
X192822035Y-128090810D01*
X193256061Y-128091189D01*
X193657195Y-127925444D01*
X193964366Y-127618809D01*
X194130810Y-127217965D01*
X194131189Y-126783939D01*
X193965444Y-126382805D01*
X193658809Y-126075634D01*
X193257965Y-125909190D01*
X192823939Y-125908811D01*
X192422805Y-126074556D01*
X192115634Y-126381191D01*
X191949190Y-126782035D01*
X191948811Y-127216061D01*
X143002000Y-127216061D01*
X143002000Y-126200061D01*
X143688811Y-126200061D01*
X143854556Y-126601195D01*
X144161191Y-126908366D01*
X144562035Y-127074810D01*
X144996061Y-127075189D01*
X145397195Y-126909444D01*
X145704366Y-126602809D01*
X145870810Y-126201965D01*
X145871189Y-125767939D01*
X145705444Y-125366805D01*
X145398809Y-125059634D01*
X144997965Y-124893190D01*
X144563939Y-124892811D01*
X144162805Y-125058556D01*
X143855634Y-125365191D01*
X143689190Y-125766035D01*
X143688811Y-126200061D01*
X143002000Y-126200061D01*
X143002000Y-124676061D01*
X191948811Y-124676061D01*
X192114556Y-125077195D01*
X192421191Y-125384366D01*
X192822035Y-125550810D01*
X193256061Y-125551189D01*
X193657195Y-125385444D01*
X193964366Y-125078809D01*
X194130810Y-124677965D01*
X194131189Y-124243939D01*
X193965444Y-123842805D01*
X193658809Y-123535634D01*
X193257965Y-123369190D01*
X192823939Y-123368811D01*
X192422805Y-123534556D01*
X192115634Y-123841191D01*
X191949190Y-124242035D01*
X191948811Y-124676061D01*
X143002000Y-124676061D01*
X143002000Y-123660061D01*
X143688811Y-123660061D01*
X143854556Y-124061195D01*
X144161191Y-124368366D01*
X144562035Y-124534810D01*
X144996061Y-124535189D01*
X145397195Y-124369444D01*
X145704366Y-124062809D01*
X145870810Y-123661965D01*
X145871189Y-123227939D01*
X145720204Y-122862525D01*
X192277081Y-122862525D01*
X192340150Y-123099327D01*
X192844732Y-123277377D01*
X193379041Y-123248779D01*
X193739850Y-123099327D01*
X193802919Y-122862525D01*
X193040000Y-122099605D01*
X192277081Y-122862525D01*
X145720204Y-122862525D01*
X145705444Y-122826805D01*
X145398809Y-122519634D01*
X144997965Y-122353190D01*
X144563939Y-122352811D01*
X144162805Y-122518556D01*
X143855634Y-122825191D01*
X143689190Y-123226035D01*
X143688811Y-123660061D01*
X143002000Y-123660061D01*
X143002000Y-121120061D01*
X143688811Y-121120061D01*
X143854556Y-121521195D01*
X144161191Y-121828366D01*
X144562035Y-121994810D01*
X144996061Y-121995189D01*
X145397195Y-121829444D01*
X145502090Y-121724732D01*
X191682623Y-121724732D01*
X191711221Y-122259041D01*
X191860673Y-122619850D01*
X192097475Y-122682919D01*
X192860395Y-121920000D01*
X193219605Y-121920000D01*
X193982525Y-122682919D01*
X194219327Y-122619850D01*
X194397377Y-122115268D01*
X194368779Y-121580959D01*
X194219327Y-121220150D01*
X193982525Y-121157081D01*
X193219605Y-121920000D01*
X192860395Y-121920000D01*
X192097475Y-121157081D01*
X191860673Y-121220150D01*
X191682623Y-121724732D01*
X145502090Y-121724732D01*
X145704366Y-121522809D01*
X145870810Y-121121965D01*
X145871189Y-120687939D01*
X145720204Y-120322525D01*
X192277081Y-120322525D01*
X192340150Y-120559327D01*
X192576561Y-120642748D01*
X192340150Y-120740673D01*
X192277081Y-120977475D01*
X193040000Y-121740395D01*
X193802919Y-120977475D01*
X193739850Y-120740673D01*
X193503439Y-120657252D01*
X193739850Y-120559327D01*
X193802919Y-120322525D01*
X193040000Y-119559605D01*
X192277081Y-120322525D01*
X145720204Y-120322525D01*
X145705444Y-120286805D01*
X145398809Y-119979634D01*
X144997965Y-119813190D01*
X144563939Y-119812811D01*
X144162805Y-119978556D01*
X143855634Y-120285191D01*
X143689190Y-120686035D01*
X143688811Y-121120061D01*
X143002000Y-121120061D01*
X143002000Y-119184732D01*
X191682623Y-119184732D01*
X191711221Y-119719041D01*
X191860673Y-120079850D01*
X192097475Y-120142919D01*
X192860395Y-119380000D01*
X193219605Y-119380000D01*
X193982525Y-120142919D01*
X194219327Y-120079850D01*
X194397377Y-119575268D01*
X194368779Y-119040959D01*
X194219327Y-118680150D01*
X193982525Y-118617081D01*
X193219605Y-119380000D01*
X192860395Y-119380000D01*
X192097475Y-118617081D01*
X191860673Y-118680150D01*
X191682623Y-119184732D01*
X143002000Y-119184732D01*
X143002000Y-118437475D01*
X192277081Y-118437475D01*
X193040000Y-119200395D01*
X193802919Y-118437475D01*
X193739850Y-118200673D01*
X193235268Y-118022623D01*
X192700959Y-118051221D01*
X192340150Y-118200673D01*
X192277081Y-118437475D01*
X143002000Y-118437475D01*
X143002000Y-117056061D01*
X143688811Y-117056061D01*
X143854556Y-117457195D01*
X144161191Y-117764366D01*
X144562035Y-117930810D01*
X144996061Y-117931189D01*
X145397195Y-117765444D01*
X145704366Y-117458809D01*
X145870810Y-117057965D01*
X145870811Y-117056061D01*
X191948811Y-117056061D01*
X192114556Y-117457195D01*
X192421191Y-117764366D01*
X192822035Y-117930810D01*
X193256061Y-117931189D01*
X193657195Y-117765444D01*
X193964366Y-117458809D01*
X194130810Y-117057965D01*
X194131189Y-116623939D01*
X193965444Y-116222805D01*
X193658809Y-115915634D01*
X193257965Y-115749190D01*
X192823939Y-115748811D01*
X192422805Y-115914556D01*
X192115634Y-116221191D01*
X191949190Y-116622035D01*
X191948811Y-117056061D01*
X145870811Y-117056061D01*
X145871189Y-116623939D01*
X145705444Y-116222805D01*
X145398809Y-115915634D01*
X144997965Y-115749190D01*
X144563939Y-115748811D01*
X144162805Y-115914556D01*
X143855634Y-116221191D01*
X143689190Y-116622035D01*
X143688811Y-117056061D01*
X143002000Y-117056061D01*
X143002000Y-114516061D01*
X143688811Y-114516061D01*
X143854556Y-114917195D01*
X144161191Y-115224366D01*
X144562035Y-115390810D01*
X144996061Y-115391189D01*
X145397195Y-115225444D01*
X145704366Y-114918809D01*
X145870810Y-114517965D01*
X145871189Y-114083939D01*
X145705444Y-113682805D01*
X145398809Y-113375634D01*
X144997965Y-113209190D01*
X144563939Y-113208811D01*
X144162805Y-113374556D01*
X143855634Y-113681191D01*
X143689190Y-114082035D01*
X143688811Y-114516061D01*
X143002000Y-114516061D01*
X143002000Y-111976061D01*
X143688811Y-111976061D01*
X143854556Y-112377195D01*
X144161191Y-112684366D01*
X144562035Y-112850810D01*
X144996061Y-112851189D01*
X145397195Y-112685444D01*
X145704366Y-112378809D01*
X145870810Y-111977965D01*
X145870882Y-111894865D01*
X184103882Y-111894865D01*
X184207339Y-112145252D01*
X184398741Y-112336987D01*
X184648946Y-112440882D01*
X184919865Y-112441118D01*
X185170252Y-112337661D01*
X185361987Y-112146259D01*
X185432659Y-111976061D01*
X191948811Y-111976061D01*
X192114556Y-112377195D01*
X192421191Y-112684366D01*
X192822035Y-112850810D01*
X193256061Y-112851189D01*
X193657195Y-112685444D01*
X193964366Y-112378809D01*
X194130810Y-111977965D01*
X194131189Y-111543939D01*
X193965444Y-111142805D01*
X193658809Y-110835634D01*
X193257965Y-110669190D01*
X192823939Y-110668811D01*
X192422805Y-110834556D01*
X192115634Y-111141191D01*
X191949190Y-111542035D01*
X191948811Y-111976061D01*
X185432659Y-111976061D01*
X185465882Y-111896054D01*
X185465968Y-111797452D01*
X187049210Y-110214210D01*
X187159331Y-110049403D01*
X187198000Y-109855000D01*
X187198000Y-109436061D01*
X191948811Y-109436061D01*
X192114556Y-109837195D01*
X192421191Y-110144366D01*
X192822035Y-110310810D01*
X193256061Y-110311189D01*
X193657195Y-110145444D01*
X193964366Y-109838809D01*
X194130810Y-109437965D01*
X194131189Y-109003939D01*
X193965444Y-108602805D01*
X193658809Y-108295634D01*
X193257965Y-108129190D01*
X192823939Y-108128811D01*
X192422805Y-108294556D01*
X192115634Y-108601191D01*
X191949190Y-109002035D01*
X191948811Y-109436061D01*
X187198000Y-109436061D01*
X187198000Y-107650562D01*
X187265855Y-107622525D01*
X188467081Y-107622525D01*
X188530150Y-107859327D01*
X189034732Y-108037377D01*
X189569041Y-108008779D01*
X189929850Y-107859327D01*
X189992919Y-107622525D01*
X189230000Y-106859605D01*
X188467081Y-107622525D01*
X187265855Y-107622525D01*
X187307195Y-107605444D01*
X187614366Y-107298809D01*
X187780810Y-106897965D01*
X187781170Y-106484732D01*
X187872623Y-106484732D01*
X187901221Y-107019041D01*
X188050673Y-107379850D01*
X188287475Y-107442919D01*
X189050395Y-106680000D01*
X189409605Y-106680000D01*
X190172525Y-107442919D01*
X190409327Y-107379850D01*
X190580039Y-106896061D01*
X191948811Y-106896061D01*
X192114556Y-107297195D01*
X192421191Y-107604366D01*
X192822035Y-107770810D01*
X193256061Y-107771189D01*
X193657195Y-107605444D01*
X193964366Y-107298809D01*
X194130810Y-106897965D01*
X194131189Y-106463939D01*
X193965444Y-106062805D01*
X193658809Y-105755634D01*
X193257965Y-105589190D01*
X192823939Y-105588811D01*
X192422805Y-105754556D01*
X192115634Y-106061191D01*
X191949190Y-106462035D01*
X191948811Y-106896061D01*
X190580039Y-106896061D01*
X190587377Y-106875268D01*
X190558779Y-106340959D01*
X190409327Y-105980150D01*
X190172525Y-105917081D01*
X189409605Y-106680000D01*
X189050395Y-106680000D01*
X188287475Y-105917081D01*
X188050673Y-105980150D01*
X187872623Y-106484732D01*
X187781170Y-106484732D01*
X187781189Y-106463939D01*
X187615444Y-106062805D01*
X187308809Y-105755634D01*
X187265078Y-105737475D01*
X188467081Y-105737475D01*
X189230000Y-106500395D01*
X189992919Y-105737475D01*
X189929850Y-105500673D01*
X189425268Y-105322623D01*
X188890959Y-105351221D01*
X188530150Y-105500673D01*
X188467081Y-105737475D01*
X187265078Y-105737475D01*
X186907965Y-105589190D01*
X186473939Y-105588811D01*
X186072805Y-105754556D01*
X185765634Y-106061191D01*
X185599190Y-106462035D01*
X185598811Y-106896061D01*
X185764556Y-107297195D01*
X186071191Y-107604366D01*
X186182000Y-107650378D01*
X186182000Y-109644580D01*
X184747613Y-111078967D01*
X184650135Y-111078882D01*
X184399748Y-111182339D01*
X184208013Y-111373741D01*
X184104118Y-111623946D01*
X184103882Y-111894865D01*
X145870882Y-111894865D01*
X145871189Y-111543939D01*
X145705444Y-111142805D01*
X145398809Y-110835634D01*
X144997965Y-110669190D01*
X144563939Y-110668811D01*
X144162805Y-110834556D01*
X143855634Y-111141191D01*
X143689190Y-111542035D01*
X143688811Y-111976061D01*
X143002000Y-111976061D01*
X143002000Y-109436061D01*
X143688811Y-109436061D01*
X143854556Y-109837195D01*
X144161191Y-110144366D01*
X144562035Y-110310810D01*
X144996061Y-110311189D01*
X145397195Y-110145444D01*
X145704366Y-109838809D01*
X145870810Y-109437965D01*
X145871189Y-109003939D01*
X145705444Y-108602805D01*
X145398809Y-108295634D01*
X144997965Y-108129190D01*
X144563939Y-108128811D01*
X144162805Y-108294556D01*
X143855634Y-108601191D01*
X143689190Y-109002035D01*
X143688811Y-109436061D01*
X143002000Y-109436061D01*
X143002000Y-106896061D01*
X143688811Y-106896061D01*
X143854556Y-107297195D01*
X144161191Y-107604366D01*
X144562035Y-107770810D01*
X144996061Y-107771189D01*
X145397195Y-107605444D01*
X145704366Y-107298809D01*
X145870810Y-106897965D01*
X145870811Y-106896061D01*
X172898811Y-106896061D01*
X173064556Y-107297195D01*
X173371191Y-107604366D01*
X173772035Y-107770810D01*
X174206061Y-107771189D01*
X174607195Y-107605444D01*
X174914366Y-107298809D01*
X175080810Y-106897965D01*
X175080811Y-106896061D01*
X175438811Y-106896061D01*
X175604556Y-107297195D01*
X175911191Y-107604366D01*
X176312035Y-107770810D01*
X176746061Y-107771189D01*
X177147195Y-107605444D01*
X177454366Y-107298809D01*
X177620810Y-106897965D01*
X177620811Y-106896061D01*
X177978811Y-106896061D01*
X178144556Y-107297195D01*
X178451191Y-107604366D01*
X178852035Y-107770810D01*
X179286061Y-107771189D01*
X179687195Y-107605444D01*
X179994366Y-107298809D01*
X180160810Y-106897965D01*
X180160811Y-106896061D01*
X180518811Y-106896061D01*
X180684556Y-107297195D01*
X180991191Y-107604366D01*
X181392035Y-107770810D01*
X181826061Y-107771189D01*
X182227195Y-107605444D01*
X182534366Y-107298809D01*
X182700810Y-106897965D01*
X182700811Y-106896061D01*
X183058811Y-106896061D01*
X183224556Y-107297195D01*
X183531191Y-107604366D01*
X183932035Y-107770810D01*
X184366061Y-107771189D01*
X184767195Y-107605444D01*
X185074366Y-107298809D01*
X185240810Y-106897965D01*
X185241189Y-106463939D01*
X185075444Y-106062805D01*
X184768809Y-105755634D01*
X184367965Y-105589190D01*
X183933939Y-105588811D01*
X183532805Y-105754556D01*
X183225634Y-106061191D01*
X183059190Y-106462035D01*
X183058811Y-106896061D01*
X182700811Y-106896061D01*
X182701189Y-106463939D01*
X182535444Y-106062805D01*
X182228809Y-105755634D01*
X181827965Y-105589190D01*
X181393939Y-105588811D01*
X180992805Y-105754556D01*
X180685634Y-106061191D01*
X180519190Y-106462035D01*
X180518811Y-106896061D01*
X180160811Y-106896061D01*
X180161189Y-106463939D01*
X179995444Y-106062805D01*
X179688809Y-105755634D01*
X179287965Y-105589190D01*
X178853939Y-105588811D01*
X178452805Y-105754556D01*
X178145634Y-106061191D01*
X177979190Y-106462035D01*
X177978811Y-106896061D01*
X177620811Y-106896061D01*
X177621189Y-106463939D01*
X177455444Y-106062805D01*
X177148809Y-105755634D01*
X176747965Y-105589190D01*
X176313939Y-105588811D01*
X175912805Y-105754556D01*
X175605634Y-106061191D01*
X175439190Y-106462035D01*
X175438811Y-106896061D01*
X175080811Y-106896061D01*
X175081189Y-106463939D01*
X174915444Y-106062805D01*
X174608809Y-105755634D01*
X174207965Y-105589190D01*
X173773939Y-105588811D01*
X173372805Y-105754556D01*
X173065634Y-106061191D01*
X172899190Y-106462035D01*
X172898811Y-106896061D01*
X145870811Y-106896061D01*
X145871189Y-106463939D01*
X145705444Y-106062805D01*
X145398809Y-105755634D01*
X144997965Y-105589190D01*
X144563939Y-105588811D01*
X144162805Y-105754556D01*
X143855634Y-106061191D01*
X143689190Y-106462035D01*
X143688811Y-106896061D01*
X143002000Y-106896061D01*
X143002000Y-104356061D01*
X143688811Y-104356061D01*
X143854556Y-104757195D01*
X144161191Y-105064366D01*
X144562035Y-105230810D01*
X144996061Y-105231189D01*
X145397195Y-105065444D01*
X145704366Y-104758809D01*
X145870810Y-104357965D01*
X145870811Y-104356061D01*
X191948811Y-104356061D01*
X192114556Y-104757195D01*
X192421191Y-105064366D01*
X192822035Y-105230810D01*
X193256061Y-105231189D01*
X193657195Y-105065444D01*
X193964366Y-104758809D01*
X194130810Y-104357965D01*
X194131189Y-103923939D01*
X193965444Y-103522805D01*
X193658809Y-103215634D01*
X193257965Y-103049190D01*
X192823939Y-103048811D01*
X192422805Y-103214556D01*
X192115634Y-103521191D01*
X191949190Y-103922035D01*
X191948811Y-104356061D01*
X145870811Y-104356061D01*
X145871189Y-103923939D01*
X145705444Y-103522805D01*
X145398809Y-103215634D01*
X144997965Y-103049190D01*
X144563939Y-103048811D01*
X144162805Y-103214556D01*
X143855634Y-103521191D01*
X143689190Y-103922035D01*
X143688811Y-104356061D01*
X143002000Y-104356061D01*
X143002000Y-101816061D01*
X143688811Y-101816061D01*
X143854556Y-102217195D01*
X144161191Y-102524366D01*
X144562035Y-102690810D01*
X144996061Y-102691189D01*
X145397195Y-102525444D01*
X145704366Y-102218809D01*
X145870810Y-101817965D01*
X145870811Y-101816061D01*
X191948811Y-101816061D01*
X192114556Y-102217195D01*
X192421191Y-102524366D01*
X192822035Y-102690810D01*
X193256061Y-102691189D01*
X193657195Y-102525444D01*
X193964366Y-102218809D01*
X194130810Y-101817965D01*
X194131189Y-101383939D01*
X193965444Y-100982805D01*
X193658809Y-100675634D01*
X193257965Y-100509190D01*
X192823939Y-100508811D01*
X192422805Y-100674556D01*
X192115634Y-100981191D01*
X191949190Y-101382035D01*
X191948811Y-101816061D01*
X145870811Y-101816061D01*
X145871189Y-101383939D01*
X145705444Y-100982805D01*
X145398809Y-100675634D01*
X144997965Y-100509190D01*
X144563939Y-100508811D01*
X144162805Y-100674556D01*
X143855634Y-100981191D01*
X143689190Y-101382035D01*
X143688811Y-101816061D01*
X143002000Y-101816061D01*
X143002000Y-99276061D01*
X143688811Y-99276061D01*
X143854556Y-99677195D01*
X144161191Y-99984366D01*
X144562035Y-100150810D01*
X144996061Y-100151189D01*
X145397195Y-99985444D01*
X145704366Y-99678809D01*
X145870810Y-99277965D01*
X145870811Y-99276061D01*
X191948811Y-99276061D01*
X192114556Y-99677195D01*
X192421191Y-99984366D01*
X192822035Y-100150810D01*
X193256061Y-100151189D01*
X193657195Y-99985444D01*
X193964366Y-99678809D01*
X194130810Y-99277965D01*
X194131189Y-98843939D01*
X193965444Y-98442805D01*
X193658809Y-98135634D01*
X193257965Y-97969190D01*
X192823939Y-97968811D01*
X192422805Y-98134556D01*
X192115634Y-98441191D01*
X191949190Y-98842035D01*
X191948811Y-99276061D01*
X145870811Y-99276061D01*
X145871189Y-98843939D01*
X145705444Y-98442805D01*
X145398809Y-98135634D01*
X144997965Y-97969190D01*
X144563939Y-97968811D01*
X144162805Y-98134556D01*
X143855634Y-98441191D01*
X143689190Y-98842035D01*
X143688811Y-99276061D01*
X143002000Y-99276061D01*
X143002000Y-97929510D01*
X143052636Y-97674949D01*
X143189747Y-97469747D01*
X143394949Y-97332636D01*
X143649510Y-97282000D01*
X194170490Y-97282000D01*
X194425051Y-97332636D01*
X194425051Y-97332636D01*
G37*
X194425051Y-97332636D02*
X194630253Y-97469747D01*
X194767364Y-97674949D01*
X194818000Y-97929510D01*
X194818000Y-144640490D01*
X194767364Y-144895051D01*
X194630253Y-145100253D01*
X194425051Y-145237364D01*
X194170490Y-145288000D01*
X143649510Y-145288000D01*
X143394949Y-145237364D01*
X143189747Y-145100253D01*
X143052636Y-144895051D01*
X143002000Y-144640490D01*
X143002000Y-143980061D01*
X143688811Y-143980061D01*
X143854556Y-144381195D01*
X144161191Y-144688366D01*
X144562035Y-144854810D01*
X144996061Y-144855189D01*
X145397195Y-144689444D01*
X145704366Y-144382809D01*
X145870810Y-143981965D01*
X145871189Y-143547939D01*
X145705444Y-143146805D01*
X145398809Y-142839634D01*
X144997965Y-142673190D01*
X144563939Y-142672811D01*
X144162805Y-142838556D01*
X143855634Y-143145191D01*
X143689190Y-143546035D01*
X143688811Y-143980061D01*
X143002000Y-143980061D01*
X143002000Y-141440061D01*
X143688811Y-141440061D01*
X143854556Y-141841195D01*
X144161191Y-142148366D01*
X144562035Y-142314810D01*
X144996061Y-142315189D01*
X145397195Y-142149444D01*
X145704366Y-141842809D01*
X145870810Y-141441965D01*
X145871189Y-141007939D01*
X145705444Y-140606805D01*
X145398809Y-140299634D01*
X144997965Y-140133190D01*
X144563939Y-140132811D01*
X144162805Y-140298556D01*
X143855634Y-140605191D01*
X143689190Y-141006035D01*
X143688811Y-141440061D01*
X143002000Y-141440061D01*
X143002000Y-138900061D01*
X143688811Y-138900061D01*
X143854556Y-139301195D01*
X144161191Y-139608366D01*
X144562035Y-139774810D01*
X144996061Y-139775189D01*
X145397195Y-139609444D01*
X145704366Y-139302809D01*
X145870810Y-138901965D01*
X145871189Y-138467939D01*
X145705444Y-138066805D01*
X145398809Y-137759634D01*
X144997965Y-137593190D01*
X144563939Y-137592811D01*
X144162805Y-137758556D01*
X143855634Y-138065191D01*
X143689190Y-138466035D01*
X143688811Y-138900061D01*
X143002000Y-138900061D01*
X143002000Y-136360061D01*
X143688811Y-136360061D01*
X143854556Y-136761195D01*
X144161191Y-137068366D01*
X144562035Y-137234810D01*
X144996061Y-137235189D01*
X145397195Y-137069444D01*
X145704366Y-136762809D01*
X145870810Y-136361965D01*
X145871189Y-135927939D01*
X145705444Y-135526805D01*
X145398809Y-135219634D01*
X144997965Y-135053190D01*
X144563939Y-135052811D01*
X144162805Y-135218556D01*
X143855634Y-135525191D01*
X143689190Y-135926035D01*
X143688811Y-136360061D01*
X143002000Y-136360061D01*
X143002000Y-134836061D01*
X191948811Y-134836061D01*
X192114556Y-135237195D01*
X192421191Y-135544366D01*
X192822035Y-135710810D01*
X193256061Y-135711189D01*
X193657195Y-135545444D01*
X193964366Y-135238809D01*
X194130810Y-134837965D01*
X194131189Y-134403939D01*
X193965444Y-134002805D01*
X193658809Y-133695634D01*
X193257965Y-133529190D01*
X192823939Y-133528811D01*
X192422805Y-133694556D01*
X192115634Y-134001191D01*
X191949190Y-134402035D01*
X191948811Y-134836061D01*
X143002000Y-134836061D01*
X143002000Y-133820061D01*
X143688811Y-133820061D01*
X143854556Y-134221195D01*
X144161191Y-134528366D01*
X144562035Y-134694810D01*
X144996061Y-134695189D01*
X145397195Y-134529444D01*
X145704366Y-134222809D01*
X145870810Y-133821965D01*
X145871189Y-133387939D01*
X145705444Y-132986805D01*
X145398809Y-132679634D01*
X144997965Y-132513190D01*
X144563939Y-132512811D01*
X144162805Y-132678556D01*
X143855634Y-132985191D01*
X143689190Y-133386035D01*
X143688811Y-133820061D01*
X143002000Y-133820061D01*
X143002000Y-132296061D01*
X191948811Y-132296061D01*
X192114556Y-132697195D01*
X192421191Y-133004366D01*
X192822035Y-133170810D01*
X193256061Y-133171189D01*
X193657195Y-133005444D01*
X193964366Y-132698809D01*
X194130810Y-132297965D01*
X194131189Y-131863939D01*
X193965444Y-131462805D01*
X193658809Y-131155634D01*
X193257965Y-130989190D01*
X192823939Y-130988811D01*
X192422805Y-131154556D01*
X192115634Y-131461191D01*
X191949190Y-131862035D01*
X191948811Y-132296061D01*
X143002000Y-132296061D01*
X143002000Y-131280061D01*
X143688811Y-131280061D01*
X143854556Y-131681195D01*
X144161191Y-131988366D01*
X144562035Y-132154810D01*
X144996061Y-132155189D01*
X145397195Y-131989444D01*
X145704366Y-131682809D01*
X145870810Y-131281965D01*
X145871189Y-130847939D01*
X145705444Y-130446805D01*
X145398809Y-130139634D01*
X144997965Y-129973190D01*
X144563939Y-129972811D01*
X144162805Y-130138556D01*
X143855634Y-130445191D01*
X143689190Y-130846035D01*
X143688811Y-131280061D01*
X143002000Y-131280061D01*
X143002000Y-129756061D01*
X191948811Y-129756061D01*
X192114556Y-130157195D01*
X192421191Y-130464366D01*
X192822035Y-130630810D01*
X193256061Y-130631189D01*
X193657195Y-130465444D01*
X193964366Y-130158809D01*
X194130810Y-129757965D01*
X194131189Y-129323939D01*
X193965444Y-128922805D01*
X193658809Y-128615634D01*
X193257965Y-128449190D01*
X192823939Y-128448811D01*
X192422805Y-128614556D01*
X192115634Y-128921191D01*
X191949190Y-129322035D01*
X191948811Y-129756061D01*
X143002000Y-129756061D01*
X143002000Y-128740061D01*
X143688811Y-128740061D01*
X143854556Y-129141195D01*
X144161191Y-129448366D01*
X144562035Y-129614810D01*
X144996061Y-129615189D01*
X145397195Y-129449444D01*
X145704366Y-129142809D01*
X145870810Y-128741965D01*
X145871189Y-128307939D01*
X145705444Y-127906805D01*
X145398809Y-127599634D01*
X144997965Y-127433190D01*
X144563939Y-127432811D01*
X144162805Y-127598556D01*
X143855634Y-127905191D01*
X143689190Y-128306035D01*
X143688811Y-128740061D01*
X143002000Y-128740061D01*
X143002000Y-127216061D01*
X191948811Y-127216061D01*
X192114556Y-127617195D01*
X192421191Y-127924366D01*
X192822035Y-128090810D01*
X193256061Y-128091189D01*
X193657195Y-127925444D01*
X193964366Y-127618809D01*
X194130810Y-127217965D01*
X194131189Y-126783939D01*
X193965444Y-126382805D01*
X193658809Y-126075634D01*
X193257965Y-125909190D01*
X192823939Y-125908811D01*
X192422805Y-126074556D01*
X192115634Y-126381191D01*
X191949190Y-126782035D01*
X191948811Y-127216061D01*
X143002000Y-127216061D01*
X143002000Y-126200061D01*
X143688811Y-126200061D01*
X143854556Y-126601195D01*
X144161191Y-126908366D01*
X144562035Y-127074810D01*
X144996061Y-127075189D01*
X145397195Y-126909444D01*
X145704366Y-126602809D01*
X145870810Y-126201965D01*
X145871189Y-125767939D01*
X145705444Y-125366805D01*
X145398809Y-125059634D01*
X144997965Y-124893190D01*
X144563939Y-124892811D01*
X144162805Y-125058556D01*
X143855634Y-125365191D01*
X143689190Y-125766035D01*
X143688811Y-126200061D01*
X143002000Y-126200061D01*
X143002000Y-124676061D01*
X191948811Y-124676061D01*
X192114556Y-125077195D01*
X192421191Y-125384366D01*
X192822035Y-125550810D01*
X193256061Y-125551189D01*
X193657195Y-125385444D01*
X193964366Y-125078809D01*
X194130810Y-124677965D01*
X194131189Y-124243939D01*
X193965444Y-123842805D01*
X193658809Y-123535634D01*
X193257965Y-123369190D01*
X192823939Y-123368811D01*
X192422805Y-123534556D01*
X192115634Y-123841191D01*
X191949190Y-124242035D01*
X191948811Y-124676061D01*
X143002000Y-124676061D01*
X143002000Y-123660061D01*
X143688811Y-123660061D01*
X143854556Y-124061195D01*
X144161191Y-124368366D01*
X144562035Y-124534810D01*
X144996061Y-124535189D01*
X145397195Y-124369444D01*
X145704366Y-124062809D01*
X145870810Y-123661965D01*
X145871189Y-123227939D01*
X145720204Y-122862525D01*
X192277081Y-122862525D01*
X192340150Y-123099327D01*
X192844732Y-123277377D01*
X193379041Y-123248779D01*
X193739850Y-123099327D01*
X193802919Y-122862525D01*
X193040000Y-122099605D01*
X192277081Y-122862525D01*
X145720204Y-122862525D01*
X145705444Y-122826805D01*
X145398809Y-122519634D01*
X144997965Y-122353190D01*
X144563939Y-122352811D01*
X144162805Y-122518556D01*
X143855634Y-122825191D01*
X143689190Y-123226035D01*
X143688811Y-123660061D01*
X143002000Y-123660061D01*
X143002000Y-121120061D01*
X143688811Y-121120061D01*
X143854556Y-121521195D01*
X144161191Y-121828366D01*
X144562035Y-121994810D01*
X144996061Y-121995189D01*
X145397195Y-121829444D01*
X145502090Y-121724732D01*
X191682623Y-121724732D01*
X191711221Y-122259041D01*
X191860673Y-122619850D01*
X192097475Y-122682919D01*
X192860395Y-121920000D01*
X193219605Y-121920000D01*
X193982525Y-122682919D01*
X194219327Y-122619850D01*
X194397377Y-122115268D01*
X194368779Y-121580959D01*
X194219327Y-121220150D01*
X193982525Y-121157081D01*
X193219605Y-121920000D01*
X192860395Y-121920000D01*
X192097475Y-121157081D01*
X191860673Y-121220150D01*
X191682623Y-121724732D01*
X145502090Y-121724732D01*
X145704366Y-121522809D01*
X145870810Y-121121965D01*
X145871189Y-120687939D01*
X145720204Y-120322525D01*
X192277081Y-120322525D01*
X192340150Y-120559327D01*
X192576561Y-120642748D01*
X192340150Y-120740673D01*
X192277081Y-120977475D01*
X193040000Y-121740395D01*
X193802919Y-120977475D01*
X193739850Y-120740673D01*
X193503439Y-120657252D01*
X193739850Y-120559327D01*
X193802919Y-120322525D01*
X193040000Y-119559605D01*
X192277081Y-120322525D01*
X145720204Y-120322525D01*
X145705444Y-120286805D01*
X145398809Y-119979634D01*
X144997965Y-119813190D01*
X144563939Y-119812811D01*
X144162805Y-119978556D01*
X143855634Y-120285191D01*
X143689190Y-120686035D01*
X143688811Y-121120061D01*
X143002000Y-121120061D01*
X143002000Y-119184732D01*
X191682623Y-119184732D01*
X191711221Y-119719041D01*
X191860673Y-120079850D01*
X192097475Y-120142919D01*
X192860395Y-119380000D01*
X193219605Y-119380000D01*
X193982525Y-120142919D01*
X194219327Y-120079850D01*
X194397377Y-119575268D01*
X194368779Y-119040959D01*
X194219327Y-118680150D01*
X193982525Y-118617081D01*
X193219605Y-119380000D01*
X192860395Y-119380000D01*
X192097475Y-118617081D01*
X191860673Y-118680150D01*
X191682623Y-119184732D01*
X143002000Y-119184732D01*
X143002000Y-118437475D01*
X192277081Y-118437475D01*
X193040000Y-119200395D01*
X193802919Y-118437475D01*
X193739850Y-118200673D01*
X193235268Y-118022623D01*
X192700959Y-118051221D01*
X192340150Y-118200673D01*
X192277081Y-118437475D01*
X143002000Y-118437475D01*
X143002000Y-117056061D01*
X143688811Y-117056061D01*
X143854556Y-117457195D01*
X144161191Y-117764366D01*
X144562035Y-117930810D01*
X144996061Y-117931189D01*
X145397195Y-117765444D01*
X145704366Y-117458809D01*
X145870810Y-117057965D01*
X145870811Y-117056061D01*
X191948811Y-117056061D01*
X192114556Y-117457195D01*
X192421191Y-117764366D01*
X192822035Y-117930810D01*
X193256061Y-117931189D01*
X193657195Y-117765444D01*
X193964366Y-117458809D01*
X194130810Y-117057965D01*
X194131189Y-116623939D01*
X193965444Y-116222805D01*
X193658809Y-115915634D01*
X193257965Y-115749190D01*
X192823939Y-115748811D01*
X192422805Y-115914556D01*
X192115634Y-116221191D01*
X191949190Y-116622035D01*
X191948811Y-117056061D01*
X145870811Y-117056061D01*
X145871189Y-116623939D01*
X145705444Y-116222805D01*
X145398809Y-115915634D01*
X144997965Y-115749190D01*
X144563939Y-115748811D01*
X144162805Y-115914556D01*
X143855634Y-116221191D01*
X143689190Y-116622035D01*
X143688811Y-117056061D01*
X143002000Y-117056061D01*
X143002000Y-114516061D01*
X143688811Y-114516061D01*
X143854556Y-114917195D01*
X144161191Y-115224366D01*
X144562035Y-115390810D01*
X144996061Y-115391189D01*
X145397195Y-115225444D01*
X145704366Y-114918809D01*
X145870810Y-114517965D01*
X145871189Y-114083939D01*
X145705444Y-113682805D01*
X145398809Y-113375634D01*
X144997965Y-113209190D01*
X144563939Y-113208811D01*
X144162805Y-113374556D01*
X143855634Y-113681191D01*
X143689190Y-114082035D01*
X143688811Y-114516061D01*
X143002000Y-114516061D01*
X143002000Y-111976061D01*
X143688811Y-111976061D01*
X143854556Y-112377195D01*
X144161191Y-112684366D01*
X144562035Y-112850810D01*
X144996061Y-112851189D01*
X145397195Y-112685444D01*
X145704366Y-112378809D01*
X145870810Y-111977965D01*
X145870882Y-111894865D01*
X184103882Y-111894865D01*
X184207339Y-112145252D01*
X184398741Y-112336987D01*
X184648946Y-112440882D01*
X184919865Y-112441118D01*
X185170252Y-112337661D01*
X185361987Y-112146259D01*
X185432659Y-111976061D01*
X191948811Y-111976061D01*
X192114556Y-112377195D01*
X192421191Y-112684366D01*
X192822035Y-112850810D01*
X193256061Y-112851189D01*
X193657195Y-112685444D01*
X193964366Y-112378809D01*
X194130810Y-111977965D01*
X194131189Y-111543939D01*
X193965444Y-111142805D01*
X193658809Y-110835634D01*
X193257965Y-110669190D01*
X192823939Y-110668811D01*
X192422805Y-110834556D01*
X192115634Y-111141191D01*
X191949190Y-111542035D01*
X191948811Y-111976061D01*
X185432659Y-111976061D01*
X185465882Y-111896054D01*
X185465968Y-111797452D01*
X187049210Y-110214210D01*
X187159331Y-110049403D01*
X187198000Y-109855000D01*
X187198000Y-109436061D01*
X191948811Y-109436061D01*
X192114556Y-109837195D01*
X192421191Y-110144366D01*
X192822035Y-110310810D01*
X193256061Y-110311189D01*
X193657195Y-110145444D01*
X193964366Y-109838809D01*
X194130810Y-109437965D01*
X194131189Y-109003939D01*
X193965444Y-108602805D01*
X193658809Y-108295634D01*
X193257965Y-108129190D01*
X192823939Y-108128811D01*
X192422805Y-108294556D01*
X192115634Y-108601191D01*
X191949190Y-109002035D01*
X191948811Y-109436061D01*
X187198000Y-109436061D01*
X187198000Y-107650562D01*
X187265855Y-107622525D01*
X188467081Y-107622525D01*
X188530150Y-107859327D01*
X189034732Y-108037377D01*
X189569041Y-108008779D01*
X189929850Y-107859327D01*
X189992919Y-107622525D01*
X189230000Y-106859605D01*
X188467081Y-107622525D01*
X187265855Y-107622525D01*
X187307195Y-107605444D01*
X187614366Y-107298809D01*
X187780810Y-106897965D01*
X187781170Y-106484732D01*
X187872623Y-106484732D01*
X187901221Y-107019041D01*
X188050673Y-107379850D01*
X188287475Y-107442919D01*
X189050395Y-106680000D01*
X189409605Y-106680000D01*
X190172525Y-107442919D01*
X190409327Y-107379850D01*
X190580039Y-106896061D01*
X191948811Y-106896061D01*
X192114556Y-107297195D01*
X192421191Y-107604366D01*
X192822035Y-107770810D01*
X193256061Y-107771189D01*
X193657195Y-107605444D01*
X193964366Y-107298809D01*
X194130810Y-106897965D01*
X194131189Y-106463939D01*
X193965444Y-106062805D01*
X193658809Y-105755634D01*
X193257965Y-105589190D01*
X192823939Y-105588811D01*
X192422805Y-105754556D01*
X192115634Y-106061191D01*
X191949190Y-106462035D01*
X191948811Y-106896061D01*
X190580039Y-106896061D01*
X190587377Y-106875268D01*
X190558779Y-106340959D01*
X190409327Y-105980150D01*
X190172525Y-105917081D01*
X189409605Y-106680000D01*
X189050395Y-106680000D01*
X188287475Y-105917081D01*
X188050673Y-105980150D01*
X187872623Y-106484732D01*
X187781170Y-106484732D01*
X187781189Y-106463939D01*
X187615444Y-106062805D01*
X187308809Y-105755634D01*
X187265078Y-105737475D01*
X188467081Y-105737475D01*
X189230000Y-106500395D01*
X189992919Y-105737475D01*
X189929850Y-105500673D01*
X189425268Y-105322623D01*
X188890959Y-105351221D01*
X188530150Y-105500673D01*
X188467081Y-105737475D01*
X187265078Y-105737475D01*
X186907965Y-105589190D01*
X186473939Y-105588811D01*
X186072805Y-105754556D01*
X185765634Y-106061191D01*
X185599190Y-106462035D01*
X185598811Y-106896061D01*
X185764556Y-107297195D01*
X186071191Y-107604366D01*
X186182000Y-107650378D01*
X186182000Y-109644580D01*
X184747613Y-111078967D01*
X184650135Y-111078882D01*
X184399748Y-111182339D01*
X184208013Y-111373741D01*
X184104118Y-111623946D01*
X184103882Y-111894865D01*
X145870882Y-111894865D01*
X145871189Y-111543939D01*
X145705444Y-111142805D01*
X145398809Y-110835634D01*
X144997965Y-110669190D01*
X144563939Y-110668811D01*
X144162805Y-110834556D01*
X143855634Y-111141191D01*
X143689190Y-111542035D01*
X143688811Y-111976061D01*
X143002000Y-111976061D01*
X143002000Y-109436061D01*
X143688811Y-109436061D01*
X143854556Y-109837195D01*
X144161191Y-110144366D01*
X144562035Y-110310810D01*
X144996061Y-110311189D01*
X145397195Y-110145444D01*
X145704366Y-109838809D01*
X145870810Y-109437965D01*
X145871189Y-109003939D01*
X145705444Y-108602805D01*
X145398809Y-108295634D01*
X144997965Y-108129190D01*
X144563939Y-108128811D01*
X144162805Y-108294556D01*
X143855634Y-108601191D01*
X143689190Y-109002035D01*
X143688811Y-109436061D01*
X143002000Y-109436061D01*
X143002000Y-106896061D01*
X143688811Y-106896061D01*
X143854556Y-107297195D01*
X144161191Y-107604366D01*
X144562035Y-107770810D01*
X144996061Y-107771189D01*
X145397195Y-107605444D01*
X145704366Y-107298809D01*
X145870810Y-106897965D01*
X145870811Y-106896061D01*
X172898811Y-106896061D01*
X173064556Y-107297195D01*
X173371191Y-107604366D01*
X173772035Y-107770810D01*
X174206061Y-107771189D01*
X174607195Y-107605444D01*
X174914366Y-107298809D01*
X175080810Y-106897965D01*
X175080811Y-106896061D01*
X175438811Y-106896061D01*
X175604556Y-107297195D01*
X175911191Y-107604366D01*
X176312035Y-107770810D01*
X176746061Y-107771189D01*
X177147195Y-107605444D01*
X177454366Y-107298809D01*
X177620810Y-106897965D01*
X177620811Y-106896061D01*
X177978811Y-106896061D01*
X178144556Y-107297195D01*
X178451191Y-107604366D01*
X178852035Y-107770810D01*
X179286061Y-107771189D01*
X179687195Y-107605444D01*
X179994366Y-107298809D01*
X180160810Y-106897965D01*
X180160811Y-106896061D01*
X180518811Y-106896061D01*
X180684556Y-107297195D01*
X180991191Y-107604366D01*
X181392035Y-107770810D01*
X181826061Y-107771189D01*
X182227195Y-107605444D01*
X182534366Y-107298809D01*
X182700810Y-106897965D01*
X182700811Y-106896061D01*
X183058811Y-106896061D01*
X183224556Y-107297195D01*
X183531191Y-107604366D01*
X183932035Y-107770810D01*
X184366061Y-107771189D01*
X184767195Y-107605444D01*
X185074366Y-107298809D01*
X185240810Y-106897965D01*
X185241189Y-106463939D01*
X185075444Y-106062805D01*
X184768809Y-105755634D01*
X184367965Y-105589190D01*
X183933939Y-105588811D01*
X183532805Y-105754556D01*
X183225634Y-106061191D01*
X183059190Y-106462035D01*
X183058811Y-106896061D01*
X182700811Y-106896061D01*
X182701189Y-106463939D01*
X182535444Y-106062805D01*
X182228809Y-105755634D01*
X181827965Y-105589190D01*
X181393939Y-105588811D01*
X180992805Y-105754556D01*
X180685634Y-106061191D01*
X180519190Y-106462035D01*
X180518811Y-106896061D01*
X180160811Y-106896061D01*
X180161189Y-106463939D01*
X179995444Y-106062805D01*
X179688809Y-105755634D01*
X179287965Y-105589190D01*
X178853939Y-105588811D01*
X178452805Y-105754556D01*
X178145634Y-106061191D01*
X177979190Y-106462035D01*
X177978811Y-106896061D01*
X177620811Y-106896061D01*
X177621189Y-106463939D01*
X177455444Y-106062805D01*
X177148809Y-105755634D01*
X176747965Y-105589190D01*
X176313939Y-105588811D01*
X175912805Y-105754556D01*
X175605634Y-106061191D01*
X175439190Y-106462035D01*
X175438811Y-106896061D01*
X175080811Y-106896061D01*
X175081189Y-106463939D01*
X174915444Y-106062805D01*
X174608809Y-105755634D01*
X174207965Y-105589190D01*
X173773939Y-105588811D01*
X173372805Y-105754556D01*
X173065634Y-106061191D01*
X172899190Y-106462035D01*
X172898811Y-106896061D01*
X145870811Y-106896061D01*
X145871189Y-106463939D01*
X145705444Y-106062805D01*
X145398809Y-105755634D01*
X144997965Y-105589190D01*
X144563939Y-105588811D01*
X144162805Y-105754556D01*
X143855634Y-106061191D01*
X143689190Y-106462035D01*
X143688811Y-106896061D01*
X143002000Y-106896061D01*
X143002000Y-104356061D01*
X143688811Y-104356061D01*
X143854556Y-104757195D01*
X144161191Y-105064366D01*
X144562035Y-105230810D01*
X144996061Y-105231189D01*
X145397195Y-105065444D01*
X145704366Y-104758809D01*
X145870810Y-104357965D01*
X145870811Y-104356061D01*
X191948811Y-104356061D01*
X192114556Y-104757195D01*
X192421191Y-105064366D01*
X192822035Y-105230810D01*
X193256061Y-105231189D01*
X193657195Y-105065444D01*
X193964366Y-104758809D01*
X194130810Y-104357965D01*
X194131189Y-103923939D01*
X193965444Y-103522805D01*
X193658809Y-103215634D01*
X193257965Y-103049190D01*
X192823939Y-103048811D01*
X192422805Y-103214556D01*
X192115634Y-103521191D01*
X191949190Y-103922035D01*
X191948811Y-104356061D01*
X145870811Y-104356061D01*
X145871189Y-103923939D01*
X145705444Y-103522805D01*
X145398809Y-103215634D01*
X144997965Y-103049190D01*
X144563939Y-103048811D01*
X144162805Y-103214556D01*
X143855634Y-103521191D01*
X143689190Y-103922035D01*
X143688811Y-104356061D01*
X143002000Y-104356061D01*
X143002000Y-101816061D01*
X143688811Y-101816061D01*
X143854556Y-102217195D01*
X144161191Y-102524366D01*
X144562035Y-102690810D01*
X144996061Y-102691189D01*
X145397195Y-102525444D01*
X145704366Y-102218809D01*
X145870810Y-101817965D01*
X145870811Y-101816061D01*
X191948811Y-101816061D01*
X192114556Y-102217195D01*
X192421191Y-102524366D01*
X192822035Y-102690810D01*
X193256061Y-102691189D01*
X193657195Y-102525444D01*
X193964366Y-102218809D01*
X194130810Y-101817965D01*
X194131189Y-101383939D01*
X193965444Y-100982805D01*
X193658809Y-100675634D01*
X193257965Y-100509190D01*
X192823939Y-100508811D01*
X192422805Y-100674556D01*
X192115634Y-100981191D01*
X191949190Y-101382035D01*
X191948811Y-101816061D01*
X145870811Y-101816061D01*
X145871189Y-101383939D01*
X145705444Y-100982805D01*
X145398809Y-100675634D01*
X144997965Y-100509190D01*
X144563939Y-100508811D01*
X144162805Y-100674556D01*
X143855634Y-100981191D01*
X143689190Y-101382035D01*
X143688811Y-101816061D01*
X143002000Y-101816061D01*
X143002000Y-99276061D01*
X143688811Y-99276061D01*
X143854556Y-99677195D01*
X144161191Y-99984366D01*
X144562035Y-100150810D01*
X144996061Y-100151189D01*
X145397195Y-99985444D01*
X145704366Y-99678809D01*
X145870810Y-99277965D01*
X145870811Y-99276061D01*
X191948811Y-99276061D01*
X192114556Y-99677195D01*
X192421191Y-99984366D01*
X192822035Y-100150810D01*
X193256061Y-100151189D01*
X193657195Y-99985444D01*
X193964366Y-99678809D01*
X194130810Y-99277965D01*
X194131189Y-98843939D01*
X193965444Y-98442805D01*
X193658809Y-98135634D01*
X193257965Y-97969190D01*
X192823939Y-97968811D01*
X192422805Y-98134556D01*
X192115634Y-98441191D01*
X191949190Y-98842035D01*
X191948811Y-99276061D01*
X145870811Y-99276061D01*
X145871189Y-98843939D01*
X145705444Y-98442805D01*
X145398809Y-98135634D01*
X144997965Y-97969190D01*
X144563939Y-97968811D01*
X144162805Y-98134556D01*
X143855634Y-98441191D01*
X143689190Y-98842035D01*
X143688811Y-99276061D01*
X143002000Y-99276061D01*
X143002000Y-97929510D01*
X143052636Y-97674949D01*
X143189747Y-97469747D01*
X143394949Y-97332636D01*
X143649510Y-97282000D01*
X194170490Y-97282000D01*
X194425051Y-97332636D01*
M02*
