G04 #@! TF.FileFunction,Soldermask,Top*
%FSLAX46Y46*%
G04 Gerber Fmt 4.6, Leading zero omitted, Abs format (unit mm)*
G04 Created by KiCad (PCBNEW 4.0.7) date 11/20/17 17:17:03*
%MOMM*%
%LPD*%
G01*
G04 APERTURE LIST*
%ADD10C,0.100000*%
%ADD11C,1.820000*%
%ADD12R,1.200000X1.300000*%
%ADD13R,1.300000X1.200000*%
%ADD14R,1.700000X1.100000*%
%ADD15R,1.600000X1.600000*%
%ADD16R,1.100000X1.700000*%
G04 APERTURE END LIST*
D10*
D11*
X144780000Y-99060000D03*
X144780000Y-101600000D03*
X144780000Y-104140000D03*
X144780000Y-106680000D03*
X144780000Y-109220000D03*
X144780000Y-111760000D03*
X144780000Y-114300000D03*
X144780000Y-116840000D03*
X144780000Y-120904000D03*
X144780000Y-123444000D03*
X144780000Y-125984000D03*
X144780000Y-128524000D03*
X144780000Y-131064000D03*
X144780000Y-133604000D03*
X144780000Y-136144000D03*
X144780000Y-138684000D03*
X144780000Y-141224000D03*
X144780000Y-143764000D03*
X193040000Y-99060000D03*
X193040000Y-101600000D03*
X193040000Y-104140000D03*
X193040000Y-106680000D03*
X193040000Y-109220000D03*
X193040000Y-111760000D03*
X193040000Y-116840000D03*
X193040000Y-119380000D03*
X193040000Y-121920000D03*
X193040000Y-124460000D03*
X193040000Y-127000000D03*
X193040000Y-129540000D03*
X193040000Y-132080000D03*
X193040000Y-134620000D03*
D12*
X173040000Y-115350000D03*
X174940000Y-115350000D03*
X173990000Y-113250000D03*
D11*
X173990000Y-106680000D03*
X176530000Y-106680000D03*
X179070000Y-106680000D03*
X181610000Y-106680000D03*
X184150000Y-106680000D03*
X186690000Y-106680000D03*
X189230000Y-106680000D03*
D13*
X184370000Y-113350000D03*
X184370000Y-115250000D03*
X186470000Y-114300000D03*
D14*
X182245000Y-115250000D03*
X182245000Y-113350000D03*
X177165000Y-113350000D03*
X177165000Y-115250000D03*
D11*
X156210000Y-106680000D03*
X158750000Y-106680000D03*
X161290000Y-106680000D03*
X163830000Y-106680000D03*
X166370000Y-106680000D03*
X168910000Y-106680000D03*
X171450000Y-106680000D03*
D15*
X183980000Y-128270000D03*
X181780000Y-128270000D03*
X183980000Y-124460000D03*
X181780000Y-124460000D03*
D16*
X188910000Y-128270000D03*
X187010000Y-128270000D03*
X188910000Y-124460000D03*
X187010000Y-124460000D03*
M02*
