G04 #@! TF.FileFunction,Soldermask,Bot*
%FSLAX46Y46*%
G04 Gerber Fmt 4.6, Leading zero omitted, Abs format (unit mm)*
G04 Created by KiCad (PCBNEW 4.0.7) date 11/19/17 15:55:00*
%MOMM*%
%LPD*%
G01*
G04 APERTURE LIST*
%ADD10C,0.100000*%
%ADD11C,1.820000*%
G04 APERTURE END LIST*
D10*
D11*
X144780000Y-99060000D03*
X144780000Y-101600000D03*
X144780000Y-104140000D03*
X144780000Y-106680000D03*
X144780000Y-109220000D03*
X144780000Y-111760000D03*
X144780000Y-114300000D03*
X144780000Y-116840000D03*
X144780000Y-120904000D03*
X144780000Y-123444000D03*
X144780000Y-125984000D03*
X144780000Y-128524000D03*
X144780000Y-131064000D03*
X144780000Y-133604000D03*
X144780000Y-136144000D03*
X144780000Y-138684000D03*
X144780000Y-141224000D03*
X144780000Y-143764000D03*
X193040000Y-99060000D03*
X193040000Y-101600000D03*
X193040000Y-104140000D03*
X193040000Y-106680000D03*
X193040000Y-109220000D03*
X193040000Y-111760000D03*
X193040000Y-116840000D03*
X193040000Y-119380000D03*
X193040000Y-121920000D03*
X193040000Y-124460000D03*
X193040000Y-127000000D03*
X193040000Y-129540000D03*
X193040000Y-132080000D03*
X193040000Y-134620000D03*
X173990000Y-106680000D03*
X176530000Y-106680000D03*
X179070000Y-106680000D03*
X181610000Y-106680000D03*
X184150000Y-106680000D03*
X186690000Y-106680000D03*
X189230000Y-106680000D03*
X156210000Y-106680000D03*
X158750000Y-106680000D03*
X161290000Y-106680000D03*
X163830000Y-106680000D03*
X166370000Y-106680000D03*
X168910000Y-106680000D03*
X171450000Y-106680000D03*
M02*
