G04 #@! TF.FileFunction,Copper,L1,Top,Signal*
%FSLAX46Y46*%
G04 Gerber Fmt 4.6, Leading zero omitted, Abs format (unit mm)*
G04 Created by KiCad (PCBNEW 4.0.7) date 11/19/17 16:44:50*
%MOMM*%
%LPD*%
G01*
G04 APERTURE LIST*
%ADD10C,0.100000*%
%ADD11C,1.420000*%
%ADD12R,0.800000X0.900000*%
%ADD13R,0.900000X0.800000*%
%ADD14R,1.300000X0.700000*%
%ADD15R,1.200000X1.200000*%
%ADD16R,0.700000X1.300000*%
%ADD17C,0.609600*%
%ADD18C,0.254000*%
G04 APERTURE END LIST*
D10*
D11*
X144780000Y-99060000D03*
X144780000Y-101600000D03*
X144780000Y-104140000D03*
X144780000Y-106680000D03*
X144780000Y-109220000D03*
X144780000Y-111760000D03*
X144780000Y-114300000D03*
X144780000Y-116840000D03*
X144780000Y-120904000D03*
X144780000Y-123444000D03*
X144780000Y-125984000D03*
X144780000Y-128524000D03*
X144780000Y-131064000D03*
X144780000Y-133604000D03*
X144780000Y-136144000D03*
X144780000Y-138684000D03*
X144780000Y-141224000D03*
X144780000Y-143764000D03*
X193040000Y-99060000D03*
X193040000Y-101600000D03*
X193040000Y-104140000D03*
X193040000Y-106680000D03*
X193040000Y-109220000D03*
X193040000Y-111760000D03*
X193040000Y-116840000D03*
X193040000Y-119380000D03*
X193040000Y-121920000D03*
X193040000Y-124460000D03*
X193040000Y-127000000D03*
X193040000Y-129540000D03*
X193040000Y-132080000D03*
X193040000Y-134620000D03*
D12*
X173040000Y-115350000D03*
X174940000Y-115350000D03*
X173990000Y-113250000D03*
D11*
X173990000Y-106680000D03*
X176530000Y-106680000D03*
X179070000Y-106680000D03*
X181610000Y-106680000D03*
X184150000Y-106680000D03*
X186690000Y-106680000D03*
X189230000Y-106680000D03*
D13*
X184370000Y-113350000D03*
X184370000Y-115250000D03*
X186470000Y-114300000D03*
D14*
X182245000Y-115250000D03*
X182245000Y-113350000D03*
X177165000Y-113350000D03*
X177165000Y-115250000D03*
D11*
X156210000Y-106680000D03*
X158750000Y-106680000D03*
X161290000Y-106680000D03*
X163830000Y-106680000D03*
X166370000Y-106680000D03*
X168910000Y-106680000D03*
X171450000Y-106680000D03*
D15*
X183980000Y-128270000D03*
X181780000Y-128270000D03*
X183980000Y-124460000D03*
X181780000Y-124460000D03*
D16*
X188910000Y-128270000D03*
X187010000Y-128270000D03*
X188910000Y-124460000D03*
X187010000Y-124460000D03*
D17*
X189738000Y-120142000D03*
X181610000Y-126492000D03*
X184785000Y-116840000D03*
X172085000Y-113665000D03*
X184785000Y-111760000D03*
D18*
X188910000Y-124460000D02*
X188910000Y-120970000D01*
X188910000Y-120970000D02*
X189738000Y-120142000D01*
X189357000Y-104648000D02*
X189484000Y-104775000D01*
X190500000Y-114300000D02*
X190500000Y-105791000D01*
X190500000Y-105791000D02*
X189484000Y-104775000D01*
X193040000Y-116840000D02*
X192330001Y-116130001D01*
X192330001Y-116130001D02*
X190500000Y-114300000D01*
X192330001Y-116130001D02*
X190754000Y-114554000D01*
X182637909Y-104648000D02*
X186690000Y-104648000D01*
X186690000Y-104648000D02*
X189357000Y-104648000D01*
X181610000Y-106680000D02*
X181610000Y-105675909D01*
X181610000Y-105675909D02*
X182637909Y-104648000D01*
X191135000Y-114935000D02*
X193040000Y-116840000D01*
X173482000Y-104648000D02*
X179578000Y-104648000D01*
X179578000Y-104648000D02*
X181610000Y-106680000D01*
X171450000Y-106680000D02*
X173482000Y-104648000D01*
X181780000Y-124460000D02*
X181780000Y-126322000D01*
X181780000Y-126322000D02*
X181610000Y-126492000D01*
X181780000Y-128270000D02*
X181780000Y-126662000D01*
X181780000Y-126662000D02*
X181610000Y-126492000D01*
X174940000Y-115350000D02*
X174940000Y-115300000D01*
X174940000Y-115300000D02*
X173721001Y-114081001D01*
X173721001Y-114081001D02*
X172501001Y-114081001D01*
X172501001Y-114081001D02*
X172384999Y-113964999D01*
X172384999Y-113964999D02*
X172085000Y-113665000D01*
X184370000Y-115250000D02*
X184370000Y-116425000D01*
X184370000Y-116425000D02*
X184785000Y-116840000D01*
X173990000Y-106680000D02*
X173990000Y-113250000D01*
X176530000Y-106680000D02*
X179070000Y-106680000D01*
X184370000Y-113350000D02*
X184370000Y-112175000D01*
X184370000Y-112175000D02*
X184785000Y-111760000D01*
X182245000Y-113350000D02*
X184370000Y-113350000D01*
X173040000Y-115350000D02*
X173040000Y-116525000D01*
X173040000Y-116525000D02*
X173355000Y-116840000D01*
X177165000Y-116205000D02*
X177165000Y-115250000D01*
X173355000Y-116840000D02*
X176530000Y-116840000D01*
X176530000Y-116840000D02*
X177165000Y-116205000D01*
X186470000Y-114300000D02*
X177511000Y-114300000D01*
X177511000Y-114300000D02*
X177165000Y-114646000D01*
X177165000Y-114646000D02*
X177165000Y-115250000D01*
X156210000Y-106680000D02*
X161290000Y-101600000D01*
X161290000Y-101600000D02*
X188033250Y-101600000D01*
X188033250Y-101600000D02*
X191922409Y-105489159D01*
X191922409Y-105489159D02*
X191925359Y-105489159D01*
X191925359Y-105489159D02*
X193040000Y-106603800D01*
X193040000Y-106603800D02*
X193040000Y-106680000D01*
X193040000Y-109220000D02*
X191516000Y-107696000D01*
X191516000Y-107696000D02*
X191516000Y-105657500D01*
X191516000Y-105657500D02*
X188220500Y-102362000D01*
X188220500Y-102362000D02*
X163068000Y-102362000D01*
X163068000Y-102362000D02*
X158750000Y-106680000D01*
X193040000Y-111760000D02*
X191008000Y-109728000D01*
X191008000Y-109728000D02*
X191008000Y-105724250D01*
X191008000Y-105724250D02*
X188332749Y-103048999D01*
X164921001Y-103048999D02*
X161290000Y-106680000D01*
X188332749Y-103048999D02*
X164921001Y-103048999D01*
X193040000Y-111760000D02*
X191262000Y-109982000D01*
X191948999Y-110668999D02*
X192330001Y-111050001D01*
X192330001Y-111050001D02*
X193040000Y-111760000D01*
X183980000Y-128270000D02*
X187010000Y-128270000D01*
X183980000Y-124460000D02*
X187010000Y-124460000D01*
G36*
X194425051Y-97332636D02*
X194630253Y-97469747D01*
X194767364Y-97674949D01*
X194818000Y-97929510D01*
X194818000Y-144640490D01*
X194767364Y-144895051D01*
X194630253Y-145100253D01*
X194425051Y-145237364D01*
X194170490Y-145288000D01*
X143649510Y-145288000D01*
X143394949Y-145237364D01*
X143189747Y-145100253D01*
X143052636Y-144895051D01*
X143002000Y-144640490D01*
X143002000Y-143980061D01*
X143688811Y-143980061D01*
X143854556Y-144381195D01*
X144161191Y-144688366D01*
X144562035Y-144854810D01*
X144996061Y-144855189D01*
X145397195Y-144689444D01*
X145704366Y-144382809D01*
X145870810Y-143981965D01*
X145871189Y-143547939D01*
X145705444Y-143146805D01*
X145398809Y-142839634D01*
X144997965Y-142673190D01*
X144563939Y-142672811D01*
X144162805Y-142838556D01*
X143855634Y-143145191D01*
X143689190Y-143546035D01*
X143688811Y-143980061D01*
X143002000Y-143980061D01*
X143002000Y-141440061D01*
X143688811Y-141440061D01*
X143854556Y-141841195D01*
X144161191Y-142148366D01*
X144562035Y-142314810D01*
X144996061Y-142315189D01*
X145397195Y-142149444D01*
X145704366Y-141842809D01*
X145870810Y-141441965D01*
X145871189Y-141007939D01*
X145705444Y-140606805D01*
X145398809Y-140299634D01*
X144997965Y-140133190D01*
X144563939Y-140132811D01*
X144162805Y-140298556D01*
X143855634Y-140605191D01*
X143689190Y-141006035D01*
X143688811Y-141440061D01*
X143002000Y-141440061D01*
X143002000Y-138900061D01*
X143688811Y-138900061D01*
X143854556Y-139301195D01*
X144161191Y-139608366D01*
X144562035Y-139774810D01*
X144996061Y-139775189D01*
X145397195Y-139609444D01*
X145704366Y-139302809D01*
X145870810Y-138901965D01*
X145871189Y-138467939D01*
X145705444Y-138066805D01*
X145398809Y-137759634D01*
X144997965Y-137593190D01*
X144563939Y-137592811D01*
X144162805Y-137758556D01*
X143855634Y-138065191D01*
X143689190Y-138466035D01*
X143688811Y-138900061D01*
X143002000Y-138900061D01*
X143002000Y-136360061D01*
X143688811Y-136360061D01*
X143854556Y-136761195D01*
X144161191Y-137068366D01*
X144562035Y-137234810D01*
X144996061Y-137235189D01*
X145397195Y-137069444D01*
X145704366Y-136762809D01*
X145870810Y-136361965D01*
X145871189Y-135927939D01*
X145705444Y-135526805D01*
X145398809Y-135219634D01*
X144997965Y-135053190D01*
X144563939Y-135052811D01*
X144162805Y-135218556D01*
X143855634Y-135525191D01*
X143689190Y-135926035D01*
X143688811Y-136360061D01*
X143002000Y-136360061D01*
X143002000Y-134836061D01*
X191948811Y-134836061D01*
X192114556Y-135237195D01*
X192421191Y-135544366D01*
X192822035Y-135710810D01*
X193256061Y-135711189D01*
X193657195Y-135545444D01*
X193964366Y-135238809D01*
X194130810Y-134837965D01*
X194131189Y-134403939D01*
X193965444Y-134002805D01*
X193658809Y-133695634D01*
X193257965Y-133529190D01*
X192823939Y-133528811D01*
X192422805Y-133694556D01*
X192115634Y-134001191D01*
X191949190Y-134402035D01*
X191948811Y-134836061D01*
X143002000Y-134836061D01*
X143002000Y-133820061D01*
X143688811Y-133820061D01*
X143854556Y-134221195D01*
X144161191Y-134528366D01*
X144562035Y-134694810D01*
X144996061Y-134695189D01*
X145397195Y-134529444D01*
X145704366Y-134222809D01*
X145870810Y-133821965D01*
X145871189Y-133387939D01*
X145705444Y-132986805D01*
X145398809Y-132679634D01*
X144997965Y-132513190D01*
X144563939Y-132512811D01*
X144162805Y-132678556D01*
X143855634Y-132985191D01*
X143689190Y-133386035D01*
X143688811Y-133820061D01*
X143002000Y-133820061D01*
X143002000Y-132296061D01*
X191948811Y-132296061D01*
X192114556Y-132697195D01*
X192421191Y-133004366D01*
X192822035Y-133170810D01*
X193256061Y-133171189D01*
X193657195Y-133005444D01*
X193964366Y-132698809D01*
X194130810Y-132297965D01*
X194131189Y-131863939D01*
X193965444Y-131462805D01*
X193658809Y-131155634D01*
X193257965Y-130989190D01*
X192823939Y-130988811D01*
X192422805Y-131154556D01*
X192115634Y-131461191D01*
X191949190Y-131862035D01*
X191948811Y-132296061D01*
X143002000Y-132296061D01*
X143002000Y-131280061D01*
X143688811Y-131280061D01*
X143854556Y-131681195D01*
X144161191Y-131988366D01*
X144562035Y-132154810D01*
X144996061Y-132155189D01*
X145397195Y-131989444D01*
X145704366Y-131682809D01*
X145870810Y-131281965D01*
X145871189Y-130847939D01*
X145705444Y-130446805D01*
X145398809Y-130139634D01*
X144997965Y-129973190D01*
X144563939Y-129972811D01*
X144162805Y-130138556D01*
X143855634Y-130445191D01*
X143689190Y-130846035D01*
X143688811Y-131280061D01*
X143002000Y-131280061D01*
X143002000Y-129756061D01*
X191948811Y-129756061D01*
X192114556Y-130157195D01*
X192421191Y-130464366D01*
X192822035Y-130630810D01*
X193256061Y-130631189D01*
X193657195Y-130465444D01*
X193964366Y-130158809D01*
X194130810Y-129757965D01*
X194131189Y-129323939D01*
X193965444Y-128922805D01*
X193658809Y-128615634D01*
X193257965Y-128449190D01*
X192823939Y-128448811D01*
X192422805Y-128614556D01*
X192115634Y-128921191D01*
X191949190Y-129322035D01*
X191948811Y-129756061D01*
X143002000Y-129756061D01*
X143002000Y-128740061D01*
X143688811Y-128740061D01*
X143854556Y-129141195D01*
X144161191Y-129448366D01*
X144562035Y-129614810D01*
X144996061Y-129615189D01*
X145397195Y-129449444D01*
X145704366Y-129142809D01*
X145870810Y-128741965D01*
X145871189Y-128307939D01*
X145705444Y-127906805D01*
X145398809Y-127599634D01*
X144997965Y-127433190D01*
X144563939Y-127432811D01*
X144162805Y-127598556D01*
X143855634Y-127905191D01*
X143689190Y-128306035D01*
X143688811Y-128740061D01*
X143002000Y-128740061D01*
X143002000Y-126200061D01*
X143688811Y-126200061D01*
X143854556Y-126601195D01*
X144161191Y-126908366D01*
X144562035Y-127074810D01*
X144996061Y-127075189D01*
X145397195Y-126909444D01*
X145704366Y-126602809D01*
X145870810Y-126201965D01*
X145871189Y-125767939D01*
X145705444Y-125366805D01*
X145398809Y-125059634D01*
X144997965Y-124893190D01*
X144563939Y-124892811D01*
X144162805Y-125058556D01*
X143855634Y-125365191D01*
X143689190Y-125766035D01*
X143688811Y-126200061D01*
X143002000Y-126200061D01*
X143002000Y-123660061D01*
X143688811Y-123660061D01*
X143854556Y-124061195D01*
X144161191Y-124368366D01*
X144562035Y-124534810D01*
X144996061Y-124535189D01*
X145397195Y-124369444D01*
X145704366Y-124062809D01*
X145788579Y-123860000D01*
X180791536Y-123860000D01*
X180791536Y-125060000D01*
X180818103Y-125201190D01*
X180901546Y-125330865D01*
X181028866Y-125417859D01*
X181180000Y-125448464D01*
X181272000Y-125448464D01*
X181272000Y-125889622D01*
X181222033Y-125910268D01*
X181028946Y-126103018D01*
X180924319Y-126354987D01*
X180924081Y-126627816D01*
X181028268Y-126879967D01*
X181221018Y-127073054D01*
X181272000Y-127094224D01*
X181272000Y-127281536D01*
X181180000Y-127281536D01*
X181038810Y-127308103D01*
X180909135Y-127391546D01*
X180822141Y-127518866D01*
X180791536Y-127670000D01*
X180791536Y-128870000D01*
X180818103Y-129011190D01*
X180901546Y-129140865D01*
X181028866Y-129227859D01*
X181180000Y-129258464D01*
X182380000Y-129258464D01*
X182521190Y-129231897D01*
X182650865Y-129148454D01*
X182737859Y-129021134D01*
X182768464Y-128870000D01*
X182768464Y-127670000D01*
X182991536Y-127670000D01*
X182991536Y-128870000D01*
X183018103Y-129011190D01*
X183101546Y-129140865D01*
X183228866Y-129227859D01*
X183380000Y-129258464D01*
X184580000Y-129258464D01*
X184721190Y-129231897D01*
X184850865Y-129148454D01*
X184937859Y-129021134D01*
X184968464Y-128870000D01*
X184968464Y-128778000D01*
X186271536Y-128778000D01*
X186271536Y-128920000D01*
X186298103Y-129061190D01*
X186381546Y-129190865D01*
X186508866Y-129277859D01*
X186660000Y-129308464D01*
X187360000Y-129308464D01*
X187501190Y-129281897D01*
X187630865Y-129198454D01*
X187717859Y-129071134D01*
X187748464Y-128920000D01*
X187748464Y-128555750D01*
X187925000Y-128555750D01*
X187925000Y-129046310D01*
X188021673Y-129279699D01*
X188200302Y-129458327D01*
X188433691Y-129555000D01*
X188624250Y-129555000D01*
X188783000Y-129396250D01*
X188783000Y-128397000D01*
X189037000Y-128397000D01*
X189037000Y-129396250D01*
X189195750Y-129555000D01*
X189386309Y-129555000D01*
X189619698Y-129458327D01*
X189798327Y-129279699D01*
X189895000Y-129046310D01*
X189895000Y-128555750D01*
X189736250Y-128397000D01*
X189037000Y-128397000D01*
X188783000Y-128397000D01*
X188083750Y-128397000D01*
X187925000Y-128555750D01*
X187748464Y-128555750D01*
X187748464Y-127620000D01*
X187724697Y-127493690D01*
X187925000Y-127493690D01*
X187925000Y-127984250D01*
X188083750Y-128143000D01*
X188783000Y-128143000D01*
X188783000Y-127143750D01*
X189037000Y-127143750D01*
X189037000Y-128143000D01*
X189736250Y-128143000D01*
X189895000Y-127984250D01*
X189895000Y-127493690D01*
X189798327Y-127260301D01*
X189754087Y-127216061D01*
X191948811Y-127216061D01*
X192114556Y-127617195D01*
X192421191Y-127924366D01*
X192822035Y-128090810D01*
X193256061Y-128091189D01*
X193657195Y-127925444D01*
X193964366Y-127618809D01*
X194130810Y-127217965D01*
X194131189Y-126783939D01*
X193965444Y-126382805D01*
X193658809Y-126075634D01*
X193257965Y-125909190D01*
X192823939Y-125908811D01*
X192422805Y-126074556D01*
X192115634Y-126381191D01*
X191949190Y-126782035D01*
X191948811Y-127216061D01*
X189754087Y-127216061D01*
X189619698Y-127081673D01*
X189386309Y-126985000D01*
X189195750Y-126985000D01*
X189037000Y-127143750D01*
X188783000Y-127143750D01*
X188624250Y-126985000D01*
X188433691Y-126985000D01*
X188200302Y-127081673D01*
X188021673Y-127260301D01*
X187925000Y-127493690D01*
X187724697Y-127493690D01*
X187721897Y-127478810D01*
X187638454Y-127349135D01*
X187511134Y-127262141D01*
X187360000Y-127231536D01*
X186660000Y-127231536D01*
X186518810Y-127258103D01*
X186389135Y-127341546D01*
X186302141Y-127468866D01*
X186271536Y-127620000D01*
X186271536Y-127762000D01*
X184968464Y-127762000D01*
X184968464Y-127670000D01*
X184941897Y-127528810D01*
X184858454Y-127399135D01*
X184731134Y-127312141D01*
X184580000Y-127281536D01*
X183380000Y-127281536D01*
X183238810Y-127308103D01*
X183109135Y-127391546D01*
X183022141Y-127518866D01*
X182991536Y-127670000D01*
X182768464Y-127670000D01*
X182741897Y-127528810D01*
X182658454Y-127399135D01*
X182531134Y-127312141D01*
X182380000Y-127281536D01*
X182288000Y-127281536D01*
X182288000Y-126662000D01*
X182286051Y-126652204D01*
X182295681Y-126629013D01*
X182295919Y-126356184D01*
X182285983Y-126332138D01*
X182288000Y-126322000D01*
X182288000Y-125448464D01*
X182380000Y-125448464D01*
X182521190Y-125421897D01*
X182650865Y-125338454D01*
X182737859Y-125211134D01*
X182768464Y-125060000D01*
X182768464Y-123860000D01*
X182991536Y-123860000D01*
X182991536Y-125060000D01*
X183018103Y-125201190D01*
X183101546Y-125330865D01*
X183228866Y-125417859D01*
X183380000Y-125448464D01*
X184580000Y-125448464D01*
X184721190Y-125421897D01*
X184850865Y-125338454D01*
X184937859Y-125211134D01*
X184968464Y-125060000D01*
X184968464Y-124968000D01*
X186271536Y-124968000D01*
X186271536Y-125110000D01*
X186298103Y-125251190D01*
X186381546Y-125380865D01*
X186508866Y-125467859D01*
X186660000Y-125498464D01*
X187360000Y-125498464D01*
X187501190Y-125471897D01*
X187630865Y-125388454D01*
X187717859Y-125261134D01*
X187748464Y-125110000D01*
X187748464Y-123810000D01*
X188171536Y-123810000D01*
X188171536Y-125110000D01*
X188198103Y-125251190D01*
X188281546Y-125380865D01*
X188408866Y-125467859D01*
X188560000Y-125498464D01*
X189260000Y-125498464D01*
X189401190Y-125471897D01*
X189508997Y-125402525D01*
X192277081Y-125402525D01*
X192340150Y-125639327D01*
X192844732Y-125817377D01*
X193379041Y-125788779D01*
X193739850Y-125639327D01*
X193802919Y-125402525D01*
X193040000Y-124639605D01*
X192277081Y-125402525D01*
X189508997Y-125402525D01*
X189530865Y-125388454D01*
X189617859Y-125261134D01*
X189648464Y-125110000D01*
X189648464Y-124264732D01*
X191682623Y-124264732D01*
X191711221Y-124799041D01*
X191860673Y-125159850D01*
X192097475Y-125222919D01*
X192860395Y-124460000D01*
X193219605Y-124460000D01*
X193982525Y-125222919D01*
X194219327Y-125159850D01*
X194397377Y-124655268D01*
X194368779Y-124120959D01*
X194219327Y-123760150D01*
X193982525Y-123697081D01*
X193219605Y-124460000D01*
X192860395Y-124460000D01*
X192097475Y-123697081D01*
X191860673Y-123760150D01*
X191682623Y-124264732D01*
X189648464Y-124264732D01*
X189648464Y-123810000D01*
X189621897Y-123668810D01*
X189538454Y-123539135D01*
X189506754Y-123517475D01*
X192277081Y-123517475D01*
X193040000Y-124280395D01*
X193802919Y-123517475D01*
X193739850Y-123280673D01*
X193235268Y-123102623D01*
X192700959Y-123131221D01*
X192340150Y-123280673D01*
X192277081Y-123517475D01*
X189506754Y-123517475D01*
X189418000Y-123456832D01*
X189418000Y-122136061D01*
X191948811Y-122136061D01*
X192114556Y-122537195D01*
X192421191Y-122844366D01*
X192822035Y-123010810D01*
X193256061Y-123011189D01*
X193657195Y-122845444D01*
X193964366Y-122538809D01*
X194130810Y-122137965D01*
X194131189Y-121703939D01*
X193965444Y-121302805D01*
X193658809Y-120995634D01*
X193257965Y-120829190D01*
X192823939Y-120828811D01*
X192422805Y-120994556D01*
X192115634Y-121301191D01*
X191949190Y-121702035D01*
X191948811Y-122136061D01*
X189418000Y-122136061D01*
X189418000Y-121180420D01*
X189770591Y-120827829D01*
X189873816Y-120827919D01*
X190125967Y-120723732D01*
X190319054Y-120530982D01*
X190423681Y-120279013D01*
X190423919Y-120006184D01*
X190319732Y-119754033D01*
X190162036Y-119596061D01*
X191948811Y-119596061D01*
X192114556Y-119997195D01*
X192421191Y-120304366D01*
X192822035Y-120470810D01*
X193256061Y-120471189D01*
X193657195Y-120305444D01*
X193964366Y-119998809D01*
X194130810Y-119597965D01*
X194131189Y-119163939D01*
X193965444Y-118762805D01*
X193658809Y-118455634D01*
X193257965Y-118289190D01*
X192823939Y-118288811D01*
X192422805Y-118454556D01*
X192115634Y-118761191D01*
X191949190Y-119162035D01*
X191948811Y-119596061D01*
X190162036Y-119596061D01*
X190126982Y-119560946D01*
X189875013Y-119456319D01*
X189602184Y-119456081D01*
X189350033Y-119560268D01*
X189156946Y-119753018D01*
X189052319Y-120004987D01*
X189052228Y-120109352D01*
X188550790Y-120610790D01*
X188440669Y-120775597D01*
X188402000Y-120970000D01*
X188402000Y-123458920D01*
X188289135Y-123531546D01*
X188202141Y-123658866D01*
X188171536Y-123810000D01*
X187748464Y-123810000D01*
X187721897Y-123668810D01*
X187638454Y-123539135D01*
X187511134Y-123452141D01*
X187360000Y-123421536D01*
X186660000Y-123421536D01*
X186518810Y-123448103D01*
X186389135Y-123531546D01*
X186302141Y-123658866D01*
X186271536Y-123810000D01*
X186271536Y-123952000D01*
X184968464Y-123952000D01*
X184968464Y-123860000D01*
X184941897Y-123718810D01*
X184858454Y-123589135D01*
X184731134Y-123502141D01*
X184580000Y-123471536D01*
X183380000Y-123471536D01*
X183238810Y-123498103D01*
X183109135Y-123581546D01*
X183022141Y-123708866D01*
X182991536Y-123860000D01*
X182768464Y-123860000D01*
X182741897Y-123718810D01*
X182658454Y-123589135D01*
X182531134Y-123502141D01*
X182380000Y-123471536D01*
X181180000Y-123471536D01*
X181038810Y-123498103D01*
X180909135Y-123581546D01*
X180822141Y-123708866D01*
X180791536Y-123860000D01*
X145788579Y-123860000D01*
X145870810Y-123661965D01*
X145871189Y-123227939D01*
X145705444Y-122826805D01*
X145398809Y-122519634D01*
X144997965Y-122353190D01*
X144563939Y-122352811D01*
X144162805Y-122518556D01*
X143855634Y-122825191D01*
X143689190Y-123226035D01*
X143688811Y-123660061D01*
X143002000Y-123660061D01*
X143002000Y-121120061D01*
X143688811Y-121120061D01*
X143854556Y-121521195D01*
X144161191Y-121828366D01*
X144562035Y-121994810D01*
X144996061Y-121995189D01*
X145397195Y-121829444D01*
X145704366Y-121522809D01*
X145870810Y-121121965D01*
X145871189Y-120687939D01*
X145705444Y-120286805D01*
X145398809Y-119979634D01*
X144997965Y-119813190D01*
X144563939Y-119812811D01*
X144162805Y-119978556D01*
X143855634Y-120285191D01*
X143689190Y-120686035D01*
X143688811Y-121120061D01*
X143002000Y-121120061D01*
X143002000Y-117056061D01*
X143688811Y-117056061D01*
X143854556Y-117457195D01*
X144161191Y-117764366D01*
X144562035Y-117930810D01*
X144996061Y-117931189D01*
X145397195Y-117765444D01*
X145704366Y-117458809D01*
X145870810Y-117057965D01*
X145871189Y-116623939D01*
X145705444Y-116222805D01*
X145398809Y-115915634D01*
X144997965Y-115749190D01*
X144563939Y-115748811D01*
X144162805Y-115914556D01*
X143855634Y-116221191D01*
X143689190Y-116622035D01*
X143688811Y-117056061D01*
X143002000Y-117056061D01*
X143002000Y-114516061D01*
X143688811Y-114516061D01*
X143854556Y-114917195D01*
X144161191Y-115224366D01*
X144562035Y-115390810D01*
X144996061Y-115391189D01*
X145397195Y-115225444D01*
X145704366Y-114918809D01*
X145870810Y-114517965D01*
X145871189Y-114083939D01*
X145754206Y-113800816D01*
X171399081Y-113800816D01*
X171503268Y-114052967D01*
X171696018Y-114246054D01*
X171947987Y-114350681D01*
X172052352Y-114350772D01*
X172141791Y-114440212D01*
X172288296Y-114538103D01*
X172306598Y-114550332D01*
X172438906Y-114576650D01*
X172369135Y-114621546D01*
X172282141Y-114748866D01*
X172251536Y-114900000D01*
X172251536Y-115800000D01*
X172278103Y-115941190D01*
X172361546Y-116070865D01*
X172488866Y-116157859D01*
X172532000Y-116166594D01*
X172532000Y-116525000D01*
X172570669Y-116719403D01*
X172680790Y-116884210D01*
X172995790Y-117199210D01*
X173160596Y-117309331D01*
X173192850Y-117315746D01*
X173355000Y-117348000D01*
X176530000Y-117348000D01*
X176724403Y-117309331D01*
X176889210Y-117199210D01*
X177524211Y-116564210D01*
X177634331Y-116399403D01*
X177673000Y-116205000D01*
X177673000Y-115988464D01*
X177815000Y-115988464D01*
X177956190Y-115961897D01*
X178085865Y-115878454D01*
X178172859Y-115751134D01*
X178203464Y-115600000D01*
X178203464Y-115535750D01*
X180960000Y-115535750D01*
X180960000Y-115726309D01*
X181056673Y-115959698D01*
X181235301Y-116138327D01*
X181468690Y-116235000D01*
X181959250Y-116235000D01*
X182118000Y-116076250D01*
X182118000Y-115377000D01*
X182372000Y-115377000D01*
X182372000Y-116076250D01*
X182530750Y-116235000D01*
X183021310Y-116235000D01*
X183254699Y-116138327D01*
X183433327Y-115959698D01*
X183530000Y-115726309D01*
X183530000Y-115535750D01*
X183371250Y-115377000D01*
X182372000Y-115377000D01*
X182118000Y-115377000D01*
X181118750Y-115377000D01*
X180960000Y-115535750D01*
X178203464Y-115535750D01*
X178203464Y-114900000D01*
X178186153Y-114808000D01*
X180960000Y-114808000D01*
X180960000Y-114964250D01*
X181118750Y-115123000D01*
X182118000Y-115123000D01*
X182118000Y-115103000D01*
X182372000Y-115103000D01*
X182372000Y-115123000D01*
X183371250Y-115123000D01*
X183530000Y-114964250D01*
X183530000Y-114808000D01*
X183540041Y-114808000D01*
X183531536Y-114850000D01*
X183531536Y-115650000D01*
X183558103Y-115791190D01*
X183641546Y-115920865D01*
X183768866Y-116007859D01*
X183862000Y-116026719D01*
X183862000Y-116425000D01*
X183900669Y-116619403D01*
X184010790Y-116784210D01*
X184099171Y-116872591D01*
X184099081Y-116975816D01*
X184203268Y-117227967D01*
X184396018Y-117421054D01*
X184647987Y-117525681D01*
X184920816Y-117525919D01*
X185172967Y-117421732D01*
X185366054Y-117228982D01*
X185470681Y-116977013D01*
X185470919Y-116704184D01*
X185366732Y-116452033D01*
X185173982Y-116258946D01*
X184922013Y-116154319D01*
X184878000Y-116154281D01*
X184878000Y-116027550D01*
X184961190Y-116011897D01*
X185090865Y-115928454D01*
X185177859Y-115801134D01*
X185208464Y-115650000D01*
X185208464Y-114850000D01*
X185200561Y-114808000D01*
X185651858Y-114808000D01*
X185658103Y-114841190D01*
X185741546Y-114970865D01*
X185868866Y-115057859D01*
X186020000Y-115088464D01*
X186920000Y-115088464D01*
X187061190Y-115061897D01*
X187190865Y-114978454D01*
X187277859Y-114851134D01*
X187308464Y-114700000D01*
X187308464Y-113900000D01*
X187281897Y-113758810D01*
X187198454Y-113629135D01*
X187071134Y-113542141D01*
X186920000Y-113511536D01*
X186020000Y-113511536D01*
X185878810Y-113538103D01*
X185749135Y-113621546D01*
X185662141Y-113748866D01*
X185653406Y-113792000D01*
X185199959Y-113792000D01*
X185208464Y-113750000D01*
X185208464Y-112950000D01*
X185181897Y-112808810D01*
X185098454Y-112679135D01*
X184971134Y-112592141D01*
X184878000Y-112573281D01*
X184878000Y-112445882D01*
X184920816Y-112445919D01*
X185172967Y-112341732D01*
X185366054Y-112148982D01*
X185470681Y-111897013D01*
X185470919Y-111624184D01*
X185366732Y-111372033D01*
X185173982Y-111178946D01*
X184922013Y-111074319D01*
X184649184Y-111074081D01*
X184397033Y-111178268D01*
X184203946Y-111371018D01*
X184099319Y-111622987D01*
X184099228Y-111727352D01*
X184010790Y-111815790D01*
X183900669Y-111980597D01*
X183862000Y-112175000D01*
X183862000Y-112572450D01*
X183778810Y-112588103D01*
X183649135Y-112671546D01*
X183562141Y-112798866D01*
X183553406Y-112842000D01*
X183246080Y-112842000D01*
X183173454Y-112729135D01*
X183046134Y-112642141D01*
X182895000Y-112611536D01*
X181595000Y-112611536D01*
X181453810Y-112638103D01*
X181324135Y-112721546D01*
X181237141Y-112848866D01*
X181206536Y-113000000D01*
X181206536Y-113700000D01*
X181223847Y-113792000D01*
X178450000Y-113792000D01*
X178450000Y-113635750D01*
X178291250Y-113477000D01*
X177292000Y-113477000D01*
X177292000Y-113497000D01*
X177038000Y-113497000D01*
X177038000Y-113477000D01*
X176038750Y-113477000D01*
X175880000Y-113635750D01*
X175880000Y-113826309D01*
X175976673Y-114059698D01*
X176155301Y-114238327D01*
X176388690Y-114335000D01*
X176773577Y-114335000D01*
X176695669Y-114451597D01*
X176683746Y-114511536D01*
X176515000Y-114511536D01*
X176373810Y-114538103D01*
X176244135Y-114621546D01*
X176157141Y-114748866D01*
X176126536Y-114900000D01*
X176126536Y-115600000D01*
X176153103Y-115741190D01*
X176236546Y-115870865D01*
X176363866Y-115957859D01*
X176515000Y-115988464D01*
X176657000Y-115988464D01*
X176657000Y-115994579D01*
X176319580Y-116332000D01*
X173565420Y-116332000D01*
X173548000Y-116314580D01*
X173548000Y-116168142D01*
X173581190Y-116161897D01*
X173710865Y-116078454D01*
X173797859Y-115951134D01*
X173828464Y-115800000D01*
X173828464Y-114906884D01*
X174151536Y-115229956D01*
X174151536Y-115800000D01*
X174178103Y-115941190D01*
X174261546Y-116070865D01*
X174388866Y-116157859D01*
X174540000Y-116188464D01*
X175340000Y-116188464D01*
X175481190Y-116161897D01*
X175610865Y-116078454D01*
X175697859Y-115951134D01*
X175728464Y-115800000D01*
X175728464Y-114900000D01*
X175701897Y-114758810D01*
X175618454Y-114629135D01*
X175491134Y-114542141D01*
X175340000Y-114511536D01*
X174869956Y-114511536D01*
X174437876Y-114079456D01*
X174531190Y-114061897D01*
X174660865Y-113978454D01*
X174747859Y-113851134D01*
X174778464Y-113700000D01*
X174778464Y-112873691D01*
X175880000Y-112873691D01*
X175880000Y-113064250D01*
X176038750Y-113223000D01*
X177038000Y-113223000D01*
X177038000Y-112523750D01*
X177292000Y-112523750D01*
X177292000Y-113223000D01*
X178291250Y-113223000D01*
X178450000Y-113064250D01*
X178450000Y-112873691D01*
X178353327Y-112640302D01*
X178174699Y-112461673D01*
X177941310Y-112365000D01*
X177450750Y-112365000D01*
X177292000Y-112523750D01*
X177038000Y-112523750D01*
X176879250Y-112365000D01*
X176388690Y-112365000D01*
X176155301Y-112461673D01*
X175976673Y-112640302D01*
X175880000Y-112873691D01*
X174778464Y-112873691D01*
X174778464Y-112800000D01*
X174751897Y-112658810D01*
X174668454Y-112529135D01*
X174541134Y-112442141D01*
X174498000Y-112433406D01*
X174498000Y-107650562D01*
X174607195Y-107605444D01*
X174914366Y-107298809D01*
X175080810Y-106897965D01*
X175080811Y-106896061D01*
X175438811Y-106896061D01*
X175604556Y-107297195D01*
X175911191Y-107604366D01*
X176312035Y-107770810D01*
X176746061Y-107771189D01*
X177147195Y-107605444D01*
X177454366Y-107298809D01*
X177500378Y-107188000D01*
X178099438Y-107188000D01*
X178144556Y-107297195D01*
X178451191Y-107604366D01*
X178852035Y-107770810D01*
X179286061Y-107771189D01*
X179687195Y-107605444D01*
X179994366Y-107298809D01*
X180160810Y-106897965D01*
X180161189Y-106463939D01*
X179995444Y-106062805D01*
X179688809Y-105755634D01*
X179287965Y-105589190D01*
X178853939Y-105588811D01*
X178452805Y-105754556D01*
X178145634Y-106061191D01*
X178099622Y-106172000D01*
X177500562Y-106172000D01*
X177455444Y-106062805D01*
X177148809Y-105755634D01*
X176747965Y-105589190D01*
X176313939Y-105588811D01*
X175912805Y-105754556D01*
X175605634Y-106061191D01*
X175439190Y-106462035D01*
X175438811Y-106896061D01*
X175080811Y-106896061D01*
X175081189Y-106463939D01*
X174915444Y-106062805D01*
X174608809Y-105755634D01*
X174207965Y-105589190D01*
X173773939Y-105588811D01*
X173372805Y-105754556D01*
X173065634Y-106061191D01*
X172899190Y-106462035D01*
X172898811Y-106896061D01*
X173064556Y-107297195D01*
X173371191Y-107604366D01*
X173482000Y-107650378D01*
X173482000Y-112431858D01*
X173448810Y-112438103D01*
X173319135Y-112521546D01*
X173232141Y-112648866D01*
X173201536Y-112800000D01*
X173201536Y-113573001D01*
X172770881Y-113573001D01*
X172770919Y-113529184D01*
X172666732Y-113277033D01*
X172473982Y-113083946D01*
X172222013Y-112979319D01*
X171949184Y-112979081D01*
X171697033Y-113083268D01*
X171503946Y-113276018D01*
X171399319Y-113527987D01*
X171399081Y-113800816D01*
X145754206Y-113800816D01*
X145705444Y-113682805D01*
X145398809Y-113375634D01*
X144997965Y-113209190D01*
X144563939Y-113208811D01*
X144162805Y-113374556D01*
X143855634Y-113681191D01*
X143689190Y-114082035D01*
X143688811Y-114516061D01*
X143002000Y-114516061D01*
X143002000Y-111976061D01*
X143688811Y-111976061D01*
X143854556Y-112377195D01*
X144161191Y-112684366D01*
X144562035Y-112850810D01*
X144996061Y-112851189D01*
X145397195Y-112685444D01*
X145704366Y-112378809D01*
X145870810Y-111977965D01*
X145871189Y-111543939D01*
X145705444Y-111142805D01*
X145398809Y-110835634D01*
X144997965Y-110669190D01*
X144563939Y-110668811D01*
X144162805Y-110834556D01*
X143855634Y-111141191D01*
X143689190Y-111542035D01*
X143688811Y-111976061D01*
X143002000Y-111976061D01*
X143002000Y-109436061D01*
X143688811Y-109436061D01*
X143854556Y-109837195D01*
X144161191Y-110144366D01*
X144562035Y-110310810D01*
X144996061Y-110311189D01*
X145397195Y-110145444D01*
X145704366Y-109838809D01*
X145870810Y-109437965D01*
X145871189Y-109003939D01*
X145705444Y-108602805D01*
X145398809Y-108295634D01*
X144997965Y-108129190D01*
X144563939Y-108128811D01*
X144162805Y-108294556D01*
X143855634Y-108601191D01*
X143689190Y-109002035D01*
X143688811Y-109436061D01*
X143002000Y-109436061D01*
X143002000Y-106896061D01*
X143688811Y-106896061D01*
X143854556Y-107297195D01*
X144161191Y-107604366D01*
X144562035Y-107770810D01*
X144996061Y-107771189D01*
X145397195Y-107605444D01*
X145704366Y-107298809D01*
X145870810Y-106897965D01*
X145870811Y-106896061D01*
X155118811Y-106896061D01*
X155284556Y-107297195D01*
X155591191Y-107604366D01*
X155992035Y-107770810D01*
X156426061Y-107771189D01*
X156827195Y-107605444D01*
X157134366Y-107298809D01*
X157300810Y-106897965D01*
X157301189Y-106463939D01*
X157255370Y-106353050D01*
X161500420Y-102108000D01*
X162603580Y-102108000D01*
X159077081Y-105634499D01*
X158967965Y-105589190D01*
X158533939Y-105588811D01*
X158132805Y-105754556D01*
X157825634Y-106061191D01*
X157659190Y-106462035D01*
X157658811Y-106896061D01*
X157824556Y-107297195D01*
X158131191Y-107604366D01*
X158532035Y-107770810D01*
X158966061Y-107771189D01*
X159367195Y-107605444D01*
X159674366Y-107298809D01*
X159840810Y-106897965D01*
X159841189Y-106463939D01*
X159795370Y-106353050D01*
X163278420Y-102870000D01*
X164381580Y-102870000D01*
X161617081Y-105634499D01*
X161507965Y-105589190D01*
X161073939Y-105588811D01*
X160672805Y-105754556D01*
X160365634Y-106061191D01*
X160199190Y-106462035D01*
X160198811Y-106896061D01*
X160364556Y-107297195D01*
X160671191Y-107604366D01*
X161072035Y-107770810D01*
X161506061Y-107771189D01*
X161907195Y-107605444D01*
X162214366Y-107298809D01*
X162380810Y-106897965D01*
X162380811Y-106896061D01*
X162738811Y-106896061D01*
X162904556Y-107297195D01*
X163211191Y-107604366D01*
X163612035Y-107770810D01*
X164046061Y-107771189D01*
X164405855Y-107622525D01*
X165607081Y-107622525D01*
X165670150Y-107859327D01*
X166174732Y-108037377D01*
X166709041Y-108008779D01*
X167069850Y-107859327D01*
X167132919Y-107622525D01*
X166370000Y-106859605D01*
X165607081Y-107622525D01*
X164405855Y-107622525D01*
X164447195Y-107605444D01*
X164754366Y-107298809D01*
X164920810Y-106897965D01*
X164921170Y-106484732D01*
X165012623Y-106484732D01*
X165041221Y-107019041D01*
X165190673Y-107379850D01*
X165427475Y-107442919D01*
X166190395Y-106680000D01*
X166549605Y-106680000D01*
X167312525Y-107442919D01*
X167549327Y-107379850D01*
X167720039Y-106896061D01*
X167818811Y-106896061D01*
X167984556Y-107297195D01*
X168291191Y-107604366D01*
X168692035Y-107770810D01*
X169126061Y-107771189D01*
X169527195Y-107605444D01*
X169834366Y-107298809D01*
X170000810Y-106897965D01*
X170001189Y-106463939D01*
X169835444Y-106062805D01*
X169528809Y-105755634D01*
X169127965Y-105589190D01*
X168693939Y-105588811D01*
X168292805Y-105754556D01*
X167985634Y-106061191D01*
X167819190Y-106462035D01*
X167818811Y-106896061D01*
X167720039Y-106896061D01*
X167727377Y-106875268D01*
X167698779Y-106340959D01*
X167549327Y-105980150D01*
X167312525Y-105917081D01*
X166549605Y-106680000D01*
X166190395Y-106680000D01*
X165427475Y-105917081D01*
X165190673Y-105980150D01*
X165012623Y-106484732D01*
X164921170Y-106484732D01*
X164921189Y-106463939D01*
X164755444Y-106062805D01*
X164448809Y-105755634D01*
X164405078Y-105737475D01*
X165607081Y-105737475D01*
X166370000Y-106500395D01*
X167132919Y-105737475D01*
X167069850Y-105500673D01*
X166565268Y-105322623D01*
X166030959Y-105351221D01*
X165670150Y-105500673D01*
X165607081Y-105737475D01*
X164405078Y-105737475D01*
X164047965Y-105589190D01*
X163613939Y-105588811D01*
X163212805Y-105754556D01*
X162905634Y-106061191D01*
X162739190Y-106462035D01*
X162738811Y-106896061D01*
X162380811Y-106896061D01*
X162381189Y-106463939D01*
X162335370Y-106353050D01*
X165131421Y-103556999D01*
X188122329Y-103556999D01*
X188705330Y-104140000D01*
X182637909Y-104140000D01*
X182443506Y-104178669D01*
X182278699Y-104288790D01*
X181250790Y-105316699D01*
X181140669Y-105481506D01*
X181138887Y-105490467D01*
X179937210Y-104288790D01*
X179772403Y-104178669D01*
X179578000Y-104140000D01*
X173482000Y-104140000D01*
X173287597Y-104178669D01*
X173122790Y-104288790D01*
X171777081Y-105634499D01*
X171667965Y-105589190D01*
X171233939Y-105588811D01*
X170832805Y-105754556D01*
X170525634Y-106061191D01*
X170359190Y-106462035D01*
X170358811Y-106896061D01*
X170524556Y-107297195D01*
X170831191Y-107604366D01*
X171232035Y-107770810D01*
X171666061Y-107771189D01*
X172067195Y-107605444D01*
X172374366Y-107298809D01*
X172540810Y-106897965D01*
X172541189Y-106463939D01*
X172495370Y-106353050D01*
X173692420Y-105156000D01*
X179367580Y-105156000D01*
X180564499Y-106352919D01*
X180519190Y-106462035D01*
X180518811Y-106896061D01*
X180684556Y-107297195D01*
X180991191Y-107604366D01*
X181392035Y-107770810D01*
X181826061Y-107771189D01*
X182185855Y-107622525D01*
X183387081Y-107622525D01*
X183450150Y-107859327D01*
X183954732Y-108037377D01*
X184489041Y-108008779D01*
X184849850Y-107859327D01*
X184912919Y-107622525D01*
X184150000Y-106859605D01*
X183387081Y-107622525D01*
X182185855Y-107622525D01*
X182227195Y-107605444D01*
X182534366Y-107298809D01*
X182700810Y-106897965D01*
X182701170Y-106484732D01*
X182792623Y-106484732D01*
X182821221Y-107019041D01*
X182970673Y-107379850D01*
X183207475Y-107442919D01*
X183970395Y-106680000D01*
X184329605Y-106680000D01*
X185092525Y-107442919D01*
X185329327Y-107379850D01*
X185500039Y-106896061D01*
X185598811Y-106896061D01*
X185764556Y-107297195D01*
X186071191Y-107604366D01*
X186472035Y-107770810D01*
X186906061Y-107771189D01*
X187307195Y-107605444D01*
X187614366Y-107298809D01*
X187780810Y-106897965D01*
X187781189Y-106463939D01*
X187615444Y-106062805D01*
X187308809Y-105755634D01*
X186907965Y-105589190D01*
X186473939Y-105588811D01*
X186072805Y-105754556D01*
X185765634Y-106061191D01*
X185599190Y-106462035D01*
X185598811Y-106896061D01*
X185500039Y-106896061D01*
X185507377Y-106875268D01*
X185478779Y-106340959D01*
X185329327Y-105980150D01*
X185092525Y-105917081D01*
X184329605Y-106680000D01*
X183970395Y-106680000D01*
X183207475Y-105917081D01*
X182970673Y-105980150D01*
X182792623Y-106484732D01*
X182701170Y-106484732D01*
X182701189Y-106463939D01*
X182535444Y-106062805D01*
X182238743Y-105765586D01*
X182266854Y-105737475D01*
X183387081Y-105737475D01*
X184150000Y-106500395D01*
X184912919Y-105737475D01*
X184849850Y-105500673D01*
X184345268Y-105322623D01*
X183810959Y-105351221D01*
X183450150Y-105500673D01*
X183387081Y-105737475D01*
X182266854Y-105737475D01*
X182848329Y-105156000D01*
X189146580Y-105156000D01*
X189673363Y-105682783D01*
X189447965Y-105589190D01*
X189013939Y-105588811D01*
X188612805Y-105754556D01*
X188305634Y-106061191D01*
X188139190Y-106462035D01*
X188138811Y-106896061D01*
X188304556Y-107297195D01*
X188611191Y-107604366D01*
X189012035Y-107770810D01*
X189446061Y-107771189D01*
X189847195Y-107605444D01*
X189992000Y-107460892D01*
X189992000Y-114300000D01*
X190030669Y-114494403D01*
X190140790Y-114659210D01*
X191994499Y-116512919D01*
X191949190Y-116622035D01*
X191948811Y-117056061D01*
X192114556Y-117457195D01*
X192421191Y-117764366D01*
X192822035Y-117930810D01*
X193256061Y-117931189D01*
X193657195Y-117765444D01*
X193964366Y-117458809D01*
X194130810Y-117057965D01*
X194131189Y-116623939D01*
X193965444Y-116222805D01*
X193658809Y-115915634D01*
X193257965Y-115749190D01*
X192823939Y-115748811D01*
X192713050Y-115794630D01*
X191008000Y-114089580D01*
X191008000Y-110446420D01*
X191994499Y-111432919D01*
X191949190Y-111542035D01*
X191948811Y-111976061D01*
X192114556Y-112377195D01*
X192421191Y-112684366D01*
X192822035Y-112850810D01*
X193256061Y-112851189D01*
X193657195Y-112685444D01*
X193964366Y-112378809D01*
X194130810Y-111977965D01*
X194131189Y-111543939D01*
X193965444Y-111142805D01*
X193658809Y-110835634D01*
X193257965Y-110669190D01*
X192823939Y-110668811D01*
X192713050Y-110714630D01*
X191516000Y-109517580D01*
X191516000Y-108414420D01*
X191994499Y-108892919D01*
X191949190Y-109002035D01*
X191948811Y-109436061D01*
X192114556Y-109837195D01*
X192421191Y-110144366D01*
X192822035Y-110310810D01*
X193256061Y-110311189D01*
X193657195Y-110145444D01*
X193964366Y-109838809D01*
X194130810Y-109437965D01*
X194131189Y-109003939D01*
X193965444Y-108602805D01*
X193658809Y-108295634D01*
X193257965Y-108129190D01*
X192823939Y-108128811D01*
X192713050Y-108174629D01*
X192024000Y-107485580D01*
X192024000Y-107078032D01*
X192114556Y-107297195D01*
X192421191Y-107604366D01*
X192822035Y-107770810D01*
X193256061Y-107771189D01*
X193657195Y-107605444D01*
X193964366Y-107298809D01*
X194130810Y-106897965D01*
X194131189Y-106463939D01*
X193965444Y-106062805D01*
X193658809Y-105755634D01*
X193257965Y-105589190D01*
X192823939Y-105588811D01*
X192766970Y-105612350D01*
X192284569Y-105129949D01*
X192275682Y-105124011D01*
X191507732Y-104356061D01*
X191948811Y-104356061D01*
X192114556Y-104757195D01*
X192421191Y-105064366D01*
X192822035Y-105230810D01*
X193256061Y-105231189D01*
X193657195Y-105065444D01*
X193964366Y-104758809D01*
X194130810Y-104357965D01*
X194131189Y-103923939D01*
X193965444Y-103522805D01*
X193658809Y-103215634D01*
X193257965Y-103049190D01*
X192823939Y-103048811D01*
X192422805Y-103214556D01*
X192115634Y-103521191D01*
X191949190Y-103922035D01*
X191948811Y-104356061D01*
X191507732Y-104356061D01*
X188967732Y-101816061D01*
X191948811Y-101816061D01*
X192114556Y-102217195D01*
X192421191Y-102524366D01*
X192822035Y-102690810D01*
X193256061Y-102691189D01*
X193657195Y-102525444D01*
X193964366Y-102218809D01*
X194130810Y-101817965D01*
X194131189Y-101383939D01*
X193965444Y-100982805D01*
X193658809Y-100675634D01*
X193257965Y-100509190D01*
X192823939Y-100508811D01*
X192422805Y-100674556D01*
X192115634Y-100981191D01*
X191949190Y-101382035D01*
X191948811Y-101816061D01*
X188967732Y-101816061D01*
X188392460Y-101240790D01*
X188227653Y-101130669D01*
X188033250Y-101092000D01*
X161290000Y-101092000D01*
X161095597Y-101130669D01*
X160930790Y-101240790D01*
X156537081Y-105634499D01*
X156427965Y-105589190D01*
X155993939Y-105588811D01*
X155592805Y-105754556D01*
X155285634Y-106061191D01*
X155119190Y-106462035D01*
X155118811Y-106896061D01*
X145870811Y-106896061D01*
X145871189Y-106463939D01*
X145705444Y-106062805D01*
X145398809Y-105755634D01*
X144997965Y-105589190D01*
X144563939Y-105588811D01*
X144162805Y-105754556D01*
X143855634Y-106061191D01*
X143689190Y-106462035D01*
X143688811Y-106896061D01*
X143002000Y-106896061D01*
X143002000Y-104356061D01*
X143688811Y-104356061D01*
X143854556Y-104757195D01*
X144161191Y-105064366D01*
X144562035Y-105230810D01*
X144996061Y-105231189D01*
X145397195Y-105065444D01*
X145704366Y-104758809D01*
X145870810Y-104357965D01*
X145871189Y-103923939D01*
X145705444Y-103522805D01*
X145398809Y-103215634D01*
X144997965Y-103049190D01*
X144563939Y-103048811D01*
X144162805Y-103214556D01*
X143855634Y-103521191D01*
X143689190Y-103922035D01*
X143688811Y-104356061D01*
X143002000Y-104356061D01*
X143002000Y-101816061D01*
X143688811Y-101816061D01*
X143854556Y-102217195D01*
X144161191Y-102524366D01*
X144562035Y-102690810D01*
X144996061Y-102691189D01*
X145397195Y-102525444D01*
X145704366Y-102218809D01*
X145870810Y-101817965D01*
X145871189Y-101383939D01*
X145705444Y-100982805D01*
X145398809Y-100675634D01*
X144997965Y-100509190D01*
X144563939Y-100508811D01*
X144162805Y-100674556D01*
X143855634Y-100981191D01*
X143689190Y-101382035D01*
X143688811Y-101816061D01*
X143002000Y-101816061D01*
X143002000Y-99276061D01*
X143688811Y-99276061D01*
X143854556Y-99677195D01*
X144161191Y-99984366D01*
X144562035Y-100150810D01*
X144996061Y-100151189D01*
X145397195Y-99985444D01*
X145704366Y-99678809D01*
X145870810Y-99277965D01*
X145870811Y-99276061D01*
X191948811Y-99276061D01*
X192114556Y-99677195D01*
X192421191Y-99984366D01*
X192822035Y-100150810D01*
X193256061Y-100151189D01*
X193657195Y-99985444D01*
X193964366Y-99678809D01*
X194130810Y-99277965D01*
X194131189Y-98843939D01*
X193965444Y-98442805D01*
X193658809Y-98135634D01*
X193257965Y-97969190D01*
X192823939Y-97968811D01*
X192422805Y-98134556D01*
X192115634Y-98441191D01*
X191949190Y-98842035D01*
X191948811Y-99276061D01*
X145870811Y-99276061D01*
X145871189Y-98843939D01*
X145705444Y-98442805D01*
X145398809Y-98135634D01*
X144997965Y-97969190D01*
X144563939Y-97968811D01*
X144162805Y-98134556D01*
X143855634Y-98441191D01*
X143689190Y-98842035D01*
X143688811Y-99276061D01*
X143002000Y-99276061D01*
X143002000Y-97929510D01*
X143052636Y-97674949D01*
X143189747Y-97469747D01*
X143394949Y-97332636D01*
X143649510Y-97282000D01*
X194170490Y-97282000D01*
X194425051Y-97332636D01*
X194425051Y-97332636D01*
G37*
X194425051Y-97332636D02*
X194630253Y-97469747D01*
X194767364Y-97674949D01*
X194818000Y-97929510D01*
X194818000Y-144640490D01*
X194767364Y-144895051D01*
X194630253Y-145100253D01*
X194425051Y-145237364D01*
X194170490Y-145288000D01*
X143649510Y-145288000D01*
X143394949Y-145237364D01*
X143189747Y-145100253D01*
X143052636Y-144895051D01*
X143002000Y-144640490D01*
X143002000Y-143980061D01*
X143688811Y-143980061D01*
X143854556Y-144381195D01*
X144161191Y-144688366D01*
X144562035Y-144854810D01*
X144996061Y-144855189D01*
X145397195Y-144689444D01*
X145704366Y-144382809D01*
X145870810Y-143981965D01*
X145871189Y-143547939D01*
X145705444Y-143146805D01*
X145398809Y-142839634D01*
X144997965Y-142673190D01*
X144563939Y-142672811D01*
X144162805Y-142838556D01*
X143855634Y-143145191D01*
X143689190Y-143546035D01*
X143688811Y-143980061D01*
X143002000Y-143980061D01*
X143002000Y-141440061D01*
X143688811Y-141440061D01*
X143854556Y-141841195D01*
X144161191Y-142148366D01*
X144562035Y-142314810D01*
X144996061Y-142315189D01*
X145397195Y-142149444D01*
X145704366Y-141842809D01*
X145870810Y-141441965D01*
X145871189Y-141007939D01*
X145705444Y-140606805D01*
X145398809Y-140299634D01*
X144997965Y-140133190D01*
X144563939Y-140132811D01*
X144162805Y-140298556D01*
X143855634Y-140605191D01*
X143689190Y-141006035D01*
X143688811Y-141440061D01*
X143002000Y-141440061D01*
X143002000Y-138900061D01*
X143688811Y-138900061D01*
X143854556Y-139301195D01*
X144161191Y-139608366D01*
X144562035Y-139774810D01*
X144996061Y-139775189D01*
X145397195Y-139609444D01*
X145704366Y-139302809D01*
X145870810Y-138901965D01*
X145871189Y-138467939D01*
X145705444Y-138066805D01*
X145398809Y-137759634D01*
X144997965Y-137593190D01*
X144563939Y-137592811D01*
X144162805Y-137758556D01*
X143855634Y-138065191D01*
X143689190Y-138466035D01*
X143688811Y-138900061D01*
X143002000Y-138900061D01*
X143002000Y-136360061D01*
X143688811Y-136360061D01*
X143854556Y-136761195D01*
X144161191Y-137068366D01*
X144562035Y-137234810D01*
X144996061Y-137235189D01*
X145397195Y-137069444D01*
X145704366Y-136762809D01*
X145870810Y-136361965D01*
X145871189Y-135927939D01*
X145705444Y-135526805D01*
X145398809Y-135219634D01*
X144997965Y-135053190D01*
X144563939Y-135052811D01*
X144162805Y-135218556D01*
X143855634Y-135525191D01*
X143689190Y-135926035D01*
X143688811Y-136360061D01*
X143002000Y-136360061D01*
X143002000Y-134836061D01*
X191948811Y-134836061D01*
X192114556Y-135237195D01*
X192421191Y-135544366D01*
X192822035Y-135710810D01*
X193256061Y-135711189D01*
X193657195Y-135545444D01*
X193964366Y-135238809D01*
X194130810Y-134837965D01*
X194131189Y-134403939D01*
X193965444Y-134002805D01*
X193658809Y-133695634D01*
X193257965Y-133529190D01*
X192823939Y-133528811D01*
X192422805Y-133694556D01*
X192115634Y-134001191D01*
X191949190Y-134402035D01*
X191948811Y-134836061D01*
X143002000Y-134836061D01*
X143002000Y-133820061D01*
X143688811Y-133820061D01*
X143854556Y-134221195D01*
X144161191Y-134528366D01*
X144562035Y-134694810D01*
X144996061Y-134695189D01*
X145397195Y-134529444D01*
X145704366Y-134222809D01*
X145870810Y-133821965D01*
X145871189Y-133387939D01*
X145705444Y-132986805D01*
X145398809Y-132679634D01*
X144997965Y-132513190D01*
X144563939Y-132512811D01*
X144162805Y-132678556D01*
X143855634Y-132985191D01*
X143689190Y-133386035D01*
X143688811Y-133820061D01*
X143002000Y-133820061D01*
X143002000Y-132296061D01*
X191948811Y-132296061D01*
X192114556Y-132697195D01*
X192421191Y-133004366D01*
X192822035Y-133170810D01*
X193256061Y-133171189D01*
X193657195Y-133005444D01*
X193964366Y-132698809D01*
X194130810Y-132297965D01*
X194131189Y-131863939D01*
X193965444Y-131462805D01*
X193658809Y-131155634D01*
X193257965Y-130989190D01*
X192823939Y-130988811D01*
X192422805Y-131154556D01*
X192115634Y-131461191D01*
X191949190Y-131862035D01*
X191948811Y-132296061D01*
X143002000Y-132296061D01*
X143002000Y-131280061D01*
X143688811Y-131280061D01*
X143854556Y-131681195D01*
X144161191Y-131988366D01*
X144562035Y-132154810D01*
X144996061Y-132155189D01*
X145397195Y-131989444D01*
X145704366Y-131682809D01*
X145870810Y-131281965D01*
X145871189Y-130847939D01*
X145705444Y-130446805D01*
X145398809Y-130139634D01*
X144997965Y-129973190D01*
X144563939Y-129972811D01*
X144162805Y-130138556D01*
X143855634Y-130445191D01*
X143689190Y-130846035D01*
X143688811Y-131280061D01*
X143002000Y-131280061D01*
X143002000Y-129756061D01*
X191948811Y-129756061D01*
X192114556Y-130157195D01*
X192421191Y-130464366D01*
X192822035Y-130630810D01*
X193256061Y-130631189D01*
X193657195Y-130465444D01*
X193964366Y-130158809D01*
X194130810Y-129757965D01*
X194131189Y-129323939D01*
X193965444Y-128922805D01*
X193658809Y-128615634D01*
X193257965Y-128449190D01*
X192823939Y-128448811D01*
X192422805Y-128614556D01*
X192115634Y-128921191D01*
X191949190Y-129322035D01*
X191948811Y-129756061D01*
X143002000Y-129756061D01*
X143002000Y-128740061D01*
X143688811Y-128740061D01*
X143854556Y-129141195D01*
X144161191Y-129448366D01*
X144562035Y-129614810D01*
X144996061Y-129615189D01*
X145397195Y-129449444D01*
X145704366Y-129142809D01*
X145870810Y-128741965D01*
X145871189Y-128307939D01*
X145705444Y-127906805D01*
X145398809Y-127599634D01*
X144997965Y-127433190D01*
X144563939Y-127432811D01*
X144162805Y-127598556D01*
X143855634Y-127905191D01*
X143689190Y-128306035D01*
X143688811Y-128740061D01*
X143002000Y-128740061D01*
X143002000Y-126200061D01*
X143688811Y-126200061D01*
X143854556Y-126601195D01*
X144161191Y-126908366D01*
X144562035Y-127074810D01*
X144996061Y-127075189D01*
X145397195Y-126909444D01*
X145704366Y-126602809D01*
X145870810Y-126201965D01*
X145871189Y-125767939D01*
X145705444Y-125366805D01*
X145398809Y-125059634D01*
X144997965Y-124893190D01*
X144563939Y-124892811D01*
X144162805Y-125058556D01*
X143855634Y-125365191D01*
X143689190Y-125766035D01*
X143688811Y-126200061D01*
X143002000Y-126200061D01*
X143002000Y-123660061D01*
X143688811Y-123660061D01*
X143854556Y-124061195D01*
X144161191Y-124368366D01*
X144562035Y-124534810D01*
X144996061Y-124535189D01*
X145397195Y-124369444D01*
X145704366Y-124062809D01*
X145788579Y-123860000D01*
X180791536Y-123860000D01*
X180791536Y-125060000D01*
X180818103Y-125201190D01*
X180901546Y-125330865D01*
X181028866Y-125417859D01*
X181180000Y-125448464D01*
X181272000Y-125448464D01*
X181272000Y-125889622D01*
X181222033Y-125910268D01*
X181028946Y-126103018D01*
X180924319Y-126354987D01*
X180924081Y-126627816D01*
X181028268Y-126879967D01*
X181221018Y-127073054D01*
X181272000Y-127094224D01*
X181272000Y-127281536D01*
X181180000Y-127281536D01*
X181038810Y-127308103D01*
X180909135Y-127391546D01*
X180822141Y-127518866D01*
X180791536Y-127670000D01*
X180791536Y-128870000D01*
X180818103Y-129011190D01*
X180901546Y-129140865D01*
X181028866Y-129227859D01*
X181180000Y-129258464D01*
X182380000Y-129258464D01*
X182521190Y-129231897D01*
X182650865Y-129148454D01*
X182737859Y-129021134D01*
X182768464Y-128870000D01*
X182768464Y-127670000D01*
X182991536Y-127670000D01*
X182991536Y-128870000D01*
X183018103Y-129011190D01*
X183101546Y-129140865D01*
X183228866Y-129227859D01*
X183380000Y-129258464D01*
X184580000Y-129258464D01*
X184721190Y-129231897D01*
X184850865Y-129148454D01*
X184937859Y-129021134D01*
X184968464Y-128870000D01*
X184968464Y-128778000D01*
X186271536Y-128778000D01*
X186271536Y-128920000D01*
X186298103Y-129061190D01*
X186381546Y-129190865D01*
X186508866Y-129277859D01*
X186660000Y-129308464D01*
X187360000Y-129308464D01*
X187501190Y-129281897D01*
X187630865Y-129198454D01*
X187717859Y-129071134D01*
X187748464Y-128920000D01*
X187748464Y-128555750D01*
X187925000Y-128555750D01*
X187925000Y-129046310D01*
X188021673Y-129279699D01*
X188200302Y-129458327D01*
X188433691Y-129555000D01*
X188624250Y-129555000D01*
X188783000Y-129396250D01*
X188783000Y-128397000D01*
X189037000Y-128397000D01*
X189037000Y-129396250D01*
X189195750Y-129555000D01*
X189386309Y-129555000D01*
X189619698Y-129458327D01*
X189798327Y-129279699D01*
X189895000Y-129046310D01*
X189895000Y-128555750D01*
X189736250Y-128397000D01*
X189037000Y-128397000D01*
X188783000Y-128397000D01*
X188083750Y-128397000D01*
X187925000Y-128555750D01*
X187748464Y-128555750D01*
X187748464Y-127620000D01*
X187724697Y-127493690D01*
X187925000Y-127493690D01*
X187925000Y-127984250D01*
X188083750Y-128143000D01*
X188783000Y-128143000D01*
X188783000Y-127143750D01*
X189037000Y-127143750D01*
X189037000Y-128143000D01*
X189736250Y-128143000D01*
X189895000Y-127984250D01*
X189895000Y-127493690D01*
X189798327Y-127260301D01*
X189754087Y-127216061D01*
X191948811Y-127216061D01*
X192114556Y-127617195D01*
X192421191Y-127924366D01*
X192822035Y-128090810D01*
X193256061Y-128091189D01*
X193657195Y-127925444D01*
X193964366Y-127618809D01*
X194130810Y-127217965D01*
X194131189Y-126783939D01*
X193965444Y-126382805D01*
X193658809Y-126075634D01*
X193257965Y-125909190D01*
X192823939Y-125908811D01*
X192422805Y-126074556D01*
X192115634Y-126381191D01*
X191949190Y-126782035D01*
X191948811Y-127216061D01*
X189754087Y-127216061D01*
X189619698Y-127081673D01*
X189386309Y-126985000D01*
X189195750Y-126985000D01*
X189037000Y-127143750D01*
X188783000Y-127143750D01*
X188624250Y-126985000D01*
X188433691Y-126985000D01*
X188200302Y-127081673D01*
X188021673Y-127260301D01*
X187925000Y-127493690D01*
X187724697Y-127493690D01*
X187721897Y-127478810D01*
X187638454Y-127349135D01*
X187511134Y-127262141D01*
X187360000Y-127231536D01*
X186660000Y-127231536D01*
X186518810Y-127258103D01*
X186389135Y-127341546D01*
X186302141Y-127468866D01*
X186271536Y-127620000D01*
X186271536Y-127762000D01*
X184968464Y-127762000D01*
X184968464Y-127670000D01*
X184941897Y-127528810D01*
X184858454Y-127399135D01*
X184731134Y-127312141D01*
X184580000Y-127281536D01*
X183380000Y-127281536D01*
X183238810Y-127308103D01*
X183109135Y-127391546D01*
X183022141Y-127518866D01*
X182991536Y-127670000D01*
X182768464Y-127670000D01*
X182741897Y-127528810D01*
X182658454Y-127399135D01*
X182531134Y-127312141D01*
X182380000Y-127281536D01*
X182288000Y-127281536D01*
X182288000Y-126662000D01*
X182286051Y-126652204D01*
X182295681Y-126629013D01*
X182295919Y-126356184D01*
X182285983Y-126332138D01*
X182288000Y-126322000D01*
X182288000Y-125448464D01*
X182380000Y-125448464D01*
X182521190Y-125421897D01*
X182650865Y-125338454D01*
X182737859Y-125211134D01*
X182768464Y-125060000D01*
X182768464Y-123860000D01*
X182991536Y-123860000D01*
X182991536Y-125060000D01*
X183018103Y-125201190D01*
X183101546Y-125330865D01*
X183228866Y-125417859D01*
X183380000Y-125448464D01*
X184580000Y-125448464D01*
X184721190Y-125421897D01*
X184850865Y-125338454D01*
X184937859Y-125211134D01*
X184968464Y-125060000D01*
X184968464Y-124968000D01*
X186271536Y-124968000D01*
X186271536Y-125110000D01*
X186298103Y-125251190D01*
X186381546Y-125380865D01*
X186508866Y-125467859D01*
X186660000Y-125498464D01*
X187360000Y-125498464D01*
X187501190Y-125471897D01*
X187630865Y-125388454D01*
X187717859Y-125261134D01*
X187748464Y-125110000D01*
X187748464Y-123810000D01*
X188171536Y-123810000D01*
X188171536Y-125110000D01*
X188198103Y-125251190D01*
X188281546Y-125380865D01*
X188408866Y-125467859D01*
X188560000Y-125498464D01*
X189260000Y-125498464D01*
X189401190Y-125471897D01*
X189508997Y-125402525D01*
X192277081Y-125402525D01*
X192340150Y-125639327D01*
X192844732Y-125817377D01*
X193379041Y-125788779D01*
X193739850Y-125639327D01*
X193802919Y-125402525D01*
X193040000Y-124639605D01*
X192277081Y-125402525D01*
X189508997Y-125402525D01*
X189530865Y-125388454D01*
X189617859Y-125261134D01*
X189648464Y-125110000D01*
X189648464Y-124264732D01*
X191682623Y-124264732D01*
X191711221Y-124799041D01*
X191860673Y-125159850D01*
X192097475Y-125222919D01*
X192860395Y-124460000D01*
X193219605Y-124460000D01*
X193982525Y-125222919D01*
X194219327Y-125159850D01*
X194397377Y-124655268D01*
X194368779Y-124120959D01*
X194219327Y-123760150D01*
X193982525Y-123697081D01*
X193219605Y-124460000D01*
X192860395Y-124460000D01*
X192097475Y-123697081D01*
X191860673Y-123760150D01*
X191682623Y-124264732D01*
X189648464Y-124264732D01*
X189648464Y-123810000D01*
X189621897Y-123668810D01*
X189538454Y-123539135D01*
X189506754Y-123517475D01*
X192277081Y-123517475D01*
X193040000Y-124280395D01*
X193802919Y-123517475D01*
X193739850Y-123280673D01*
X193235268Y-123102623D01*
X192700959Y-123131221D01*
X192340150Y-123280673D01*
X192277081Y-123517475D01*
X189506754Y-123517475D01*
X189418000Y-123456832D01*
X189418000Y-122136061D01*
X191948811Y-122136061D01*
X192114556Y-122537195D01*
X192421191Y-122844366D01*
X192822035Y-123010810D01*
X193256061Y-123011189D01*
X193657195Y-122845444D01*
X193964366Y-122538809D01*
X194130810Y-122137965D01*
X194131189Y-121703939D01*
X193965444Y-121302805D01*
X193658809Y-120995634D01*
X193257965Y-120829190D01*
X192823939Y-120828811D01*
X192422805Y-120994556D01*
X192115634Y-121301191D01*
X191949190Y-121702035D01*
X191948811Y-122136061D01*
X189418000Y-122136061D01*
X189418000Y-121180420D01*
X189770591Y-120827829D01*
X189873816Y-120827919D01*
X190125967Y-120723732D01*
X190319054Y-120530982D01*
X190423681Y-120279013D01*
X190423919Y-120006184D01*
X190319732Y-119754033D01*
X190162036Y-119596061D01*
X191948811Y-119596061D01*
X192114556Y-119997195D01*
X192421191Y-120304366D01*
X192822035Y-120470810D01*
X193256061Y-120471189D01*
X193657195Y-120305444D01*
X193964366Y-119998809D01*
X194130810Y-119597965D01*
X194131189Y-119163939D01*
X193965444Y-118762805D01*
X193658809Y-118455634D01*
X193257965Y-118289190D01*
X192823939Y-118288811D01*
X192422805Y-118454556D01*
X192115634Y-118761191D01*
X191949190Y-119162035D01*
X191948811Y-119596061D01*
X190162036Y-119596061D01*
X190126982Y-119560946D01*
X189875013Y-119456319D01*
X189602184Y-119456081D01*
X189350033Y-119560268D01*
X189156946Y-119753018D01*
X189052319Y-120004987D01*
X189052228Y-120109352D01*
X188550790Y-120610790D01*
X188440669Y-120775597D01*
X188402000Y-120970000D01*
X188402000Y-123458920D01*
X188289135Y-123531546D01*
X188202141Y-123658866D01*
X188171536Y-123810000D01*
X187748464Y-123810000D01*
X187721897Y-123668810D01*
X187638454Y-123539135D01*
X187511134Y-123452141D01*
X187360000Y-123421536D01*
X186660000Y-123421536D01*
X186518810Y-123448103D01*
X186389135Y-123531546D01*
X186302141Y-123658866D01*
X186271536Y-123810000D01*
X186271536Y-123952000D01*
X184968464Y-123952000D01*
X184968464Y-123860000D01*
X184941897Y-123718810D01*
X184858454Y-123589135D01*
X184731134Y-123502141D01*
X184580000Y-123471536D01*
X183380000Y-123471536D01*
X183238810Y-123498103D01*
X183109135Y-123581546D01*
X183022141Y-123708866D01*
X182991536Y-123860000D01*
X182768464Y-123860000D01*
X182741897Y-123718810D01*
X182658454Y-123589135D01*
X182531134Y-123502141D01*
X182380000Y-123471536D01*
X181180000Y-123471536D01*
X181038810Y-123498103D01*
X180909135Y-123581546D01*
X180822141Y-123708866D01*
X180791536Y-123860000D01*
X145788579Y-123860000D01*
X145870810Y-123661965D01*
X145871189Y-123227939D01*
X145705444Y-122826805D01*
X145398809Y-122519634D01*
X144997965Y-122353190D01*
X144563939Y-122352811D01*
X144162805Y-122518556D01*
X143855634Y-122825191D01*
X143689190Y-123226035D01*
X143688811Y-123660061D01*
X143002000Y-123660061D01*
X143002000Y-121120061D01*
X143688811Y-121120061D01*
X143854556Y-121521195D01*
X144161191Y-121828366D01*
X144562035Y-121994810D01*
X144996061Y-121995189D01*
X145397195Y-121829444D01*
X145704366Y-121522809D01*
X145870810Y-121121965D01*
X145871189Y-120687939D01*
X145705444Y-120286805D01*
X145398809Y-119979634D01*
X144997965Y-119813190D01*
X144563939Y-119812811D01*
X144162805Y-119978556D01*
X143855634Y-120285191D01*
X143689190Y-120686035D01*
X143688811Y-121120061D01*
X143002000Y-121120061D01*
X143002000Y-117056061D01*
X143688811Y-117056061D01*
X143854556Y-117457195D01*
X144161191Y-117764366D01*
X144562035Y-117930810D01*
X144996061Y-117931189D01*
X145397195Y-117765444D01*
X145704366Y-117458809D01*
X145870810Y-117057965D01*
X145871189Y-116623939D01*
X145705444Y-116222805D01*
X145398809Y-115915634D01*
X144997965Y-115749190D01*
X144563939Y-115748811D01*
X144162805Y-115914556D01*
X143855634Y-116221191D01*
X143689190Y-116622035D01*
X143688811Y-117056061D01*
X143002000Y-117056061D01*
X143002000Y-114516061D01*
X143688811Y-114516061D01*
X143854556Y-114917195D01*
X144161191Y-115224366D01*
X144562035Y-115390810D01*
X144996061Y-115391189D01*
X145397195Y-115225444D01*
X145704366Y-114918809D01*
X145870810Y-114517965D01*
X145871189Y-114083939D01*
X145754206Y-113800816D01*
X171399081Y-113800816D01*
X171503268Y-114052967D01*
X171696018Y-114246054D01*
X171947987Y-114350681D01*
X172052352Y-114350772D01*
X172141791Y-114440212D01*
X172288296Y-114538103D01*
X172306598Y-114550332D01*
X172438906Y-114576650D01*
X172369135Y-114621546D01*
X172282141Y-114748866D01*
X172251536Y-114900000D01*
X172251536Y-115800000D01*
X172278103Y-115941190D01*
X172361546Y-116070865D01*
X172488866Y-116157859D01*
X172532000Y-116166594D01*
X172532000Y-116525000D01*
X172570669Y-116719403D01*
X172680790Y-116884210D01*
X172995790Y-117199210D01*
X173160596Y-117309331D01*
X173192850Y-117315746D01*
X173355000Y-117348000D01*
X176530000Y-117348000D01*
X176724403Y-117309331D01*
X176889210Y-117199210D01*
X177524211Y-116564210D01*
X177634331Y-116399403D01*
X177673000Y-116205000D01*
X177673000Y-115988464D01*
X177815000Y-115988464D01*
X177956190Y-115961897D01*
X178085865Y-115878454D01*
X178172859Y-115751134D01*
X178203464Y-115600000D01*
X178203464Y-115535750D01*
X180960000Y-115535750D01*
X180960000Y-115726309D01*
X181056673Y-115959698D01*
X181235301Y-116138327D01*
X181468690Y-116235000D01*
X181959250Y-116235000D01*
X182118000Y-116076250D01*
X182118000Y-115377000D01*
X182372000Y-115377000D01*
X182372000Y-116076250D01*
X182530750Y-116235000D01*
X183021310Y-116235000D01*
X183254699Y-116138327D01*
X183433327Y-115959698D01*
X183530000Y-115726309D01*
X183530000Y-115535750D01*
X183371250Y-115377000D01*
X182372000Y-115377000D01*
X182118000Y-115377000D01*
X181118750Y-115377000D01*
X180960000Y-115535750D01*
X178203464Y-115535750D01*
X178203464Y-114900000D01*
X178186153Y-114808000D01*
X180960000Y-114808000D01*
X180960000Y-114964250D01*
X181118750Y-115123000D01*
X182118000Y-115123000D01*
X182118000Y-115103000D01*
X182372000Y-115103000D01*
X182372000Y-115123000D01*
X183371250Y-115123000D01*
X183530000Y-114964250D01*
X183530000Y-114808000D01*
X183540041Y-114808000D01*
X183531536Y-114850000D01*
X183531536Y-115650000D01*
X183558103Y-115791190D01*
X183641546Y-115920865D01*
X183768866Y-116007859D01*
X183862000Y-116026719D01*
X183862000Y-116425000D01*
X183900669Y-116619403D01*
X184010790Y-116784210D01*
X184099171Y-116872591D01*
X184099081Y-116975816D01*
X184203268Y-117227967D01*
X184396018Y-117421054D01*
X184647987Y-117525681D01*
X184920816Y-117525919D01*
X185172967Y-117421732D01*
X185366054Y-117228982D01*
X185470681Y-116977013D01*
X185470919Y-116704184D01*
X185366732Y-116452033D01*
X185173982Y-116258946D01*
X184922013Y-116154319D01*
X184878000Y-116154281D01*
X184878000Y-116027550D01*
X184961190Y-116011897D01*
X185090865Y-115928454D01*
X185177859Y-115801134D01*
X185208464Y-115650000D01*
X185208464Y-114850000D01*
X185200561Y-114808000D01*
X185651858Y-114808000D01*
X185658103Y-114841190D01*
X185741546Y-114970865D01*
X185868866Y-115057859D01*
X186020000Y-115088464D01*
X186920000Y-115088464D01*
X187061190Y-115061897D01*
X187190865Y-114978454D01*
X187277859Y-114851134D01*
X187308464Y-114700000D01*
X187308464Y-113900000D01*
X187281897Y-113758810D01*
X187198454Y-113629135D01*
X187071134Y-113542141D01*
X186920000Y-113511536D01*
X186020000Y-113511536D01*
X185878810Y-113538103D01*
X185749135Y-113621546D01*
X185662141Y-113748866D01*
X185653406Y-113792000D01*
X185199959Y-113792000D01*
X185208464Y-113750000D01*
X185208464Y-112950000D01*
X185181897Y-112808810D01*
X185098454Y-112679135D01*
X184971134Y-112592141D01*
X184878000Y-112573281D01*
X184878000Y-112445882D01*
X184920816Y-112445919D01*
X185172967Y-112341732D01*
X185366054Y-112148982D01*
X185470681Y-111897013D01*
X185470919Y-111624184D01*
X185366732Y-111372033D01*
X185173982Y-111178946D01*
X184922013Y-111074319D01*
X184649184Y-111074081D01*
X184397033Y-111178268D01*
X184203946Y-111371018D01*
X184099319Y-111622987D01*
X184099228Y-111727352D01*
X184010790Y-111815790D01*
X183900669Y-111980597D01*
X183862000Y-112175000D01*
X183862000Y-112572450D01*
X183778810Y-112588103D01*
X183649135Y-112671546D01*
X183562141Y-112798866D01*
X183553406Y-112842000D01*
X183246080Y-112842000D01*
X183173454Y-112729135D01*
X183046134Y-112642141D01*
X182895000Y-112611536D01*
X181595000Y-112611536D01*
X181453810Y-112638103D01*
X181324135Y-112721546D01*
X181237141Y-112848866D01*
X181206536Y-113000000D01*
X181206536Y-113700000D01*
X181223847Y-113792000D01*
X178450000Y-113792000D01*
X178450000Y-113635750D01*
X178291250Y-113477000D01*
X177292000Y-113477000D01*
X177292000Y-113497000D01*
X177038000Y-113497000D01*
X177038000Y-113477000D01*
X176038750Y-113477000D01*
X175880000Y-113635750D01*
X175880000Y-113826309D01*
X175976673Y-114059698D01*
X176155301Y-114238327D01*
X176388690Y-114335000D01*
X176773577Y-114335000D01*
X176695669Y-114451597D01*
X176683746Y-114511536D01*
X176515000Y-114511536D01*
X176373810Y-114538103D01*
X176244135Y-114621546D01*
X176157141Y-114748866D01*
X176126536Y-114900000D01*
X176126536Y-115600000D01*
X176153103Y-115741190D01*
X176236546Y-115870865D01*
X176363866Y-115957859D01*
X176515000Y-115988464D01*
X176657000Y-115988464D01*
X176657000Y-115994579D01*
X176319580Y-116332000D01*
X173565420Y-116332000D01*
X173548000Y-116314580D01*
X173548000Y-116168142D01*
X173581190Y-116161897D01*
X173710865Y-116078454D01*
X173797859Y-115951134D01*
X173828464Y-115800000D01*
X173828464Y-114906884D01*
X174151536Y-115229956D01*
X174151536Y-115800000D01*
X174178103Y-115941190D01*
X174261546Y-116070865D01*
X174388866Y-116157859D01*
X174540000Y-116188464D01*
X175340000Y-116188464D01*
X175481190Y-116161897D01*
X175610865Y-116078454D01*
X175697859Y-115951134D01*
X175728464Y-115800000D01*
X175728464Y-114900000D01*
X175701897Y-114758810D01*
X175618454Y-114629135D01*
X175491134Y-114542141D01*
X175340000Y-114511536D01*
X174869956Y-114511536D01*
X174437876Y-114079456D01*
X174531190Y-114061897D01*
X174660865Y-113978454D01*
X174747859Y-113851134D01*
X174778464Y-113700000D01*
X174778464Y-112873691D01*
X175880000Y-112873691D01*
X175880000Y-113064250D01*
X176038750Y-113223000D01*
X177038000Y-113223000D01*
X177038000Y-112523750D01*
X177292000Y-112523750D01*
X177292000Y-113223000D01*
X178291250Y-113223000D01*
X178450000Y-113064250D01*
X178450000Y-112873691D01*
X178353327Y-112640302D01*
X178174699Y-112461673D01*
X177941310Y-112365000D01*
X177450750Y-112365000D01*
X177292000Y-112523750D01*
X177038000Y-112523750D01*
X176879250Y-112365000D01*
X176388690Y-112365000D01*
X176155301Y-112461673D01*
X175976673Y-112640302D01*
X175880000Y-112873691D01*
X174778464Y-112873691D01*
X174778464Y-112800000D01*
X174751897Y-112658810D01*
X174668454Y-112529135D01*
X174541134Y-112442141D01*
X174498000Y-112433406D01*
X174498000Y-107650562D01*
X174607195Y-107605444D01*
X174914366Y-107298809D01*
X175080810Y-106897965D01*
X175080811Y-106896061D01*
X175438811Y-106896061D01*
X175604556Y-107297195D01*
X175911191Y-107604366D01*
X176312035Y-107770810D01*
X176746061Y-107771189D01*
X177147195Y-107605444D01*
X177454366Y-107298809D01*
X177500378Y-107188000D01*
X178099438Y-107188000D01*
X178144556Y-107297195D01*
X178451191Y-107604366D01*
X178852035Y-107770810D01*
X179286061Y-107771189D01*
X179687195Y-107605444D01*
X179994366Y-107298809D01*
X180160810Y-106897965D01*
X180161189Y-106463939D01*
X179995444Y-106062805D01*
X179688809Y-105755634D01*
X179287965Y-105589190D01*
X178853939Y-105588811D01*
X178452805Y-105754556D01*
X178145634Y-106061191D01*
X178099622Y-106172000D01*
X177500562Y-106172000D01*
X177455444Y-106062805D01*
X177148809Y-105755634D01*
X176747965Y-105589190D01*
X176313939Y-105588811D01*
X175912805Y-105754556D01*
X175605634Y-106061191D01*
X175439190Y-106462035D01*
X175438811Y-106896061D01*
X175080811Y-106896061D01*
X175081189Y-106463939D01*
X174915444Y-106062805D01*
X174608809Y-105755634D01*
X174207965Y-105589190D01*
X173773939Y-105588811D01*
X173372805Y-105754556D01*
X173065634Y-106061191D01*
X172899190Y-106462035D01*
X172898811Y-106896061D01*
X173064556Y-107297195D01*
X173371191Y-107604366D01*
X173482000Y-107650378D01*
X173482000Y-112431858D01*
X173448810Y-112438103D01*
X173319135Y-112521546D01*
X173232141Y-112648866D01*
X173201536Y-112800000D01*
X173201536Y-113573001D01*
X172770881Y-113573001D01*
X172770919Y-113529184D01*
X172666732Y-113277033D01*
X172473982Y-113083946D01*
X172222013Y-112979319D01*
X171949184Y-112979081D01*
X171697033Y-113083268D01*
X171503946Y-113276018D01*
X171399319Y-113527987D01*
X171399081Y-113800816D01*
X145754206Y-113800816D01*
X145705444Y-113682805D01*
X145398809Y-113375634D01*
X144997965Y-113209190D01*
X144563939Y-113208811D01*
X144162805Y-113374556D01*
X143855634Y-113681191D01*
X143689190Y-114082035D01*
X143688811Y-114516061D01*
X143002000Y-114516061D01*
X143002000Y-111976061D01*
X143688811Y-111976061D01*
X143854556Y-112377195D01*
X144161191Y-112684366D01*
X144562035Y-112850810D01*
X144996061Y-112851189D01*
X145397195Y-112685444D01*
X145704366Y-112378809D01*
X145870810Y-111977965D01*
X145871189Y-111543939D01*
X145705444Y-111142805D01*
X145398809Y-110835634D01*
X144997965Y-110669190D01*
X144563939Y-110668811D01*
X144162805Y-110834556D01*
X143855634Y-111141191D01*
X143689190Y-111542035D01*
X143688811Y-111976061D01*
X143002000Y-111976061D01*
X143002000Y-109436061D01*
X143688811Y-109436061D01*
X143854556Y-109837195D01*
X144161191Y-110144366D01*
X144562035Y-110310810D01*
X144996061Y-110311189D01*
X145397195Y-110145444D01*
X145704366Y-109838809D01*
X145870810Y-109437965D01*
X145871189Y-109003939D01*
X145705444Y-108602805D01*
X145398809Y-108295634D01*
X144997965Y-108129190D01*
X144563939Y-108128811D01*
X144162805Y-108294556D01*
X143855634Y-108601191D01*
X143689190Y-109002035D01*
X143688811Y-109436061D01*
X143002000Y-109436061D01*
X143002000Y-106896061D01*
X143688811Y-106896061D01*
X143854556Y-107297195D01*
X144161191Y-107604366D01*
X144562035Y-107770810D01*
X144996061Y-107771189D01*
X145397195Y-107605444D01*
X145704366Y-107298809D01*
X145870810Y-106897965D01*
X145870811Y-106896061D01*
X155118811Y-106896061D01*
X155284556Y-107297195D01*
X155591191Y-107604366D01*
X155992035Y-107770810D01*
X156426061Y-107771189D01*
X156827195Y-107605444D01*
X157134366Y-107298809D01*
X157300810Y-106897965D01*
X157301189Y-106463939D01*
X157255370Y-106353050D01*
X161500420Y-102108000D01*
X162603580Y-102108000D01*
X159077081Y-105634499D01*
X158967965Y-105589190D01*
X158533939Y-105588811D01*
X158132805Y-105754556D01*
X157825634Y-106061191D01*
X157659190Y-106462035D01*
X157658811Y-106896061D01*
X157824556Y-107297195D01*
X158131191Y-107604366D01*
X158532035Y-107770810D01*
X158966061Y-107771189D01*
X159367195Y-107605444D01*
X159674366Y-107298809D01*
X159840810Y-106897965D01*
X159841189Y-106463939D01*
X159795370Y-106353050D01*
X163278420Y-102870000D01*
X164381580Y-102870000D01*
X161617081Y-105634499D01*
X161507965Y-105589190D01*
X161073939Y-105588811D01*
X160672805Y-105754556D01*
X160365634Y-106061191D01*
X160199190Y-106462035D01*
X160198811Y-106896061D01*
X160364556Y-107297195D01*
X160671191Y-107604366D01*
X161072035Y-107770810D01*
X161506061Y-107771189D01*
X161907195Y-107605444D01*
X162214366Y-107298809D01*
X162380810Y-106897965D01*
X162380811Y-106896061D01*
X162738811Y-106896061D01*
X162904556Y-107297195D01*
X163211191Y-107604366D01*
X163612035Y-107770810D01*
X164046061Y-107771189D01*
X164405855Y-107622525D01*
X165607081Y-107622525D01*
X165670150Y-107859327D01*
X166174732Y-108037377D01*
X166709041Y-108008779D01*
X167069850Y-107859327D01*
X167132919Y-107622525D01*
X166370000Y-106859605D01*
X165607081Y-107622525D01*
X164405855Y-107622525D01*
X164447195Y-107605444D01*
X164754366Y-107298809D01*
X164920810Y-106897965D01*
X164921170Y-106484732D01*
X165012623Y-106484732D01*
X165041221Y-107019041D01*
X165190673Y-107379850D01*
X165427475Y-107442919D01*
X166190395Y-106680000D01*
X166549605Y-106680000D01*
X167312525Y-107442919D01*
X167549327Y-107379850D01*
X167720039Y-106896061D01*
X167818811Y-106896061D01*
X167984556Y-107297195D01*
X168291191Y-107604366D01*
X168692035Y-107770810D01*
X169126061Y-107771189D01*
X169527195Y-107605444D01*
X169834366Y-107298809D01*
X170000810Y-106897965D01*
X170001189Y-106463939D01*
X169835444Y-106062805D01*
X169528809Y-105755634D01*
X169127965Y-105589190D01*
X168693939Y-105588811D01*
X168292805Y-105754556D01*
X167985634Y-106061191D01*
X167819190Y-106462035D01*
X167818811Y-106896061D01*
X167720039Y-106896061D01*
X167727377Y-106875268D01*
X167698779Y-106340959D01*
X167549327Y-105980150D01*
X167312525Y-105917081D01*
X166549605Y-106680000D01*
X166190395Y-106680000D01*
X165427475Y-105917081D01*
X165190673Y-105980150D01*
X165012623Y-106484732D01*
X164921170Y-106484732D01*
X164921189Y-106463939D01*
X164755444Y-106062805D01*
X164448809Y-105755634D01*
X164405078Y-105737475D01*
X165607081Y-105737475D01*
X166370000Y-106500395D01*
X167132919Y-105737475D01*
X167069850Y-105500673D01*
X166565268Y-105322623D01*
X166030959Y-105351221D01*
X165670150Y-105500673D01*
X165607081Y-105737475D01*
X164405078Y-105737475D01*
X164047965Y-105589190D01*
X163613939Y-105588811D01*
X163212805Y-105754556D01*
X162905634Y-106061191D01*
X162739190Y-106462035D01*
X162738811Y-106896061D01*
X162380811Y-106896061D01*
X162381189Y-106463939D01*
X162335370Y-106353050D01*
X165131421Y-103556999D01*
X188122329Y-103556999D01*
X188705330Y-104140000D01*
X182637909Y-104140000D01*
X182443506Y-104178669D01*
X182278699Y-104288790D01*
X181250790Y-105316699D01*
X181140669Y-105481506D01*
X181138887Y-105490467D01*
X179937210Y-104288790D01*
X179772403Y-104178669D01*
X179578000Y-104140000D01*
X173482000Y-104140000D01*
X173287597Y-104178669D01*
X173122790Y-104288790D01*
X171777081Y-105634499D01*
X171667965Y-105589190D01*
X171233939Y-105588811D01*
X170832805Y-105754556D01*
X170525634Y-106061191D01*
X170359190Y-106462035D01*
X170358811Y-106896061D01*
X170524556Y-107297195D01*
X170831191Y-107604366D01*
X171232035Y-107770810D01*
X171666061Y-107771189D01*
X172067195Y-107605444D01*
X172374366Y-107298809D01*
X172540810Y-106897965D01*
X172541189Y-106463939D01*
X172495370Y-106353050D01*
X173692420Y-105156000D01*
X179367580Y-105156000D01*
X180564499Y-106352919D01*
X180519190Y-106462035D01*
X180518811Y-106896061D01*
X180684556Y-107297195D01*
X180991191Y-107604366D01*
X181392035Y-107770810D01*
X181826061Y-107771189D01*
X182185855Y-107622525D01*
X183387081Y-107622525D01*
X183450150Y-107859327D01*
X183954732Y-108037377D01*
X184489041Y-108008779D01*
X184849850Y-107859327D01*
X184912919Y-107622525D01*
X184150000Y-106859605D01*
X183387081Y-107622525D01*
X182185855Y-107622525D01*
X182227195Y-107605444D01*
X182534366Y-107298809D01*
X182700810Y-106897965D01*
X182701170Y-106484732D01*
X182792623Y-106484732D01*
X182821221Y-107019041D01*
X182970673Y-107379850D01*
X183207475Y-107442919D01*
X183970395Y-106680000D01*
X184329605Y-106680000D01*
X185092525Y-107442919D01*
X185329327Y-107379850D01*
X185500039Y-106896061D01*
X185598811Y-106896061D01*
X185764556Y-107297195D01*
X186071191Y-107604366D01*
X186472035Y-107770810D01*
X186906061Y-107771189D01*
X187307195Y-107605444D01*
X187614366Y-107298809D01*
X187780810Y-106897965D01*
X187781189Y-106463939D01*
X187615444Y-106062805D01*
X187308809Y-105755634D01*
X186907965Y-105589190D01*
X186473939Y-105588811D01*
X186072805Y-105754556D01*
X185765634Y-106061191D01*
X185599190Y-106462035D01*
X185598811Y-106896061D01*
X185500039Y-106896061D01*
X185507377Y-106875268D01*
X185478779Y-106340959D01*
X185329327Y-105980150D01*
X185092525Y-105917081D01*
X184329605Y-106680000D01*
X183970395Y-106680000D01*
X183207475Y-105917081D01*
X182970673Y-105980150D01*
X182792623Y-106484732D01*
X182701170Y-106484732D01*
X182701189Y-106463939D01*
X182535444Y-106062805D01*
X182238743Y-105765586D01*
X182266854Y-105737475D01*
X183387081Y-105737475D01*
X184150000Y-106500395D01*
X184912919Y-105737475D01*
X184849850Y-105500673D01*
X184345268Y-105322623D01*
X183810959Y-105351221D01*
X183450150Y-105500673D01*
X183387081Y-105737475D01*
X182266854Y-105737475D01*
X182848329Y-105156000D01*
X189146580Y-105156000D01*
X189673363Y-105682783D01*
X189447965Y-105589190D01*
X189013939Y-105588811D01*
X188612805Y-105754556D01*
X188305634Y-106061191D01*
X188139190Y-106462035D01*
X188138811Y-106896061D01*
X188304556Y-107297195D01*
X188611191Y-107604366D01*
X189012035Y-107770810D01*
X189446061Y-107771189D01*
X189847195Y-107605444D01*
X189992000Y-107460892D01*
X189992000Y-114300000D01*
X190030669Y-114494403D01*
X190140790Y-114659210D01*
X191994499Y-116512919D01*
X191949190Y-116622035D01*
X191948811Y-117056061D01*
X192114556Y-117457195D01*
X192421191Y-117764366D01*
X192822035Y-117930810D01*
X193256061Y-117931189D01*
X193657195Y-117765444D01*
X193964366Y-117458809D01*
X194130810Y-117057965D01*
X194131189Y-116623939D01*
X193965444Y-116222805D01*
X193658809Y-115915634D01*
X193257965Y-115749190D01*
X192823939Y-115748811D01*
X192713050Y-115794630D01*
X191008000Y-114089580D01*
X191008000Y-110446420D01*
X191994499Y-111432919D01*
X191949190Y-111542035D01*
X191948811Y-111976061D01*
X192114556Y-112377195D01*
X192421191Y-112684366D01*
X192822035Y-112850810D01*
X193256061Y-112851189D01*
X193657195Y-112685444D01*
X193964366Y-112378809D01*
X194130810Y-111977965D01*
X194131189Y-111543939D01*
X193965444Y-111142805D01*
X193658809Y-110835634D01*
X193257965Y-110669190D01*
X192823939Y-110668811D01*
X192713050Y-110714630D01*
X191516000Y-109517580D01*
X191516000Y-108414420D01*
X191994499Y-108892919D01*
X191949190Y-109002035D01*
X191948811Y-109436061D01*
X192114556Y-109837195D01*
X192421191Y-110144366D01*
X192822035Y-110310810D01*
X193256061Y-110311189D01*
X193657195Y-110145444D01*
X193964366Y-109838809D01*
X194130810Y-109437965D01*
X194131189Y-109003939D01*
X193965444Y-108602805D01*
X193658809Y-108295634D01*
X193257965Y-108129190D01*
X192823939Y-108128811D01*
X192713050Y-108174629D01*
X192024000Y-107485580D01*
X192024000Y-107078032D01*
X192114556Y-107297195D01*
X192421191Y-107604366D01*
X192822035Y-107770810D01*
X193256061Y-107771189D01*
X193657195Y-107605444D01*
X193964366Y-107298809D01*
X194130810Y-106897965D01*
X194131189Y-106463939D01*
X193965444Y-106062805D01*
X193658809Y-105755634D01*
X193257965Y-105589190D01*
X192823939Y-105588811D01*
X192766970Y-105612350D01*
X192284569Y-105129949D01*
X192275682Y-105124011D01*
X191507732Y-104356061D01*
X191948811Y-104356061D01*
X192114556Y-104757195D01*
X192421191Y-105064366D01*
X192822035Y-105230810D01*
X193256061Y-105231189D01*
X193657195Y-105065444D01*
X193964366Y-104758809D01*
X194130810Y-104357965D01*
X194131189Y-103923939D01*
X193965444Y-103522805D01*
X193658809Y-103215634D01*
X193257965Y-103049190D01*
X192823939Y-103048811D01*
X192422805Y-103214556D01*
X192115634Y-103521191D01*
X191949190Y-103922035D01*
X191948811Y-104356061D01*
X191507732Y-104356061D01*
X188967732Y-101816061D01*
X191948811Y-101816061D01*
X192114556Y-102217195D01*
X192421191Y-102524366D01*
X192822035Y-102690810D01*
X193256061Y-102691189D01*
X193657195Y-102525444D01*
X193964366Y-102218809D01*
X194130810Y-101817965D01*
X194131189Y-101383939D01*
X193965444Y-100982805D01*
X193658809Y-100675634D01*
X193257965Y-100509190D01*
X192823939Y-100508811D01*
X192422805Y-100674556D01*
X192115634Y-100981191D01*
X191949190Y-101382035D01*
X191948811Y-101816061D01*
X188967732Y-101816061D01*
X188392460Y-101240790D01*
X188227653Y-101130669D01*
X188033250Y-101092000D01*
X161290000Y-101092000D01*
X161095597Y-101130669D01*
X160930790Y-101240790D01*
X156537081Y-105634499D01*
X156427965Y-105589190D01*
X155993939Y-105588811D01*
X155592805Y-105754556D01*
X155285634Y-106061191D01*
X155119190Y-106462035D01*
X155118811Y-106896061D01*
X145870811Y-106896061D01*
X145871189Y-106463939D01*
X145705444Y-106062805D01*
X145398809Y-105755634D01*
X144997965Y-105589190D01*
X144563939Y-105588811D01*
X144162805Y-105754556D01*
X143855634Y-106061191D01*
X143689190Y-106462035D01*
X143688811Y-106896061D01*
X143002000Y-106896061D01*
X143002000Y-104356061D01*
X143688811Y-104356061D01*
X143854556Y-104757195D01*
X144161191Y-105064366D01*
X144562035Y-105230810D01*
X144996061Y-105231189D01*
X145397195Y-105065444D01*
X145704366Y-104758809D01*
X145870810Y-104357965D01*
X145871189Y-103923939D01*
X145705444Y-103522805D01*
X145398809Y-103215634D01*
X144997965Y-103049190D01*
X144563939Y-103048811D01*
X144162805Y-103214556D01*
X143855634Y-103521191D01*
X143689190Y-103922035D01*
X143688811Y-104356061D01*
X143002000Y-104356061D01*
X143002000Y-101816061D01*
X143688811Y-101816061D01*
X143854556Y-102217195D01*
X144161191Y-102524366D01*
X144562035Y-102690810D01*
X144996061Y-102691189D01*
X145397195Y-102525444D01*
X145704366Y-102218809D01*
X145870810Y-101817965D01*
X145871189Y-101383939D01*
X145705444Y-100982805D01*
X145398809Y-100675634D01*
X144997965Y-100509190D01*
X144563939Y-100508811D01*
X144162805Y-100674556D01*
X143855634Y-100981191D01*
X143689190Y-101382035D01*
X143688811Y-101816061D01*
X143002000Y-101816061D01*
X143002000Y-99276061D01*
X143688811Y-99276061D01*
X143854556Y-99677195D01*
X144161191Y-99984366D01*
X144562035Y-100150810D01*
X144996061Y-100151189D01*
X145397195Y-99985444D01*
X145704366Y-99678809D01*
X145870810Y-99277965D01*
X145870811Y-99276061D01*
X191948811Y-99276061D01*
X192114556Y-99677195D01*
X192421191Y-99984366D01*
X192822035Y-100150810D01*
X193256061Y-100151189D01*
X193657195Y-99985444D01*
X193964366Y-99678809D01*
X194130810Y-99277965D01*
X194131189Y-98843939D01*
X193965444Y-98442805D01*
X193658809Y-98135634D01*
X193257965Y-97969190D01*
X192823939Y-97968811D01*
X192422805Y-98134556D01*
X192115634Y-98441191D01*
X191949190Y-98842035D01*
X191948811Y-99276061D01*
X145870811Y-99276061D01*
X145871189Y-98843939D01*
X145705444Y-98442805D01*
X145398809Y-98135634D01*
X144997965Y-97969190D01*
X144563939Y-97968811D01*
X144162805Y-98134556D01*
X143855634Y-98441191D01*
X143689190Y-98842035D01*
X143688811Y-99276061D01*
X143002000Y-99276061D01*
X143002000Y-97929510D01*
X143052636Y-97674949D01*
X143189747Y-97469747D01*
X143394949Y-97332636D01*
X143649510Y-97282000D01*
X194170490Y-97282000D01*
X194425051Y-97332636D01*
M02*
